<svg width="33" height="33" viewBox="0 0 33 33" fill="none" xmlns="http://www.w3.org/2000/svg">
<path id="Vector" d="M2 30.0277V5.24207C2 4.38222 2.33948 3.55759 2.94377 2.94958C3.54805 2.34157 4.36764 2 5.22222 2H27.7778C28.6324 2 29.4519 2.34157 30.0562 2.94958C30.6605 3.55759 31 4.38222 31 5.24207V21.4524C31 22.3123 30.6605 23.1369 30.0562 23.7449C29.4519 24.3529 28.6324 24.6945 27.7778 24.6945H9.99272C9.50977 24.6946 9.033 24.8039 8.59768 25.0143C8.16236 25.2248 7.77963 25.531 7.47778 25.9103L3.72228 30.634C3.5973 30.7916 3.42673 30.9062 3.23417 30.962C3.04162 31.0178 2.83658 31.012 2.64744 30.9454C2.4583 30.8789 2.2944 30.7548 2.17841 30.5904C2.06242 30.426 2.00007 30.2294 2 30.0277Z" stroke="#D56A8E" stroke-width="4"/>
</svg>
