<svg width="1043" height="211" viewBox="0 0 1043 211" fill="none" xmlns="http://www.w3.org/2000/svg">
<path opacity="0.7" d="M0.550001 37.39C0.550001 32.35 2.35 28.12 5.95 24.7C9.73 21.28 14.05 19.57 18.91 19.57C24.13 19.57 28.45 21.28 31.87 24.7C35.47 28.12 37.27 32.35 37.27 37.39C37.27 42.25 35.47 46.48 31.87 50.08C28.45 53.5 24.13 55.21 18.91 55.21C14.05 55.21 9.73 53.5 5.95 50.08C2.35 46.48 0.550001 42.25 0.550001 37.39ZM4.6 86.8H33.22V211H4.6V86.8ZM153.269 135.4C153.269 126.22 151.379 119.29 147.599 114.61C143.819 109.93 137.969 107.59 130.049 107.59C124.649 107.59 119.879 108.76 115.739 111.1C111.599 113.26 108.359 116.5 106.019 120.82C103.679 124.96 102.509 129.82 102.509 135.4V211H73.3488V86.8H102.509V105.97C106.469 98.59 111.509 93.1 117.629 89.5C123.929 85.9 131.399 84.1 140.039 84.1C154.079 84.1 164.789 88.42 172.169 97.06C179.549 105.52 183.239 117.22 183.239 132.16V211H153.269V135.4ZM245.858 116.5C245.858 130 248.738 141.88 254.498 152.14C260.258 162.4 268.088 170.5 277.988 176.44C288.068 182.2 299.318 185.08 311.738 185.08C324.338 185.08 335.498 182.29 345.218 176.71C354.938 170.95 362.588 163.03 368.168 152.95C373.748 142.87 376.538 131.35 376.538 118.39C376.538 105.43 373.748 93.73 368.168 83.29C362.588 72.85 354.848 64.57 344.948 58.45C335.228 52.33 323.708 49.27 310.388 49.27C297.968 49.27 286.898 52.15 277.178 57.91C267.458 63.67 259.808 71.68 254.228 81.94C248.648 92.02 245.858 103.54 245.858 116.5ZM212.108 116.5C212.108 102.28 214.538 89.23 219.398 77.35C224.438 65.47 231.368 55.21 240.188 46.57C249.188 37.75 259.628 30.91 271.508 26.05C283.568 21.19 296.528 18.76 310.388 18.76C324.608 18.76 337.658 21.19 349.538 26.05C361.418 30.91 371.768 37.75 380.588 46.57C389.408 55.21 396.248 65.47 401.108 77.35C405.968 89.23 408.398 102.28 408.398 116.5C408.398 130.54 405.968 143.59 401.108 155.65C396.248 167.71 389.408 178.15 380.588 186.97C371.948 195.79 361.688 202.72 349.808 207.76C337.928 212.62 324.788 215.05 310.388 215.05C296.348 215.05 283.298 212.62 271.238 207.76C259.178 202.72 248.738 195.79 239.918 186.97C231.098 178.15 224.258 167.71 219.398 155.65C214.538 143.59 212.108 130.54 212.108 116.5ZM301.748 130H338.468L423.518 212.35H385.988L301.748 130ZM470.048 0.399992V211H440.618V0.399992H470.048ZM572.918 148.9C572.918 162.4 570.128 174.01 564.548 183.73C558.968 193.45 551.588 200.92 542.408 206.14C533.228 211.18 523.238 213.7 512.438 213.7C502.178 213.7 492.998 211.09 484.898 205.87C476.978 200.65 470.768 193.18 466.268 183.46C461.768 173.74 459.518 162.22 459.518 148.9C459.518 135.4 461.768 123.88 466.268 114.34C470.768 104.62 476.978 97.15 484.898 91.93C492.998 86.71 502.178 84.1 512.438 84.1C523.238 84.1 533.228 86.71 542.408 91.93C551.588 96.97 558.968 104.35 564.548 114.07C570.128 123.61 572.918 135.22 572.918 148.9ZM542.678 148.9C542.678 140.62 540.968 133.51 537.548 127.57C534.128 121.63 529.538 117.13 523.778 114.07C518.198 111.01 511.988 109.48 505.148 109.48C499.568 109.48 494.078 111.01 488.678 114.07C483.278 117.13 478.778 121.63 475.178 127.57C471.758 133.33 470.048 140.44 470.048 148.9C470.048 157.36 471.758 164.56 475.178 170.5C478.778 176.26 483.278 180.67 488.678 183.73C494.078 186.79 499.568 188.32 505.148 188.32C511.988 188.32 518.198 186.79 523.778 183.73C529.538 180.67 534.128 176.17 537.548 170.23C540.968 164.29 542.678 157.18 542.678 148.9ZM619.053 172.39C619.053 176.53 620.043 180.13 622.023 183.19C624.003 186.07 626.703 188.23 630.123 189.67C633.723 191.11 637.773 191.83 642.273 191.83C648.033 191.83 653.253 190.66 657.933 188.32C662.793 185.98 666.663 182.56 669.543 178.06C672.603 173.38 674.133 167.98 674.133 161.86L678.453 178.06C678.453 185.98 676.113 192.64 671.433 198.04C666.933 203.26 661.173 207.22 654.153 209.92C647.313 212.44 640.293 213.7 633.093 213.7C625.353 213.7 618.153 212.17 611.493 209.11C604.833 206.05 599.523 201.55 595.563 195.61C591.603 189.67 589.623 182.47 589.623 174.01C589.623 161.95 593.853 152.41 602.313 145.39C610.773 138.19 622.743 134.59 638.223 134.59C646.503 134.59 653.613 135.49 659.553 137.29C665.673 139.09 670.713 141.25 674.673 143.77C678.633 146.11 681.423 148.27 683.043 150.25V165.1C677.463 161.14 671.523 158.26 665.223 156.46C658.923 154.66 652.263 153.76 645.243 153.76C639.123 153.76 634.173 154.57 630.393 156.19C626.613 157.63 623.733 159.7 621.752 162.4C619.953 165.1 619.053 168.43 619.053 172.39ZM609.873 119.2L597.993 98.68C603.573 95.26 610.773 91.93 619.593 88.69C628.593 85.45 638.853 83.83 650.373 83.83C660.633 83.83 669.633 85.36 677.373 88.42C685.293 91.48 691.503 95.89 696.003 101.65C700.503 107.23 702.753 114.16 702.753 122.44V211H674.133V128.11C674.133 124.15 673.413 120.91 671.973 118.39C670.713 115.87 668.913 113.8 666.573 112.18C664.233 110.56 661.443 109.39 658.203 108.67C654.963 107.95 651.453 107.59 647.673 107.59C641.913 107.59 636.423 108.31 631.203 109.75C626.163 111.01 621.753 112.63 617.973 114.61C614.373 116.41 611.673 117.94 609.873 119.2ZM719.467 86.8H789.937V112.45H719.467V86.8ZM740.257 43.6H769.147V211H740.257V43.6ZM800.598 148.9C800.598 136.12 803.478 124.87 809.238 115.15C815.178 105.43 823.188 97.87 833.268 92.47C843.348 86.89 854.778 84.1 867.558 84.1C880.338 84.1 891.678 86.89 901.578 92.47C911.658 97.87 919.668 105.43 925.608 115.15C931.548 124.87 934.518 136.12 934.518 148.9C934.518 161.5 931.548 172.75 925.608 182.65C919.668 192.37 911.658 200.02 901.578 205.6C891.678 211 880.338 213.7 867.558 213.7C854.778 213.7 843.348 211 833.268 205.6C823.188 200.02 815.178 192.37 809.238 182.65C803.478 172.75 800.598 161.5 800.598 148.9ZM830.568 148.9C830.568 156.64 832.188 163.48 835.428 169.42C838.668 175.18 843.078 179.77 848.658 183.19C854.238 186.43 860.538 188.05 867.558 188.05C874.398 188.05 880.608 186.43 886.188 183.19C891.948 179.77 896.448 175.18 899.688 169.42C902.928 163.48 904.548 156.64 904.548 148.9C904.548 141.16 902.928 134.32 899.688 128.38C896.448 122.44 891.948 117.85 886.188 114.61C880.608 111.37 874.398 109.75 867.558 109.75C860.538 109.75 854.238 111.37 848.658 114.61C843.078 117.85 838.668 122.44 835.428 128.38C832.188 134.32 830.568 141.16 830.568 148.9ZM991.077 86.8V211H962.187V86.8H991.077ZM1028.07 117.85C1025.37 115.69 1022.85 114.07 1020.51 112.99C1018.17 111.91 1015.2 111.37 1011.6 111.37C1006.74 111.37 1002.78 112.63 999.717 115.15C996.657 117.67 994.407 121.18 992.967 125.68C991.707 130 991.077 135.13 991.077 141.07L981.357 135.4C981.357 125.5 983.157 116.77 986.757 109.21C990.537 101.47 995.307 95.35 1001.07 90.85C1007.01 86.35 1013.13 84.1 1019.43 84.1C1023.93 84.1 1028.16 84.82 1032.12 86.26C1036.08 87.52 1039.41 89.86 1042.11 93.28L1028.07 117.85Z" fill="#373737"/>
</svg>
