<svg width="68" height="64" viewBox="0 0 68 64" fill="none" xmlns="http://www.w3.org/2000/svg">
<path d="M23.1661 32.3783L18.4258 30.7796C17.7527 30.5706 17.2526 30.1194 16.9255 29.4261C16.5972 28.733 16.573 28.113 16.853 27.5663L20.3808 20.6772C20.6422 20.1669 21.0197 19.7832 21.5136 19.5262C22.0075 19.2691 22.5696 19.1781 23.1999 19.2532L25.6678 19.5759C24.7856 21.8428 24.158 23.8857 23.785 25.7045C23.4104 27.5221 23.2041 29.7467 23.1661 32.3783ZM42.8097 10.1791C43.0446 10.1555 43.4844 10.1348 43.4844 10.1348C43.4844 10.1348 44.0758 10.1949 44.4428 10.3473C44.9351 10.5517 45.1915 10.7772 45.5924 11.1581C46.3719 11.8985 46.8471 13.2262 46.9328 13.4942C48.2725 16.7569 48.4756 17.9113 48.2692 21.3897C48.0617 24.8681 46.7305 28.6476 44.811 31.9286C43.5899 34.016 42.2202 35.1762 41.0993 36.4118C39.9788 37.6487 38.5752 38.8531 36.8883 40.0252C36.5599 40.2311 36.1978 40.3538 35.8018 40.3936C35.4047 40.4335 35.0057 40.3006 34.6049 39.9951L26.8489 34.5237C26.4481 34.2181 26.322 33.9227 26.1772 33.4698C26.0329 33.0182 26.0582 32.2263 26.0659 31.776C26.2003 29.4459 26.4746 27.3867 26.8888 25.5983C27.3023 23.8113 28.0131 21.9337 29.021 19.9654C30.4956 17.0858 32.4686 14.7696 34.94 13.0168C37.4118 11.2652 40.035 10.3194 42.8097 10.1791ZM37.7162 43.4689C39.6381 42.2732 41.1942 41.0714 42.3845 39.8635C43.5745 38.6542 44.8109 37.0688 46.094 35.1075L47.3699 37.6764C47.7015 38.3346 47.8838 38.9995 47.9165 39.6712C47.9489 40.3415 47.8344 40.9318 47.5731 41.4421L44.0453 48.3312C43.7653 48.8779 43.2955 49.1153 42.6358 49.0432C41.9761 48.9711 41.4216 48.6118 40.9725 47.9654L37.7162 43.4689Z" fill="url(#paint0_linear_1158_2135)"/>
<path d="M20.7357 41.6176C21.3379 39.9355 22.4167 39.0953 23.759 38.6517C25.4394 38.0964 27.9148 39.1862 29.3177 40.2555C30.7206 41.3249 31.8316 42.6685 32.367 44.3436C32.9025 46.0187 32.8975 47.0926 32.0587 48.5266C31.592 49.4378 30.2134 50.6239 28.6883 51.3993C27.1621 52.1749 24.6728 52.6744 21.7972 53.4472C21.1054 49.9553 20.395 48.4069 20.3027 46.4107C20.2103 44.4145 20.4117 42.5226 20.7357 41.6176Z" fill="url(#paint1_linear_1158_2135)"/>
<defs>
<linearGradient id="paint0_linear_1158_2135" x1="31.0647" y1="11.5127" x2="35.1386" y2="52.0942" gradientUnits="userSpaceOnUse">
<stop stop-color="#6956DE"/>
<stop offset="1" stop-color="#ED6F7E"/>
</linearGradient>
<linearGradient id="paint1_linear_1158_2135" x1="30.2325" y1="11.7823" x2="34.3064" y2="52.3638" gradientUnits="userSpaceOnUse">
<stop stop-color="#6956DE"/>
<stop offset="1" stop-color="#ED6F7E"/>
</linearGradient>
</defs>
</svg>
