<svg width="234" height="50" viewBox="0 0 234 50" fill="none" xmlns="http://www.w3.org/2000/svg">
<g clip-path="url(#clip0_557_1398)">
<rect width="1440" height="2695" transform="translate(-1129 -57)" fill="black"/>
<path d="M16.5391 15.978L16.3828 39.1207L12.4044 39.0939L12.5608 15.9511L16.5391 15.978ZM12.3028 9.81049C12.3072 9.16883 12.5033 8.62828 12.8913 8.18884C13.2936 7.7495 13.8797 7.53244 14.6497 7.53764C15.4054 7.54275 15.9814 7.76767 16.3777 8.2124C16.7882 8.65723 16.9913 9.20048 16.987 9.84214C16.9829 10.4553 16.7725 10.9815 16.356 11.4207C15.9539 11.8458 15.3749 12.0558 14.6192 12.0507C13.8492 12.0455 13.266 11.8276 12.8696 11.3972C12.4876 10.9525 12.2987 10.4236 12.3028 9.81049ZM26.8152 20.9885L26.6922 39.1904L22.7352 39.1637L22.8916 16.0209L26.6347 16.0462L26.8152 20.9885ZM25.8352 26.7357L24.1887 26.6604C24.2136 25.0778 24.4588 23.6178 24.9241 22.2805C25.3896 20.9289 26.0392 19.7569 26.873 18.7643C27.7068 17.7718 28.6959 17.0084 29.8403 16.4743C30.999 15.926 32.2771 15.6565 33.6745 15.666C34.8152 15.6737 35.8408 15.8375 36.7513 16.1574C37.6619 16.463 38.4357 16.953 39.0729 17.6276C39.7243 18.3022 40.2175 19.1754 40.5525 20.2471C40.8875 21.3046 41.0499 22.5962 41.0396 24.122L40.9372 39.2867L36.9588 39.2598L37.0616 24.0523C37.0698 22.8403 36.8981 21.8694 36.5465 21.1398C36.1951 20.3959 35.6782 19.8577 34.996 19.5251C34.3138 19.1782 33.4737 19.0014 32.4756 18.9947C31.4917 18.9881 30.5919 19.1887 29.7764 19.5968C28.9751 20.0049 28.2796 20.5706 27.6901 21.2939C27.1148 22.0172 26.66 22.8484 26.3257 23.7872C26.0057 24.712 25.8422 25.6948 25.8352 26.7357ZM75.5417 6.66571L79.5201 6.69259L79.3284 35.0542L78.9558 39.5436L75.3197 39.519L75.5417 6.66571ZM95.0128 27.8876L95.0098 28.3368C94.9984 30.0194 94.7882 31.5794 94.3792 33.0169C93.9703 34.4401 93.3773 35.6768 92.6002 36.7267C91.8231 37.7767 90.8764 38.5903 89.7602 39.1674C88.6441 39.7445 87.3659 40.0282 85.9257 40.0184C84.457 40.0085 83.1682 39.7503 82.0594 39.2437C80.9649 38.7229 80.043 37.9823 79.2937 37.0218C78.5444 36.0614 77.9462 34.9023 77.4991 33.5446C77.0662 32.1869 76.7699 30.6591 76.6103 28.9611L76.6236 26.9934C76.8063 25.2834 77.1232 23.7526 77.5744 22.401C78.0398 21.0494 78.6537 19.8985 79.4159 18.9483C80.1781 17.9837 81.11 17.2556 82.2113 16.764C83.3127 16.2581 84.5907 16.01 86.0451 16.0199C87.4995 16.0297 88.7881 16.3236 89.9107 16.9016C91.0334 17.4653 91.9691 18.2702 92.7178 19.3162C93.4808 20.3623 94.057 21.614 94.4464 23.0711C94.836 24.514 95.0247 26.1195 95.0128 27.8876ZM91.0314 28.3099L91.0345 27.8608C91.0423 26.7058 90.9427 25.6213 90.7356 24.6075C90.5287 23.5794 90.1925 22.6787 89.7272 21.9056C89.2619 21.1181 88.6458 20.5008 87.8788 20.0535C87.1118 19.592 86.1651 19.3575 85.0387 19.3499C84.0405 19.3431 83.1695 19.5084 82.4258 19.8456C81.6962 20.1829 81.0728 20.6421 80.5555 21.2233C80.0383 21.7902 79.6133 22.4433 79.2803 23.1825C78.9617 23.9076 78.7213 24.6618 78.5591 25.445L78.5243 30.5997C78.7457 31.5994 79.1099 32.5644 79.617 33.4947C80.1384 34.4109 80.8321 35.1642 81.698 35.7547C82.5781 36.3453 83.6669 36.645 84.9645 36.6537C86.034 36.661 86.948 36.4533 87.7066 36.0306C88.4796 35.5937 89.104 34.9919 89.5797 34.2251C90.0698 33.4584 90.4323 32.5696 90.6673 31.5587C90.9022 30.5479 91.0236 29.4649 91.0314 28.3099ZM113.611 35.8206L113.692 23.907C113.698 22.9944 113.518 22.2018 113.152 21.5291C112.8 20.8422 112.261 20.311 111.537 19.9353C110.812 19.5597 109.915 19.3682 108.845 19.361C107.847 19.3543 106.969 19.5195 106.211 19.8566C105.467 20.1938 104.88 20.639 104.448 21.1922C104.031 21.7455 103.82 22.343 103.816 22.9847L99.8588 22.958C99.8644 22.1309 100.084 21.3125 100.517 20.5026C100.95 19.6927 101.568 18.9625 102.371 18.3119C103.189 17.6473 104.162 17.1262 105.291 16.7488C106.434 16.3573 107.705 16.1662 109.102 16.1757C110.785 16.187 112.266 16.4822 113.545 17.0613C114.839 17.6404 115.846 18.5099 116.565 19.6699C117.299 20.8156 117.66 22.2512 117.648 23.9765L117.575 34.7565C117.57 35.5265 117.629 36.3468 117.751 37.2175C117.888 38.0883 118.09 38.8383 118.356 39.4676L118.354 39.8098L114.226 39.7819C114.03 39.3242 113.877 38.7172 113.768 37.9606C113.659 37.1899 113.607 36.4765 113.611 35.8206ZM114.364 25.7511L114.388 28.5319L110.388 28.5049C109.261 28.4973 108.256 28.5832 107.37 28.7626C106.485 28.9277 105.742 29.1865 105.14 29.5389C104.539 29.8914 104.08 30.3374 103.762 30.8772C103.445 31.4026 103.284 32.0219 103.279 32.7348C103.274 33.462 103.434 34.1262 103.758 34.7273C104.082 35.3284 104.57 35.8094 105.224 36.1703C105.892 36.5171 106.711 36.6937 107.68 36.7003C108.892 36.7085 109.963 36.459 110.894 35.952C111.824 35.4449 112.563 34.8225 113.11 34.0846C113.671 33.3469 113.975 32.6288 114.022 31.9304L115.699 33.8455C115.595 34.4437 115.32 35.1049 114.873 35.8291C114.426 36.5534 113.83 37.2481 113.084 37.9132C112.352 38.5643 111.478 39.1074 110.463 39.5426C109.462 39.9636 108.334 40.1699 107.079 40.1614C105.511 40.1508 104.137 39.8349 102.957 39.2138C101.792 38.5927 100.885 37.7666 100.236 36.7356C99.6017 35.6903 99.2887 34.526 99.2974 33.2427C99.3057 32.0021 99.5555 30.9129 100.047 29.9751C100.538 29.023 101.242 28.2363 102.159 27.6151C103.076 26.9796 104.177 26.5022 105.463 26.1829C106.748 25.8636 108.182 25.7093 109.765 25.72L114.364 25.7511ZM133.611 16.7691L133.59 19.8063L121.078 19.7217L121.099 16.6845L133.611 16.7691ZM125.372 11.0879L129.328 11.1146L129.173 34.1504C129.168 34.9347 129.285 35.5272 129.524 35.9281C129.764 36.329 130.076 36.5949 130.46 36.7259C130.844 36.8568 131.257 36.9238 131.699 36.9268C132.027 36.929 132.37 36.9028 132.727 36.8481C133.098 36.7794 133.376 36.7242 133.562 36.6827L133.562 39.9125C133.247 40.0102 132.833 40.1001 132.319 40.1822C131.819 40.2786 131.213 40.3245 130.5 40.3196C129.53 40.3131 128.641 40.1146 127.83 39.7241C127.02 39.3336 126.376 38.6875 125.897 37.7859C125.433 36.8702 125.206 35.6423 125.216 34.1023L125.372 11.0879ZM136.697 28.6185L136.7 28.1266C136.711 26.4582 136.964 24.9127 137.459 23.4901C137.953 22.0532 138.66 20.8102 139.58 19.7612C140.5 18.6979 141.61 17.8784 142.912 17.3025C144.214 16.7124 145.67 16.4228 147.281 16.4336C148.907 16.4446 150.366 16.754 151.66 17.3616C152.968 17.9551 154.075 18.7897 154.98 19.8653C155.9 20.9267 156.597 22.1792 157.072 23.6226C157.547 25.0518 157.779 26.6006 157.768 28.2689L157.765 28.7609C157.753 30.4292 157.501 31.9747 157.006 33.3973C156.512 34.82 155.797 36.0629 154.863 37.1261C153.944 38.1751 152.833 38.9946 151.531 39.5848C150.244 40.1607 148.788 40.4432 147.162 40.4322C145.536 40.4212 144.077 40.1191 142.783 39.5257C141.49 38.918 140.383 38.0834 139.463 37.022C138.558 35.9464 137.868 34.694 137.392 33.2648C136.917 31.8356 136.685 30.2868 136.697 28.6185ZM140.657 28.1533L140.654 28.6452C140.646 29.8002 140.774 30.892 141.038 31.9205C141.302 32.9347 141.702 33.8358 142.239 34.6237C142.79 35.4117 143.477 36.0367 144.301 36.4986C145.125 36.9462 146.086 37.1737 147.184 37.1811C148.268 37.1884 149.217 36.9738 150.033 36.5373C150.863 36.0866 151.552 35.4709 152.099 34.6903C152.646 33.9097 153.059 33.0142 153.336 32.0036C153.629 30.9788 153.779 29.889 153.786 28.734L153.79 28.242C153.797 27.1013 153.662 26.0238 153.384 25.0094C153.12 23.9809 152.712 23.0727 152.162 22.2847C151.625 21.4825 150.945 20.8504 150.121 20.3886C149.311 19.9268 148.357 19.6922 147.259 19.6848C146.176 19.6774 145.219 19.8991 144.389 20.3498C143.573 20.8006 142.884 21.4234 142.323 22.2182C141.775 22.9988 141.363 23.9015 141.085 24.9263C140.807 25.9369 140.665 27.0126 140.657 28.1533ZM166.739 20.6292L166.607 40.1358L162.65 40.1091L162.807 16.9664L166.657 16.9924L166.739 20.6292ZM173.994 16.9136L173.948 20.5923C173.62 20.5188 173.307 20.4739 173.008 20.4577C172.723 20.4272 172.395 20.4107 172.024 20.4082C171.111 20.4021 170.305 20.5392 169.604 20.8197C168.903 21.1001 168.309 21.4954 167.821 22.0055C167.332 22.5155 166.943 23.1261 166.653 23.8371C166.378 24.534 166.194 25.3028 166.103 26.1435L164.986 26.7776C164.996 25.3802 165.14 24.0693 165.419 22.8448C165.713 21.6205 166.155 20.5397 166.746 19.6025C167.337 18.6511 168.084 17.9146 168.986 17.3931C169.902 16.8574 170.987 16.5938 172.242 16.6023C172.527 16.6042 172.855 16.6421 173.225 16.7159C173.596 16.7754 173.852 16.8413 173.994 16.9136Z" fill="white"/>
<path d="M58.3463 6.53308C62.0259 6.55795 64.7301 7.49615 66.4589 9.3477C68.1876 11.1993 69.0406 13.817 69.0177 17.2009L68.9348 29.4716C68.9064 33.6768 67.326 36.6066 64.1936 38.261L69.8508 39.7777L69.9231 43.6715L68.9868 43.6652L59.3525 39.9532C59.1224 39.9845 58.728 39.9983 58.1695 39.9945C50.9746 39.9459 47.4011 36.3898 47.4488 29.3264L47.5317 17.0557C47.5546 13.6718 48.4428 11.0658 50.1965 9.23782C51.9501 7.4098 54.6668 6.50822 58.3463 6.53308ZM58.3213 10.2291C56.153 10.2144 54.5067 10.7454 53.3824 11.822C52.2909 12.8988 51.738 14.4886 51.7238 16.5912L51.6346 29.7982C51.6204 31.9008 52.168 33.5144 53.2775 34.639C54.3872 35.7307 56.0262 36.2838 58.1945 36.2985C62.5311 36.3278 64.7142 34.1577 64.7437 29.7882L64.832 16.729C64.8462 14.6264 64.2984 13.0293 63.1887 11.9376C62.1121 10.8132 60.4897 10.2437 58.3213 10.2291Z" fill="url(#paint0_linear_557_1398)"/>
<path d="M199.17 23.3783L194.43 21.7796C193.757 21.5706 193.256 21.1194 192.929 20.4261C192.601 19.733 192.577 19.113 192.857 18.5663L196.385 11.6772C196.646 11.1669 197.024 10.7832 197.518 10.5262C198.011 10.2691 198.573 10.1781 199.204 10.2532L201.672 10.5759C200.789 12.8428 200.162 14.8857 199.789 16.7045C199.414 18.5221 199.208 20.7467 199.17 23.3783ZM218.814 1.17911C219.049 1.15552 219.488 1.13477 219.488 1.13477C219.488 1.13477 220.08 1.19495 220.447 1.34731C220.939 1.55173 221.195 1.77722 221.596 2.15809C222.376 2.8985 222.851 4.22618 222.937 4.49419C224.276 7.75686 224.479 8.91131 224.273 12.3897C224.066 15.8681 222.734 19.6476 220.815 22.9286C219.594 25.016 218.224 26.1762 217.103 27.4118C215.983 28.6487 214.579 29.8531 212.892 31.0252C212.564 31.2311 212.202 31.3538 211.806 31.3936C211.409 31.4335 211.01 31.3006 210.609 30.9951L202.853 25.5237C202.452 25.2181 202.326 24.9227 202.181 24.4698C202.037 24.0182 202.062 23.2263 202.07 22.776C202.204 20.4459 202.478 18.3867 202.893 16.5983C203.306 14.8113 204.017 12.9337 205.025 10.9654C206.499 8.08584 208.472 5.76962 210.944 4.01676C213.416 2.26523 216.039 1.31935 218.814 1.17911ZM213.72 34.4689C215.642 33.2732 217.198 32.0714 218.388 30.8635C219.578 29.6542 220.815 28.0688 222.098 26.1075L223.374 28.6764C223.705 29.3346 223.888 29.9995 223.92 30.6712C223.953 31.3415 223.838 31.9318 223.577 32.4421L220.049 39.3312C219.769 39.8779 219.299 40.1153 218.64 40.0432C217.98 39.9711 217.426 39.6118 216.976 38.9654L213.72 34.4689Z" fill="url(#paint1_linear_557_1398)"/>
<path d="M196.739 32.6171C197.341 30.9351 198.42 30.0948 199.762 29.6513C201.442 29.096 203.918 30.1857 205.321 31.2551C206.723 32.3244 207.835 33.6681 208.37 35.3431C208.905 37.0182 208.9 38.0922 208.062 39.5261C207.595 40.4373 206.216 41.6234 204.691 42.3988C203.165 43.1744 200.676 43.6739 197.8 44.4467C197.108 40.9548 196.398 39.4064 196.306 37.4102C196.213 35.414 196.415 33.5221 196.739 32.6171Z" fill="url(#paint2_linear_557_1398)"/>
</g>
<defs>
<linearGradient id="paint0_linear_557_1398" x1="93.5381" y1="-2.35887" x2="93.1866" y2="49.6588" gradientUnits="userSpaceOnUse">
<stop stop-color="#6F58DB"/>
<stop offset="1" stop-color="#E56E84"/>
</linearGradient>
<linearGradient id="paint1_linear_557_1398" x1="207.069" y1="2.51268" x2="211.143" y2="43.0942" gradientUnits="userSpaceOnUse">
<stop stop-color="#6956DE"/>
<stop offset="1" stop-color="#ED6F7E"/>
</linearGradient>
<linearGradient id="paint2_linear_557_1398" x1="206.235" y1="2.78177" x2="210.309" y2="43.3633" gradientUnits="userSpaceOnUse">
<stop stop-color="#6956DE"/>
<stop offset="1" stop-color="#ED6F7E"/>
</linearGradient>
<clipPath id="clip0_557_1398">
<rect width="1440" height="2695" fill="white" transform="translate(-1129 -57)"/>
</clipPath>
</defs>
</svg>
