<svg width="244" height="69" viewBox="0 0 244 69" fill="none" xmlns="http://www.w3.org/2000/svg">
<rect width="244" height="69" fill="#1E1E1E"/>
<g clip-path="url(#clip0_497_1292)">
<rect width="1440" height="2869" transform="translate(-65 -31)" fill="black"/>
<g filter="url(#filter0_d_497_1292)">
<path d="M77.8486 25.1689V50H73.5801V25.1689H77.8486ZM73.2588 18.5825C73.2588 17.894 73.4653 17.3127 73.8784 16.8384C74.3068 16.3641 74.9341 16.127 75.7603 16.127C76.5711 16.127 77.1908 16.3641 77.6191 16.8384C78.0628 17.3127 78.2847 17.894 78.2847 18.5825C78.2847 19.2404 78.0628 19.8065 77.6191 20.2808C77.1908 20.7397 76.5711 20.9692 75.7603 20.9692C74.9341 20.9692 74.3068 20.7397 73.8784 20.2808C73.4653 19.8065 73.2588 19.2404 73.2588 18.5825ZM88.9102 30.4702V50H84.6646V25.1689H88.6807L88.9102 30.4702ZM87.9004 36.6436L86.1333 36.5747C86.1486 34.8765 86.401 33.3083 86.8906 31.8701C87.3802 30.4167 88.0687 29.1545 88.9561 28.0835C89.8434 27.0125 90.8991 26.1864 92.123 25.605C93.3623 25.0083 94.7316 24.71 96.231 24.71C97.4549 24.71 98.5565 24.8783 99.5356 25.2148C100.515 25.5361 101.349 26.0563 102.037 26.7754C102.741 27.4945 103.276 28.4277 103.644 29.5752C104.011 30.7074 104.194 32.092 104.194 33.729V50H99.9258V33.6831C99.9258 32.3826 99.7345 31.3423 99.3521 30.562C98.9696 29.7664 98.4111 29.1927 97.6768 28.8408C96.9424 28.4736 96.0397 28.29 94.9688 28.29C93.9131 28.29 92.9492 28.5119 92.0771 28.9556C91.2204 29.3993 90.4784 30.0112 89.8511 30.7915C89.2391 31.5718 88.7572 32.4668 88.4053 33.4766C88.0687 34.471 87.9004 35.5267 87.9004 36.6436ZM137.7 14.75H141.969V45.1807L141.602 50H137.7V14.75ZM158.745 37.3779V37.8599C158.745 39.6652 158.53 41.3405 158.102 42.8857C157.674 44.4157 157.046 45.7467 156.22 46.8789C155.394 48.0111 154.384 48.8908 153.191 49.5181C151.998 50.1453 150.628 50.459 149.083 50.459C147.507 50.459 146.123 50.1912 144.929 49.6558C143.751 49.105 142.757 48.3171 141.946 47.292C141.135 46.2669 140.485 45.0277 139.995 43.5742C139.521 42.1208 139.192 40.4837 139.008 38.6631V36.5518C139.192 34.7158 139.521 33.0711 139.995 31.6177C140.485 30.1642 141.135 28.925 141.946 27.8999C142.757 26.8595 143.751 26.0716 144.929 25.5361C146.107 24.9854 147.477 24.71 149.037 24.71C150.598 24.71 151.982 25.016 153.191 25.6279C154.4 26.2246 155.409 27.0814 156.22 28.1982C157.046 29.3151 157.674 30.6538 158.102 32.2144C158.53 33.7596 158.745 35.4808 158.745 37.3779ZM154.476 37.8599V37.3779C154.476 36.1387 154.361 34.9759 154.132 33.8896C153.902 32.7881 153.535 31.8242 153.03 30.998C152.525 30.1566 151.86 29.4987 151.034 29.0244C150.208 28.5348 149.19 28.29 147.981 28.29C146.91 28.29 145.977 28.4736 145.182 28.8408C144.401 29.208 143.736 29.7052 143.185 30.3325C142.634 30.9445 142.183 31.6483 141.831 32.4438C141.494 33.2241 141.242 34.035 141.074 34.8765V40.4072C141.319 41.4782 141.716 42.5109 142.267 43.5054C142.833 44.4845 143.583 45.2878 144.516 45.915C145.465 46.5423 146.635 46.856 148.027 46.856C149.175 46.856 150.154 46.6265 150.965 46.1675C151.791 45.6932 152.457 45.043 152.961 44.2168C153.482 43.3906 153.864 42.4344 154.109 41.3481C154.354 40.2619 154.476 39.0991 154.476 37.8599ZM178.756 45.7544V32.9717C178.756 31.9925 178.557 31.1434 178.16 30.4243C177.777 29.6899 177.196 29.1239 176.416 28.7261C175.635 28.3283 174.671 28.1294 173.524 28.1294C172.453 28.1294 171.512 28.313 170.701 28.6802C169.906 29.0474 169.278 29.5293 168.819 30.126C168.376 30.7227 168.154 31.3652 168.154 32.0537H163.908C163.908 31.1663 164.138 30.2866 164.597 29.4146C165.056 28.5425 165.714 27.7546 166.57 27.0508C167.442 26.3317 168.483 25.7656 169.691 25.3525C170.915 24.9242 172.277 24.71 173.776 24.71C175.582 24.71 177.173 25.016 178.55 25.6279C179.942 26.2399 181.028 27.1655 181.809 28.4048C182.604 29.6287 183.002 31.1663 183.002 33.0176V44.584C183.002 45.4102 183.071 46.2899 183.208 47.2231C183.361 48.1564 183.583 48.9596 183.874 49.6328V50H179.445C179.231 49.5104 179.062 48.8602 178.94 48.0493C178.818 47.2231 178.756 46.4582 178.756 45.7544ZM179.491 34.9453L179.537 37.9287H175.245C174.036 37.9287 172.958 38.0282 172.009 38.2271C171.061 38.4106 170.265 38.6937 169.623 39.0762C168.98 39.4587 168.49 39.9406 168.154 40.522C167.817 41.0881 167.649 41.7536 167.649 42.5186C167.649 43.2988 167.825 44.0103 168.177 44.6528C168.529 45.2954 169.056 45.8079 169.76 46.1904C170.479 46.5576 171.359 46.7412 172.399 46.7412C173.7 46.7412 174.847 46.4658 175.842 45.915C176.836 45.3643 177.624 44.6911 178.206 43.8955C178.802 43.0999 179.124 42.3273 179.169 41.5776L180.982 43.6201C180.875 44.2627 180.585 44.9741 180.11 45.7544C179.636 46.5347 179.001 47.2843 178.206 48.0034C177.425 48.7072 176.492 49.2962 175.406 49.7705C174.335 50.2295 173.126 50.459 171.78 50.459C170.097 50.459 168.62 50.13 167.351 49.4722C166.096 48.8143 165.117 47.9346 164.413 46.833C163.725 45.7161 163.38 44.4692 163.38 43.0923C163.38 41.7612 163.64 40.5908 164.161 39.5811C164.681 38.556 165.431 37.7069 166.41 37.0337C167.389 36.3452 168.567 35.825 169.944 35.4731C171.321 35.1213 172.858 34.9453 174.557 34.9453H179.491ZM200.076 25.1689V28.4277H186.651V25.1689H200.076ZM191.195 19.1333H195.44V43.8496C195.44 44.6911 195.57 45.326 195.831 45.7544C196.091 46.1828 196.427 46.4658 196.84 46.6035C197.253 46.7412 197.697 46.8101 198.171 46.8101C198.523 46.8101 198.89 46.7795 199.273 46.7183C199.671 46.6418 199.969 46.5806 200.168 46.5347L200.191 50C199.854 50.1071 199.411 50.2065 198.86 50.2983C198.324 50.4054 197.674 50.459 196.909 50.459C195.869 50.459 194.913 50.2524 194.041 49.8394C193.168 49.4263 192.472 48.7378 191.952 47.7739C191.447 46.7948 191.195 45.479 191.195 43.8267V19.1333ZM203.473 37.8599V37.332C203.473 35.542 203.733 33.882 204.253 32.3521C204.773 30.8068 205.523 29.4681 206.502 28.3359C207.481 27.1885 208.667 26.3011 210.059 25.6738C211.451 25.0312 213.012 24.71 214.741 24.71C216.485 24.71 218.053 25.0312 219.445 25.6738C220.853 26.3011 222.046 27.1885 223.025 28.3359C224.02 29.4681 224.777 30.8068 225.297 32.3521C225.818 33.882 226.078 35.542 226.078 37.332V37.8599C226.078 39.6499 225.818 41.3099 225.297 42.8398C224.777 44.3698 224.02 45.7085 223.025 46.856C222.046 47.9881 220.861 48.8755 219.468 49.5181C218.091 50.1453 216.531 50.459 214.787 50.459C213.042 50.459 211.474 50.1453 210.082 49.5181C208.69 48.8755 207.496 47.9881 206.502 46.856C205.523 45.7085 204.773 44.3698 204.253 42.8398C203.733 41.3099 203.473 39.6499 203.473 37.8599ZM207.718 37.332V37.8599C207.718 39.0991 207.864 40.2695 208.154 41.3711C208.445 42.4574 208.881 43.4212 209.462 44.2627C210.059 45.1042 210.801 45.7697 211.688 46.2593C212.576 46.7336 213.609 46.9707 214.787 46.9707C215.949 46.9707 216.967 46.7336 217.839 46.2593C218.726 45.7697 219.461 45.1042 220.042 44.2627C220.623 43.4212 221.059 42.4574 221.35 41.3711C221.656 40.2695 221.809 39.0991 221.809 37.8599V37.332C221.809 36.1081 221.656 34.953 221.35 33.8667C221.059 32.7651 220.616 31.7936 220.019 30.9521C219.438 30.0954 218.703 29.4222 217.816 28.9326C216.944 28.443 215.919 28.1982 214.741 28.1982C213.578 28.1982 212.553 28.443 211.666 28.9326C210.793 29.4222 210.059 30.0954 209.462 30.9521C208.881 31.7936 208.445 32.7651 208.154 33.8667C207.864 34.953 207.718 36.1081 207.718 37.332ZM235.647 29.0703V50H231.402V25.1689H235.533L235.647 29.0703ZM243.404 25.0312L243.381 28.9785C243.029 28.902 242.693 28.8561 242.372 28.8408C242.066 28.8102 241.714 28.7949 241.316 28.7949C240.337 28.7949 239.472 28.9479 238.723 29.2539C237.973 29.5599 237.338 29.9883 236.818 30.5391C236.298 31.0898 235.885 31.7477 235.579 32.5127C235.288 33.2624 235.097 34.0885 235.005 34.9912L233.812 35.6797C233.812 34.1803 233.957 32.7728 234.248 31.457C234.554 30.1413 235.02 28.9785 235.647 27.9688C236.275 26.9437 237.07 26.1481 238.034 25.582C239.013 25.0007 240.176 24.71 241.522 24.71C241.828 24.71 242.18 24.7482 242.578 24.8247C242.976 24.8859 243.251 24.9548 243.404 25.0312Z" fill="white"/>
<path d="M120.943 18.651C124.453 18.651 127.038 19.5283 128.698 21.283C130.359 23.0377 131.189 25.5287 131.189 28.756V40.459C131.189 44.4697 129.701 47.274 126.724 48.872L132.129 50.282L132.223 53.995H131.33L122.118 50.517C121.899 50.5483 121.523 50.564 120.99 50.564C114.128 50.564 110.697 47.1957 110.697 40.459V28.756C110.697 25.5287 111.528 23.0377 113.188 21.283C114.849 19.5283 117.434 18.651 120.943 18.651ZM120.943 22.176C118.875 22.176 117.309 22.693 116.243 23.727C115.209 24.761 114.692 26.2807 114.692 28.286V40.882C114.692 42.8873 115.225 44.4227 116.29 45.488C117.356 46.522 118.922 47.039 120.99 47.039C125.126 47.039 127.194 44.9553 127.194 40.788V28.333C127.194 26.3277 126.662 24.808 125.596 23.774C124.562 22.7087 123.011 22.176 120.943 22.176Z" fill="url(#paint0_linear_497_1292)"/>
</g>
<rect x="0.5" y="0.5" width="243" height="68" stroke="black"/>
<path d="M22.0834 40.345L14.763 40.564C13.7288 40.6188 12.8724 40.2702 12.194 39.5182C11.5139 38.7669 11.2947 37.9629 11.5365 37.1063L14.583 26.312C14.8087 25.5124 15.2399 24.8225 15.8767 24.2423C16.5134 23.662 17.2981 23.2668 18.2306 23.0567L21.8903 22.2721C21.2903 25.6875 20.9912 28.6832 20.9933 31.2595C20.9926 33.8349 21.356 36.8634 22.0834 40.345ZM43.851 1.50672C44.1834 1.36053 44.8122 1.11775 44.8122 1.11775C44.8122 1.11775 45.6842 0.907124 46.2594 0.927802C47.0311 0.955544 47.4683 1.12667 48.1605 1.43139C49.5062 2.02376 50.5872 3.53802 50.7906 3.84872C53.6951 7.48566 54.3315 8.90533 55.0675 13.5837C55.8019 18.2628 55.003 23.8886 53.2065 29.1468C52.0636 32.492 50.4306 34.6899 49.1792 36.8651C47.9288 39.0418 46.2599 41.3147 44.1723 43.6836C43.7594 44.1154 43.2729 44.4544 42.7129 44.7008C42.1513 44.9479 41.5356 44.9686 40.866 44.7629L28.0394 41.3635C27.3698 41.1578 27.0999 40.8308 26.7562 40.3057C26.4135 39.7822 26.2147 38.7277 26.0919 38.1315C25.5933 34.9994 25.3773 32.1551 25.4439 29.5988C25.5098 27.0447 25.978 24.2256 26.8484 21.1415C28.1218 16.6296 30.2824 12.6148 33.3302 9.09716C36.379 5.58104 39.886 3.0509 43.851 1.50672ZM46.3915 47.8096C48.8115 45.2944 50.7013 42.9504 52.0612 40.7775C53.4201 38.6031 54.7344 35.911 56.0041 32.7013L58.6102 35.4565C59.2848 36.1602 59.7456 36.9459 59.9926 37.8137C60.2386 38.6799 60.2488 39.5128 60.0231 40.3124L56.9766 51.1066C56.7348 51.9633 56.1269 52.5058 55.1528 52.7343C54.1787 52.9627 53.2713 52.7616 52.4305 52.131L46.3915 47.8096Z" fill="url(#paint1_linear_497_1292)"/>
<path d="M21.3202 53.6948C21.6898 51.1863 22.9979 49.552 24.8044 48.3105C27.0659 46.7564 30.9645 46.9774 33.3082 47.6971C35.652 48.4169 37.6558 49.6406 38.927 51.5825C40.1981 53.5244 40.5102 54.9401 39.7251 57.2381C39.3221 58.6659 37.6838 60.9022 35.712 62.67C33.7386 64.4385 30.2924 66.3156 26.3695 68.7416C24.3326 64.4854 22.8464 62.796 22.1197 60.2144C21.3929 57.6329 21.1213 55.0445 21.3202 53.6948Z" fill="url(#paint2_linear_497_1292)"/>
</g>
<defs>
<filter id="filter0_d_497_1292" x="69.2578" y="14.75" width="178.148" height="47.2441" filterUnits="userSpaceOnUse" color-interpolation-filters="sRGB">
<feFlood flood-opacity="0" result="BackgroundImageFix"/>
<feColorMatrix in="SourceAlpha" type="matrix" values="0 0 0 0 0 0 0 0 0 0 0 0 0 0 0 0 0 0 127 0" result="hardAlpha"/>
<feOffset dy="4"/>
<feGaussianBlur stdDeviation="2"/>
<feComposite in2="hardAlpha" operator="out"/>
<feColorMatrix type="matrix" values="0 0 0 0 0 0 0 0 0 0 0 0 0 0 0 0 0 0 0.25 0"/>
<feBlend mode="normal" in2="BackgroundImageFix" result="effect1_dropShadow_497_1292"/>
<feBlend mode="normal" in="SourceGraphic" in2="effect1_dropShadow_497_1292" result="shape"/>
</filter>
<linearGradient id="paint0_linear_497_1292" x1="164" y1="6" x2="164" y2="61" gradientUnits="userSpaceOnUse">
<stop stop-color="#6F58DB"/>
<stop offset="1" stop-color="#E56E84"/>
</linearGradient>
<linearGradient id="paint1_linear_497_1292" x1="27.2869" y1="9.01687" x2="49.144" y2="58.7027" gradientUnits="userSpaceOnUse">
<stop stop-color="#6956DE"/>
<stop offset="1" stop-color="#ED6F7E"/>
</linearGradient>
<linearGradient id="paint2_linear_497_1292" x1="26.1653" y1="9.78007" x2="48.0223" y2="59.4659" gradientUnits="userSpaceOnUse">
<stop stop-color="#6956DE"/>
<stop offset="1" stop-color="#ED6F7E"/>
</linearGradient>
<clipPath id="clip0_497_1292">
<rect width="1440" height="2869" fill="white" transform="translate(-65 -31)"/>
</clipPath>
</defs>
</svg>
