<svg width="27" height="30" viewBox="0 0 27 30" fill="none" xmlns="http://www.w3.org/2000/svg">
<path d="M13.5 4.16667L23.625 11.6667V26.6667H3.375V11.6667L13.5 4.16667ZM13.5 0L0 10V30H27V10L13.5 0ZM12.6562 10.8333V15.8333H11.8125V10.8333H10.125V15.8333H9.28125V10.8333H7.59375V15.8333C7.59375 17.2167 8.72438 18.3333 10.125 18.3333V25H11.8125V18.3333C13.2131 18.3333 14.3438 17.2167 14.3438 15.8333V10.8333H12.6562ZM15.1875 14.1667V19.1667H16.875V25H18.5625V10.8333C16.7062 10.8333 15.1875 12.3333 15.1875 14.1667Z" fill="white"/>
</svg>
