<svg width="35" height="35" viewBox="0 0 35 35" fill="none" xmlns="http://www.w3.org/2000/svg">
<path d="M6.41211 7.83398C6.09082 7.90918 6.2959 7.89551 6.0293 7.92969C4.88769 8.17578 5.73535 8.39453 6.41211 7.83398ZM26.4893 8.29199C26.5713 8.2373 26.8584 7.95703 25.9629 7.68359C26.0176 7.96387 25.7783 7.93652 25.7783 8.09375C26.4414 8.69531 26.7148 9.74121 27.5625 9.95996C27.7266 9.20801 26.8105 8.83887 26.4893 8.29199ZM5.80371 7.61523C5.90625 8.22363 6.36426 6.97266 6.37109 6.52832C6.19336 6.63086 6.01562 6.7334 5.83105 6.81543C6.26172 7.03418 5.88574 7.2666 5.4209 7.61523C4.47754 8.79102 6.30273 6.69922 5.80371 7.61523ZM17.5 0C7.83398 0 0 7.83398 0 17.5C0 27.1592 7.83398 35 17.5 35C27.166 35 35 27.1592 35 17.5C35 7.83398 27.166 0 17.5 0ZM17.9648 5.86523L18.0469 5.89258C17.7188 6.31641 19.7559 7.55371 18.293 7.65625C16.9258 8.0459 18.8672 7.30078 17.8076 7.43066C18.3682 6.65137 17.3633 6.6377 17.9648 5.86523ZM9.66602 6.98633C9.17383 6.57617 7.62891 7.54688 8.16895 7.31445C9.50879 6.78809 8.25781 7.36914 8.57227 7.99805C8.28516 8.59277 8.47656 7.41016 7.76562 8.11426C7.25293 8.23047 5.99512 9.39258 6.15234 9.03711C6.11133 9.59082 4.65527 10.2471 4.45703 11.1699C3.97852 12.4482 4.34082 11.1221 4.25195 10.623C3.56836 9.75488 2.32422 12.0928 2.69336 13.0156C3.31543 11.9219 3.26758 12.8994 2.81641 13.3848C3.27441 14.2256 2.39941 15.3193 3.26758 15.9414C3.65039 16.0303 4.41602 14.6562 4.08105 16.085C4.31348 14.8477 4.72363 16.3789 5.38672 16.0371C5.42773 16.6865 5.83105 16.3857 5.91992 17.1719C7.02734 17.0898 8.03906 18.9629 6.71973 19.3184C6.91797 19.2637 7.30762 19.6123 7.75879 19.3457C8.52441 19.9541 10.541 20.0293 10.5957 21.5332C9.20801 22.1963 10.2539 24.0146 9.05078 24.6641C7.66992 24.459 8.5791 26.3662 7.99805 26.1475C8.23047 27.5215 6.60352 25.9697 7.23242 26.7285C8.3877 27.4395 6.72656 27.2959 7.24609 27.8154C6.66504 27.6924 7.6084 28.8955 7.76562 29.3398C8.59961 30.6934 7.04785 29.0391 6.58984 28.5879C6.15234 27.7129 5.12012 26.0381 4.83301 24.6641C4.66895 22.668 3.12402 21.3281 2.76855 19.3799C2.41309 18.293 3.74609 16.5498 3.02832 15.9414C2.40625 15.4561 2.65918 13.7949 2.29004 12.9199C3.21289 8.9209 6.14551 5.55078 9.66602 3.55469C9.30371 3.82129 11.7373 2.86426 11.457 3.09668C11.3818 3.26758 12.8789 2.44727 13.7812 2.32422C13.6855 2.33789 11.4365 3.14453 12.0586 3.03516C11.0947 3.50684 11.9629 3.24023 12.4414 3.00098C11.4844 3.70508 10.7461 3.50684 9.65918 4.12891C8.56543 4.41602 8.79102 5.55078 8.01172 6.11816C8.46973 6.2002 9.61816 4.93555 10.2881 4.49121C11.8262 3.74609 9.50879 5.84473 10.9717 4.94238C10.4795 5.40039 10.582 6.13184 10.2812 6.33691C10.1309 6.2959 10.876 6.69238 9.66602 6.98633ZM12.0586 3.8418C11.9014 4.05371 11.6826 4.51172 11.5527 4.23145C11.375 4.32031 11.3066 4.70312 10.9717 4.39551C11.1699 4.25195 11.375 3.91016 10.9854 4.12207C11.1631 3.93066 12.749 3.39062 12.6602 3.18555C12.9404 3.00781 12.9131 2.91895 12.5918 3.02832C12.4277 2.97363 12.9814 2.50879 13.7197 2.44727C13.8223 2.44727 13.8633 2.51562 13.6787 2.49512C12.5645 2.83691 13.043 2.74121 13.7949 2.49512C13.5078 2.65918 13.3096 2.70703 13.2617 2.78223C14.0137 2.50879 13.2207 2.98047 13.3916 2.94629C13.1797 3.05566 13.4258 3.08984 13.0156 3.24707C13.0908 3.18555 12.3457 3.69141 12.79 3.54102C12.3594 3.95117 12.168 3.95801 12.0586 3.8418ZM12.7148 4.81934C12.7285 4.16309 13.6719 3.74609 13.5557 3.71191C14.7178 3.16504 13.1523 3.73242 14.0684 3.24023C14.4102 3.20605 15.1348 2.1123 16.1396 2.04395C17.2471 1.70898 16.7344 2.06445 17.5547 1.75L17.3906 1.88672C17.2471 1.90723 17.4248 2.16016 16.9053 2.54297C16.8506 3.1377 15.9141 2.86426 16.3789 3.5C16.0781 3.06934 15.627 3.48633 16.1943 3.52734C15.5859 3.99219 14.1709 4.07422 13.4941 4.84668C13.0566 5.47559 12.6533 5.27734 12.7148 4.81934ZM17.5752 7.00684C17.1104 8.12793 16.6592 6.84277 17.4795 6.6377C17.6846 6.74707 17.7666 6.78125 17.5752 7.00684ZM15.8252 4.76465C15.6885 4.25879 15.7979 4.52539 16.6113 4.28613C17.1719 4.68945 16.1123 4.95605 15.8252 4.76465ZM28.5537 24.8281C27.9111 23.7207 29.333 22.6953 29.8115 21.7656C29.75 22.8525 29.6133 23.9258 28.5537 24.8281ZM30.9736 12.1748C30.2764 12.2295 29.6475 12.3936 29.0186 11.9971C27.5693 10.4111 29.2852 13.7881 29.7637 12.4072C31.4863 13.0635 29.7363 15.8936 28.6494 15.5996C28.041 14.2871 27.2891 12.8447 25.9629 12.2021C26.9814 13.3301 27.4873 14.7178 28.5811 15.7363C28.6562 17.1582 30.0986 15.2168 30.0098 16.3174C30.1465 18.2109 27.8701 19.3457 28.2666 21.2461C29.1143 22.9756 26.6328 23.29 26.9131 24.8418C25.915 25.9561 24.8486 27.46 23.0576 27.2207C23.0576 26.2773 22.5791 25.4775 22.4697 24.5068C21.499 23.2764 23.4951 21.957 22.2578 20.6719C20.8291 20.3506 22.5518 18.3818 21.082 18.5664C20.2002 17.6846 18.9082 18.5391 17.6436 18.5459C16.0576 18.6963 14.4238 16.5977 15.1279 15.1143C14.5674 13.5693 16.9053 13.1182 16.9668 11.7578C18.0879 10.8213 19.6807 10.9375 21.1982 10.7188C21.0889 11.8057 22.2373 11.8125 23.1055 12.1748C23.5908 10.999 25.1016 12.3662 26.1338 11.6211C26.4893 9.88477 25.1289 10.9307 24.3496 10.377C23.4062 8.99609 26.3662 9.66602 26.0586 8.94141C24.9102 8.93457 25.5596 7.52637 24.7461 8.3125C25.4775 8.44238 24.6162 9.0166 24.6367 8.36035C23.5293 8.03906 24.5957 9.61816 24.0352 9.76855C23.1807 9.41309 23.584 10.1719 23.6729 10.2881C23.3037 11.0879 22.8525 9.1123 21.8066 9.16699C20.7676 8.2168 21.3965 9.59766 22.2988 9.82324C22.1074 9.87793 22.4082 10.6641 22.1689 10.3291C21.4238 9.30371 20.0088 8.62012 19.168 9.87793C19.0791 11.0537 16.6865 11.3887 17.0693 10.0146C16.5088 8.59277 18.8057 9.97363 18.5938 8.83887C17.1172 7.86133 18.9971 8.17578 19.4961 7.25977C20.6309 7.29395 19.5439 6.33008 20.0771 6.0498C20.0225 7.0957 20.9453 6.89746 21.6768 6.69922C21.499 6.09766 22.1143 6.11816 21.7383 5.61914C23.4336 4.94238 20.4463 5.93359 21.0479 4.4502C20.3164 3.94434 20.7402 5.56445 21.0479 5.73535C21.0684 6.23438 20.6445 6.84961 20.0635 5.80371C19.2158 6.35742 19.3047 5.24316 19.25 5.35938C19.1543 4.92871 19.8926 4.9082 19.8994 4.15625C19.8379 3.67773 19.8516 3.4248 20.1934 3.39746C20.2207 3.46582 21.5947 3.48633 22.0801 4.05371C20.7539 3.78711 21.8818 4.27246 22.4766 4.5459C21.8408 4.04688 22.7295 4.5459 22.21 3.97852C22.415 4.01953 21.6426 3.19922 22.4355 3.91699C22.0049 3.4043 23.2764 3.55469 22.5244 3.17188C23.625 3.47949 22.9756 3.19922 22.3262 2.91895C20.5352 1.85254 25.4912 4.36133 23.4678 3.24707C24.7598 3.52734 20.7061 2.24902 22.5518 2.80957C21.8477 2.50195 22.5312 2.67285 23.167 2.87109C22.0254 2.51562 20.3164 1.85254 20.3848 1.8252C20.7812 1.85254 21.1709 1.94141 21.5469 2.05078C22.7158 2.39941 21.2119 1.96875 21.5332 1.97559C25.5527 3.00781 29.0732 5.70117 31.2129 9.22168C31.7119 9.74805 33.0723 13.2275 32.3613 11.6826C32.6826 12.9131 32.7305 14.2393 32.9014 15.4971C32.5459 15.1006 32.1494 13.6377 31.8076 12.8242C31.6641 13.1387 31.5 12.3799 30.9736 12.1748Z" fill="white"/>
</svg>
