<svg width="37" height="37" viewBox="0 0 37 37" fill="none" xmlns="http://www.w3.org/2000/svg">
<path d="M18.5 12.3333L13.875 15.0312V20.4271L18.5 23.125L23.125 20.4271V15.0312L18.5 12.3333ZM20.8387 15.4783L18.48 16.8535L16.1413 15.4891L18.5 14.114L20.8387 15.4783ZM15.4012 16.8381L17.6891 18.1732V20.8711L15.4012 19.5375V16.8381ZM19.2153 20.9281V18.204L21.5987 16.8134V19.5375L19.2153 20.9281ZM4.625 0L0 2.69792V8.09375L4.625 10.7917L9.25 8.09375V2.69792L4.625 0ZM6.96371 3.145L4.60496 4.52017L2.26625 3.15579L4.625 1.78062L6.96371 3.145ZM1.52625 4.50321L3.81408 5.83829V8.53621L1.52625 7.20575V4.50321ZM5.34033 8.59325V5.87067L7.72375 4.48008V7.20421L5.34033 8.59325ZM4.625 26.2083L0 28.9062V34.3021L4.625 37L9.25 34.3021V28.9062L4.625 26.2083ZM6.96371 29.3533L4.60496 30.7285L2.26625 29.3641L4.625 27.989L6.96371 29.3533ZM1.52625 30.7131L3.81408 32.0482V34.7461L1.52625 33.4141V30.7131ZM5.34033 34.8031V32.079L7.72375 30.6884V33.4125L5.34033 34.8031ZM32.375 0L27.75 2.69792V8.09375L32.375 10.7917L37 8.09375V2.69792L32.375 0ZM34.7137 3.145L32.355 4.52017L30.0162 3.15579L32.375 1.78062L34.7137 3.145ZM29.2762 4.50475L31.5641 5.83983V8.53775L29.2762 7.20421V4.50475ZM33.0903 8.59479V5.87067L35.4738 4.48008V7.20421L33.0903 8.59479ZM32.375 26.2083L27.75 28.9062V34.3021L32.375 37L37 34.3021V28.9062L32.375 26.2083ZM34.7137 29.3533L32.355 30.7285L30.0162 29.3641L32.375 27.989L34.7137 29.3533ZM29.2762 30.7131L31.5641 32.0482V34.7461L29.2762 33.4125V30.7131ZM33.0903 34.8031V32.079L35.4738 30.6884V33.4125L33.0903 34.8031ZM13.875 4.625H23.125V6.16667H13.875V4.625ZM13.875 30.8333H23.125V32.375H13.875V30.8333ZM5.39583 13.875V23.125H3.85417V13.875H5.39583ZM11.2434 13.6098L7.9735 10.34L9.06346 9.25L12.3333 12.5183L11.2434 13.6098ZM24.6667 12.785L27.9365 9.51517L29.0265 10.6051L25.7566 13.875L24.6667 12.785ZM12.5307 22.9385L9.26079 26.2083L8.17083 25.1184L11.4407 21.8485L12.5307 22.9385ZM26.0218 21.7822L29.2917 25.0521L28.2017 26.142L24.9318 22.8722L26.0218 21.7822ZM33.1458 13.875V23.125H31.6042V13.875H33.1458Z" fill="white"/>
</svg>
