<svg width="34" height="35" viewBox="0 0 34 35" fill="none" xmlns="http://www.w3.org/2000/svg">
<path d="M27.2 28C28.1017 28 28.9665 28.3687 29.6042 29.0251C30.2418 29.6815 30.6 30.5717 30.6 31.5C30.6 32.4283 30.2418 33.3185 29.6042 33.9749C28.9665 34.6312 28.1017 35 27.2 35C26.2983 35 25.4335 34.6312 24.7958 33.9749C24.1582 33.3185 23.8 32.4283 23.8 31.5C23.8 29.5575 25.313 28 27.2 28ZM0 0H5.559L7.157 3.5H32.3C32.7509 3.5 33.1833 3.68437 33.5021 4.01256C33.8209 4.34075 34 4.78587 34 5.25C34 5.5475 33.915 5.845 33.796 6.125L27.71 17.4475C27.132 18.515 26.01 19.25 24.735 19.25H12.07L10.54 22.1025L10.489 22.3125C10.489 22.4285 10.5338 22.5398 10.6135 22.6219C10.6932 22.7039 10.8013 22.75 10.914 22.75H30.6V26.25H10.2C9.29826 26.25 8.43346 25.8813 7.79584 25.2249C7.15821 24.5685 6.8 23.6783 6.8 22.75C6.8 22.1375 6.953 21.56 7.208 21.07L9.52 16.7825L3.4 3.5H0V0ZM10.2 28C11.1017 28 11.9665 28.3687 12.6042 29.0251C13.2418 29.6815 13.6 30.5717 13.6 31.5C13.6 32.4283 13.2418 33.3185 12.6042 33.9749C11.9665 34.6312 11.1017 35 10.2 35C9.29826 35 8.43346 34.6312 7.79584 33.9749C7.15821 33.3185 6.8 32.4283 6.8 31.5C6.8 29.5575 8.313 28 10.2 28ZM25.5 15.75L30.226 7H8.738L12.75 15.75H25.5Z" fill="white"/>
</svg>
