<svg width="34" height="36" viewBox="0 0 34 36" fill="none" xmlns="http://www.w3.org/2000/svg">
<path d="M33.3943 6.32135C33.3943 6.32135 29.019 10.9507 27.8703 12.1806C27.781 12.2903 27.6658 12.3729 27.5364 12.42C27.4071 12.4671 27.2683 12.477 27.1341 12.4487C26.7451 12.3852 26.3562 12.3437 25.9672 12.294L22.7588 11.8904C22.5786 10.2543 22.3933 8.65125 22.2366 7.04547C22.221 6.89346 22.3228 6.68618 22.4298 6.5701C23.756 5.15226 27.4604 1.2387 28.0008 0.666592C26.8261 0.0778992 24.8055 -0.154261 23.3018 0.105538C21.9712 0.323817 20.7016 0.846862 19.5816 1.63817C18.4616 2.42948 17.5182 3.47 16.8173 4.68711C16.1163 5.90422 15.6746 7.26861 15.5231 8.68506C15.3716 10.1015 15.5138 11.5359 15.9399 12.8882C16.0365 13.206 15.9738 13.3912 15.7598 13.6178C10.9354 18.7115 6.11886 23.8163 1.29971 28.9155C1.13639 29.0839 0.981297 29.2611 0.835022 29.4462C0.510399 29.8752 0.272184 30.3701 0.135052 30.9003C-0.00207976 31.4304 -0.0352253 31.9847 0.0376574 32.529C0.11054 33.0733 0.287908 33.596 0.558834 34.0649C0.82976 34.5339 1.18851 34.9391 1.61298 35.2557C3.18977 36.4165 5.17643 36.2065 6.58615 34.7168C11.4236 29.5982 16.261 24.4768 21.0906 19.35C21.3308 19.0957 21.5213 19.01 21.8712 19.1344C23.4588 19.7094 25.1682 19.7947 26.8 19.3804C27.9984 19.0918 29.1305 18.5533 30.1302 17.7964C31.1299 17.0395 31.9771 16.0792 32.6223 14.9718C33.2676 13.8644 33.698 12.632 33.8883 11.3465C34.0787 10.061 34.0252 8.74828 33.7311 7.48492C33.6502 7.12563 33.5301 6.76909 33.3943 6.32135Z" fill="white"/>
</svg>
