<svg width="17" height="16" viewBox="0 0 17 16" fill="none" xmlns="http://www.w3.org/2000/svg">
<path id="Vector" d="M15.6477 10.5229L11.957 8.86897C11.7898 8.79732 11.6074 8.76851 11.4262 8.78515C11.2451 8.80179 11.0709 8.86336 10.9195 8.96428C10.9042 8.97414 10.8896 8.98511 10.8758 8.99709L8.94688 10.6377C8.92687 10.6486 8.90459 10.6547 8.88181 10.6555C8.85903 10.6564 8.83637 10.6519 8.81563 10.6424C7.57579 10.044 6.29142 8.7674 5.69063 7.54475C5.68063 7.52432 5.67543 7.50187 5.67543 7.47912C5.67543 7.45637 5.68063 7.43393 5.69063 7.4135L7.33673 5.46037C7.34854 5.44592 7.35949 5.43079 7.36954 5.41506C7.46906 5.26311 7.52918 5.08877 7.54445 4.90777C7.55973 4.72677 7.52969 4.54482 7.45704 4.37834L5.81485 0.693966C5.72159 0.476473 5.56031 0.295093 5.35521 0.177048C5.15011 0.0590028 4.91226 0.0106612 4.67735 0.0392781C3.65643 0.173494 2.71932 0.674855 2.04112 1.44967C1.36292 2.22448 0.990057 3.21973 0.992197 4.24943C0.992197 10.3666 5.96876 15.3432 12.0859 15.3432C13.1156 15.3452 14.1108 14.9722 14.8855 14.2941C15.6603 13.6159 16.1617 12.6789 16.2961 11.658C16.3247 11.4242 16.277 11.1874 16.1601 10.9829C16.0433 10.7784 15.8636 10.617 15.6477 10.5229ZM12.0859 14.4057C6.48595 14.4057 1.9297 9.84943 1.9297 4.24943C1.92708 3.44782 2.21642 2.67267 2.74364 2.06882C3.27086 1.46497 3.9999 1.07372 4.79454 0.968184H4.81251C4.84399 0.968772 4.87456 0.978858 4.90021 0.997121C4.92587 1.01538 4.9454 1.04097 4.95626 1.07053L6.6047 4.751C6.6141 4.77146 6.61897 4.79371 6.61897 4.81623C6.61897 4.83875 6.6141 4.861 6.6047 4.88147L4.95548 6.83928C4.94317 6.85325 4.93194 6.86814 4.92188 6.88381C4.81869 7.04135 4.75792 7.22288 4.74546 7.4108C4.733 7.59872 4.76929 7.78668 4.85079 7.95647C5.54376 9.37522 6.97345 10.794 8.40782 11.4869C8.5786 11.568 8.76747 11.6034 8.95601 11.5897C9.14455 11.576 9.32633 11.5137 9.4836 11.4088C9.49845 11.3987 9.51329 11.3877 9.52735 11.376L11.4555 9.73537C11.4745 9.72514 11.4955 9.71914 11.5171 9.7178C11.5387 9.71645 11.5603 9.71978 11.5805 9.72756L15.2719 11.3815C15.302 11.3943 15.3274 11.4163 15.3444 11.4443C15.3613 11.4724 15.369 11.505 15.3664 11.5377C15.2614 12.3327 14.8706 13.0623 14.2668 13.5901C13.6631 14.1179 12.8879 14.4078 12.0859 14.4057Z" fill="white" fill-opacity="0.55"/>
</svg>
