<svg width="29" height="32" viewBox="0 0 29 32" fill="none" xmlns="http://www.w3.org/2000/svg">
<path d="M19.9 2.5C19.9 2.10218 19.7578 1.72064 19.5046 1.43934C19.2514 1.15804 18.908 1 18.55 1H10.45C10.092 1 9.74858 1.15804 9.49541 1.43934C9.24223 1.72064 9.1 2.10218 9.1 2.5V10H2.35C1.99196 10 1.64858 10.158 1.39541 10.4393C1.14223 10.7206 1 11.1022 1 11.5V20.5C1 20.8978 1.14223 21.2794 1.39541 21.5607C1.64858 21.842 1.99196 22 2.35 22H9.1V29.5C9.1 29.8978 9.24223 30.2794 9.49541 30.5607C9.74858 30.842 10.092 31 10.45 31H18.55C18.908 31 19.2514 30.842 19.5046 30.5607C19.7578 30.2794 19.9 29.8978 19.9 29.5V22H26.65C27.008 22 27.3514 21.842 27.6046 21.5607C27.8578 21.2794 28 20.8978 28 20.5V11.5C28 11.1022 27.8578 10.7206 27.6046 10.4393C27.3514 10.158 27.008 10 26.65 10H19.9V2.5Z" stroke="white" stroke-width="2" stroke-linecap="round" stroke-linejoin="round"/>
</svg>
