<svg width="38" height="36" viewBox="0 0 38 36" fill="none" xmlns="http://www.w3.org/2000/svg">
<path fill-rule="evenodd" clip-rule="evenodd" d="M37.7459 1.51258L36.7093 1.35666L36.4373 0.397265L38.0011 0L37.7459 1.51258ZM23.8619 15.248L22.9681 15.7684L22.966 15.7664L22.9629 15.7615L22.9524 15.7456L22.9167 15.689C22.8873 15.6413 22.8432 15.5718 22.7907 15.4834C22.6435 15.2402 22.5017 14.9942 22.3653 14.7455C21.9337 13.9636 21.5569 13.1557 21.2374 12.3271C20.8824 11.3896 20.5778 10.316 20.5306 9.27712C20.4844 8.24224 20.6881 7.11898 21.5031 6.23804C22.2351 5.44749 23.6151 4.7195 25.0654 4.08984C26.5683 3.43534 28.3369 2.80767 30.012 2.26441C32.0869 1.5943 34.1827 0.983556 36.2966 0.433018L36.4016 0.40521L36.4383 0.395278L36.7114 1.35566L37.748 1.51159L37.7417 1.54834L37.7238 1.65361C37.619 2.2629 37.509 2.8714 37.3941 3.47904C37.1143 4.97335 36.809 6.46329 36.4783 7.94827C36.1044 9.61777 35.6696 11.3677 35.2085 12.8326C35.0039 13.5027 34.7631 14.1623 34.487 14.809C34.2476 15.3553 33.964 15.8856 33.6195 16.259C32.8823 17.0556 31.7344 17.3048 30.7314 17.3684C29.6854 17.4349 28.5259 17.3148 27.4831 17.14C26.553 16.9815 25.6318 16.7793 24.7231 16.5341C24.3512 16.4351 23.9815 16.3291 23.614 16.2163L23.5479 16.1945L23.53 16.1885L23.5248 16.1875H23.5227L23.8629 15.247L23.8619 15.248ZM23.8619 15.248L22.9681 15.7684L23.1656 16.0713L23.5227 16.1875L23.8619 15.248ZM24.5676 14.4207C25.6429 14.7381 26.7375 14.9935 27.8454 15.1854C28.8158 15.3473 29.7862 15.4387 30.5907 15.387C31.4403 15.3334 31.8667 15.1368 32.0379 14.952C32.1471 14.8329 32.3257 14.5508 32.5462 14.0483C32.7942 13.4655 33.0105 12.8712 33.1942 12.2675C33.6321 10.8771 34.0533 9.18575 34.423 7.53809C34.7777 5.944 35.1026 4.3441 35.3976 2.73914L35.0731 2.82852C33.9083 3.15329 32.3351 3.61113 30.6936 4.14347C29.0489 4.6768 27.3549 5.27964 25.9424 5.89441C24.4763 6.53202 23.4869 7.11103 23.0837 7.54703C22.7612 7.89464 22.5953 8.42995 22.63 9.19171C22.6636 9.94949 22.8936 10.8106 23.2149 11.6557C23.5828 12.6117 24.0354 13.5366 24.5676 14.4207ZM4.47785 4.01237L4.20584 4.97176L3.16822 5.12769L2.91406 3.6161L4.4789 4.01336L4.47785 4.01237ZM14.6461 16.261L15.5399 16.7804L15.542 16.7785L15.5441 16.7745L15.5525 16.7616L15.5829 16.7139C15.7413 16.4588 15.8926 16.1998 16.0366 15.9373C16.3139 15.4327 16.6678 14.7286 16.964 13.9499C17.256 13.1792 17.5101 12.2864 17.549 11.4164C17.5889 10.5494 17.4187 9.58202 16.7109 8.81728C16.085 8.13995 14.9266 7.53611 13.7503 7.02363C12.5205 6.48832 11.0764 5.97585 9.71218 5.53389C8.02249 4.98816 6.3158 4.49069 4.59442 4.04217L4.50831 4.02032L4.47785 4.01237L4.20584 4.97176L3.16822 5.12769L3.17347 5.15749L3.18817 5.24389L3.24488 5.56766C3.52827 7.17413 3.84726 8.77479 4.20164 10.3686C4.50621 11.7272 4.86118 13.1544 5.23716 14.3512C5.4262 14.9491 5.62365 15.5062 5.83054 15.976C6.02693 16.4229 6.26744 16.8788 6.5699 17.2045C7.22104 17.9097 8.22191 18.1182 9.05054 18.1699C9.92432 18.2255 10.8832 18.1252 11.7391 17.9832C12.8138 17.8007 13.8736 17.5472 14.9108 17.2244L14.9644 17.2075L14.9801 17.2025L14.9854 17.2006L14.6461 16.261ZM14.6461 16.261L15.5399 16.7804L15.3424 17.0844L14.9854 17.2006L14.6461 16.261ZM13.9393 15.4327C14.3497 14.7431 14.6999 14.023 14.9864 13.2796C15.2437 12.6012 15.4244 11.9209 15.4506 11.331C15.4779 10.7371 15.3456 10.3577 15.1303 10.1243C14.8331 9.80449 14.0664 9.34763 12.8723 8.82821C11.7339 8.33262 10.3644 7.84498 9.03058 7.41295C7.86868 7.03785 6.69846 6.68619 5.52072 6.35822L5.52493 6.38305C5.70346 7.33648 5.95762 8.62362 6.25693 9.95743C6.55625 11.2942 6.89757 12.6618 7.25045 13.7851C7.42794 14.3472 7.60227 14.8329 7.77031 15.2142C7.94885 15.6185 8.08328 15.824 8.15049 15.8975C8.23661 15.9899 8.51492 16.1458 9.19127 16.1885C9.82245 16.2283 10.5933 16.1567 11.3747 16.0266C12.2418 15.8788 13.0983 15.6811 13.9393 15.4327ZM11.6393 24.9015C11.3726 24.9154 11.2424 24.9512 11.2088 24.9651C10.733 25.1687 9.28789 25.6454 8.04022 26.0476C7.39958 26.2552 6.7852 26.4499 6.3315 26.5939L6.30209 26.6038V31.9699C6.48693 31.9619 6.68543 31.955 6.88812 31.948C7.75771 31.9182 8.79218 31.8884 9.24063 31.9063C11.1226 31.9768 12.5362 32.3979 13.8448 32.7882L13.8732 32.7972C15.0998 33.1626 16.2362 33.4983 17.7244 33.6046C18.1444 33.6344 18.553 33.6731 18.9342 33.7089H18.9395C20.4035 33.8479 21.3676 33.9174 22.1143 33.6612C22.6951 33.4616 24.8218 32.529 26.9664 31.509C28.0271 31.0045 29.0668 30.491 29.8933 30.0511C30.3082 29.8306 30.66 29.6339 30.9299 29.4691C31.0643 29.3866 31.1715 29.3171 31.2534 29.2605C31.2856 29.2382 31.3171 29.215 31.3479 29.191L31.3773 29.1672C31.4823 29.0668 31.5936 28.7173 31.413 28.3885C31.328 28.2348 31.1875 28.115 31.0171 28.0508C30.807 27.9644 30.45 27.8979 29.8828 27.9863C28.6037 28.1849 27.0756 28.7669 25.5496 29.3539L25.5286 29.3628C24.7787 29.6508 24.0268 29.9398 23.3599 30.1504C22.7192 30.352 22.0082 30.5327 21.3886 30.498C20.5379 30.4483 19.0455 30.2398 17.8147 30.0511C17.1073 29.9429 16.4009 29.8297 15.6953 29.7114L15.5588 29.6886L15.5105 29.6796L15.71 27.7092L20.5096 27.7638H20.5201C20.5761 27.7581 20.6316 27.7481 20.686 27.734C20.8519 27.6943 21.1365 27.596 21.4947 27.3566C21.6049 27.2821 21.7499 27.1451 21.8854 26.9613C21.9378 26.8894 21.9855 26.8144 22.0282 26.7369C21.443 26.7017 20.8616 26.624 20.289 26.5045C19.9772 26.4403 19.6679 26.3658 19.3617 26.281L19.326 26.2711L13.4478 25.0336L13.3922 25.0247C13.0792 24.9756 12.7642 24.9391 12.448 24.9154C12.1791 24.8943 11.9089 24.8897 11.6393 24.9015ZM13.6537 24.0603L13.8438 23.084L13.8627 23.087L19.8679 24.3503L19.912 24.3632L19.9204 24.3662L19.9603 24.3771L20.1262 24.4218C20.2722 24.4596 20.4823 24.5112 20.7322 24.5629C21.2426 24.6671 21.8812 24.7635 22.4714 24.7635C23.0627 24.7635 23.7054 24.972 24.052 25.566C24.3481 26.0745 24.2746 26.6247 24.1706 26.9882C24.0741 27.3095 23.9303 27.6165 23.7432 27.8999C24.0625 27.7807 24.4017 27.6516 24.7577 27.5145L24.8228 27.4887C26.2701 26.9325 28.005 26.2651 29.5415 26.0258C31.3269 25.7497 32.6659 26.3555 33.2782 27.4758C33.818 28.464 33.6983 29.767 32.8739 30.5596C32.667 30.7582 32.3593 30.9598 32.0652 31.1396C31.6907 31.3638 31.3097 31.578 30.9226 31.7821C30.0561 32.243 28.9838 32.7723 27.9084 33.2838C25.7848 34.2939 23.5479 35.2821 22.8295 35.5284C21.5839 35.9554 20.143 35.8193 18.8628 35.6982L18.7294 35.6853C18.342 35.6477 17.9541 35.6146 17.5658 35.586C15.8224 35.4608 14.4865 35.0626 13.2661 34.6991L13.2399 34.6911C11.9271 34.2998 10.7446 33.9512 9.15661 33.8906C8.80793 33.8777 7.86903 33.9016 6.96374 33.9333C6.45394 33.9508 5.94423 33.9704 5.43461 33.9919L5.29913 33.9979L4.20059 34.0456V25.1707L5.12164 24.8817C5.869 24.6468 6.61537 24.4091 7.36072 24.1686C8.6672 23.7465 9.98419 23.3085 10.3434 23.1556C10.7288 22.9907 11.1667 22.9371 11.5175 22.9172C11.8903 22.8973 12.2737 22.9122 12.6087 22.9361C13.012 22.9659 13.4136 23.0133 13.8123 23.0781L13.8343 23.0821H13.8406L13.8427 23.083H13.8448L13.6537 24.0603Z" fill="white"/>
<path fill-rule="evenodd" clip-rule="evenodd" d="M30.6157 7.25C30.7205 7.33477 30.8066 7.43824 30.8692 7.55449C30.9317 7.67075 30.9694 7.79751 30.9801 7.92755C30.9908 8.05758 30.9744 8.18835 30.9317 8.31237C30.889 8.43639 30.8208 8.55123 30.7312 8.65035C27.6004 12.1046 23.7031 17.1667 21.9828 21.2814C21.932 21.4027 21.8565 21.5133 21.7605 21.607C21.6646 21.7007 21.55 21.7756 21.4234 21.8274C21.2968 21.8793 21.1607 21.907 21.0228 21.9091C20.8849 21.9112 20.7479 21.8875 20.6196 21.8395C20.4913 21.7915 20.3743 21.7201 20.2752 21.6294C20.1762 21.5386 20.097 21.4303 20.0422 21.3106C19.9873 21.1909 19.958 21.0621 19.9558 20.9317C19.9536 20.8013 19.9786 20.6717 20.0294 20.5504C21.8809 16.1219 25.9642 10.8572 29.1348 7.35825C29.3162 7.15834 29.574 7.03474 29.8518 7.01462C30.1295 6.99451 30.4042 7.07953 30.6157 7.25099V7.25ZM9.85267 10.4361C9.74437 10.5169 9.65397 10.6171 9.58665 10.731C9.51932 10.8449 9.47639 10.9702 9.46029 11.0998C9.4442 11.2294 9.45527 11.3607 9.49286 11.4862C9.53045 11.6118 9.59383 11.7291 9.67938 11.8314C12.034 14.657 14.6049 18.2731 15.8253 21.2724C15.9301 21.5118 16.1296 21.703 16.3814 21.8052C16.6331 21.9074 16.9172 21.9126 17.1729 21.8195C17.4286 21.7265 17.6357 21.5427 17.75 21.3072C17.8644 21.0718 17.877 20.8034 17.785 20.5593C16.4502 17.2779 13.7228 13.4731 11.3282 10.6019C11.1559 10.3951 10.9038 10.2614 10.6273 10.2303C10.3508 10.1992 10.0715 10.2732 9.85267 10.4361Z" fill="white"/>
<path d="M0 22.9102H6.30136V35.8213H0V22.9102Z" fill="white"/>
</svg>
