<svg width="34" height="36" viewBox="0 0 34 36" fill="none" xmlns="http://www.w3.org/2000/svg">
<path d="M4.25 0C1.90365 0 0 1.51172 0 3.375V32.625C0 34.4883 1.90365 36 4.25 36H12.75V30.375C12.75 28.5117 14.6536 27 17 27C19.3464 27 21.25 28.5117 21.25 30.375V36H29.75C32.0964 36 34 34.4883 34 32.625V3.375C34 1.51172 32.0964 0 29.75 0H4.25ZM5.66667 16.875C5.66667 16.2562 6.30417 15.75 7.08333 15.75H9.91667C10.6958 15.75 11.3333 16.2562 11.3333 16.875V19.125C11.3333 19.7438 10.6958 20.25 9.91667 20.25H7.08333C6.30417 20.25 5.66667 19.7438 5.66667 19.125V16.875ZM15.5833 15.75H18.4167C19.1958 15.75 19.8333 16.2562 19.8333 16.875V19.125C19.8333 19.7438 19.1958 20.25 18.4167 20.25H15.5833C14.8042 20.25 14.1667 19.7438 14.1667 19.125V16.875C14.1667 16.2562 14.8042 15.75 15.5833 15.75ZM22.6667 16.875C22.6667 16.2562 23.3042 15.75 24.0833 15.75H26.9167C27.6958 15.75 28.3333 16.2562 28.3333 16.875V19.125C28.3333 19.7438 27.6958 20.25 26.9167 20.25H24.0833C23.3042 20.25 22.6667 19.7438 22.6667 19.125V16.875ZM14.875 4.5H19.125C19.9042 4.5 20.5417 5.00625 20.5417 5.625C20.5417 6.24375 19.9042 6.75 19.125 6.75H16.2917V11.25H17.7083V10.125C17.7083 9.50625 18.3458 9 19.125 9C19.9042 9 20.5417 9.50625 20.5417 10.125V11.8125C20.5417 12.7477 19.5943 13.5 18.4167 13.5H15.5833C14.4057 13.5 13.4583 12.7477 13.4583 11.8125V5.625C13.4583 5.00625 14.0958 4.5 14.875 4.5ZM26.9167 6.75C26.1375 6.75 25.5 7.25625 25.5 7.875V10.125C25.5 10.7438 26.1375 11.25 26.9167 11.25C27.6958 11.25 28.3333 10.7438 28.3333 10.125V7.875C28.3333 7.25625 27.6958 6.75 26.9167 6.75ZM22.6667 7.875C22.6667 6.01172 24.5703 4.5 26.9167 4.5C29.263 4.5 31.1667 6.01172 31.1667 7.875V10.125C31.1667 11.9883 29.263 13.5 26.9167 13.5C24.5703 13.5 22.6667 11.9883 22.6667 10.125V7.875ZM5.4276 4.99922L8.5 8.65547V5.625C8.5 5.00625 9.1375 4.5 9.91667 4.5C10.6958 4.5 11.3333 5.00625 11.3333 5.625V12.375C11.3333 12.8742 10.926 13.3102 10.324 13.4508C9.72187 13.5914 9.08437 13.4086 8.73906 13.0008L5.66667 9.3375V12.375C5.66667 12.9938 5.02917 13.5 4.25 13.5C3.47083 13.5 2.83333 12.9938 2.83333 12.375V5.625C2.83333 5.12578 3.24062 4.68984 3.84271 4.54922C4.44479 4.40859 5.08229 4.59141 5.4276 4.99922Z" fill="white"/>
</svg>
