<svg width="34" height="36" viewBox="0 0 34 36" fill="none" xmlns="http://www.w3.org/2000/svg">
<path d="M34 15.7556V11.8167H30.2222V7.87778C30.2192 6.83408 29.8203 5.83402 29.1124 5.09601C28.4046 4.358 27.4455 3.94201 26.4444 3.93889H22.6667V0H18.8889V3.93889H15.1111V0H11.3333V3.93889H7.55556C6.55455 3.94201 5.59539 4.358 4.88757 5.09601C4.17974 5.83402 3.78077 6.83408 3.77778 7.87778V11.8167H0V15.7556H3.77778V19.6944H0V23.6333H3.77778V27.5722C3.78077 28.6159 4.17974 29.616 4.88757 30.354C5.59539 31.092 6.55455 31.508 7.55556 31.5111H11.3333V35.45H15.1111V31.5111H18.8889V35.45H22.6667V31.5111H26.4444C27.4455 31.508 28.4046 31.092 29.1124 30.354C29.8203 29.616 30.2192 28.6159 30.2222 27.5722V23.6333H34V19.6944H30.2222V15.7556H34ZM26.4444 27.5722H7.55556V7.87778H26.4444V27.5722Z" fill="white"/>
<path d="M16.0014 11.8184H13.9228L10.8164 23.635H12.4036L13.1207 20.8655H16.7L17.3985 23.635H19.0398L16.0014 11.8184ZM13.3293 19.6824L14.9026 13.2216H14.9737L16.4929 19.6824H13.3293ZM20.457 11.8184H22.0024V23.635H20.457V11.8184Z" fill="white"/>
</svg>
