<svg width="36" height="32" viewBox="0 0 36 32" fill="none" xmlns="http://www.w3.org/2000/svg">
<path d="M26.1066 8.84575C28.9314 9.91085 32.1084 9.9933 34.9994 9.07653M10.1519 31.0002C11.19 28.4415 11.0966 25.6315 9.89034 23.1308C8.94618 21.1396 8.69073 18.9466 9.15615 16.8276C9.62156 14.7086 10.787 12.7585 12.5059 11.2227C14.2679 9.68415 16.5067 8.64026 18.94 8.22266" stroke="white" stroke-width="2" stroke-linecap="round" stroke-linejoin="round"/>
<path d="M16.9547 23.7776C19.3999 23.3565 21.6483 22.3043 23.415 20.7544M23.415 20.7544C25.1368 19.2203 26.3044 17.2701 26.7699 15.1505C27.2355 13.0308 26.9782 10.837 26.0306 8.84639C24.8489 6.34514 24.7835 3.54204 25.8475 1M23.415 20.7544L12.6129 11.2234M1 22.9237C3.89212 22.0026 7.07418 22.0934 9.89278 23.1776" stroke="white" stroke-width="2" stroke-linecap="round" stroke-linejoin="round"/>
</svg>
