<svg width="35" height="35" viewBox="0 0 35 35" fill="none" xmlns="http://www.w3.org/2000/svg">
<path d="M0.595 22.1002C1.645 21.7154 2.73 21.523 3.885 21.523C6.23 21.523 8.2775 22.2576 10.0275 23.7269L4.5325 29.2192C2.70943 27.1664 1.36463 24.735 0.595 22.1002ZM23.73 13.6519C27.1775 16.2231 30.905 16.8528 34.895 15.541C34.9475 15.9083 35 16.573 35 17.5C35 19.3016 34.5625 21.3131 33.74 23.5345C32.9175 25.7384 31.9025 27.5225 30.7125 28.8694L19.635 17.8323L23.73 13.6519ZM11.8475 25.616C13.7025 28.2921 14.0875 31.2132 12.985 34.3966C10.5 33.6795 8.2775 32.56 6.4225 31.0208L11.8475 25.616ZM17.8325 19.6339L28.875 30.7059C25.0775 34.0293 20.615 35.4286 15.54 34.8864C15.9075 33.7319 16.1 32.4726 16.1 31.1082C16.1 30.0238 15.855 28.7469 15.365 27.2951C14.875 25.8434 14.2975 24.654 13.65 23.7269L17.8325 19.6339ZM11.9175 21.8728C10.3227 20.4473 8.36788 19.4855 6.265 19.0917C4.13 18.6894 2.0825 18.8118 0.105 19.4765C0.0524999 19.0917 0 18.427 0 17.5C0 15.6984 0.4375 13.6869 1.26 11.4655C2.0825 9.26159 3.0975 7.47747 4.2875 6.13064L15.9425 17.8323L11.9175 21.8728ZM23.73 10.0312C21.385 7.14514 20.8425 3.9967 22.1025 0.60338C23.1875 0.883241 24.43 1.40798 25.83 2.21258C27.2125 2.99969 28.35 3.7868 29.225 4.53893L23.73 10.0312ZM34.405 12.9173C33.355 13.2846 32.27 13.477 31.115 13.477C29.2075 13.477 27.37 12.9173 25.62 11.7628L31.0275 6.42799C32.5675 8.35204 33.6875 10.5035 34.405 12.9173ZM17.8325 15.9433L6.125 4.29405C9.9225 0.970698 14.385 -0.428608 19.4775 0.113623C19.0925 1.26805 18.9 2.52743 18.9 3.89175C18.9 5.15112 19.18 6.56792 19.7575 8.15963C20.335 9.73385 21 10.9932 21.875 11.9203L17.8325 15.9433Z" fill="white"/>
</svg>
