<svg width="39" height="39" viewBox="0 0 39 39" fill="none" xmlns="http://www.w3.org/2000/svg">
<path d="M15.3889 5.11111L19.5 1M11.2778 27.7222L27.7222 11.2778M19.5 38L23.6111 33.8889M28.75 33.8889C30.1129 33.8889 31.42 33.3475 32.3837 32.3837C33.3475 31.42 33.8889 30.1129 33.8889 28.75C33.8889 27.3871 33.3475 26.08 32.3837 25.1163C31.42 24.1525 30.1129 23.6111 28.75 23.6111C27.3871 23.6111 26.08 24.1525 25.1163 25.1163C24.1525 26.08 23.6111 27.3871 23.6111 28.75C23.6111 30.1129 24.1525 31.42 25.1163 32.3837C26.08 33.3475 27.3871 33.8889 28.75 33.8889ZM10.25 15.3889C11.6129 15.3889 12.92 14.8475 13.8837 13.8837C14.8475 12.92 15.3889 11.6129 15.3889 10.25C15.3889 8.88708 14.8475 7.57999 13.8837 6.61626C12.92 5.65253 11.6129 5.11111 10.25 5.11111C8.88708 5.11111 7.57999 5.65253 6.61626 6.61626C5.65253 7.57999 5.11111 8.88708 5.11111 10.25C5.11111 11.6129 5.65253 12.92 6.61626 13.8837C7.57999 14.8475 8.88708 15.3889 10.25 15.3889ZM6.13889 38C7.50181 38 8.8089 37.4586 9.77263 36.4949C10.7364 35.5311 11.2778 34.224 11.2778 32.8611C11.2778 31.4982 10.7364 30.1911 9.77263 29.2274C8.8089 28.2636 7.50181 27.7222 6.13889 27.7222C4.77597 27.7222 3.46887 28.2636 2.50515 29.2274C1.54142 30.1911 1 31.4982 1 32.8611C1 34.224 1.54142 35.5311 2.50515 36.4949C3.46887 37.4586 4.77597 38 6.13889 38ZM32.8611 11.2778C34.224 11.2778 35.5311 10.7364 36.4949 9.77263C37.4586 8.8089 38 7.50181 38 6.13889C38 4.77597 37.4586 3.46887 36.4949 2.50515C35.5311 1.54142 34.224 1 32.8611 1C31.4982 1 30.1911 1.54142 29.2274 2.50515C28.2636 3.46887 27.7222 4.77597 27.7222 6.13889C27.7222 7.50181 28.2636 8.8089 29.2274 9.77263C30.1911 10.7364 31.4982 11.2778 32.8611 11.2778Z" stroke="white" stroke-width="2" stroke-linecap="round" stroke-linejoin="round"/>
</svg>
