<svg width="40" height="30" viewBox="0 0 40 30" fill="none" xmlns="http://www.w3.org/2000/svg">
<path d="M36.6992 3.96094C37.7669 5.24219 38.5807 6.69531 39.1406 8.32031C39.7005 9.94531 39.987 11.6719 40 13.5C40 14.0469 39.987 14.7031 39.9609 15.4688C39.9349 16.2344 39.8828 17.0625 39.8047 17.9531C39.7266 18.8438 39.6029 19.7578 39.4336 20.6953C39.2643 21.6328 39.0495 22.5625 38.7891 23.4844C38.3984 24.8281 37.9427 25.9219 37.4219 26.7656C36.901 27.6094 36.3607 28.2734 35.8008 28.7578C35.2409 29.2422 34.6745 29.5703 34.1016 29.7422C33.5286 29.9141 32.9948 30 32.5 30C32.0703 30 31.6797 29.9141 31.3281 29.7422C30.9766 29.5703 30.638 29.3359 30.3125 29.0391C29.987 28.7422 29.6875 28.4219 29.4141 28.0781C29.1406 27.7344 28.8607 27.3594 28.5742 26.9531C28.3008 26.5781 28.0339 26.2188 27.7734 25.875C27.513 25.5312 27.2331 25.2266 26.9336 24.9609C26.6341 24.6953 26.3346 24.4688 26.0352 24.2812C25.7357 24.0938 25.3841 24 24.9805 24H15.0195C14.6419 24.0156 14.2969 24.1094 13.9844 24.2812C13.6719 24.4531 13.3659 24.6719 13.0664 24.9375C12.7669 25.2031 12.4935 25.5156 12.2461 25.875C11.9987 26.2344 11.7253 26.5938 11.4258 26.9531C11.1523 27.3281 10.8789 27.6953 10.6055 28.0547C10.332 28.4141 10.0326 28.7422 9.70703 29.0391C9.38151 29.3359 9.04297 29.5625 8.69141 29.7188C8.33984 29.875 7.94271 29.9688 7.5 30C7.00521 30 6.47135 29.9141 5.89844 29.7422C5.32552 29.5703 4.75911 29.25 4.19922 28.7812C3.63932 28.3125 3.09896 27.6484 2.57812 26.7891C2.05729 25.9297 1.60156 24.8281 1.21094 23.4844C0.950521 22.5781 0.742188 21.6562 0.585938 20.7188C0.429688 19.7812 0.30599 18.8594 0.214844 17.9531C0.123698 17.0469 0.0651042 16.2188 0.0390625 15.4688C0.0130208 14.7188 0 14.0625 0 13.5C0 11.6875 0.279948 9.96875 0.839844 8.34375C1.39974 6.71875 2.22005 5.25781 3.30078 3.96094C4.35547 2.67969 5.56641 1.70312 6.93359 1.03125C8.30078 0.359375 9.73958 0.015625 11.25 0H28.75C30.2604 0 31.6927 0.335938 33.0469 1.00781C34.401 1.67969 35.6185 2.66406 36.6992 3.96094ZM36.4258 22.5C36.6732 21.6719 36.8685 20.8125 37.0117 19.9219C37.1549 19.0312 37.2591 18.1797 37.3242 17.3672C37.3893 16.5547 37.4349 15.8047 37.4609 15.1172C37.487 14.4297 37.5 13.8906 37.5 13.5C37.5 12.0469 37.2721 10.6875 36.8164 9.42188C36.3607 8.15625 35.7357 7.04688 34.9414 6.09375C34.1471 5.14062 33.2227 4.39062 32.168 3.84375C31.1133 3.29688 29.974 3.01562 28.75 3H11.25C10.0391 3 8.90625 3.27344 7.85156 3.82031C6.79688 4.36719 5.8724 5.11719 5.07812 6.07031C4.28385 7.02344 3.65885 8.13281 3.20312 9.39844C2.7474 10.6641 2.51302 12.0312 2.5 13.5C2.5 13.9062 2.50651 14.4453 2.51953 15.1172C2.53255 15.7891 2.57812 16.5312 2.65625 17.3438C2.73438 18.1562 2.84505 19.0156 2.98828 19.9219C3.13151 20.8281 3.32682 21.6875 3.57422 22.5C3.89974 23.625 4.25781 24.4922 4.64844 25.1016C5.03906 25.7109 5.41667 26.1562 5.78125 26.4375C6.14583 26.7188 6.48438 26.8828 6.79688 26.9297C7.10938 26.9766 7.34375 27 7.5 27C7.78646 27 8.09896 26.7969 8.4375 26.3906C8.77604 25.9844 9.14062 25.5156 9.53125 24.9844C9.84375 24.5469 10.1758 24.1016 10.5273 23.6484C10.8789 23.1953 11.276 22.7734 11.7188 22.3828C12.1615 21.9922 12.6497 21.6719 13.1836 21.4219C13.7174 21.1719 14.3099 21.0312 14.9609 21H25.0391C25.6901 21.0312 26.2826 21.1719 26.8164 21.4219C27.3503 21.6719 27.832 21.9844 28.2617 22.3594C28.6914 22.7344 29.0885 23.1562 29.4531 23.625C29.8177 24.0938 30.1562 24.5469 30.4688 24.9844C30.8464 25.5 31.2044 25.9609 31.543 26.3672C31.8815 26.7734 32.2005 26.9844 32.5 27C32.6562 27 32.8841 26.9766 33.1836 26.9297C33.4831 26.8828 33.8216 26.7188 34.1992 26.4375C34.5768 26.1562 34.9609 25.7109 35.3516 25.1016C35.7422 24.4922 36.1003 23.625 36.4258 22.5ZM10 12H12.5V15H10V18H7.5V15H5V12H7.5V9H10V12ZM32.5 15C32.8516 15 33.1771 15.0781 33.4766 15.2344C33.776 15.3906 34.0365 15.6016 34.2578 15.8672C34.4792 16.1328 34.6615 16.4531 34.8047 16.8281C34.9479 17.2031 35.013 17.5938 35 18C35 18.4219 34.9349 18.8125 34.8047 19.1719C34.6745 19.5312 34.4987 19.8438 34.2773 20.1094C34.056 20.375 33.7891 20.5938 33.4766 20.7656C33.1641 20.9375 32.8385 21.0156 32.5 21C32.1484 21 31.8229 20.9219 31.5234 20.7656C31.224 20.6094 30.9635 20.3984 30.7422 20.1328C30.5208 19.8672 30.3385 19.5469 30.1953 19.1719C30.0521 18.7969 29.987 18.4062 30 18C30 17.5781 30.0651 17.1875 30.1953 16.8281C30.3255 16.4688 30.5013 16.1562 30.7227 15.8906C30.944 15.625 31.2109 15.4062 31.5234 15.2344C31.8359 15.0625 32.1615 14.9844 32.5 15ZM27.5 9C27.8516 9 28.1771 9.07812 28.4766 9.23438C28.776 9.39062 29.0365 9.60156 29.2578 9.86719C29.4792 10.1328 29.6615 10.4531 29.8047 10.8281C29.9479 11.2031 30.013 11.5938 30 12C30 12.4219 29.9349 12.8125 29.8047 13.1719C29.6745 13.5312 29.4987 13.8438 29.2773 14.1094C29.056 14.375 28.7891 14.5938 28.4766 14.7656C28.1641 14.9375 27.8385 15.0156 27.5 15C27.1484 15 26.8229 14.9219 26.5234 14.7656C26.224 14.6094 25.9635 14.3984 25.7422 14.1328C25.5208 13.8672 25.3385 13.5469 25.1953 13.1719C25.0521 12.7969 24.987 12.4062 25 12C25 11.5781 25.0651 11.1875 25.1953 10.8281C25.3255 10.4688 25.5013 10.1562 25.7227 9.89062C25.944 9.625 26.2109 9.40625 26.5234 9.23438C26.8359 9.0625 27.1615 8.98438 27.5 9Z" fill="white"/>
</svg>
