<svg width="33" height="36" viewBox="0 0 33 36" fill="none" xmlns="http://www.w3.org/2000/svg">
<path d="M25.1761 1.03125H7.82387C7.42382 1.04555 7.03198 1.18221 6.68001 1.43019C6.32805 1.67816 6.02585 2.03048 5.79785 2.45867L1.45979 10.2784C1.13767 10.871 0.976795 11.5867 1.0027 12.3119C1.02861 13.0371 1.23982 13.7303 1.6028 14.2814L14.617 33.7998C14.8398 34.1736 15.1253 34.476 15.4517 34.6841C15.778 34.8922 16.1366 35.0004 16.5 35.0004C16.8634 35.0004 17.222 34.8922 17.5483 34.6841C17.8747 34.476 18.1602 34.1736 18.383 33.7998L31.3972 14.2814C31.7602 13.7303 31.9714 13.0371 31.9973 12.3119C32.0232 11.5867 31.8623 10.871 31.5402 10.2784L27.2021 2.45867C26.9741 2.03048 26.6719 1.67816 26.32 1.43019C25.968 1.18221 25.5762 1.04555 25.1761 1.03125Z" stroke="white" stroke-width="2" stroke-linecap="round" stroke-linejoin="round"/>
<path d="M15.245 1L9.42917 12.7297L16.4845 34.9167L23.5875 12.7297L17.7954 1M1.03906 12.7297H31.9299" stroke="white" stroke-width="2" stroke-linecap="round" stroke-linejoin="round"/>
</svg>
