<svg width="36" height="36" viewBox="0 0 36 36" fill="none" xmlns="http://www.w3.org/2000/svg">
<path d="M20.4275 0.0477104C19.4221 0.228127 18.6488 0.659561 17.9668 1.42046C17.1442 2.33823 16.8068 3.30308 16.8068 4.73858V5.56223L16.5326 5.89168C16.2162 6.27605 16.1037 6.63689 16.1037 7.30365C16.1037 8.24496 16.5326 9.43729 17.1161 10.1041C17.3059 10.3158 17.4606 10.5982 17.545 10.8728C17.6996 11.3984 18.0582 12.1985 18.3465 12.677C18.5152 12.9515 18.5433 13.0457 18.473 13.1163C18.3465 13.2574 16.7224 14.1988 16.1037 14.489C15.8154 14.6302 15.2038 14.8891 14.7538 15.0695C14.2968 15.2499 13.7484 15.5166 13.5305 15.6656C13.0243 16.0029 12.3986 16.756 12.0189 17.4698C11.6463 18.168 11.2245 19.525 11.1049 20.4036L11.0206 21.0703H9.62147H8.22941V20.4506C8.22941 19.274 8.46142 19.3446 4.61568 19.3446C2.80178 19.3446 1.41675 19.376 1.31129 19.423C1.21286 19.4623 1.08631 19.5721 1.03007 19.6741C0.952729 19.8074 0.819148 21.5175 0.467617 26.679C0.207485 30.4285 0.0035971 33.6996 0.0035971 33.9428C0.0035971 34.7272 -0.270597 34.6801 3.96886 34.7037C5.97962 34.7115 7.70212 34.7037 7.79351 34.6801C8.13801 34.586 8.22941 34.3821 8.22941 33.6604V32.9936H9.60038H10.9713L14.3953 34.3742C16.2865 35.1351 18.002 35.8176 18.2129 35.8803C18.7472 36.045 19.8791 36.0372 20.4627 35.8725C20.7861 35.7705 22.9937 34.5154 27.9503 31.5973C35.7402 27.0163 35.5363 27.1575 35.8527 26.2083C36.0706 25.5808 36.0425 24.5061 35.7964 23.9884C35.5574 23.4707 35.1426 23.0079 34.6856 22.749C34.32 22.5451 34.2146 22.5215 33.6099 22.5215C33.0334 22.5294 32.8858 22.5529 32.5413 22.7333L32.1335 22.9451V22.0666C32.1335 19.729 31.4375 17.5247 30.3337 16.3481C29.6868 15.6578 29.3494 15.446 28.2245 15.0067C27.0996 14.5674 25.7497 13.8693 24.7724 13.2104L24.5475 13.0613L24.8638 12.5201C25.1872 11.9553 25.3771 11.516 25.6021 10.81C25.6864 10.5433 25.8481 10.2688 26.052 10.0413C26.6215 9.39807 27.0293 8.19005 27.0222 7.17814C27.0152 6.58982 26.8605 6.18977 26.516 5.82108C26.2981 5.58576 26.2981 5.58576 26.2981 4.73073C26.2981 3.25601 25.9817 2.34608 25.1451 1.41261C24.6037 0.808601 23.9639 0.385014 23.2327 0.173218C22.7336 0.0163307 21.0251 -0.0542641 20.4275 0.0477104ZM22.8882 1.42046C24.0202 1.74992 24.8709 2.73045 25.1099 3.98553C25.1591 4.23654 25.1802 4.74642 25.1521 5.29552C25.1099 6.32312 25.1732 6.56629 25.5247 6.69964C25.8411 6.82515 25.9184 7.09186 25.813 7.68018C25.6864 8.35478 25.356 9.02939 25.0115 9.28825C24.7654 9.47651 24.7092 9.58633 24.5123 10.2453C24.217 11.2493 23.8303 11.9867 23.303 12.5828C22.7195 13.2339 22.2203 13.5006 21.5524 13.5006C20.8845 13.5006 20.3853 13.2339 19.8018 12.5828C19.2745 11.9867 18.8878 11.2493 18.5925 10.2453C18.3957 9.58633 18.3394 9.47651 18.0934 9.28825C17.77 9.03723 17.4817 8.49598 17.327 7.81353C17.1653 7.11539 17.2286 6.84868 17.5801 6.6918C17.9668 6.52707 18.0231 6.31528 17.9668 5.30336C17.9457 4.82486 17.9598 4.2993 18.002 4.04828C18.2199 2.77751 19.0706 1.78129 20.2377 1.42046C20.7158 1.27142 22.375 1.27142 22.8882 1.42046ZM19.8088 14.2458C20.8283 14.9675 22.2766 14.9675 23.296 14.2458L23.6335 14.0105L24.2662 14.4106C25.2997 15.0616 26.8394 15.8539 27.7394 16.2069C28.2034 16.3873 28.7096 16.6148 28.8713 16.7168C29.3212 17.007 29.961 17.8307 30.2563 18.5053C30.7625 19.6584 31.0719 21.5645 30.9734 22.9216L30.9242 23.557L29.5251 24.263L28.126 24.9768V22.8902C28.126 20.8585 28.119 20.8036 27.9714 20.6232C27.7815 20.3957 27.43 20.3879 27.205 20.5918L27.0363 20.7409L27.0011 23.1569L26.966 25.5729L26.0028 26.0593L25.0466 26.5456L24.9974 26.177C24.892 25.3925 24.449 24.6787 23.8514 24.3492C23.528 24.1688 23.4788 24.1688 20.533 24.1296L17.545 24.0904L16.8278 23.706L16.1037 23.3216V22.043V20.7644L15.9209 20.6075C15.6748 20.3957 15.3514 20.3957 15.1405 20.6154C14.9929 20.7723 14.9788 20.8429 14.9788 21.7057V22.6235L13.7906 21.9254C13.1368 21.541 12.504 21.2037 12.3915 21.1802C12.1947 21.1331 12.1806 21.1096 12.2158 20.8429C12.3775 19.5799 12.9188 18.1523 13.5024 17.4384C13.9805 16.8501 14.3742 16.5913 15.3655 16.2069C16.2302 15.8696 18.0723 14.9126 18.9511 14.34C19.2253 14.1595 19.4503 14.0183 19.4573 14.0183C19.4643 14.0105 19.626 14.1203 19.8088 14.2458ZM7.10451 27.032V33.3858H4.15166C1.34644 33.3858 1.1988 33.378 1.1988 33.2446C1.1988 33.1662 1.38863 30.3187 1.62064 26.9143C1.85265 23.5099 2.04247 20.7173 2.04247 20.7017C2.04247 20.686 3.18143 20.6781 4.57349 20.6781H7.10451V27.032ZM11.9556 22.4039C12.0892 22.4431 13.186 23.0549 14.3812 23.7609C15.5834 24.4669 16.7083 25.1101 16.8771 25.1886C17.1723 25.3298 17.4255 25.3455 20.1814 25.3847C23.4999 25.4317 23.4015 25.4161 23.6968 25.9573C23.992 26.4907 23.7882 27.1575 23.2538 27.4242C22.9726 27.5654 22.7547 27.5811 19.4432 27.5811C16.0615 27.5811 15.9139 27.5889 15.6116 27.7458C14.9999 28.0517 14.5851 28.6636 14.5077 29.3853C14.4515 29.9422 14.5218 30.1618 14.803 30.2952C15.021 30.3893 15.0772 30.3893 15.2952 30.2952C15.4569 30.2167 15.5483 30.1148 15.5764 29.9814C15.5975 29.8716 15.6256 29.6912 15.6467 29.5814C15.6678 29.4715 15.7733 29.2676 15.8857 29.1264L16.0896 28.8754L19.7737 28.8362L23.4507 28.7969L28.351 26.3025C31.0508 24.9376 33.3498 23.7923 33.4623 23.7688C33.7013 23.7139 34.1302 23.855 34.4044 24.0747C34.6434 24.2786 34.8754 24.8042 34.8754 25.1572C34.8754 25.4867 34.6645 25.9965 34.4466 26.2162C34.2778 26.3887 21.1798 34.131 20.4697 34.484C20.1252 34.6488 19.9776 34.6723 19.3026 34.6723H18.5293L14.9085 33.1897L11.2877 31.7072L9.76208 31.6758L8.22941 31.6444V26.9849V22.3254H9.973C10.9292 22.3254 11.8221 22.3646 11.9556 22.4039Z" fill="white"/>
</svg>
