<svg width="56" height="38" viewBox="0 0 56 38" fill="none" xmlns="http://www.w3.org/2000/svg">
<path fill-rule="evenodd" clip-rule="evenodd" d="M30 36.8822C30 37.1787 29.8946 37.4629 29.7071 37.6725C29.5196 37.8821 29.2652 37.9999 29 37.9999C28.7348 37.9999 28.4804 37.8821 28.2929 37.6725C28.1054 37.4629 28 37.1787 28 36.8822C28 36.5858 28.1054 36.3015 28.2929 36.0919C28.4804 35.8823 28.7348 35.7646 29 35.7646C29.2652 35.7646 29.5196 35.8823 29.7071 36.0919C29.8946 36.3015 30 36.5858 30 36.8822ZM4 36.8822C4 37.1787 3.89464 37.4629 3.70711 37.6725C3.51957 37.8821 3.26522 37.9999 3 37.9999C2.73478 37.9999 2.48043 37.8821 2.29289 37.6725C2.10536 37.4629 2 37.1787 2 36.8822C2 36.5858 2.10536 36.3015 2.29289 36.0919C2.48043 35.8823 2.73478 35.7646 3 35.7646C3.26522 35.7646 3.51957 35.8823 3.70711 36.0919C3.89464 36.3015 4 36.5858 4 36.8822ZM21 33.5293H35C35.552 33.5293 36 33.0286 36 32.4116C36 31.7947 35.552 31.294 35 31.294H21C20.448 31.294 20 31.7947 20 32.4116C20 33.0286 20.448 33.5293 21 33.5293ZM7 37.9999H25C25.552 37.9999 26 37.4992 26 36.8822C26 36.2653 25.552 35.7646 25 35.7646H7C6.448 35.7646 6 36.2653 6 36.8822C6 37.4992 6.448 37.9999 7 37.9999ZM33 37.9999H53C53.552 37.9999 54 37.4992 54 36.8822C54 36.2653 53.552 35.7646 53 35.7646H33C32.448 35.7646 32 36.2653 32 36.8822C32 37.4992 32.448 37.9999 33 37.9999ZM49 33.5293H55C55.552 33.5293 56 33.0286 56 32.4116C56 31.7947 55.552 31.294 55 31.294H49C48.448 31.294 48 31.7947 48 32.4116C48 33.0286 48.448 33.5293 49 33.5293ZM1 33.5293H7C7.552 33.5293 8 33.0286 8 32.4116C8 31.7947 7.552 31.294 7 31.294H1C0.448 31.294 0 31.7947 0 32.4116C0 33.0286 0.448 33.5293 1 33.5293ZM19 16.7646H21C21.552 16.7646 22 16.2639 22 15.6469C22 15.03 21.552 14.5293 21 14.5293H19C18.448 14.5293 18 15.03 18 15.6469C18 16.2639 18.448 16.7646 19 16.7646ZM29 16.7646H31C31.552 16.7646 32 16.2639 32 15.6469C32 15.03 31.552 14.5293 31 14.5293H29C28.448 14.5293 28 15.03 28 15.6469C28 16.2639 28.448 16.7646 29 16.7646Z" fill="white"/>
<path fill-rule="evenodd" clip-rule="evenodd" d="M8.342 27.9412H3C2.204 27.9412 1.441 27.588 0.879 26.9588C0.316 26.3306 0 25.4779 0 24.5882C0 21.7136 0 16.6954 0 13.3749C0 10.9261 1.776 8.94118 3.967 8.94118H7.586L13.63 2.18612C14.882 0.786823 16.581 0 18.352 0C21.951 0 28.663 0 31.092 0C31.958 0 32.781 0.416883 33.35 1.14447L39.546 9.05965L50.698 12.1756C53.814 13.0463 56 16.1757 56 19.7656V24.5882C56 25.4779 55.684 26.3306 55.121 26.9588C54.559 27.588 53.796 27.9412 53 27.9412H47.658C46.834 30.5442 44.61 32.4118 42 32.4118C39.781 32.4118 37.842 31.0628 36.804 29.0588H19.196C18.158 31.0628 16.219 32.4118 14 32.4118C11.39 32.4118 9.166 30.5442 8.342 27.9412ZM14 21.2353C16.208 21.2353 18 23.2381 18 25.7059C18 28.1736 16.208 30.1765 14 30.1765C11.792 30.1765 10 28.1736 10 25.7059C10 23.2381 11.792 21.2353 14 21.2353ZM42 21.2353C44.208 21.2353 46 23.2381 46 25.7059C46 28.1736 44.208 30.1765 42 30.1765C39.792 30.1765 38 28.1736 38 25.7059C38 23.2381 39.792 21.2353 42 21.2353ZM6 11.1765V16.7647C6 17.3816 5.552 17.8824 5 17.8824H2V21.2353H5C5.552 21.2353 6 21.736 6 22.3529C6 22.9699 5.552 23.4706 5 23.4706H2V24.5882C2 24.8844 2.105 25.1694 2.293 25.3784C2.48 25.5885 2.735 25.7059 3 25.7059H8C8 22.0054 10.689 19 14 19C17.311 19 20 22.0054 20 25.7059C20 26.087 19.972 26.4603 19.917 26.8235H36.083C36.028 26.4603 36 26.087 36 25.7059C36 22.0054 38.689 19 42 19C45.311 19 48 22.0054 48 25.7059H53C53.265 25.7059 53.52 25.5885 53.707 25.3784C53.895 25.1694 54 24.8844 54 24.5882V23.4706H52C51.448 23.4706 51 22.9699 51 22.3529C51 21.736 51.448 21.2353 52 21.2353H54V19.7656C54 19.5063 53.984 19.2515 53.953 19H48.947C48.68 19 48.424 18.8804 48.237 18.6681C48.049 18.4568 47.945 18.1696 47.947 17.8701L47.986 13.7214L39.116 11.2435L37.447 12.1756C37.308 12.2539 37.155 12.2941 37 12.2941H10C9.845 12.2941 9.692 12.2539 9.553 12.1756L7.764 11.1765H6ZM49.958 16.7647H53.218C52.548 15.5889 51.49 14.7004 50.213 14.3439L49.989 14.2813L49.958 16.7647ZM4 11.1765H3.967C2.881 11.1765 2 12.1611 2 13.3749V15.6471H4V11.1765ZM28 2.23529V10.0588H36.764L37.395 9.70565L31.845 2.61641C31.655 2.37388 31.381 2.23529 31.092 2.23529H28ZM16 2.94388C15.654 3.16965 15.332 3.44459 15.044 3.76647L9.688 9.75259L10.236 10.0588H16V2.94388ZM26 2.23529H18.352C18.234 2.23529 18.117 2.23977 18 2.24982V10.0588H26V2.23529Z" fill="white"/>
</svg>
