<svg width="17" height="18" viewBox="0 0 17 18" fill="none" xmlns="http://www.w3.org/2000/svg">
<path id="Vector" d="M8.33333 17.3327C3.73083 17.3327 0 13.6018 0 8.99935C0 4.39685 3.73083 0.666016 8.33333 0.666016C12.9358 0.666016 16.6667 4.39685 16.6667 8.99935C16.6667 13.6018 12.9358 17.3327 8.33333 17.3327ZM8.33333 15.666C10.1014 15.666 11.7971 14.9636 13.0474 13.7134C14.2976 12.4632 15 10.7675 15 8.99935C15 7.23124 14.2976 5.53555 13.0474 4.2853C11.7971 3.03506 10.1014 2.33268 8.33333 2.33268C6.56522 2.33268 4.86953 3.03506 3.61929 4.2853C2.36905 5.53555 1.66667 7.23124 1.66667 8.99935C1.66667 10.7675 2.36905 12.4632 3.61929 13.7134C4.86953 14.9636 6.56522 15.666 8.33333 15.666ZM7.5025 12.3327L3.96667 8.79685L5.145 7.61852L7.5025 9.97602L12.2167 5.26185L13.395 6.44018L7.5025 12.3327Z" fill="white" fill-opacity="0.55"/>
</svg>
