<svg width="33" height="33" viewBox="0 0 33 33" fill="none" xmlns="http://www.w3.org/2000/svg">
<path d="M9.99731 18.8838H8.8865C8.8865 19.1784 9.00353 19.4609 9.21185 19.6693C9.42016 19.8776 9.7027 19.9946 9.99731 19.9946V18.8838ZM18.8838 18.8838V19.9946C19.1784 19.9946 19.4609 19.8776 19.6693 19.6693C19.8776 19.4609 19.9946 19.1784 19.9946 18.8838H18.8838ZM18.8838 13.3297H19.9946C19.9949 13.1838 19.9664 13.0392 19.9107 12.9042C19.8551 12.7693 19.7733 12.6466 19.6703 12.5433L18.8838 13.3297ZM14.4406 8.8865L15.227 8.10004C15.1238 7.99659 15.0012 7.91452 14.8663 7.85852C14.7313 7.80252 14.5867 7.7737 14.4406 7.7737C14.2944 7.7737 14.1498 7.80252 14.0148 7.85852C13.8799 7.91452 13.7573 7.99659 13.6541 8.10004L14.4406 8.8865ZM9.99731 13.3297L9.21085 12.5433C9.10777 12.6466 9.02606 12.7693 8.9704 12.9042C8.91475 13.0392 8.88624 13.1838 8.8865 13.3297H9.99731ZM33 31.4271L24.1135 22.5406L22.5406 24.1135L31.4271 33L33 31.4271ZM14.4406 26.6595C11.1999 26.6595 8.09196 25.3721 5.80047 23.0806C3.50897 20.7892 2.22162 17.6812 2.22162 14.4406H0C0 18.2704 1.52141 21.9434 4.22954 24.6516C6.93767 27.3597 10.6107 28.8811 14.4406 28.8811V26.6595ZM26.6595 14.4406C26.6595 17.6812 25.3721 20.7892 23.0806 23.0806C20.7892 25.3721 17.6812 26.6595 14.4406 26.6595V28.8811C18.2704 28.8811 21.9434 27.3597 24.6516 24.6516C27.3597 21.9434 28.8811 18.2704 28.8811 14.4406H26.6595ZM14.4406 2.22162C17.6812 2.22162 20.7892 3.50897 23.0806 5.80047C25.3721 8.09196 26.6595 11.1999 26.6595 14.4406H28.8811C28.8811 10.6107 27.3597 6.93767 24.6516 4.22954C21.9434 1.52141 18.2704 0 14.4406 0V2.22162ZM14.4406 0C10.6107 0 6.93767 1.52141 4.22954 4.22954C1.52141 6.93767 0 10.6107 0 14.4406H2.22162C2.22162 11.1999 3.50897 8.09196 5.80047 5.80047C8.09196 3.50897 11.1999 2.22162 14.4406 2.22162V0ZM9.99731 19.9946H18.8838V17.773H9.99731V19.9946ZM19.9946 18.8838V13.3297H17.773V18.8838H19.9946ZM19.6703 12.5433L15.227 8.10004L13.6541 9.67295L18.0973 14.1162L19.6703 12.5433ZM13.6541 8.10004L9.21085 12.5433L10.7838 14.1162L15.227 9.67295L13.6541 8.10004ZM8.8865 13.3297V18.8838H11.1081V13.3297H8.8865Z" fill="white"/>
</svg>
