<svg width="32" height="35" viewBox="0 0 32 35" fill="none" xmlns="http://www.w3.org/2000/svg">
<path d="M0.644605 24.3237L2.57842 22.2086L7.18273 22.9137L14.3655 15.0576L0 6.4964L2.57842 3.67626L20.1669 8.61151L27.3496 0.856115C27.8715 0.285372 28.5161 0 29.2835 0C30.0508 0 30.6954 0.285372 31.2173 0.856115C31.7391 1.42686 32 2.13189 32 2.97122C32 3.81055 31.7391 4.51559 31.2173 5.08633L24.1266 12.9424L28.6388 32.1799L26.0604 35L18.2331 19.2878L11.0504 27.1439L11.695 32.1799L9.76115 34.295L6.53813 27.8489L0.644605 24.3237Z" fill="white"/>
</svg>
