<svg width="35" height="36" viewBox="0 0 35 36" fill="none" xmlns="http://www.w3.org/2000/svg">
<path d="M35 23.1504V27H32.8125V24.0996L30.9497 22.166L31.001 22.1133C30.5452 22.3711 30.0382 22.5 29.48 22.5C28.9787 22.5 28.5173 22.3945 28.0957 22.1836L26.25 24.0996V27H24.0625V23.1504L26.5405 20.6191L26.4893 20.4961L22.1997 10.6172L15.2271 18.0176C15.2498 18.2051 15.2669 18.3867 15.2783 18.5625C15.2897 18.7383 15.3011 18.9258 15.3125 19.125V33.75H17.5V36H0V33.75H2.1875V19.125C2.1875 18.2344 2.34701 17.3965 2.66602 16.6113C2.98503 15.8262 3.41797 15.1289 3.96484 14.5195C4.51172 13.9102 5.16113 13.418 5.91309 13.043C6.66504 12.668 7.47396 12.4512 8.33984 12.3926L18.7305 1.37109C19.1406 0.925781 19.6191 0.585938 20.166 0.351562C20.7129 0.117188 21.2826 0 21.875 0C22.2738 0 22.6725 0.0585938 23.0713 0.175781C23.4701 0.292969 23.8517 0.46875 24.2163 0.703125C24.5809 0.9375 24.9056 1.20703 25.1904 1.51172C25.4753 1.81641 25.7031 2.16797 25.874 2.56641L32.4365 17.6484C32.5391 17.8828 32.6131 18.123 32.6587 18.3691C32.7043 18.6152 32.7271 18.8613 32.7271 19.1074C32.7271 19.3887 32.6986 19.6641 32.6416 19.9336C32.5846 20.2031 32.4878 20.4668 32.3511 20.7246L32.4878 20.584L35 23.1504ZM13.125 33.75V19.125C13.125 18.5039 13.0111 17.9238 12.7832 17.3848C12.5553 16.8457 12.242 16.3652 11.8433 15.9434C11.4445 15.5215 10.9831 15.1992 10.459 14.9766C9.9349 14.7539 9.36523 14.6367 8.75 14.625C8.14616 14.625 7.58219 14.7422 7.05811 14.9766C6.53402 15.2109 6.06689 15.5332 5.65674 15.9434C5.24658 16.3535 4.93327 16.8281 4.7168 17.3672C4.50033 17.9062 4.38639 18.4922 4.375 19.125V33.75H13.125ZM11.0059 12.7793C11.7122 13.0488 12.356 13.4297 12.937 13.9219C13.5181 14.4141 14.0023 14.9941 14.3896 15.6621L23.4473 6.06445C23.8574 5.61914 24.0625 5.09766 24.0625 4.5C24.0625 4.18359 24.0055 3.89062 23.8916 3.62109C23.7777 3.35156 23.6239 3.11719 23.4302 2.91797C23.2365 2.71875 23.0029 2.55469 22.7295 2.42578C22.4561 2.29688 22.1712 2.23828 21.875 2.25C21.2484 2.25 20.7243 2.47852 20.3027 2.93555L11.0059 12.7793ZM25.4468 7.08398C25.2417 7.42383 24.991 7.73438 24.6948 8.01562C24.3986 8.29688 24.1138 8.58398 23.8403 8.87695L27.207 16.6289L29.2065 15.75L25.4468 7.08398ZM29.48 20.25C29.8104 20.25 30.0724 20.1387 30.2661 19.916C30.4598 19.6934 30.5566 19.4238 30.5566 19.1074C30.5566 18.873 30.5054 18.6504 30.4028 18.4395C30.3003 18.2285 30.1978 18.0176 30.0952 17.8066L28.0957 18.6855C28.1641 18.8613 28.2324 19.043 28.3008 19.2305C28.3691 19.418 28.4546 19.5879 28.5571 19.7402C28.6597 19.8926 28.7793 20.0156 28.916 20.1094C29.0527 20.2031 29.2407 20.25 29.48 20.25ZM8.75 18C9.05762 18 9.34245 18.0586 9.60449 18.1758C9.86654 18.293 10.0944 18.4512 10.2881 18.6504C10.4818 18.8496 10.6413 19.0898 10.7666 19.3711C10.8919 19.6523 10.9489 19.9453 10.9375 20.25C10.9375 20.5664 10.8805 20.8594 10.7666 21.1289C10.6527 21.3984 10.4989 21.6328 10.3052 21.832C10.1115 22.0312 9.87793 22.1953 9.60449 22.3242C9.33105 22.4531 9.04622 22.5117 8.75 22.5C8.44238 22.5 8.15755 22.4414 7.89551 22.3242C7.63346 22.207 7.4056 22.0488 7.21191 21.8496C7.01823 21.6504 6.85872 21.4102 6.7334 21.1289C6.60807 20.8477 6.55111 20.5547 6.5625 20.25C6.5625 19.9336 6.61947 19.6406 6.7334 19.3711C6.84733 19.1016 7.00114 18.8672 7.19482 18.668C7.38851 18.4688 7.62207 18.3047 7.89551 18.1758C8.16895 18.0469 8.45378 17.9883 8.75 18Z" fill="white"/>
</svg>
