<svg width="22" height="20" viewBox="0 0 22 20" fill="none" xmlns="http://www.w3.org/2000/svg">
<path id="Vector" d="M21.47 16.8197L20.47 12.9597L17.32 1.36966C17.2519 1.114 17.0853 0.895738 16.8567 0.762663C16.628 0.629589 16.3559 0.592552 16.1 0.659664L12.23 1.65966C12.1376 1.55731 12.0251 1.47516 11.8995 1.41837C11.7739 1.36158 11.6379 1.33138 11.5 1.32966H1.5C1.23478 1.32966 0.98043 1.43502 0.792893 1.62256C0.605357 1.81009 0.5 2.06445 0.5 2.32966V18.3297C0.5 18.5949 0.605357 18.8492 0.792893 19.0368C0.98043 19.2243 1.23478 19.3297 1.5 19.3297H11.5C11.7652 19.3297 12.0196 19.2243 12.2071 19.0368C12.3946 18.8492 12.5 18.5949 12.5 18.3297V10.3297L14.7 18.5497C14.7586 18.7678 14.8893 18.9597 15.0709 19.0941C15.2525 19.2285 15.4742 19.2974 15.7 19.2897C15.7864 19.2995 15.8736 19.2995 15.96 19.2897L20.79 17.9997C20.9177 17.9655 21.0374 17.9064 21.1421 17.8257C21.2468 17.7451 21.3344 17.6444 21.4 17.5297C21.5055 17.3084 21.5302 17.0572 21.47 16.8197ZM5.47 17.3697H2.47V15.3697H5.47V17.3697ZM5.47 13.3697H2.47V7.36966H5.47V13.3697ZM5.47 5.36966H2.47V3.36966H5.47V5.36966ZM10.47 17.3697H7.47V15.3697H10.47V17.3697ZM10.47 13.3697H7.47V7.36966H10.47V13.3697ZM10.47 5.36966H7.47V3.36966H10.47V5.36966ZM12.72 3.62966L15.62 2.84966L16.14 4.77966L13.24 5.55966L12.72 3.62966ZM15.31 13.2897L13.76 7.48966L16.66 6.70966L18.21 12.5097L15.31 13.2897ZM16.31 17.1497L15.79 15.2197L18.69 14.4397L19.21 16.3697L16.31 17.1497Z" fill="white" fill-opacity="0.75"/>
</svg>
