<svg width="33" height="36" viewBox="0 0 33 36" fill="none" xmlns="http://www.w3.org/2000/svg">
<mask id="mask0_1352_926" style="mask-type:luminance" maskUnits="userSpaceOnUse" x="0" y="0" width="33" height="36">
<path d="M0 0H33V36H0V0Z" fill="white"/>
</mask>
<g mask="url(#mask0_1352_926)">
<path fill-rule="evenodd" clip-rule="evenodd" d="M33 0H0V36H33V0ZM12.375 7.5C12.0103 7.5 11.6606 7.65804 11.4027 7.93934C11.1449 8.22064 11 8.60218 11 9V27C11 27.3978 11.1449 27.7794 11.4027 28.0607C11.6606 28.342 12.0103 28.5 12.375 28.5C12.7397 28.5 13.0894 28.342 13.3473 28.0607C13.6051 27.7794 13.75 27.3978 13.75 27V19.5H20.625C20.9897 19.5 21.3394 19.342 21.5973 19.0607C21.8551 18.7794 22 18.3978 22 18C22 17.6022 21.8551 17.2206 21.5973 16.9393C21.3394 16.658 20.9897 16.5 20.625 16.5H13.75V10.5H20.625C20.9897 10.5 21.3394 10.342 21.5973 10.0607C21.8551 9.77936 22 9.39782 22 9C22 8.60218 21.8551 8.22064 21.5973 7.93934C21.3394 7.65804 20.9897 7.5 20.625 7.5H12.375Z" fill="white"/>
</g>
</svg>
