<svg width="37" height="36" viewBox="0 0 37 36" fill="none" xmlns="http://www.w3.org/2000/svg">
<path d="M0 10.7996V21.5996H10.8H21.6V13.7996V5.99961H16.8H12V2.99961V-0.000391006H6H0V10.7996ZM10.8 10.7996C10.8 18.9596 10.68 20.3996 9.9 20.3996C9.24 20.3996 9 19.6796 9 17.3996V14.3996H6H3V17.3996C3 19.6796 2.76 20.3996 2.1 20.3996C1.32 20.3996 1.2 18.9596 1.2 10.7996V1.19961H6H10.8V10.7996ZM20.4 13.7996V20.3996H16.2H12V13.7996V7.19961H16.2H20.4V13.7996ZM7.8 17.9996C7.8 20.2796 7.68 20.3996 6 20.3996C4.32 20.3996 4.2 20.2796 4.2 17.9996C4.2 15.7196 4.32 15.5996 6 15.5996C7.68 15.5996 7.8 15.7196 7.8 17.9996Z" fill="white"/>
<path d="M24.421 1.68039C22.381 3.84039 22.381 4.80039 24.481 6.78039C26.161 8.40039 27.601 8.88039 27.601 7.80039C27.601 6.48039 29.341 8.04039 29.701 9.66039C30.061 11.2804 30.301 11.4004 33.061 11.4004C36.001 11.4004 36.001 11.4004 36.001 9.42039C36.001 6.00039 32.101 1.80039 28.981 1.80039C28.141 1.80039 27.601 1.44039 27.601 0.900392C27.601 -0.479609 26.161 -0.179608 24.421 1.68039ZM31.081 4.68039C32.461 5.58039 34.201 8.34039 34.201 9.60039C34.201 9.90039 33.541 10.2004 32.701 10.2004C31.561 10.2004 31.201 9.90039 31.201 8.88039C31.201 7.02039 29.521 5.40039 27.541 5.40039C25.801 5.40039 24.901 4.62039 25.501 3.60039C25.921 2.88039 29.281 3.54039 31.081 4.68039Z" fill="white"/>
<path d="M25.0191 19.08C23.5191 20.7 23.6391 26.4 25.1391 28.02C26.4591 29.4 26.1591 30.12 23.6991 31.26C22.3191 31.92 21.8391 32.58 21.7191 34.08L21.5391 36H28.7991H36.0591L35.8791 34.08C35.7591 32.58 35.2791 31.92 33.8991 31.26C31.3791 30.06 31.0791 29.34 32.3991 27.9C34.0191 26.16 34.0791 20.4 32.5191 19.02C30.9591 17.58 26.2791 17.64 25.0191 19.08ZM30.1791 19.74C30.9591 20.04 31.7991 20.88 31.9791 21.54C32.1591 22.26 32.0391 22.68 31.7391 22.44C31.4391 22.26 31.1991 21.72 31.1991 21.24C31.1991 19.98 29.9991 20.22 28.4391 21.9C26.8791 23.58 24.8391 23.94 25.4391 22.44C25.6191 21.9 25.7991 21.24 25.7991 20.94C25.7991 20.46 26.8791 19.86 28.6191 19.26C28.6791 19.2 29.3991 19.44 30.1791 19.74ZM30.8391 24.36C32.2191 24.9 32.0391 26.16 30.4791 27.24C28.7391 28.5 28.4391 28.44 26.8791 26.88L25.5591 25.56L27.6591 24.84C28.7991 24.42 29.7591 24.06 29.8191 24.06C29.8791 24 30.2991 24.18 30.8391 24.36ZM29.9991 30.6C29.9991 30.9 29.6391 31.2 29.1591 31.2C28.6791 31.2 28.0791 30.9 27.8991 30.6C27.7191 30.24 28.0791 30 28.7391 30C29.4591 30 29.9991 30.24 29.9991 30.6ZM27.2391 32.76C27.7791 32.94 28.1991 33.48 28.1991 33.96C28.1991 34.56 27.4191 34.8 25.4991 34.8C22.4991 34.8 22.3791 34.68 23.7591 33.36C24.7191 32.34 25.7391 32.16 27.2391 32.76ZM33.8391 33.36C35.2191 34.68 35.0991 34.8 32.0991 34.8C30.1791 34.8 29.3991 34.56 29.3991 33.96C29.3991 32.34 32.3991 31.92 33.8391 33.36Z" fill="white"/>
<path d="M0 26.5203C0 30.0003 3.9 34.2003 7.08 34.2003C7.86 34.2003 8.4 34.5603 8.4 35.1003C8.4 36.4803 9.84 36.1803 11.58 34.3203C13.62 32.1603 13.62 31.2003 11.52 29.2203C9.84 27.6003 8.4 27.1203 8.4 28.2003C8.4 29.5203 6.66 27.9603 6.3 26.3403C5.94 24.7203 5.7 24.6003 2.94 24.6003C0 24.6003 0 24.6003 0 26.5203ZM4.8 27.1803C4.8 28.9803 6.42 30.4203 8.7 30.7203C9.84 30.8403 10.5 31.2603 10.5 31.8003C10.5 32.4603 9.96 32.6403 8.46 32.5203C5.88 32.2203 3.78 30.9003 2.64 28.7403C1.44 26.4003 1.56 25.8003 3.3 25.8003C4.5 25.8003 4.8 26.1003 4.8 27.1803Z" fill="white"/>
</svg>
