<svg width="37" height="36" viewBox="0 0 37 36" fill="none" xmlns="http://www.w3.org/2000/svg">
<path d="M25.7401 1.56598C25.7401 2.81816 25.1771 3.1312 23.3271 3.1312H20.9141V8.21816C20.9141 11.1138 21.2358 13.3051 21.7184 13.3051C22.201 13.3051 22.5228 12.9138 22.5228 12.5225C22.5228 12.0529 25.1771 11.7399 28.9575 11.7399C34.8293 11.7399 35.3923 11.8964 35.3923 13.3051C35.3923 14.7138 34.8293 14.8703 30.1641 14.8703C27.188 14.8703 24.9358 15.1834 24.9358 15.6529C24.9358 16.1225 27.5097 16.4355 30.9684 16.4355H37.001V9.78337V3.1312H34.588C32.738 3.1312 32.1749 2.81816 32.1749 1.56598C32.1749 0.235546 31.6119 0.000764847 28.9575 0.000764847C26.3032 0.000764847 25.7401 0.235546 25.7401 1.56598ZM30.1641 2.34859C30.4054 2.73989 29.9228 3.1312 28.9575 3.1312C27.9923 3.1312 27.5097 2.73989 27.751 2.34859C27.9923 1.87903 28.5554 1.56598 28.9575 1.56598C29.3597 1.56598 29.9228 1.87903 30.1641 2.34859ZM35.3923 6.49642C35.3923 9.31381 33.8641 10.1747 28.9575 10.1747C24.051 10.1747 22.5228 9.31381 22.5228 6.49642C22.5228 4.77468 22.7641 4.69642 28.9575 4.69642C35.151 4.69642 35.3923 4.77468 35.3923 6.49642Z" fill="white"/>
<path d="M18.7432 15.8095C19.2258 17.2182 16.1693 20.3487 14.8019 19.8008C13.9975 19.4878 13.6758 20.0356 13.6758 21.8356C13.6758 24.0269 13.9171 24.2617 16.1693 24.2617C17.778 24.2617 18.5019 23.9487 18.2606 23.2443C17.778 21.9139 20.8345 18.7835 22.2019 19.3313C23.0062 19.6443 23.328 19.0965 23.328 17.2965C23.328 15.1052 23.0867 14.8704 20.8345 14.8704C19.2258 14.8704 18.5019 15.1835 18.7432 15.8095Z" fill="white"/>
<path d="M4.82609 21.1304C4.82609 22.3826 4.26304 22.6957 2.41304 22.6957H0V29.3478V36H8.04348H16.087V30.913C16.087 25.6696 15.4435 24.5739 14.0761 27.5478C13.4326 29.113 12.5478 29.3478 8.60652 29.5826C3.37826 29.8174 1.6087 28.9565 1.6087 26.1391C1.6087 24.3391 1.85 24.2609 6.91739 24.2609C11.4217 24.2609 12.1457 24.1043 11.7435 23.0087C11.5022 22.3043 11.2609 21.287 11.2609 20.6609C11.2609 19.8783 10.2957 19.5652 8.04348 19.5652C5.38913 19.5652 4.82609 19.8 4.82609 21.1304ZM9.25 21.913C9.4913 22.3043 9.00869 22.6957 8.04348 22.6957C7.07826 22.6957 6.59565 22.3043 6.83696 21.913C7.07826 21.4435 7.6413 21.1304 8.04348 21.1304C8.44565 21.1304 9.00869 21.4435 9.25 21.913ZM14.4783 32.8696C14.4783 34.2783 13.9152 34.4348 8.04348 34.4348C2.17174 34.4348 1.6087 34.2783 1.6087 32.8696C1.6087 31.4609 2.17174 31.3043 8.04348 31.3043C13.9152 31.3043 14.4783 31.4609 14.4783 32.8696Z" fill="white"/>
</svg>
