<svg width="524" height="350" viewBox="0 0 524 350" fill="none" xmlns="http://www.w3.org/2000/svg">
<g clip-path="url(#clip0_1693_1000)">
<rect y="64.6309" width="315" height="72" rx="10" transform="rotate(-11.84 0 64.6309)" fill="#111212"/>
<path d="M304.777 42L307.651 37.0332C307.996 36.4356 308.09 35.7254 307.912 35.0585C307.734 34.3917 307.298 33.823 306.701 33.4773L301.729 30.6035L301.729 24.8766C301.729 24.1862 301.454 23.5241 300.966 23.0359C300.478 22.5477 299.816 22.2735 299.126 22.2735L293.402 22.2735L290.53 17.3041C290.184 16.7078 289.616 16.272 288.95 16.091C288.62 16.0015 288.276 15.9785 287.936 16.0231C287.597 16.0678 287.27 16.1794 286.975 16.3514L282.003 19.2252L277.031 16.3487C276.433 16.0036 275.723 15.91 275.056 16.0887C274.389 16.2674 273.82 16.7036 273.475 17.3015L270.601 22.2735L264.877 22.2735C264.187 22.2735 263.525 22.5477 263.037 23.0359C262.549 23.5241 262.274 24.1862 262.274 24.8766L262.274 30.6009L257.303 33.4747C257.006 33.6454 256.746 33.873 256.537 34.1444C256.329 34.4159 256.176 34.7258 256.088 35.0565C256 35.3872 255.978 35.732 256.023 36.0712C256.068 36.4105 256.18 36.7374 256.352 37.0332L259.226 42L256.352 46.9667C256.009 47.5649 255.916 48.2746 256.093 48.9412C256.271 49.6078 256.704 50.1772 257.3 50.5252L262.272 53.3991L262.272 59.1233C262.272 59.8137 262.546 60.4758 263.034 60.964C263.522 61.4522 264.184 61.7265 264.875 61.7265L270.601 61.7265L273.475 66.6984C273.706 67.0924 274.035 67.4196 274.43 67.6478C274.825 67.876 275.273 67.9974 275.729 68C276.182 68 276.633 67.8803 277.034 67.6486L282 64.7747L286.972 67.6486C287.57 67.9933 288.28 68.0868 288.946 67.9087C289.613 67.7306 290.182 67.2953 290.528 66.6984L293.399 61.7265L299.123 61.7265C299.813 61.7265 300.476 61.4522 300.964 60.964C301.452 60.4758 301.726 59.8137 301.726 59.1233L301.726 53.3991L306.698 50.5252C306.994 50.3541 307.254 50.1262 307.462 49.8547C307.67 49.5832 307.822 49.2734 307.91 48.9429C307.999 48.6124 308.021 48.2678 307.976 47.9287C307.931 47.5896 307.819 47.2627 307.648 46.9667L304.777 42Z" fill="#6E56D9"/>
<path d="M29.4927 74.7634C29.6377 75.455 29.6113 76.1417 29.4137 76.8234C29.216 77.5052 28.7994 78.117 28.1637 78.659C27.5253 79.1879 26.645 79.57 25.5227 79.8052L23.0563 80.3223L24.2135 85.8423L21.982 86.3101L19.13 72.7058L23.8279 71.721C24.8719 71.5021 25.791 71.5001 26.5854 71.7151C27.39 71.9142 28.0328 72.2835 28.5137 72.823C29.0077 73.3597 29.334 74.0065 29.4927 74.7634ZM25.1411 77.9848C25.9893 77.807 26.5825 77.4851 26.9208 77.0191C27.2563 76.5401 27.3502 75.9482 27.2025 75.2435C26.8906 73.7559 25.893 73.1885 24.2096 73.5414L21.7432 74.0585L22.6747 78.5019L25.1411 77.9848ZM32.8183 68.9167L35.855 83.4018L33.6235 83.8696L30.5868 69.3845L32.8183 68.9167ZM36.9001 77.5018C36.673 76.4187 36.6938 75.413 36.9624 74.4848C37.2441 73.5539 37.722 72.7794 38.3962 72.1612C39.0807 71.5273 39.8927 71.1119 40.8323 70.9149C41.6805 70.7371 42.4534 70.7521 43.1509 70.9601C43.8587 71.1523 44.4538 71.4567 44.9362 71.8732L44.6079 70.3073L46.859 69.8354L49.1201 80.6209L46.869 81.0928L46.5325 79.4877C46.2608 80.076 45.8342 80.6081 45.2529 81.0842C44.6715 81.5603 43.9632 81.8859 43.1281 82.061C42.2015 82.2552 41.3041 82.1981 40.4356 81.8898C39.5645 81.5683 38.8116 81.0314 38.1771 80.2789C37.5528 79.5106 37.1272 78.5849 36.9001 77.5018ZM45.7364 75.6903C45.5805 74.9464 45.2885 74.3333 44.8604 73.8509C44.4453 73.3657 43.9598 73.0315 43.4037 72.8484C42.8476 72.6653 42.2825 72.6339 41.7083 72.7543C41.1341 72.8746 40.6292 73.1304 40.1935 73.5214C39.755 73.8994 39.4367 74.3953 39.2384 75.009C39.0504 75.607 39.0344 76.2779 39.1903 77.0217C39.3463 77.7655 39.6331 78.3866 40.0509 78.8848C40.4817 79.3802 40.9765 79.7261 41.5354 79.9223C42.1045 80.1027 42.6696 80.134 43.2307 80.0164C43.8049 79.896 44.3099 79.6403 44.7456 79.2493C45.1813 78.8582 45.4917 78.3572 45.677 77.7462C45.8725 77.1194 45.8924 76.4341 45.7364 75.6903ZM55.1947 67.9039C56.043 67.7261 56.8368 67.7436 57.5762 67.9564C58.3286 68.1665 58.9666 68.5777 59.49 69.19C60.0134 69.8023 60.3777 70.5978 60.5829 71.5765L61.9166 77.9382L59.7047 78.4019L58.4408 72.373C58.2383 71.4073 57.8423 70.7206 57.2528 70.3129C56.6605 69.8922 55.9468 69.7693 55.1116 69.9444C54.2765 70.1195 53.6656 70.52 53.2792 71.1459C52.903 71.7561 52.8162 72.544 53.0186 73.5097L54.2825 79.5386L52.051 80.0064L49.79 69.2209L52.0215 68.7531L52.28 69.9863C52.5524 69.466 52.9431 69.0231 53.4523 68.6575C53.9745 68.2892 54.5553 68.038 55.1947 67.9039ZM67.9067 65.239C68.7549 65.0612 69.5487 65.0787 70.2881 65.2915C71.0406 65.5016 71.6785 65.9128 72.2019 66.5251C72.7254 67.1374 73.0897 67.9329 73.2949 68.9116L74.6285 75.2733L72.4166 75.737L71.1527 69.7081C70.9503 68.7424 70.5543 68.0557 69.9648 67.648C69.3725 67.2272 68.6588 67.1044 67.8236 67.2795C66.9884 67.4546 66.3776 67.8551 65.9911 68.481C65.615 69.0912 65.5281 69.8791 65.7306 70.8448L66.9945 76.8737L64.763 77.3415L62.5019 66.556L64.7334 66.0882L64.9919 67.3214C65.2643 66.8011 65.6551 66.3581 66.1642 65.9926C66.6864 65.6242 67.2673 65.3731 67.9067 65.239ZM76.0496 62.2241C75.6451 62.3089 75.2771 62.243 74.9456 62.0264C74.6141 61.8098 74.4059 61.4993 74.3211 61.0947C74.2363 60.6902 74.3022 60.3222 74.5188 59.9907C74.7354 59.6592 75.046 59.451 75.4505 59.3662C75.842 59.2842 76.2035 59.3514 76.535 59.568C76.8665 59.7846 77.0746 60.0952 77.1594 60.4997C77.2442 60.9042 77.1783 61.2723 76.9617 61.6038C76.7452 61.9353 76.4411 62.142 76.0496 62.2241ZM77.4454 63.4232L79.7064 74.2088L77.4749 74.6766L75.2139 63.8911L77.4454 63.4232ZM85.7799 61.4921C86.6281 61.3143 87.4219 61.3318 88.1613 61.5446C88.9138 61.7547 89.5517 62.1658 90.0751 62.7781C90.5986 63.3904 90.9629 64.186 91.1681 65.1647L92.5017 71.5264L90.2898 71.9901L89.0259 65.9611C88.8235 64.9955 88.4275 64.3088 87.8379 63.9011C87.2457 63.4803 86.532 63.3575 85.6968 63.5325C84.8616 63.7076 84.2508 64.1081 83.8643 64.7341C83.4882 65.3443 83.4013 66.1322 83.6038 67.0978L84.8677 73.1268L82.6362 73.5946L80.3751 62.8091L82.6066 62.3412L82.8651 63.5744C83.1375 63.0541 83.5283 62.6112 84.0374 62.2456C84.5596 61.8773 85.1404 61.6261 85.7799 61.4921ZM97.3957 59.057C98.2308 58.8819 99.0037 58.8969 99.7143 59.1022C100.435 59.2916 101.03 59.596 101.5 60.0153L101.171 58.4493L103.422 57.9774L105.72 68.9391C105.928 69.9309 105.904 70.8555 105.648 71.713C105.395 72.5835 104.916 73.3241 104.213 73.9346C103.523 74.5425 102.63 74.9613 101.534 75.1911C100.073 75.4975 98.7864 75.4061 97.6758 74.9169C96.5678 74.4408 95.8255 73.6292 95.4488 72.482L97.6607 72.0183C97.948 72.5439 98.4012 72.9189 99.0204 73.1433C99.6554 73.378 100.358 73.4146 101.128 73.2532C102.028 73.0645 102.695 72.6386 103.128 71.9756C103.574 71.3099 103.688 70.455 103.469 69.4111L103.092 67.6102C102.82 68.1985 102.395 68.7372 101.816 69.2263C101.248 69.6996 100.553 70.0225 99.7306 70.1948C98.791 70.3918 97.8805 70.3375 96.999 70.0318C96.1279 69.7104 95.375 69.1734 94.7405 68.421C94.1162 67.6527 93.6906 66.727 93.4635 65.6439C93.2364 64.5608 93.2572 63.5551 93.5258 62.6269C93.8075 61.696 94.2854 60.9215 94.9596 60.3033C95.644 59.6694 96.4561 59.2539 97.3957 59.057ZM102.3 63.8323C102.144 63.0885 101.852 62.4754 101.424 61.9929C101.009 61.5078 100.523 61.1736 99.9671 60.9905C99.411 60.8074 98.8459 60.776 98.2717 60.8963C97.6975 61.0167 97.1926 61.2724 96.7569 61.6635C96.3184 62.0415 96.0001 62.5373 95.8018 63.1511C95.6138 63.7491 95.5978 64.4199 95.7537 65.1638C95.9097 65.9076 96.1965 66.5286 96.6143 67.0268C97.0451 67.5223 97.5399 67.8682 98.0987 68.0643C98.6679 68.2447 99.233 68.2761 99.7941 68.1585C100.368 68.0381 100.873 67.7824 101.309 67.3913C101.745 67.0003 102.055 66.4993 102.24 65.8883C102.436 65.2615 102.456 64.5762 102.3 63.8323ZM118.21 66.2799C117.297 66.4714 116.442 66.4871 115.646 66.3271C114.846 66.1541 114.177 65.8177 113.636 65.318C113.095 64.8183 112.743 64.177 112.579 63.394L114.967 62.8934C115.142 63.4697 115.472 63.9046 115.955 64.1983C116.452 64.4892 117.073 64.5566 117.817 64.4007C118.586 64.2393 119.148 63.9308 119.503 63.4751C119.854 63.0064 119.968 62.4784 119.845 61.8912C119.749 61.4344 119.534 61.0912 119.2 60.8616C118.879 60.6292 118.499 60.4771 118.062 60.4053C117.638 60.3308 117.054 60.2761 116.311 60.2411C115.374 60.1922 114.601 60.1092 113.991 59.9919C113.39 59.8589 112.841 59.5789 112.343 59.1521C111.845 58.7252 111.507 58.0876 111.329 57.2394C111.165 56.4564 111.217 55.7303 111.486 55.061C111.754 54.3917 112.208 53.8266 112.847 53.3656C113.486 52.9047 114.268 52.5771 115.195 52.3829C116.513 52.1066 117.659 52.2137 118.634 52.7041C119.619 53.1788 120.278 53.9807 120.61 55.1099L118.143 55.627C118 55.1393 117.676 54.7644 117.172 54.5024C116.667 54.2403 116.063 54.1831 115.358 54.3309C114.719 54.4649 114.231 54.7375 113.895 55.1485C113.559 55.5596 113.455 56.0718 113.583 56.6851C113.671 57.1027 113.867 57.4225 114.173 57.6446C114.489 57.8509 114.859 57.9913 115.283 58.0658C115.707 58.1403 116.278 58.1978 116.995 58.2382C117.947 58.2974 118.73 58.3921 119.343 58.5225C119.969 58.65 120.533 58.9338 121.034 59.3737C121.545 59.7978 121.891 60.4405 122.071 61.3018C122.216 61.9934 122.164 62.6856 121.914 63.3782C121.677 64.0682 121.24 64.6776 120.601 65.2065C119.973 65.7196 119.176 66.0774 118.21 66.2799ZM134.212 56.8766C134.297 57.2812 134.347 57.652 134.363 57.9892L126.123 59.7168C126.368 60.5644 126.833 61.189 127.517 61.5907C128.2 61.9923 128.96 62.1055 129.795 61.9304C130.995 61.6788 131.738 60.9985 132.024 59.8897L134.431 59.385C134.313 60.4452 133.89 61.3852 133.163 62.2052C132.446 63.0094 131.455 63.5442 130.189 63.8096C129.158 64.0257 128.183 63.9916 127.266 63.7072C126.358 63.407 125.582 62.8886 124.937 62.1519C124.302 61.3994 123.869 60.4686 123.636 59.3594C123.404 58.2501 123.422 57.2314 123.69 56.3032C123.969 55.3593 124.465 54.5741 125.179 53.9477C125.905 53.3186 126.797 52.8933 127.854 52.6717C128.872 52.4583 129.825 52.49 130.714 52.7668C131.603 53.0437 132.354 53.5401 132.968 54.2562C133.578 54.9592 133.993 55.8327 134.212 56.8766ZM131.735 56.6603C131.549 55.8409 131.118 55.2434 130.439 54.8679C129.761 54.4924 128.998 54.3936 128.15 54.5714C127.38 54.7328 126.773 55.1189 126.329 55.7297C125.882 56.3274 125.694 57.0548 125.765 57.9119L131.735 56.6603ZM141.546 61.4287C140.697 61.6066 139.903 61.6165 139.161 61.4586C138.43 61.285 137.814 60.9782 137.313 60.5383C136.809 60.0853 136.476 59.5353 136.313 58.8883L138.623 58.4041C138.758 58.8526 139.054 59.1924 139.511 59.4236C139.978 59.6389 140.512 59.6836 141.113 59.5578C141.739 59.4265 142.197 59.2078 142.487 58.9018C142.788 58.58 142.898 58.2299 142.819 57.8514C142.734 57.4469 142.475 57.1878 142.043 57.0741C141.623 56.9577 140.971 56.8696 140.087 56.8098C139.231 56.7575 138.527 56.6804 137.974 56.5783C137.422 56.4762 136.911 56.2495 136.442 55.8982C135.987 55.5441 135.685 55.0148 135.537 54.3101C135.417 53.7359 135.477 53.1784 135.718 52.6374C135.956 52.0835 136.359 51.6038 136.928 51.1985C137.51 50.7904 138.212 50.5001 139.035 50.3278C140.261 50.0706 141.312 50.1773 142.187 50.6477C143.073 51.1024 143.654 51.8593 143.93 52.9184L141.699 53.3862C141.558 52.9116 141.282 52.5677 140.869 52.3544C140.457 52.1412 139.95 52.0975 139.35 52.2234C138.763 52.3465 138.336 52.5518 138.069 52.8393C137.803 53.1268 137.708 53.4532 137.784 53.8186C137.844 54.1057 137.999 54.3252 138.249 54.4772C138.499 54.6292 138.786 54.7324 139.111 54.787C139.433 54.8284 139.906 54.8724 140.528 54.919C141.355 54.9636 142.04 55.0449 142.582 55.1628C143.135 55.2649 143.638 55.4864 144.091 55.8274C144.543 56.1684 144.849 56.6833 145.007 57.3722C145.136 57.9856 145.081 58.5692 144.843 59.1232C144.605 59.6772 144.201 60.1568 143.632 60.5622C143.076 60.9648 142.381 61.2537 141.546 61.4287ZM152.002 59.2367C151.154 59.4145 150.359 59.4245 149.617 59.2666C148.886 59.0929 148.27 58.7861 147.769 58.3462C147.266 57.8933 146.932 57.3433 146.769 56.6963L149.079 56.212C149.214 56.6606 149.51 57.0004 149.967 57.2315C150.435 57.4468 150.969 57.4916 151.569 57.3657C152.195 57.2344 152.653 57.0158 152.944 56.7097C153.244 56.3879 153.354 56.0378 153.275 55.6594C153.19 55.2548 152.932 54.9957 152.499 54.882C152.08 54.7656 151.428 54.6775 150.543 54.6177C149.688 54.5655 148.983 54.4883 148.431 54.3862C147.878 54.2841 147.367 54.0574 146.899 53.7061C146.443 53.3521 146.141 52.8227 145.994 52.118C145.873 51.5439 145.933 50.9863 146.174 50.4454C146.412 49.8914 146.816 49.4118 147.385 49.0064C147.967 48.5983 148.669 48.3081 149.491 48.1357C150.718 47.8786 151.768 47.9852 152.644 48.4557C153.529 48.9103 154.11 49.6672 154.387 50.7264L152.155 51.1942C152.015 50.7195 151.738 50.3756 151.326 50.1624C150.913 49.9492 150.407 49.9055 149.807 50.0313C149.219 50.1544 148.792 50.3597 148.526 50.6472C148.259 50.9347 148.164 51.2612 148.241 51.6266C148.301 51.9136 148.456 52.1332 148.706 52.2852C148.955 52.4371 149.243 52.5404 149.567 52.5949C149.889 52.6364 150.362 52.6804 150.985 52.7269C151.811 52.7716 152.496 52.8528 153.038 52.9707C153.591 53.0728 154.094 53.2944 154.547 53.6354C155 53.9764 155.305 54.4913 155.463 55.1802C155.592 55.7935 155.537 56.3772 155.299 56.9311C155.061 57.4851 154.657 57.9648 154.089 58.3701C153.533 58.7727 152.837 59.0616 152.002 59.2367ZM157.081 45.2367C156.677 45.3215 156.309 45.2556 155.977 45.039C155.646 44.8224 155.437 44.5119 155.353 44.1073C155.268 43.7028 155.334 43.3348 155.55 43.0033C155.767 42.6718 156.077 42.4636 156.482 42.3788C156.873 42.2967 157.235 42.364 157.566 42.5806C157.898 42.7972 158.106 43.1078 158.191 43.5123C158.276 43.9168 158.21 44.2849 157.993 44.6163C157.777 44.9478 157.473 45.1546 157.081 45.2367ZM158.477 46.4358L160.738 57.2214L158.506 57.6892L156.245 46.9036L158.477 46.4358ZM168.383 55.8026C167.365 56.016 166.397 55.9805 165.479 55.6961C164.559 55.3987 163.776 54.8816 163.131 54.1449C162.483 53.3952 162.043 52.4657 161.811 51.3565C161.581 50.2603 161.619 49.2375 161.924 48.288C162.229 47.3386 162.751 46.5479 163.49 45.9161C164.23 45.2843 165.115 44.8603 166.146 44.6442C167.177 44.4281 168.158 44.4608 169.089 44.7425C170.02 45.0241 170.815 45.5385 171.476 46.2855C172.137 47.0325 172.582 47.9541 172.812 49.0502C173.041 50.1464 172.997 51.1706 172.679 52.1228C172.361 53.075 171.821 53.8762 171.058 54.5266C170.306 55.1611 169.414 55.5865 168.383 55.8026ZM167.977 53.8647C168.551 53.7444 169.057 53.4952 169.496 53.1172C169.947 52.7364 170.272 52.2392 170.47 51.6254C170.669 51.0117 170.686 50.3133 170.521 49.5304C170.357 48.7474 170.069 48.1198 169.657 47.6477C169.242 47.1626 168.758 46.8349 168.204 46.6648C167.651 46.4948 167.087 46.4699 166.513 46.5903C165.939 46.7106 165.432 46.9598 164.994 47.3378C164.569 47.7131 164.27 48.2049 164.098 48.8131C163.923 49.4084 163.917 50.0975 164.081 50.8804C164.325 52.0419 164.807 52.8807 165.529 53.3971C166.26 53.8976 167.076 54.0535 167.977 53.8647ZM179.294 41.8878C180.142 41.71 180.936 41.7275 181.675 41.9403C182.428 42.1504 183.066 42.5616 183.589 43.1739C184.113 43.7862 184.477 44.5817 184.682 45.5604L186.016 51.9221L183.804 52.3858L182.54 46.3569C182.338 45.3912 181.942 44.7045 181.352 44.2968C180.76 43.8761 180.046 43.7532 179.211 43.9283C178.376 44.1034 177.765 44.5039 177.378 45.1298C177.002 45.74 176.915 46.5279 177.118 47.4936L178.382 53.5225L176.15 53.9903L173.889 43.2048L176.121 42.737L176.379 43.9702C176.652 43.4499 177.042 43.007 177.551 42.6414C178.074 42.2731 178.655 42.0219 179.294 41.8878Z" fill="white"/>
<path d="M38.8908 113.626C33.4853 114.759 28.185 111.296 27.0518 105.891C25.9186 100.485 29.3817 95.1849 34.7872 94.0517C40.1927 92.9185 45.4931 96.3817 46.6263 101.787C47.7595 107.193 44.2963 112.493 38.8908 113.626ZM38.4805 111.669C40.5571 111.233 42.3757 109.991 43.5362 108.215C44.6968 106.439 45.1042 104.274 44.6688 102.198C44.2335 100.121 42.9911 98.3023 41.2149 97.1418C39.4387 95.9813 37.2742 95.5738 35.1976 96.0092C33.121 96.4445 31.3024 97.6869 30.1419 99.4631C28.9813 101.239 28.5739 103.404 29.0092 105.48C29.4446 107.557 30.687 109.376 32.4632 110.536C34.2394 111.697 36.4039 112.104 38.4805 111.669ZM37.8178 103.634L41.7327 102.813L42.143 104.771L36.2707 106.002L34.8344 99.1505L36.7919 98.7402L37.8178 103.634Z" fill="#6A6F84"/>
<path d="M272.924 38.6571L273.248 40.2054L269.261 41.0413L269.775 43.494L272.831 42.8534L273.15 44.3744L270.094 45.0149L270.941 49.0571L269.023 49.4592L267.018 39.8951L272.924 38.6571ZM276.863 41.1213C277.025 40.6676 277.279 40.2854 277.624 39.9747C277.978 39.6621 278.411 39.4522 278.922 39.3449L279.345 41.3591L278.838 41.4654C278.235 41.5918 277.808 41.8292 277.556 42.1774C277.314 42.5238 277.267 43.0487 277.415 43.7521L278.207 47.5339L276.289 47.936L274.698 40.345L276.616 39.9429L276.863 41.1213ZM288.055 41.3354C288.113 41.6094 288.146 41.8599 288.156 42.0868L282.606 43.2502C282.767 43.7887 283.049 44.1778 283.452 44.4175C283.855 44.6573 284.303 44.7254 284.796 44.622C285.509 44.4726 285.952 44.0603 286.125 43.3851L288.194 42.9514C288.128 43.7281 287.834 44.4191 287.312 45.0243C286.789 45.6204 286.075 46.0132 285.171 46.2028C284.44 46.356 283.749 46.3341 283.097 46.1369C282.452 45.9287 281.904 45.5622 281.45 45.0374C281.006 44.5106 280.703 43.859 280.54 43.0826C280.375 42.297 280.39 41.5738 280.586 40.913C280.781 40.2522 281.133 39.7017 281.641 39.2613C282.15 38.8209 282.778 38.5222 283.527 38.3652C284.249 38.2139 284.926 38.2342 285.557 38.4261C286.198 38.616 286.734 38.9662 287.165 39.4765C287.603 39.9759 287.9 40.5955 288.055 41.3354ZM285.953 41.2038C285.841 40.7125 285.58 40.357 285.172 40.1375C284.762 39.9088 284.305 39.8471 283.803 39.9524C283.328 40.052 282.957 40.2824 282.689 40.6437C282.429 40.9939 282.316 41.4324 282.35 41.9593L285.953 41.2038ZM296.512 39.5625C296.569 39.8366 296.603 40.087 296.612 40.3139L291.063 41.4773C291.224 42.0158 291.505 42.4049 291.908 42.6446C292.312 42.8844 292.76 42.9525 293.253 42.8491C293.966 42.6998 294.408 42.2875 294.581 41.6122L296.65 41.1785C296.584 41.9552 296.291 42.6462 295.769 43.2514C295.246 43.8475 294.532 44.2404 293.627 44.43C292.897 44.5832 292.205 44.5612 291.554 44.364C290.909 44.1558 290.36 43.7893 289.907 43.2645C289.463 42.7377 289.159 42.0862 288.997 41.3097C288.832 40.5241 288.847 39.8009 289.042 39.1401C289.238 38.4794 289.589 37.9288 290.098 37.4884C290.606 37.0481 291.235 36.7494 291.984 36.5923C292.706 36.441 293.382 36.4613 294.014 36.6532C294.655 36.8431 295.19 37.1933 295.622 37.7037C296.06 38.203 296.357 38.8226 296.512 39.5625ZM294.41 39.4309C294.298 38.9396 294.037 38.5841 293.629 38.3646C293.219 38.1359 292.762 38.0742 292.26 38.1796C291.785 38.2791 291.413 38.5096 291.146 38.8708C290.886 39.221 290.772 39.6596 290.807 40.1864L294.41 39.4309Z" fill="white"/>
<path d="M57.1661 96.9269C56.6935 95.8163 55.8569 95.3868 54.6563 95.6385C53.7272 95.8332 53.1084 96.3389 52.8001 97.1556C52.4896 97.9618 52.5113 99.1833 52.8654 100.82C52.9917 100.227 53.2998 99.721 53.7896 99.3022C54.2877 98.8709 54.8812 98.5829 55.5703 98.4385C56.6456 98.2131 57.5717 98.3677 58.3485 98.9023C59.1359 99.4348 59.6532 100.291 59.9005 101.471C60.0493 102.18 60.0419 102.847 59.8782 103.47C59.725 104.09 59.4015 104.627 58.9078 105.079C58.4245 105.529 57.7862 105.837 56.9927 106.004C55.9174 106.229 55.0267 106.165 54.3205 105.812C53.6144 105.459 53.0526 104.884 52.6352 104.089C52.2178 103.294 51.8789 102.275 51.6184 101.033C50.8152 97.2011 51.7499 95.0053 54.4225 94.445C55.4456 94.2306 56.3074 94.3387 57.008 94.7694C57.7087 95.2002 58.1998 95.8274 58.4815 96.6512L57.1661 96.9269ZM55.5255 99.7067C55.0766 99.8008 54.6735 99.9834 54.3162 100.254C53.9567 100.515 53.691 100.86 53.5193 101.288C53.3558 101.704 53.3298 102.178 53.4414 102.71C53.6078 103.504 53.9731 104.103 54.5375 104.508C55.0997 104.902 55.8089 105.009 56.6649 104.83C57.3957 104.677 57.9281 104.331 58.262 103.792C58.6042 103.241 58.6943 102.579 58.5323 101.806C58.3616 100.992 58.0193 100.399 57.5054 100.027C56.9893 99.645 56.3294 99.5381 55.5255 99.7067ZM61.3929 99.0161C61.0165 97.2205 61.0155 95.7603 61.39 94.6355C61.7624 93.5003 62.6793 92.7795 64.1409 92.4731C65.592 92.1689 66.716 92.4618 67.5129 93.3519C68.3077 94.2315 68.8933 95.5692 69.2697 97.3648C69.6527 99.1918 69.658 100.673 69.2857 101.808C68.9134 102.943 68.0016 103.663 66.5505 103.967C65.0889 104.274 63.9597 103.982 63.1628 103.092C62.3659 102.202 61.7759 100.843 61.3929 99.0161ZM67.8603 97.6603C67.6699 96.752 67.4464 95.9978 67.1898 95.3977C66.9415 94.785 66.5889 94.3248 66.1321 94.0174C65.6857 93.7077 65.1128 93.6262 64.4134 93.7728C63.7035 93.9216 63.2011 94.2286 62.9062 94.6936C62.6218 95.1565 62.4837 95.7195 62.492 96.3826C62.5084 97.033 62.6119 97.8124 62.8023 98.7206C62.9992 99.6602 63.2219 100.436 63.4702 101.049C63.729 101.66 64.0816 102.12 64.528 102.429C64.9848 102.737 65.5681 102.816 66.278 102.667C66.9775 102.521 67.4694 102.216 67.7538 101.753C68.0487 101.288 68.1868 100.725 68.1681 100.064C68.1599 99.4012 68.0573 98.5999 67.8603 97.6603ZM81.1601 91.7824C81.8283 91.6423 82.4529 91.6585 83.034 91.8309C83.6129 91.9929 84.1117 92.3189 84.5304 92.8087C84.9492 93.2985 85.2417 93.9402 85.408 94.7336L86.4684 99.7916L85.059 100.087L84.0414 95.2326C83.8619 94.3766 83.5111 93.7689 82.989 93.4098C82.4751 93.038 81.858 92.9276 81.1376 93.0786C80.3964 93.234 79.8569 93.5977 79.5191 94.1699C79.1791 94.7316 79.1032 95.4613 79.2914 96.3592L80.2829 101.088L78.8735 101.384L77.8558 96.5293C77.6764 95.6733 77.3256 95.0657 76.8034 94.7065C76.2895 94.3347 75.6724 94.2243 74.9521 94.3753C74.2109 94.5307 73.6713 94.8945 73.3336 95.4666C72.9936 96.0283 72.9177 96.7581 73.1059 97.6559L74.0973 102.385L72.6723 102.684L70.8733 94.1024L72.2983 93.8036L72.5577 95.0407C72.7454 94.5327 73.049 94.1094 73.4685 93.7708C73.8984 93.4301 74.4004 93.1995 74.9746 93.0791C75.6949 92.9281 76.3657 92.9564 76.9868 93.164C77.608 93.3717 78.1199 93.7602 78.5227 94.3297C78.6359 93.6739 78.9341 93.1209 79.4174 92.6709C79.9006 92.2208 80.4816 91.9246 81.1601 91.7824ZM87.4508 89.1721C87.1793 89.229 86.93 89.1832 86.7027 89.0347C86.4754 88.8862 86.3333 88.6762 86.2763 88.4048C86.2194 88.1333 86.2653 87.884 86.4138 87.6567C86.5623 87.4293 86.7723 87.2872 87.0437 87.2303C87.3047 87.1756 87.5436 87.2236 87.7605 87.3743C87.9878 87.5229 88.1299 87.7328 88.1868 88.0043C88.2437 88.2757 88.1979 88.5251 88.0494 88.7524C87.9113 88.9775 87.7118 89.1174 87.4508 89.1721ZM88.432 90.4214L90.231 99.0028L88.806 99.3016L87.007 90.7201L88.432 90.4214ZM95.009 88.8791C96.0529 88.6603 96.9653 88.8014 97.7461 89.3025C98.5247 89.7932 99.0387 90.6336 99.2882 91.8238L100.349 96.8818L98.9392 97.1773L97.9215 92.3228C97.742 91.4667 97.3912 90.8591 96.8691 90.4999C96.3448 90.1303 95.712 90.0232 94.9708 90.1786C94.2191 90.3362 93.6681 90.6969 93.3177 91.2608C92.9777 91.8225 92.9018 92.5523 93.09 93.4501L94.0847 98.1949L92.6597 98.4937L90.8607 89.9122L92.2857 89.6135L92.5418 90.8349C92.7317 90.3374 93.0416 89.9182 93.4715 89.5774C93.9119 89.2344 94.4243 89.0017 95.009 88.8791Z" fill="#6A6F84"/>
</g>
<g clip-path="url(#clip1_1693_1000)">
<rect x="49" y="267.631" width="315" height="72" rx="10" transform="rotate(-11.84 49 267.631)" fill="#111212"/>
<path d="M87.8908 316.626C82.4853 317.759 77.185 314.296 76.0518 308.891C74.9186 303.485 78.3817 298.185 83.7872 297.052C89.1927 295.919 94.4931 299.382 95.6263 304.787C96.7595 310.193 93.2963 315.493 87.8908 316.626ZM87.4805 314.669C89.5571 314.233 91.3757 312.991 92.5362 311.215C93.6968 309.439 94.1042 307.274 93.6688 305.198C93.2335 303.121 91.9911 301.302 90.2149 300.142C88.4387 298.981 86.2742 298.574 84.1976 299.009C82.121 299.445 80.3024 300.687 79.1419 302.463C77.9813 304.239 77.5739 306.404 78.0092 308.48C78.4446 310.557 79.687 312.376 81.4632 313.536C83.2394 314.697 85.4039 315.104 87.4805 314.669ZM86.8178 306.634L90.7327 305.813L91.143 307.771L85.2707 309.002L83.8344 302.151L85.7919 301.74L86.8178 306.634Z" fill="#6A6F84"/>
<path d="M106.166 299.927C105.693 298.816 104.857 298.387 103.656 298.638C102.727 298.833 102.108 299.339 101.8 300.156C101.49 300.962 101.511 302.183 101.865 303.82C101.992 303.227 102.3 302.721 102.79 302.302C103.288 301.871 103.881 301.583 104.57 301.438C105.646 301.213 106.572 301.368 107.349 301.902C108.136 302.435 108.653 303.291 108.901 304.471C109.049 305.18 109.042 305.847 108.878 306.47C108.725 307.09 108.401 307.627 107.908 308.079C107.425 308.529 106.786 308.837 105.993 309.004C104.917 309.229 104.027 309.165 103.321 308.812C102.614 308.459 102.053 307.884 101.635 307.089C101.218 306.294 100.879 305.275 100.618 304.033C99.8152 300.201 100.75 298.005 103.422 297.445C104.446 297.231 105.307 297.339 106.008 297.769C106.709 298.2 107.2 298.827 107.481 299.651L106.166 299.927ZM104.526 302.707C104.077 302.801 103.674 302.983 103.316 303.254C102.957 303.515 102.691 303.86 102.519 304.288C102.356 304.704 102.33 305.178 102.441 305.71C102.608 306.504 102.973 307.103 103.538 307.508C104.1 307.902 104.809 308.009 105.665 307.83C106.396 307.677 106.928 307.331 107.262 306.792C107.604 306.241 107.694 305.579 107.532 304.806C107.362 303.992 107.019 303.399 106.505 303.027C105.989 302.645 105.329 302.538 104.526 302.707ZM110.393 302.016C110.016 300.22 110.016 298.76 110.39 297.635C110.762 296.5 111.679 295.779 113.141 295.473C114.592 295.169 115.716 295.462 116.513 296.352C117.308 297.232 117.893 298.569 118.27 300.365C118.653 302.192 118.658 303.673 118.286 304.808C117.913 305.943 117.002 306.663 115.551 306.967C114.089 307.274 112.96 306.982 112.163 306.092C111.366 305.202 110.776 303.843 110.393 302.016ZM116.86 300.66C116.67 299.752 116.446 298.998 116.19 298.398C115.941 297.785 115.589 297.325 115.132 297.017C114.686 296.708 114.113 296.626 113.413 296.773C112.703 296.922 112.201 297.229 111.906 297.694C111.622 298.157 111.484 298.719 111.492 299.383C111.508 300.033 111.612 300.812 111.802 301.721C111.999 302.66 112.222 303.436 112.47 304.049C112.729 304.66 113.082 305.12 113.528 305.429C113.985 305.737 114.568 305.816 115.278 305.667C115.977 305.521 116.469 305.216 116.754 304.753C117.049 304.288 117.187 303.725 117.168 303.064C117.16 302.401 117.057 301.6 116.86 300.66ZM130.16 294.782C130.828 294.642 131.453 294.658 132.034 294.831C132.613 294.993 133.112 295.319 133.53 295.809C133.949 296.299 134.242 296.94 134.408 297.734L135.468 302.792L134.059 303.087L133.041 298.233C132.862 297.377 132.511 296.769 131.989 296.41C131.475 296.038 130.858 295.928 130.138 296.079C129.396 296.234 128.857 296.598 128.519 297.17C128.179 297.732 128.103 298.461 128.291 299.359L129.283 304.088L127.874 304.384L126.856 299.529C126.676 298.673 126.326 298.066 125.803 297.706C125.29 297.335 124.672 297.224 123.952 297.375C123.211 297.531 122.671 297.894 122.334 298.467C121.994 299.028 121.918 299.758 122.106 300.656L123.097 305.385L121.672 305.684L119.873 297.102L121.298 296.804L121.558 298.041C121.745 297.533 122.049 297.109 122.468 296.771C122.898 296.43 123.4 296.199 123.975 296.079C124.695 295.928 125.366 295.956 125.987 296.164C126.608 296.372 127.12 296.76 127.523 297.33C127.636 296.674 127.934 296.121 128.417 295.671C128.901 295.221 129.482 294.925 130.16 294.782ZM136.451 292.172C136.179 292.229 135.93 292.183 135.703 292.035C135.475 291.886 135.333 291.676 135.276 291.405C135.219 291.133 135.265 290.884 135.414 290.657C135.562 290.429 135.772 290.287 136.044 290.23C136.305 290.176 136.544 290.224 136.76 290.374C136.988 290.523 137.13 290.733 137.187 291.004C137.244 291.276 137.198 291.525 137.049 291.752C136.911 291.977 136.712 292.117 136.451 292.172ZM137.432 293.421L139.231 302.003L137.806 302.302L136.007 293.72L137.432 293.421ZM144.009 291.879C145.053 291.66 145.965 291.801 146.746 292.303C147.525 292.793 148.039 293.634 148.288 294.824L149.349 299.882L147.939 300.177L146.922 295.323C146.742 294.467 146.391 293.859 145.869 293.5C145.345 293.13 144.712 293.023 143.971 293.179C143.219 293.336 142.668 293.697 142.318 294.261C141.978 294.823 141.902 295.552 142.09 296.45L143.085 301.195L141.66 301.494L139.861 292.912L141.286 292.613L141.542 293.835C141.732 293.337 142.042 292.918 142.472 292.577C142.912 292.234 143.424 292.002 144.009 291.879Z" fill="#6A6F84"/>
<path d="M373.281 259L376.597 253.269C376.995 252.58 377.104 251.76 376.898 250.991C376.693 250.221 376.19 249.565 375.501 249.166L369.764 245.85L369.764 239.242C369.764 238.446 369.447 237.682 368.884 237.118C368.321 236.555 367.557 236.239 366.76 236.239L360.156 236.239L356.843 230.505C356.443 229.817 355.788 229.314 355.02 229.105C354.639 229.002 354.241 228.975 353.85 229.027C353.458 229.078 353.081 229.207 352.74 229.405L347.003 232.721L341.267 229.402C340.577 229.004 339.757 228.896 338.987 229.102C338.218 229.309 337.562 229.812 337.164 230.502L333.848 236.239L327.243 236.239C326.447 236.239 325.683 236.555 325.119 237.118C324.556 237.682 324.24 238.446 324.24 239.242L324.24 245.847L318.503 249.163C318.161 249.36 317.861 249.623 317.62 249.936C317.38 250.249 317.203 250.607 317.101 250.988C317 251.37 316.974 251.768 317.026 252.159C317.079 252.551 317.208 252.928 317.407 253.269L320.723 259L317.407 264.731C317.01 265.421 316.903 266.24 317.107 267.009C317.312 267.778 317.813 268.435 318.5 268.837L324.237 272.153L324.237 278.758C324.237 279.554 324.553 280.318 325.116 280.882C325.68 281.445 326.444 281.761 327.24 281.761L333.848 281.761L337.164 287.498C337.43 287.953 337.809 288.33 338.265 288.594C338.721 288.857 339.238 288.997 339.765 289C340.287 289 340.807 288.862 341.27 288.595L347 285.279L352.737 288.595C353.427 288.992 354.246 289.1 355.015 288.895C355.784 288.689 356.44 288.187 356.84 287.498L360.153 281.761L366.757 281.761C367.554 281.761 368.318 281.445 368.881 280.882C369.444 280.318 369.761 279.554 369.761 278.758L369.761 272.153L375.498 268.837C375.839 268.639 376.139 268.376 376.379 268.063C376.619 267.75 376.795 267.392 376.897 267.011C376.998 266.63 377.024 266.232 376.972 265.841C376.92 265.45 376.792 265.072 376.594 264.731L373.281 259Z" fill="#DE6C87"/>
<path d="M325.314 258.012L324.998 256.505L328.134 249.153L330.368 248.685L331.677 254.933L332.883 254.68L333.234 256.352L332.028 256.605L332.436 258.55L330.517 258.953L330.11 257.007L325.314 258.012ZM329.003 251.117L327.073 255.898L329.882 255.309L329.003 251.117ZM336.494 254.767C336.651 255.154 336.881 255.43 337.182 255.596C337.491 255.75 337.865 255.782 338.303 255.69C338.87 255.571 339.232 255.252 339.39 254.732C339.546 254.204 339.508 253.382 339.274 252.268C339.125 252.604 338.876 252.895 338.527 253.14C338.187 253.382 337.798 253.55 337.359 253.642C336.775 253.764 336.22 253.757 335.695 253.619C335.177 253.47 334.732 253.187 334.358 252.769C333.983 252.342 333.723 251.786 333.58 251.101C333.367 250.087 333.5 249.22 333.978 248.5C334.455 247.771 335.214 247.297 336.255 247.079C337.552 246.807 338.553 247.031 339.257 247.751C339.97 248.469 340.502 249.664 340.852 251.336C341.101 252.524 341.2 253.518 341.149 254.321C341.107 255.121 340.876 255.77 340.456 256.268C340.045 256.764 339.41 257.103 338.552 257.283C337.876 257.424 337.273 257.417 336.745 257.261C336.214 257.096 335.777 256.83 335.433 256.463C335.096 256.085 334.856 255.645 334.712 255.141L336.494 254.767ZM337.429 251.996C337.904 251.897 338.248 251.672 338.461 251.322C338.674 250.973 338.728 250.551 338.625 250.058C338.512 249.519 338.279 249.134 337.925 248.903C337.579 248.661 337.159 248.591 336.665 248.695C336.172 248.798 335.812 249.036 335.585 249.408C335.365 249.769 335.307 250.2 335.413 250.703C335.514 251.187 335.735 251.555 336.074 251.809C336.42 252.051 336.872 252.113 337.429 251.996ZM345.071 252.969C345.228 253.356 345.458 253.632 345.76 253.798C346.069 253.952 346.442 253.983 346.881 253.892C347.447 253.773 347.809 253.454 347.967 252.934C348.124 252.406 348.085 251.584 347.851 250.47C347.702 250.806 347.453 251.097 347.104 251.341C346.764 251.584 346.375 251.752 345.936 251.844C345.352 251.966 344.797 251.959 344.272 251.821C343.755 251.672 343.309 251.388 342.935 250.971C342.56 250.544 342.3 249.988 342.157 249.303C341.944 248.289 342.077 247.422 342.556 246.702C343.032 245.973 343.791 245.499 344.832 245.281C346.129 245.009 347.13 245.233 347.834 245.953C348.547 246.671 349.079 247.866 349.43 249.538C349.679 250.725 349.777 251.72 349.726 252.523C349.684 253.323 349.453 253.972 349.033 254.47C348.622 254.966 347.987 255.304 347.129 255.484C346.453 255.626 345.851 255.619 345.322 255.463C344.791 255.297 344.354 255.031 344.01 254.665C343.674 254.287 343.433 253.847 343.29 253.343L345.071 252.969ZM346.006 250.198C346.481 250.099 346.825 249.874 347.038 249.524C347.251 249.175 347.305 248.753 347.202 248.26C347.089 247.721 346.856 247.336 346.502 247.105C346.156 246.863 345.736 246.793 345.243 246.897C344.749 247 344.389 247.238 344.162 247.61C343.942 247.971 343.885 248.402 343.99 248.905C344.091 249.389 344.312 249.757 344.651 250.01C344.997 250.253 345.449 250.315 346.006 250.198ZM352.81 247.585C352.973 247.131 353.227 246.749 353.571 246.438C353.925 246.126 354.358 245.916 354.87 245.808L355.292 247.823L354.785 247.929C354.182 248.055 353.755 248.293 353.504 248.641C353.262 248.987 353.215 249.512 353.362 250.215L354.155 253.997L352.237 254.399L350.645 246.808L352.563 246.406L352.81 247.585ZM360.707 252.752C360.086 252.883 359.506 252.89 358.966 252.774C358.425 252.649 357.968 252.425 357.596 252.103C357.232 251.779 356.988 251.386 356.862 250.926L358.794 250.521C358.892 250.806 359.085 251.018 359.372 251.159C359.667 251.297 360.003 251.327 360.377 251.248C360.743 251.171 361.011 251.039 361.181 250.851C361.36 250.661 361.426 250.451 361.378 250.223C361.327 249.976 361.16 249.82 360.88 249.755C360.606 249.679 360.18 249.625 359.601 249.594C359.006 249.576 358.511 249.532 358.115 249.462C357.728 249.391 357.37 249.232 357.042 248.986C356.723 248.738 356.51 248.359 356.403 247.847C356.315 247.427 356.353 247.018 356.518 246.621C356.692 246.223 356.981 245.876 357.387 245.581C357.802 245.284 358.315 245.072 358.927 244.944C359.831 244.754 360.601 244.831 361.235 245.175C361.868 245.509 362.292 246.055 362.508 246.81L360.672 247.195C360.581 246.9 360.404 246.689 360.139 246.563C359.881 246.427 359.565 246.397 359.191 246.476C358.844 246.549 358.588 246.669 358.423 246.837C358.267 247.003 358.213 247.201 358.261 247.429C358.314 247.685 358.483 247.854 358.768 247.938C359.05 248.012 359.476 248.061 360.043 248.085C360.62 248.107 361.102 248.154 361.489 248.226C361.876 248.297 362.23 248.461 362.55 248.718C362.879 248.964 363.1 249.337 363.214 249.838C363.306 250.276 363.265 250.695 363.091 251.094C362.927 251.491 362.637 251.838 362.222 252.134C361.815 252.42 361.31 252.626 360.707 252.752Z" fill="white"/>
<path d="M338.42 271.466C337.689 271.619 336.998 271.597 336.346 271.4C335.693 271.194 335.134 270.829 334.672 270.306C334.219 269.781 333.911 269.131 333.748 268.354C333.585 267.578 333.61 266.857 333.824 266.193C334.047 265.526 334.421 264.971 334.948 264.526C335.473 264.073 336.101 263.77 336.831 263.617C337.562 263.463 338.259 263.489 338.922 263.693C339.582 263.889 340.144 264.248 340.607 264.771C341.078 265.292 341.395 265.94 341.558 266.717C341.721 267.493 341.686 268.216 341.455 268.884C341.232 269.551 340.854 270.112 340.32 270.567C339.793 271.011 339.16 271.311 338.42 271.466ZM338.069 269.794C338.416 269.721 338.723 269.571 338.99 269.344C339.265 269.105 339.458 268.797 339.569 268.421C339.681 268.045 339.686 267.615 339.585 267.13C339.434 266.409 339.126 265.896 338.662 265.593C338.205 265.279 337.703 265.179 337.154 265.294C336.606 265.409 336.186 265.702 335.894 266.173C335.609 266.634 335.542 267.225 335.694 267.946C335.845 268.668 336.14 269.188 336.578 269.506C337.024 269.813 337.521 269.909 338.069 269.794ZM346.353 261.635C347.257 261.445 348.049 261.58 348.726 262.038C349.402 262.488 349.848 263.224 350.062 264.247L350.996 268.701L349.077 269.103L348.198 264.91C348.072 264.307 347.825 263.877 347.456 263.621C347.086 263.355 346.64 263.277 346.119 263.386C345.59 263.497 345.204 263.75 344.962 264.144C344.728 264.526 344.674 265.019 344.8 265.622L345.679 269.815L343.761 270.217L342.17 262.626L344.088 262.224L344.286 263.17C344.473 262.787 344.744 262.463 345.098 262.198C345.46 261.922 345.878 261.734 346.353 261.635ZM352.613 257.776L354.738 267.916L352.82 268.318L350.694 258.179L352.613 257.776ZM362.304 258.405L359.948 270.571L357.907 270.999L358.758 266.873L354.165 260.112L356.316 259.661L359.387 264.553L360.263 258.833L362.304 258.405Z" fill="white"/>
<path d="M73.5283 273.475C74.9778 273.176 76.3023 273.195 77.502 273.533C78.712 273.855 79.7186 274.478 80.5217 275.402C81.3352 276.309 81.8846 277.455 82.1701 278.84C82.4556 280.224 82.4031 281.487 82.0125 282.63C81.6349 283.769 80.9543 284.727 79.9705 285.501C78.997 286.26 77.7856 286.789 76.3361 287.088L71.8897 288.005L69.0819 274.392L73.5283 273.475ZM75.9604 285.266C77.5535 284.938 78.6856 284.255 79.3566 283.218C80.0277 282.181 80.2016 280.879 79.8784 279.312C79.5525 277.732 78.8736 276.586 77.8416 275.873C76.8097 275.16 75.4971 274.968 73.904 275.296L71.6906 275.753L73.747 285.723L75.9604 285.266ZM94.5013 277.44C94.5848 277.845 94.6341 278.216 94.6492 278.553L86.4027 280.254C86.6458 281.102 87.1085 281.728 87.7908 282.132C88.4731 282.536 89.2321 282.652 90.0679 282.479C91.2692 282.231 92.0143 281.554 92.3032 280.446L94.7125 279.949C94.5907 281.009 94.1649 281.947 93.435 282.765C92.7155 283.567 91.7224 284.098 90.4557 284.36C89.4241 284.572 88.4498 284.535 87.5328 284.248C86.6263 283.945 85.8517 283.424 85.2092 282.685C84.5771 281.93 84.1466 280.998 83.9177 279.888C83.6887 278.778 83.7101 277.76 83.9817 276.832C84.2637 275.889 84.7623 275.106 85.4777 274.482C86.2061 273.855 87.0992 273.432 88.1569 273.214C89.1755 273.004 90.1288 273.039 91.017 273.319C91.9051 273.598 92.6547 274.097 93.2656 274.815C93.8739 275.52 94.2858 276.395 94.5013 277.44ZM92.0249 277.215C91.8422 276.395 91.4123 275.797 90.7354 275.419C90.0585 275.041 89.2956 274.94 88.4468 275.115C87.6764 275.274 87.0681 275.658 86.622 276.267C86.1732 276.864 85.9827 277.59 86.0506 278.448L92.0249 277.215ZM98.2046 273C98.4755 272.4 98.9038 271.869 99.4894 271.408C100.085 270.931 100.788 270.609 101.598 270.442C102.551 270.245 103.46 270.296 104.325 270.594C105.189 270.892 105.931 271.42 106.55 272.177C107.167 272.922 107.587 273.836 107.81 274.919C108.034 276.003 108.012 277.022 107.746 277.975C107.477 278.916 107.001 279.708 106.317 280.353C105.644 280.982 104.837 281.394 103.897 281.587C103.061 281.76 102.283 281.75 101.563 281.558C100.855 281.364 100.26 281.051 99.7761 280.62L100.099 282.187L97.8663 282.647L94.8767 268.153L97.1097 267.692L98.2046 273ZM105.538 275.388C105.385 274.644 105.096 274.036 104.672 273.565C104.259 273.079 103.769 272.751 103.203 272.582C102.648 272.397 102.083 272.364 101.508 272.482C100.947 272.598 100.441 272.852 99.9907 273.244C99.5537 273.634 99.2351 274.135 99.0348 274.749C98.8476 275.359 98.8308 276.036 98.9843 276.781C99.1378 277.525 99.4226 278.147 99.8388 278.646C100.265 279.13 100.756 279.465 101.312 279.65C101.88 279.832 102.445 279.865 103.007 279.749C103.581 279.631 104.087 279.377 104.524 278.987C104.972 278.582 105.287 278.067 105.472 277.444C105.67 276.818 105.692 276.132 105.538 275.388ZM118.69 267.101L120.916 277.893L118.683 278.354L118.42 277.081C118.159 277.597 117.768 278.046 117.248 278.425C116.737 278.789 116.162 279.037 115.522 279.169C114.674 279.344 113.873 279.325 113.122 279.113C112.383 278.898 111.746 278.484 111.212 277.873C110.69 277.259 110.329 276.463 110.127 275.483L108.818 269.137L111.031 268.68L112.271 274.694C112.471 275.66 112.866 276.354 113.457 276.777C114.045 277.187 114.757 277.305 115.593 277.133C116.428 276.961 117.035 276.57 117.413 275.961C117.802 275.336 117.896 274.541 117.697 273.575L116.457 267.561L118.69 267.101ZM125.948 265.42C126.784 265.247 127.557 265.265 128.267 265.472C128.987 265.664 129.581 265.971 130.049 266.391L129.726 264.824L131.978 264.36L134.241 275.329C134.445 276.321 134.418 277.246 134.159 278.102C133.903 278.972 133.422 279.711 132.718 280.319C132.026 280.925 131.131 281.341 130.034 281.567C128.572 281.869 127.286 281.773 126.177 281.28C125.07 280.801 124.331 279.987 123.958 278.838L126.171 278.382C126.457 278.908 126.909 279.285 127.527 279.511C128.161 279.748 128.864 279.787 129.634 279.628C130.535 279.442 131.203 279.018 131.639 278.357C132.087 277.693 132.204 276.838 131.988 275.793L131.617 273.991C131.343 274.579 130.916 275.116 130.336 275.603C129.766 276.075 129.07 276.395 128.247 276.565C127.307 276.759 126.396 276.702 125.516 276.393C124.646 276.069 123.895 275.53 123.263 274.775C122.641 274.005 122.218 273.078 121.995 271.994C121.771 270.91 121.795 269.904 122.067 268.977C122.351 268.047 122.832 267.274 123.508 266.658C124.195 266.026 125.008 265.614 125.948 265.42ZM130.837 270.211C130.683 269.467 130.393 268.853 129.967 268.369C129.553 267.882 129.069 267.546 128.513 267.362C127.958 267.177 127.393 267.143 126.818 267.262C126.244 267.38 125.738 267.634 125.301 268.024C124.861 268.401 124.541 268.896 124.341 269.509C124.151 270.106 124.133 270.777 124.286 271.521C124.44 272.265 124.725 272.887 125.141 273.387C125.57 273.884 126.064 274.231 126.622 274.429C127.191 274.612 127.756 274.645 128.317 274.529C128.892 274.41 129.397 274.156 129.834 273.767C130.271 273.377 130.583 272.877 130.771 272.267C130.968 271.641 130.99 270.955 130.837 270.211ZM139.223 262.682C140.059 262.509 140.832 262.527 141.542 262.734C142.262 262.926 142.856 263.232 143.324 263.653L143.001 262.086L145.254 261.622L147.516 272.591C147.721 273.583 147.694 274.508 147.435 275.364C147.178 276.234 146.698 276.973 145.993 277.581C145.301 278.187 144.406 278.603 143.309 278.829C141.847 279.131 140.561 279.035 139.452 278.542C138.346 278.063 137.606 277.249 137.233 276.1L139.446 275.644C139.732 276.17 140.184 276.547 140.803 276.773C141.437 277.01 142.139 277.049 142.91 276.89C143.811 276.704 144.479 276.28 144.914 275.619C145.362 274.955 145.479 274.1 145.263 273.055L144.892 271.253C144.618 271.841 144.191 272.378 143.611 272.865C143.041 273.337 142.345 273.657 141.522 273.827C140.582 274.021 139.672 273.964 138.791 273.655C137.921 273.331 137.17 272.791 136.538 272.037C135.916 271.267 135.493 270.34 135.27 269.256C135.046 268.172 135.07 267.166 135.342 266.239C135.627 265.309 136.107 264.536 136.783 263.92C137.47 263.288 138.283 262.876 139.223 262.682ZM144.112 267.473C143.959 266.729 143.669 266.114 143.242 265.631C142.829 265.144 142.344 264.808 141.789 264.623C141.233 264.439 140.668 264.405 140.094 264.524C139.519 264.642 139.013 264.896 138.576 265.286C138.137 265.663 137.817 266.157 137.616 266.771C137.426 267.368 137.408 268.039 137.562 268.783C137.715 269.527 138 270.149 138.416 270.649C138.845 271.146 139.339 271.493 139.897 271.691C140.466 271.873 141.031 271.907 141.592 271.791C142.167 271.672 142.673 271.418 143.11 271.029C143.547 270.639 143.859 270.139 144.046 269.529C144.244 268.902 144.266 268.217 144.112 267.473ZM149.028 259.352C148.623 259.436 148.255 259.369 147.924 259.151C147.594 258.934 147.386 258.622 147.303 258.218C147.219 257.813 147.287 257.445 147.504 257.114C147.722 256.783 148.033 256.576 148.438 256.493C148.83 256.412 149.191 256.48 149.522 256.698C149.853 256.916 150.06 257.227 150.143 257.632C150.227 258.037 150.16 258.404 149.942 258.735C149.724 259.066 149.42 259.272 149.028 259.352ZM150.42 260.556L152.646 271.349L150.413 271.81L148.187 261.017L150.42 260.556ZM158.76 258.652C159.609 258.477 160.403 258.497 161.142 258.712C161.893 258.925 162.53 259.338 163.051 259.952C163.573 260.566 163.935 261.363 164.137 262.342L165.45 268.708L163.236 269.165L161.992 263.132C161.793 262.165 161.399 261.477 160.811 261.068C160.22 260.645 159.506 260.52 158.671 260.692C157.835 260.865 157.223 261.263 156.834 261.888C156.456 262.497 156.367 263.284 156.566 264.251L157.81 270.284L155.577 270.744L153.351 259.951L155.584 259.491L155.839 260.725C156.113 260.206 156.505 259.764 157.015 259.4C157.539 259.033 158.12 258.784 158.76 258.652ZM170.384 256.255C171.22 256.082 171.993 256.1 172.702 256.307C173.423 256.499 174.017 256.805 174.485 257.226L174.162 255.659L176.414 255.195L178.677 266.164C178.881 267.156 178.854 268.081 178.595 268.937C178.339 269.807 177.858 270.546 177.153 271.154C176.461 271.76 175.567 272.176 174.47 272.402C173.007 272.704 171.722 272.608 170.613 272.115C169.506 271.636 168.767 270.822 168.394 269.673L170.607 269.217C170.893 269.743 171.345 270.12 171.963 270.346C172.597 270.583 173.3 270.622 174.07 270.463C174.971 270.277 175.639 269.853 176.075 269.192C176.523 268.528 176.639 267.673 176.424 266.628L176.052 264.826C175.779 265.414 175.352 265.951 174.772 266.438C174.202 266.91 173.505 267.23 172.683 267.4C171.743 267.594 170.832 267.537 169.952 267.228C169.082 266.904 168.331 266.365 167.698 265.61C167.077 264.84 166.654 263.913 166.43 262.829C166.207 261.745 166.231 260.739 166.503 259.812C166.787 258.882 167.268 258.109 167.944 257.493C168.63 256.861 169.444 256.449 170.384 256.255ZM175.273 261.046C175.119 260.302 174.829 259.687 174.403 259.204C173.989 258.717 173.505 258.381 172.949 258.197C172.394 258.012 171.829 257.978 171.254 258.097C170.679 258.215 170.174 258.469 169.737 258.859C169.297 259.236 168.977 259.73 168.777 260.344C168.587 260.941 168.569 261.612 168.722 262.356C168.876 263.1 169.161 263.722 169.577 264.222C170.006 264.719 170.5 265.066 171.058 265.264C171.626 265.447 172.191 265.48 172.753 265.364C173.327 265.245 173.833 264.991 174.27 264.602C174.707 264.212 175.019 263.712 175.206 263.102C175.404 262.475 175.426 261.79 175.273 261.046ZM184.507 257.651C184.232 256.319 184.293 255.06 184.688 253.876C185.097 252.689 185.77 251.693 186.706 250.887C187.653 250.065 188.76 249.524 190.026 249.263C191.476 248.964 192.836 249.058 194.107 249.544C195.389 250.015 196.419 250.851 197.198 252.052L194.514 252.605C194.013 251.96 193.413 251.525 192.714 251.302C192.014 251.079 191.253 251.052 190.43 251.221C189.529 251.407 188.768 251.775 188.146 252.326C187.525 252.876 187.09 253.571 186.841 254.412C186.606 255.25 186.591 256.172 186.799 257.178C187.006 258.183 187.384 259.024 187.932 259.701C188.493 260.375 189.169 260.848 189.96 261.12C190.749 261.38 191.594 261.417 192.495 261.231C193.318 261.061 194.006 260.735 194.56 260.253C195.114 259.772 195.493 259.135 195.698 258.344L198.381 257.791C198.141 259.202 197.526 260.377 196.536 261.316C195.558 262.253 194.344 262.871 192.895 263.17C191.615 263.434 190.386 263.381 189.207 263.012C188.025 262.629 187.012 261.974 186.167 261.045C185.335 260.114 184.782 258.982 184.507 257.651ZM206.529 260.419C205.51 260.629 204.543 260.591 203.626 260.303C202.706 260.003 201.925 259.483 201.283 258.744C200.637 257.993 200.2 257.062 199.971 255.952C199.745 254.855 199.786 253.832 200.094 252.884C200.402 251.935 200.927 251.146 201.669 250.517C202.41 249.887 203.297 249.466 204.328 249.254C205.36 249.041 206.341 249.077 207.271 249.361C208.201 249.646 208.995 250.163 209.653 250.912C210.311 251.661 210.753 252.584 210.98 253.681C211.206 254.778 211.159 255.802 210.837 256.753C210.516 257.704 209.973 258.504 209.208 259.152C208.454 259.784 207.561 260.206 206.529 260.419ZM206.129 258.48C206.704 258.361 207.211 258.114 207.65 257.737C208.103 257.358 208.43 256.862 208.63 256.249C208.83 255.636 208.85 254.937 208.688 254.154C208.526 253.37 208.24 252.742 207.829 252.268C207.416 251.782 206.933 251.453 206.38 251.281C205.827 251.109 205.264 251.082 204.689 251.201C204.114 251.319 203.607 251.567 203.168 251.943C202.741 252.317 202.441 252.808 202.267 253.416C202.09 254.01 202.082 254.7 202.244 255.483C202.483 256.645 202.963 257.486 203.683 258.004C204.413 258.507 205.228 258.666 206.129 258.48ZM217.485 246.54C218.334 246.365 219.128 246.385 219.866 246.6C220.618 246.813 221.255 247.226 221.776 247.84C222.298 248.454 222.659 249.251 222.861 250.23L224.174 256.596L221.961 257.052L220.717 251.019C220.517 250.053 220.124 249.365 219.535 248.955C218.945 248.533 218.231 248.408 217.395 248.58C216.56 248.752 215.948 249.151 215.559 249.776C215.181 250.385 215.092 251.172 215.291 252.139L216.535 258.172L214.302 258.632L212.076 247.839L214.309 247.379L214.564 248.613C214.838 248.093 215.23 247.652 215.74 247.288C216.264 246.921 216.845 246.672 217.485 246.54ZM229.697 246.104L227.699 246.516L229.55 255.487L227.297 255.952L225.447 246.981L224.173 247.243L223.798 245.422L225.071 245.159L224.913 244.395C224.657 243.155 224.798 242.186 225.335 241.49C225.883 240.778 226.862 240.277 228.272 239.986L228.656 241.847C227.977 241.987 227.527 242.216 227.307 242.533C227.084 242.838 227.037 243.304 227.166 243.931L227.324 244.694L229.321 244.282L229.697 246.104ZM232.77 239.712L235.759 254.206L233.526 254.667L230.537 240.172L232.77 239.712ZM237.306 241.145C236.902 241.228 236.534 241.161 236.203 240.943C235.872 240.726 235.665 240.415 235.581 240.01C235.498 239.605 235.565 239.237 235.783 238.906C236 238.576 236.312 238.368 236.716 238.285C237.108 238.204 237.469 238.273 237.8 238.49C238.131 238.708 238.338 239.019 238.422 239.424C238.505 239.829 238.438 240.197 238.22 240.527C238.003 240.858 237.698 241.064 237.306 241.145ZM238.698 242.348L240.924 253.141L238.691 253.602L236.465 242.809L238.698 242.348ZM241.997 247.284C241.768 246.174 241.789 245.155 242.061 244.228C242.343 243.285 242.835 242.503 243.537 241.881C244.239 241.26 245.106 240.843 246.138 240.63C247.444 240.361 248.586 240.452 249.564 240.904C250.552 241.34 251.315 242.101 251.852 243.189L249.443 243.685C249.137 243.19 248.737 242.837 248.244 242.626C247.752 242.414 247.179 242.376 246.526 242.511C245.612 242.699 244.948 243.176 244.534 243.942C244.13 244.693 244.049 245.649 244.288 246.811C244.528 247.973 244.983 248.826 245.653 249.368C246.336 249.908 247.135 250.084 248.049 249.895C249.342 249.628 250.08 248.884 250.263 247.662L252.673 247.165C252.585 248.326 252.178 249.322 251.451 250.153C250.721 250.971 249.716 251.512 248.437 251.776C247.405 251.988 246.444 251.948 245.553 251.656C244.659 251.35 243.898 250.826 243.269 250.085C242.649 249.327 242.225 248.394 241.997 247.284ZM256.356 240.606L257.588 246.58C257.671 246.985 257.823 247.26 258.044 247.405C258.275 247.534 258.619 247.552 259.076 247.457L260.447 247.175L260.831 249.035L259.068 249.399C258.062 249.606 257.243 249.53 256.611 249.171C255.979 248.811 255.554 248.102 255.335 247.044L254.103 241.07L252.83 241.333L252.454 239.511L253.727 239.249L253.174 236.565L255.427 236.1L255.98 238.784L258.605 238.243L258.98 240.064L256.356 240.606ZM266.843 247.979C265.994 248.154 265.199 248.162 264.458 248.001C263.728 247.825 263.112 247.517 262.613 247.075C262.111 246.62 261.779 246.069 261.619 245.422L263.93 244.945C264.063 245.394 264.358 245.735 264.815 245.967C265.281 246.184 265.815 246.231 266.416 246.107C267.043 245.978 267.502 245.76 267.793 245.455C268.094 245.134 268.206 244.785 268.128 244.406C268.044 244.001 267.786 243.741 267.354 243.626C266.935 243.508 266.283 243.418 265.399 243.356C264.544 243.301 263.84 243.221 263.287 243.117C262.735 243.013 262.225 242.785 261.757 242.432C261.303 242.077 261.003 241.546 260.858 240.841C260.739 240.267 260.801 239.709 261.044 239.169C261.283 238.616 261.689 238.137 262.259 237.734C262.842 237.328 263.545 237.04 264.368 236.87C265.595 236.617 266.646 236.727 267.519 237.2C268.403 237.658 268.982 238.417 269.255 239.477L267.022 239.937C266.883 239.462 266.608 239.117 266.196 238.903C265.784 238.688 265.278 238.643 264.677 238.767C264.09 238.888 263.662 239.092 263.394 239.378C263.127 239.665 263.031 239.991 263.106 240.357C263.165 240.644 263.32 240.864 263.569 241.017C263.818 241.17 264.105 241.274 264.43 241.33C264.752 241.372 265.224 241.418 265.847 241.466C266.673 241.513 267.358 241.597 267.9 241.717C268.452 241.821 268.954 242.044 269.406 242.386C269.858 242.729 270.161 243.245 270.317 243.934C270.444 244.548 270.387 245.131 270.147 245.684C269.908 246.238 269.502 246.716 268.932 247.119C268.375 247.52 267.679 247.807 266.843 247.979Z" fill="white"/>
</g>
<g clip-path="url(#clip2_1693_1000)">
<rect x="25" y="164.631" width="315" height="72" rx="10" transform="rotate(-11.84 25 164.631)" fill="#111212"/>
<path d="M348.281 155L351.597 149.269C351.995 148.58 352.104 147.76 351.898 146.991C351.693 146.221 351.19 145.565 350.501 145.166L344.764 141.85L344.764 135.242C344.764 134.446 344.447 133.682 343.884 133.118C343.321 132.555 342.557 132.239 341.76 132.239L335.156 132.239L331.843 126.505C331.443 125.817 330.788 125.314 330.02 125.105C329.639 125.002 329.241 124.975 328.85 125.027C328.458 125.078 328.081 125.207 327.74 125.405L322.003 128.721L316.267 125.402C315.577 125.004 314.757 124.896 313.987 125.102C313.218 125.309 312.562 125.812 312.164 126.502L308.848 132.239L302.243 132.239C301.447 132.239 300.683 132.555 300.119 133.118C299.556 133.682 299.24 134.446 299.24 135.242L299.24 141.847L293.503 145.163C293.161 145.36 292.861 145.623 292.62 145.936C292.38 146.249 292.203 146.607 292.101 146.988C292 147.37 291.974 147.768 292.026 148.159C292.079 148.551 292.208 148.928 292.407 149.269L295.723 155L292.407 160.731C292.01 161.421 291.903 162.24 292.107 163.009C292.312 163.778 292.813 164.435 293.5 164.837L299.237 168.153L299.237 174.758C299.237 175.554 299.553 176.318 300.116 176.882C300.68 177.445 301.444 177.761 302.24 177.761L308.848 177.761L312.164 183.498C312.43 183.953 312.809 184.33 313.265 184.594C313.721 184.857 314.238 184.997 314.765 185C315.287 185 315.807 184.862 316.27 184.595L322 181.279L327.737 184.595C328.427 184.992 329.246 185.1 330.015 184.895C330.784 184.689 331.44 184.187 331.84 183.498L335.153 177.761L341.757 177.761C342.554 177.761 343.318 177.445 343.881 176.882C344.444 176.318 344.761 175.554 344.761 174.758L344.761 168.153L350.498 164.837C350.839 164.639 351.139 164.376 351.379 164.063C351.619 163.75 351.795 163.392 351.897 163.011C351.998 162.63 352.024 162.232 351.972 161.841C351.92 161.45 351.792 161.072 351.594 160.731L348.281 155Z" fill="#B864A3"/>
<path d="M54.0484 184.829L49.7757 180.044L48.0727 180.401L49.2135 185.842L46.982 186.31L44.13 172.706L48.8279 171.721C49.8719 171.502 50.791 171.5 51.5854 171.715C52.3928 171.927 53.0369 172.303 53.5178 172.843C54.0118 173.379 54.3381 174.026 54.4968 174.783C54.6828 175.67 54.5914 176.534 54.2227 177.374C53.8642 178.199 53.1773 178.854 52.1619 179.339L56.7106 184.271L54.0484 184.829ZM47.6993 178.619L50.1657 178.102C51.0009 177.927 51.5835 177.587 51.9135 177.082C52.2566 176.574 52.3543 175.968 52.2066 175.263C52.0588 174.558 51.7351 174.054 51.2355 173.75C50.7331 173.433 50.0578 173.364 49.2096 173.541L46.7432 174.058L47.6993 178.619ZM68.0491 175.988C68.1339 176.393 68.1844 176.763 68.2006 177.101L59.9597 178.828C60.2055 179.676 60.6702 180.3 61.3539 180.702C62.0375 181.104 62.7969 181.217 63.632 181.042C64.8326 180.79 65.5755 180.11 65.8607 179.001L68.2684 178.496C68.1501 179.557 67.7273 180.497 67.0001 181.317C66.2832 182.121 65.2918 182.656 64.026 182.921C62.9951 183.137 62.0207 183.103 61.1028 182.819C60.1952 182.518 59.419 182 58.7741 181.263C58.1396 180.511 57.706 179.58 57.4735 178.471C57.2409 177.361 57.259 176.343 57.5276 175.415C57.8065 174.471 58.3026 173.685 59.0159 173.059C59.7423 172.43 60.634 172.005 61.691 171.783C62.7089 171.57 63.6624 171.601 64.5514 171.878C65.4405 172.155 66.1916 172.651 66.8049 173.367C67.4155 174.071 67.8302 174.944 68.0491 175.988ZM65.572 175.772C65.3866 174.952 64.9548 174.355 64.2767 173.979C63.5985 173.604 62.8353 173.505 61.9871 173.683C61.2172 173.844 60.6102 174.23 60.166 174.841C59.7192 175.439 59.5311 176.166 59.6018 177.023L65.572 175.772ZM75.1818 178.314L76.3929 168.885L78.7614 168.388L76.9119 180.036L74.2498 180.594L67.8976 170.666L70.2857 170.165L75.1818 178.314ZM81.284 166.368C80.8794 166.453 80.5114 166.387 80.1799 166.17C79.8484 165.953 79.6403 165.643 79.5555 165.238C79.4707 164.834 79.5366 164.466 79.7532 164.134C79.9697 163.803 80.2803 163.595 80.6849 163.51C81.0763 163.428 81.4378 163.495 81.7693 163.712C82.1008 163.928 82.309 164.239 82.3938 164.643C82.4786 165.048 82.4127 165.416 82.1961 165.747C81.9795 166.079 81.6755 166.286 81.284 166.368ZM82.6797 167.567L84.9408 178.352L82.7093 178.82L80.4482 168.035L82.6797 167.567ZM96.5697 170.009C96.6545 170.413 96.705 170.784 96.7212 171.122L88.4804 172.849C88.7262 173.697 89.1909 174.321 89.8745 174.723C90.5581 175.125 91.3175 175.238 92.1527 175.063C93.3532 174.811 94.0961 174.131 94.3814 173.022L96.789 172.517C96.6707 173.577 96.2479 174.518 95.5207 175.338C94.8038 176.142 93.8124 176.677 92.5466 176.942C91.5157 177.158 90.5413 177.124 89.6234 176.839C88.7159 176.539 87.9396 176.021 87.2948 175.284C86.6602 174.532 86.2267 173.601 85.9941 172.492C85.7616 171.382 85.7796 170.364 86.0482 169.436C86.3271 168.492 86.8233 167.706 87.5366 167.08C88.263 166.451 89.1547 166.026 90.2117 165.804C91.2296 165.591 92.183 165.622 93.0721 165.899C93.9611 166.176 94.7123 166.672 95.3256 167.388C95.9361 168.091 96.3509 168.965 96.5697 170.009ZM94.0926 169.793C93.9072 168.973 93.4755 168.376 92.7973 168C92.1192 167.625 91.356 167.526 90.5078 167.704C89.7378 167.865 89.1308 168.251 88.6867 168.862C88.2398 169.46 88.0517 170.187 88.1224 171.044L94.0926 169.793ZM112.176 161.383L111.09 172.871L108.741 173.363L104.898 165.852L104.395 174.274L102.046 174.766L96.4182 164.687L98.6889 164.211L102.758 172.41L103.23 163.259L105.56 162.77L109.562 170.943L109.983 161.843L112.176 161.383ZM119.305 165.468C119.078 164.384 119.098 163.379 119.367 162.451C119.649 161.52 120.126 160.745 120.801 160.127C121.485 159.493 122.297 159.078 123.237 158.881C124.085 158.703 124.858 158.718 125.555 158.926C126.263 159.118 126.858 159.422 127.341 159.839L127.012 158.273L129.263 157.801L131.525 168.587L129.273 169.059L128.937 167.453C128.665 168.042 128.239 168.574 127.657 169.05C127.076 169.526 126.368 169.852 125.533 170.027C124.606 170.221 123.709 170.164 122.84 169.856C121.969 169.534 121.216 168.997 120.582 168.245C119.957 167.476 119.532 166.551 119.305 165.468ZM128.141 163.656C127.985 162.912 127.693 162.299 127.265 161.817C126.85 161.331 126.364 160.997 125.808 160.814C125.252 160.631 124.687 160.6 124.113 160.72C123.539 160.84 123.034 161.096 122.598 161.487C122.16 161.865 121.841 162.361 121.643 162.975C121.455 163.573 121.439 164.244 121.595 164.987C121.751 165.731 122.038 166.352 122.455 166.851C122.886 167.346 123.381 167.692 123.94 167.888C124.509 168.068 125.074 168.1 125.635 167.982C126.209 167.862 126.714 167.606 127.15 167.215C127.586 166.824 127.896 166.323 128.081 165.712C128.277 165.085 128.297 164.4 128.141 163.656ZM137.599 155.87C138.447 155.692 139.241 155.709 139.981 155.922C140.733 156.132 141.371 156.543 141.894 157.156C142.418 157.768 142.782 158.564 142.987 159.542L144.321 165.904L142.109 166.368L140.845 160.339C140.643 159.373 140.247 158.686 139.657 158.279C139.065 157.858 138.351 157.735 137.516 157.91C136.681 158.085 136.07 158.486 135.684 159.112C135.308 159.722 135.221 160.51 135.423 161.475L136.687 167.504L134.456 167.972L132.194 157.187L134.426 156.719L134.684 157.952C134.957 157.432 135.348 156.989 135.857 156.623C136.379 156.255 136.96 156.004 137.599 155.87ZM145.283 160.021C145.056 158.938 145.077 157.933 145.345 157.005C145.627 156.074 146.105 155.299 146.779 154.681C147.463 154.047 148.282 153.63 149.235 153.43C149.939 153.283 150.664 153.294 151.408 153.465C152.163 153.62 152.795 153.91 153.307 154.334L152.215 149.127L154.466 148.655L157.503 163.141L155.252 163.612L154.911 161.988C154.655 162.586 154.237 163.124 153.655 163.6C153.087 164.073 152.385 164.397 151.55 164.572C150.61 164.769 149.7 164.715 148.818 164.409C147.947 164.088 147.194 163.551 146.56 162.799C145.936 162.03 145.51 161.105 145.283 160.021ZM154.119 158.21C153.963 157.466 153.671 156.853 153.243 156.371C152.828 155.885 152.342 155.551 151.786 155.368C151.23 155.185 150.665 155.154 150.091 155.274C149.517 155.394 149.012 155.65 148.576 156.041C148.138 156.419 147.819 156.915 147.621 157.529C147.433 158.127 147.417 158.798 147.573 159.541C147.729 160.285 148.016 160.906 148.434 161.404C148.864 161.9 149.359 162.246 149.918 162.442C150.487 162.622 151.052 162.654 151.613 162.536C152.188 162.416 152.693 162.16 153.128 161.769C153.564 161.378 153.874 160.877 154.06 160.266C154.255 159.639 154.275 158.954 154.119 158.21ZM164.878 147.392L166.696 156.064C166.912 157.095 167.343 157.815 167.987 158.225C168.645 158.632 169.456 158.734 170.422 158.532C171.401 158.327 172.103 157.907 172.529 157.273C172.967 156.636 173.078 155.802 172.862 154.771L171.044 146.1L173.276 145.632L175.086 154.264C175.318 155.373 175.274 156.363 174.952 157.235C174.631 158.106 174.105 158.815 173.376 159.363C172.646 159.912 171.792 160.288 170.813 160.493C169.834 160.698 168.901 160.697 168.012 160.488C167.137 160.276 166.383 159.835 165.752 159.163C165.121 158.492 164.689 157.602 164.457 156.492L162.647 147.86L164.878 147.392ZM179.336 148.959C179.611 148.384 180.039 147.858 180.62 147.382C181.201 146.906 181.903 146.582 182.725 146.41C183.665 146.213 184.569 146.268 185.437 146.577C186.316 146.869 187.065 147.387 187.683 148.129C188.302 148.871 188.725 149.784 188.952 150.867C189.179 151.95 189.161 152.969 188.898 153.923C188.632 154.864 188.158 155.658 187.477 156.305C186.805 156.936 186 157.35 185.06 157.547C184.238 157.72 183.473 157.71 182.765 157.518C182.055 157.312 181.445 157.004 180.937 156.593L182.34 163.288L180.108 163.755L176.772 147.841L179.004 147.374L179.336 148.959ZM186.682 151.343C186.526 150.599 186.235 149.992 185.81 149.523C185.395 149.038 184.904 148.711 184.337 148.544C183.781 148.361 183.216 148.33 182.642 148.45C182.081 148.568 181.576 148.823 181.127 149.217C180.692 149.608 180.375 150.111 180.176 150.724C179.991 151.335 179.976 152.013 180.132 152.757C180.288 153.5 180.575 154.121 180.993 154.62C181.421 155.102 181.913 155.435 182.469 155.618C183.038 155.798 183.603 155.83 184.164 155.712C184.739 155.592 185.244 155.336 185.679 154.945C186.125 154.538 186.44 154.023 186.622 153.399C186.818 152.772 186.837 152.087 186.682 151.343ZM190.415 150.56C190.188 149.477 190.209 148.471 190.477 147.543C190.759 146.612 191.237 145.838 191.911 145.219C192.596 144.585 193.414 144.169 194.367 143.969C195.071 143.821 195.796 143.833 196.54 144.004C197.295 144.159 197.928 144.449 198.439 144.873L197.347 139.666L199.598 139.194L202.635 153.679L200.384 154.151L200.043 152.526C199.787 153.125 199.369 153.662 198.787 154.138C198.219 154.612 197.517 154.936 196.682 155.111C195.743 155.308 194.832 155.254 193.951 154.948C193.079 154.627 192.327 154.09 191.692 153.337C191.068 152.569 190.642 151.643 190.415 150.56ZM199.251 148.748C199.095 148.005 198.803 147.391 198.375 146.909C197.96 146.424 197.475 146.09 196.919 145.907C196.363 145.723 195.797 145.692 195.223 145.812C194.649 145.933 194.144 146.189 193.708 146.58C193.27 146.958 192.952 147.453 192.753 148.067C192.565 148.665 192.549 149.336 192.705 150.08C192.861 150.824 193.148 151.445 193.566 151.943C193.997 152.438 194.491 152.784 195.05 152.98C195.619 153.161 196.185 153.192 196.746 153.075C197.32 152.954 197.825 152.699 198.26 152.307C198.696 151.916 199.007 151.415 199.192 150.804C199.387 150.178 199.407 149.492 199.251 148.748ZM203.681 147.779C203.454 146.696 203.475 145.69 203.744 144.762C204.025 143.831 204.503 143.056 205.177 142.438C205.862 141.804 206.674 141.389 207.613 141.192C208.462 141.014 209.235 141.029 209.932 141.237C210.64 141.429 211.235 141.734 211.717 142.15L211.389 140.584L213.64 140.112L215.901 150.898L213.65 151.37L213.314 149.765C213.042 150.353 212.615 150.885 212.034 151.361C211.453 151.837 210.744 152.163 209.909 152.338C208.983 152.532 208.085 152.475 207.217 152.167C206.346 151.845 205.593 151.308 204.958 150.556C204.334 149.788 203.908 148.862 203.681 147.779ZM212.518 145.967C212.362 145.223 212.07 144.61 211.642 144.128C211.227 143.643 210.741 143.309 210.185 143.125C209.629 142.942 209.064 142.911 208.49 143.031C207.915 143.152 207.41 143.407 206.975 143.798C206.536 144.176 206.218 144.672 206.02 145.286C205.832 145.884 205.816 146.555 205.972 147.299C206.127 148.043 206.414 148.664 206.832 149.162C207.263 149.657 207.758 150.003 208.317 150.199C208.886 150.38 209.451 150.411 210.012 150.293C210.586 150.173 211.091 149.917 211.527 149.526C211.962 149.135 212.273 148.634 212.458 148.023C212.654 147.396 212.674 146.711 212.518 145.967ZM219.556 140.773L220.808 146.743C220.893 147.147 221.046 147.422 221.267 147.566C221.498 147.695 221.842 147.711 222.299 147.616L223.669 147.328L224.059 149.188L222.297 149.557C221.292 149.768 220.473 149.694 219.839 149.337C219.206 148.979 218.778 148.272 218.557 147.215L217.305 141.245L216.033 141.511L215.651 139.691L216.924 139.424L216.361 136.742L218.612 136.27L219.175 138.952L221.798 138.402L222.179 140.223L219.556 140.773ZM224.69 136.304C224.285 136.389 223.917 136.323 223.586 136.107C223.254 135.89 223.046 135.579 222.962 135.175C222.877 134.77 222.943 134.402 223.159 134.071C223.376 133.739 223.686 133.531 224.091 133.446C224.482 133.364 224.844 133.431 225.175 133.648C225.507 133.865 225.715 134.175 225.8 134.58C225.885 134.984 225.819 135.352 225.602 135.684C225.386 136.015 225.082 136.222 224.69 136.304ZM226.086 137.503L228.347 148.289L226.115 148.757L223.854 137.971L226.086 137.503ZM235.992 146.87C234.974 147.083 234.006 147.048 233.088 146.764C232.168 146.466 231.385 145.949 230.74 145.212C230.092 144.463 229.652 143.533 229.42 142.424C229.19 141.328 229.228 140.305 229.533 139.356C229.838 138.406 230.36 137.615 231.099 136.984C231.839 136.352 232.724 135.928 233.755 135.712C234.786 135.496 235.767 135.528 236.698 135.81C237.628 136.092 238.424 136.606 239.085 137.353C239.746 138.1 240.191 139.022 240.421 140.118C240.65 141.214 240.606 142.238 240.288 143.19C239.97 144.142 239.43 144.944 238.667 145.594C237.914 146.229 237.023 146.654 235.992 146.87ZM235.586 144.932C236.16 144.812 236.666 144.563 237.105 144.185C237.556 143.804 237.881 143.307 238.079 142.693C238.277 142.079 238.295 141.381 238.13 140.598C237.966 139.815 237.678 139.187 237.266 138.715C236.851 138.23 236.366 137.902 235.813 137.732C235.26 137.562 234.696 137.537 234.122 137.658C233.548 137.778 233.041 138.027 232.603 138.405C232.178 138.781 231.879 139.272 231.707 139.881C231.532 140.476 231.526 141.165 231.69 141.948C231.934 143.109 232.416 143.948 233.138 144.465C233.869 144.965 234.685 145.121 235.586 144.932ZM246.903 132.955C247.751 132.777 248.545 132.795 249.284 133.008C250.037 133.218 250.675 133.629 251.198 134.241C251.722 134.854 252.086 135.649 252.291 136.628L253.625 142.99L251.413 143.453L250.149 137.424C249.946 136.459 249.55 135.772 248.961 135.364C248.369 134.944 247.655 134.821 246.82 134.996C245.985 135.171 245.374 135.571 244.987 136.197C244.611 136.807 244.524 137.595 244.727 138.561L245.991 144.59L243.759 145.058L241.498 134.272L243.73 133.804L243.988 135.038C244.26 134.517 244.651 134.074 245.16 133.709C245.683 133.341 246.263 133.089 246.903 132.955Z" fill="white"/>
<path d="M63.8908 213.626C58.4853 214.759 53.185 211.296 52.0518 205.891C50.9186 200.485 54.3817 195.185 59.7872 194.052C65.1927 192.919 70.4931 196.382 71.6263 201.787C72.7595 207.193 69.2963 212.493 63.8908 213.626ZM63.4805 211.669C65.5571 211.233 67.3757 209.991 68.5362 208.215C69.6968 206.439 70.1042 204.274 69.6688 202.198C69.2335 200.121 67.9911 198.302 66.2149 197.142C64.4387 195.981 62.2742 195.574 60.1976 196.009C58.121 196.445 56.3024 197.687 55.1419 199.463C53.9813 201.239 53.5739 203.404 54.0092 205.48C54.4446 207.557 55.687 209.376 57.4632 210.536C59.2394 211.697 61.4039 212.104 63.4805 211.669ZM62.8178 203.634L66.7327 202.813L67.143 204.771L61.2707 206.002L59.8344 199.151L61.7919 198.74L62.8178 203.634Z" fill="#6A6F84"/>
<path d="M82.1661 196.927C81.6935 195.816 80.8569 195.387 79.6563 195.638C78.7272 195.833 78.1084 196.339 77.8001 197.156C77.4896 197.962 77.5113 199.183 77.8654 200.82C77.9917 200.227 78.2998 199.721 78.7896 199.302C79.2877 198.871 79.8812 198.583 80.5703 198.438C81.6456 198.213 82.5717 198.368 83.3485 198.902C84.1359 199.435 84.6532 200.291 84.9005 201.471C85.0493 202.18 85.0419 202.847 84.8782 203.47C84.725 204.09 84.4015 204.627 83.9078 205.079C83.4245 205.529 82.7862 205.837 81.9927 206.004C80.9174 206.229 80.0267 206.165 79.3205 205.812C78.6144 205.459 78.0526 204.884 77.6352 204.089C77.2178 203.294 76.8789 202.275 76.6184 201.033C75.8152 197.201 76.7499 195.005 79.4225 194.445C80.4456 194.231 81.3074 194.339 82.008 194.769C82.7087 195.2 83.1998 195.827 83.4815 196.651L82.1661 196.927ZM80.5255 199.707C80.0766 199.801 79.6735 199.983 79.3162 200.254C78.9567 200.515 78.691 200.86 78.5193 201.288C78.3558 201.704 78.3298 202.178 78.4414 202.71C78.6078 203.504 78.9731 204.103 79.5375 204.508C80.0997 204.902 80.8089 205.009 81.6649 204.83C82.3957 204.677 82.9281 204.331 83.262 203.792C83.6042 203.241 83.6943 202.579 83.5323 201.806C83.3616 200.992 83.0193 200.399 82.5054 200.027C81.9893 199.645 81.3294 199.538 80.5255 199.707ZM86.3929 199.016C86.0165 197.22 86.0155 195.76 86.39 194.635C86.7624 193.5 87.6793 192.779 89.1409 192.473C90.592 192.169 91.716 192.462 92.5129 193.352C93.3077 194.232 93.8933 195.569 94.2697 197.365C94.6527 199.192 94.658 200.673 94.2857 201.808C93.9134 202.943 93.0016 203.663 91.5505 203.967C90.0889 204.274 88.9597 203.982 88.1628 203.092C87.3659 202.202 86.7759 200.843 86.3929 199.016ZM92.8603 197.66C92.6699 196.752 92.4464 195.998 92.1898 195.398C91.9415 194.785 91.5889 194.325 91.1321 194.017C90.6857 193.708 90.1128 193.626 89.4134 193.773C88.7035 193.922 88.2011 194.229 87.9062 194.694C87.6218 195.157 87.4837 195.719 87.492 196.383C87.5084 197.033 87.6119 197.812 87.8023 198.721C87.9992 199.66 88.2219 200.436 88.4702 201.049C88.729 201.66 89.0816 202.12 89.528 202.429C89.9848 202.737 90.5681 202.816 91.278 202.667C91.9775 202.521 92.4694 202.216 92.7538 201.753C93.0487 201.288 93.1868 200.725 93.1681 200.064C93.1599 199.401 93.0573 198.6 92.8603 197.66ZM106.16 191.782C106.828 191.642 107.453 191.658 108.034 191.831C108.613 191.993 109.112 192.319 109.53 192.809C109.949 193.299 110.242 193.94 110.408 194.734L111.468 199.792L110.059 200.087L109.041 195.233C108.862 194.377 108.511 193.769 107.989 193.41C107.475 193.038 106.858 192.928 106.138 193.079C105.396 193.234 104.857 193.598 104.519 194.17C104.179 194.732 104.103 195.461 104.291 196.359L105.283 201.088L103.874 201.384L102.856 196.529C102.676 195.673 102.326 195.066 101.803 194.706C101.29 194.335 100.672 194.224 99.9521 194.375C99.2109 194.531 98.6713 194.894 98.3336 195.467C97.9936 196.028 97.9177 196.758 98.1059 197.656L99.0973 202.385L97.6723 202.684L95.8733 194.102L97.2983 193.804L97.5577 195.041C97.7454 194.533 98.049 194.109 98.4685 193.771C98.8984 193.43 99.4004 193.199 99.9746 193.079C100.695 192.928 101.366 192.956 101.987 193.164C102.608 193.372 103.12 193.76 103.523 194.33C103.636 193.674 103.934 193.121 104.417 192.671C104.901 192.221 105.482 191.925 106.16 191.782ZM112.451 189.172C112.179 189.229 111.93 189.183 111.703 189.035C111.475 188.886 111.333 188.676 111.276 188.405C111.219 188.133 111.265 187.884 111.414 187.657C111.562 187.429 111.772 187.287 112.044 187.23C112.305 187.176 112.544 187.224 112.76 187.374C112.988 187.523 113.13 187.733 113.187 188.004C113.244 188.276 113.198 188.525 113.049 188.752C112.911 188.977 112.712 189.117 112.451 189.172ZM113.432 190.421L115.231 199.003L113.806 199.302L112.007 190.72L113.432 190.421ZM120.009 188.879C121.053 188.66 121.965 188.801 122.746 189.303C123.525 189.793 124.039 190.634 124.288 191.824L125.349 196.882L123.939 197.177L122.922 192.323C122.742 191.467 122.391 190.859 121.869 190.5C121.345 190.13 120.712 190.023 119.971 190.179C119.219 190.336 118.668 190.697 118.318 191.261C117.978 191.823 117.902 192.552 118.09 193.45L119.085 198.195L117.66 198.494L115.861 189.912L117.286 189.613L117.542 190.835C117.732 190.337 118.042 189.918 118.472 189.577C118.912 189.234 119.424 189.002 120.009 188.879Z" fill="#6A6F84"/>
<path d="M300.314 154.012L299.998 152.505L303.134 145.153L305.368 144.685L306.677 150.933L307.883 150.68L308.234 152.352L307.028 152.605L307.436 154.55L305.517 154.953L305.11 153.007L300.314 154.012ZM304.003 147.117L302.073 151.898L304.882 151.309L304.003 147.117ZM311.494 150.767C311.651 151.154 311.881 151.43 312.182 151.596C312.491 151.75 312.865 151.782 313.303 151.69C313.87 151.571 314.232 151.252 314.39 150.732C314.546 150.204 314.508 149.382 314.274 148.268C314.125 148.604 313.876 148.895 313.527 149.14C313.187 149.382 312.798 149.55 312.359 149.642C311.775 149.764 311.22 149.757 310.695 149.619C310.177 149.47 309.732 149.187 309.358 148.769C308.983 148.342 308.723 147.786 308.58 147.101C308.367 146.087 308.5 145.22 308.978 144.5C309.455 143.771 310.214 143.297 311.255 143.079C312.552 142.807 313.553 143.031 314.257 143.751C314.97 144.469 315.502 145.664 315.852 147.336C316.101 148.524 316.2 149.518 316.149 150.321C316.107 151.121 315.876 151.77 315.456 152.268C315.045 152.764 314.41 153.103 313.552 153.283C312.876 153.424 312.273 153.417 311.745 153.261C311.214 153.096 310.777 152.83 310.433 152.463C310.096 152.085 309.856 151.645 309.712 151.141L311.494 150.767ZM312.429 147.996C312.904 147.897 313.248 147.672 313.461 147.322C313.674 146.973 313.728 146.551 313.625 146.058C313.512 145.519 313.279 145.134 312.925 144.903C312.579 144.661 312.159 144.591 311.665 144.695C311.172 144.798 310.812 145.036 310.585 145.408C310.365 145.769 310.307 146.2 310.413 146.703C310.514 147.187 310.735 147.555 311.074 147.809C311.42 148.051 311.872 148.113 312.429 147.996ZM320.071 148.969C320.228 149.356 320.458 149.632 320.76 149.798C321.069 149.952 321.442 149.983 321.881 149.892C322.447 149.773 322.809 149.454 322.967 148.934C323.124 148.406 323.085 147.584 322.851 146.47C322.702 146.806 322.453 147.097 322.104 147.341C321.764 147.584 321.375 147.752 320.936 147.844C320.352 147.966 319.797 147.959 319.272 147.821C318.755 147.672 318.309 147.388 317.935 146.971C317.56 146.544 317.3 145.988 317.157 145.303C316.944 144.289 317.077 143.422 317.556 142.702C318.032 141.973 318.791 141.499 319.832 141.281C321.129 141.009 322.13 141.233 322.834 141.953C323.547 142.671 324.079 143.866 324.43 145.538C324.679 146.725 324.777 147.72 324.726 148.523C324.684 149.323 324.453 149.972 324.033 150.47C323.622 150.966 322.987 151.304 322.129 151.484C321.453 151.626 320.851 151.619 320.322 151.463C319.791 151.297 319.354 151.031 319.01 150.665C318.674 150.287 318.433 149.847 318.29 149.343L320.071 148.969ZM321.006 146.198C321.481 146.099 321.825 145.874 322.038 145.524C322.251 145.175 322.305 144.753 322.202 144.26C322.089 143.721 321.856 143.336 321.502 143.105C321.156 142.863 320.736 142.793 320.243 142.897C319.749 143 319.389 143.238 319.162 143.61C318.942 143.971 318.885 144.402 318.99 144.905C319.091 145.389 319.312 145.757 319.651 146.01C319.997 146.253 320.449 146.315 321.006 146.198ZM327.81 143.585C327.973 143.131 328.227 142.749 328.571 142.438C328.925 142.126 329.358 141.916 329.87 141.808L330.292 143.823L329.785 143.929C329.182 144.055 328.755 144.293 328.504 144.641C328.262 144.987 328.215 145.512 328.362 146.215L329.155 149.997L327.237 150.399L325.645 142.808L327.563 142.406L327.81 143.585ZM335.707 148.752C335.086 148.883 334.506 148.89 333.966 148.774C333.425 148.649 332.968 148.425 332.596 148.103C332.232 147.779 331.988 147.386 331.862 146.926L333.794 146.521C333.892 146.806 334.085 147.018 334.372 147.159C334.667 147.297 335.003 147.327 335.377 147.248C335.743 147.171 336.011 147.039 336.181 146.851C336.36 146.661 336.426 146.451 336.378 146.223C336.327 145.976 336.16 145.82 335.88 145.755C335.606 145.679 335.18 145.625 334.601 145.594C334.006 145.576 333.511 145.532 333.115 145.462C332.728 145.391 332.37 145.232 332.042 144.986C331.723 144.738 331.51 144.359 331.403 143.847C331.315 143.427 331.353 143.018 331.518 142.621C331.692 142.223 331.981 141.876 332.387 141.581C332.802 141.284 333.315 141.072 333.927 140.944C334.831 140.754 335.601 140.831 336.235 141.175C336.868 141.509 337.292 142.055 337.508 142.81L335.672 143.195C335.581 142.9 335.404 142.689 335.139 142.563C334.881 142.427 334.565 142.397 334.191 142.476C333.844 142.549 333.588 142.669 333.423 142.837C333.267 143.003 333.213 143.201 333.261 143.429C333.314 143.685 333.483 143.854 333.768 143.938C334.05 144.012 334.476 144.061 335.043 144.085C335.62 144.107 336.102 144.154 336.489 144.226C336.876 144.297 337.23 144.461 337.55 144.718C337.879 144.964 338.1 145.337 338.214 145.838C338.306 146.276 338.265 146.695 338.091 147.094C337.927 147.491 337.637 147.838 337.222 148.134C336.815 148.42 336.31 148.626 335.707 148.752Z" fill="white"/>
<path d="M313.42 167.466C312.689 167.619 311.998 167.597 311.346 167.4C310.693 167.194 310.134 166.829 309.672 166.306C309.219 165.781 308.911 165.131 308.748 164.354C308.585 163.578 308.61 162.857 308.824 162.193C309.047 161.526 309.421 160.971 309.948 160.526C310.473 160.073 311.101 159.77 311.831 159.617C312.562 159.463 313.259 159.489 313.922 159.693C314.582 159.889 315.144 160.248 315.607 160.771C316.078 161.292 316.395 161.94 316.558 162.717C316.721 163.493 316.686 164.216 316.455 164.884C316.232 165.551 315.854 166.112 315.32 166.567C314.793 167.011 314.16 167.311 313.42 167.466ZM313.069 165.794C313.416 165.721 313.723 165.571 313.99 165.344C314.265 165.105 314.458 164.797 314.569 164.421C314.681 164.045 314.686 163.615 314.585 163.13C314.434 162.409 314.126 161.896 313.662 161.593C313.205 161.279 312.703 161.179 312.154 161.294C311.606 161.409 311.186 161.702 310.894 162.173C310.609 162.634 310.542 163.225 310.694 163.946C310.845 164.668 311.14 165.188 311.578 165.506C312.024 165.813 312.521 165.909 313.069 165.794ZM321.353 157.635C322.257 157.445 323.049 157.58 323.726 158.038C324.402 158.488 324.848 159.224 325.062 160.247L325.996 164.701L324.077 165.103L323.198 160.91C323.072 160.307 322.825 159.877 322.456 159.621C322.086 159.355 321.64 159.277 321.119 159.386C320.59 159.497 320.204 159.75 319.962 160.144C319.728 160.526 319.674 161.019 319.8 161.622L320.679 165.815L318.761 166.217L317.17 158.626L319.088 158.224L319.286 159.17C319.473 158.787 319.744 158.463 320.098 158.198C320.46 157.922 320.878 157.734 321.353 157.635ZM327.613 153.776L329.738 163.916L327.82 164.318L325.694 154.179L327.613 153.776ZM337.304 154.405L334.948 166.571L332.907 166.999L333.758 162.873L329.165 156.112L331.316 155.661L334.387 160.553L335.263 154.833L337.304 154.405Z" fill="white"/>
</g>
<path opacity="0.5" d="M514.462 77.2332L438.877 91.9255L445.488 125.939C446.073 128.946 447.828 131.597 450.368 133.31C452.907 135.023 456.023 135.657 459.03 135.073L511.94 124.788C514.947 124.204 517.598 122.449 519.311 119.909C521.024 117.37 521.658 114.254 521.074 111.247L514.462 77.2332ZM456.304 80.6939C455.302 80.8888 454.263 80.6774 453.417 80.1065C452.57 79.5355 451.985 78.6516 451.79 77.6493L448.852 62.5322C448.657 61.5299 448.868 60.4912 449.439 59.6447C450.01 58.7982 450.894 58.2132 451.896 58.0183C452.899 57.8235 453.937 58.0348 454.784 58.6058C455.63 59.1768 456.215 60.0607 456.41 61.063L459.349 76.18C459.543 77.1824 459.332 78.221 458.761 79.0675C458.19 79.9141 457.306 80.4991 456.304 80.6939ZM494.097 73.3478C493.094 73.5426 492.056 73.3313 491.209 72.7603C490.363 72.1893 489.778 71.3054 489.583 70.3031L486.644 55.1861C486.449 54.1837 486.661 53.1451 487.232 52.2986C487.803 51.452 488.687 50.867 489.689 50.6722C490.691 50.4774 491.73 50.6887 492.576 51.2597C493.423 51.8306 494.008 52.7145 494.203 53.7168L497.141 68.8339C497.336 69.8362 497.125 70.8749 496.554 71.7214C495.983 72.5679 495.099 73.1529 494.097 73.3478Z" fill="black"/>
<path d="M498.716 56.7616L494.937 57.4962L497.141 68.834C497.336 69.8363 497.124 70.8749 496.553 71.7215C495.982 72.568 495.099 73.153 494.096 73.3478C493.094 73.5427 492.055 73.3314 491.209 72.7604C490.362 72.1894 489.777 71.3055 489.582 70.3032L487.378 58.9654L457.144 64.8423L459.348 76.1801C459.543 77.1824 459.332 78.2211 458.761 79.0676C458.19 79.9141 457.306 80.4992 456.304 80.694C455.301 80.8888 454.263 80.6775 453.416 80.1065C452.57 79.5355 451.984 78.6517 451.79 77.6493L449.586 66.3115L445.807 67.0462C442.8 67.6307 440.148 69.3857 438.435 71.9253C436.722 74.4648 436.088 77.5808 436.673 80.5878L438.876 91.9256L514.462 77.2333L512.258 65.8955C511.673 62.8885 509.918 60.2369 507.379 58.524C504.839 56.811 501.723 56.1771 498.716 56.7616Z" fill="white"/>
<path d="M431.363 38.3866C431.464 38.8708 431.446 39.3515 431.308 39.8287C431.169 40.3059 430.877 40.7342 430.433 41.1135C429.986 41.4838 429.369 41.7512 428.584 41.9159L426.857 42.2779L427.667 46.1419L426.105 46.4693L424.109 36.9463L427.397 36.2569C428.128 36.1037 428.772 36.1024 429.328 36.2528C429.891 36.3922 430.341 36.6507 430.678 37.0284C431.023 37.4041 431.252 37.8568 431.363 38.3866ZM428.317 40.6416C428.91 40.5172 429.326 40.2918 429.562 39.9656C429.797 39.6303 429.863 39.216 429.76 38.7227C429.541 37.6814 428.843 37.2842 427.665 37.5312L425.938 37.8932L426.59 41.0036L428.317 40.6416ZM433.257 36.0442C432.973 36.1036 432.716 36.0575 432.484 35.9059C432.252 35.7542 432.106 35.5368 432.047 35.2537C431.987 34.9705 432.033 34.7129 432.185 34.4808C432.337 34.2488 432.554 34.1031 432.837 34.0437C433.111 33.9863 433.364 34.0334 433.596 34.185C433.828 34.3366 433.974 34.554 434.034 34.8372C434.093 35.1203 434.047 35.3779 433.895 35.61C433.744 35.842 433.531 35.9868 433.257 36.0442ZM434.234 36.8836L435.816 44.4335L434.254 44.761L432.672 37.2111L434.234 36.8836ZM436.554 40.3309C436.391 39.5545 436.404 38.8414 436.592 38.1917C436.787 37.5309 437.13 36.9822 437.62 36.5457C438.11 36.1091 438.716 35.8152 439.438 35.664C440.351 35.4725 441.151 35.5337 441.836 35.8477C442.529 36.1506 443.065 36.682 443.444 37.4418L441.758 37.7951C441.543 37.4493 441.262 37.203 440.917 37.0561C440.571 36.9092 440.17 36.8836 439.713 36.9794C439.074 37.1134 438.61 37.449 438.322 37.9862C438.042 38.5123 437.986 39.1819 438.157 39.9949C438.327 40.8078 438.648 41.4035 439.118 41.7817C439.597 42.158 440.157 42.2791 440.796 42.1451C441.701 41.9555 442.216 41.4327 442.341 40.5767L444.027 40.2234C443.968 41.0366 443.686 41.7348 443.178 42.318C442.669 42.892 441.967 43.2728 441.072 43.4605C440.35 43.6118 439.677 43.5859 439.053 43.383C438.427 43.171 437.893 42.8062 437.451 42.2886C437.015 41.7599 436.717 41.1074 436.554 40.3309ZM448.28 37.8869L452.551 40.9254L450.44 41.3677L446.964 38.7063L447.645 41.9537L446.083 42.2812L443.958 32.1416L445.52 31.8141L446.755 37.7061L448.803 33.8293L450.968 33.3755L448.28 37.8869ZM455.91 36.2444C455.751 35.4862 455.766 34.7823 455.954 34.1325C456.151 33.4809 456.486 32.9387 456.958 32.506C457.437 32.0623 458.005 31.7715 458.663 31.6336C459.257 31.5091 459.798 31.5197 460.286 31.6652C460.781 31.7998 461.198 32.0128 461.536 32.3044L461.306 31.2082L462.882 30.8779L464.464 38.4278L462.889 38.7581L462.653 37.6345C462.463 38.0463 462.164 38.4189 461.757 38.7521C461.35 39.0854 460.854 39.3133 460.27 39.4358C459.621 39.5718 458.993 39.5319 458.385 39.316C457.775 39.091 457.248 38.7151 456.804 38.1884C456.367 37.6506 456.069 37.0026 455.91 36.2444ZM462.096 34.9763C461.987 34.4556 461.782 34.0265 461.482 33.6888C461.192 33.3491 460.852 33.1152 460.463 32.987C460.074 32.8589 459.678 32.8369 459.276 32.9211C458.874 33.0054 458.521 33.1844 458.216 33.4581C457.909 33.7227 457.686 34.0698 457.547 34.4995C457.416 34.918 457.404 35.3877 457.513 35.9083C457.623 36.429 457.823 36.8637 458.116 37.2125C458.417 37.5593 458.764 37.8014 459.155 37.9387C459.553 38.065 459.949 38.087 460.342 38.0046C460.744 37.9204 461.097 37.7414 461.402 37.4676C461.707 37.1939 461.924 36.8432 462.054 36.4155C462.191 35.9767 462.205 35.497 462.096 34.9763ZM468.756 33.5514C468.597 32.7933 468.612 32.0893 468.8 31.4396C468.997 30.7879 469.331 30.2457 469.803 29.813C470.282 29.3693 470.855 29.0775 471.522 28.9377C472.016 28.8343 472.523 28.8424 473.044 28.9621C473.572 29.0707 474.015 29.2734 474.373 29.5703L473.609 25.9256L475.184 25.5952L477.31 35.7348L475.734 36.0651L475.496 34.9279C475.317 35.3469 475.024 35.723 474.617 36.0563C474.219 36.3876 473.728 36.6146 473.143 36.7371C472.485 36.875 471.848 36.837 471.231 36.623C470.621 36.398 470.094 36.0221 469.65 35.4954C469.213 34.9576 468.915 34.3096 468.756 33.5514ZM474.941 32.2834C474.832 31.7627 474.628 31.3335 474.328 30.9958C474.038 30.6562 473.698 30.4223 473.309 30.2941C472.919 30.1659 472.524 30.1439 472.122 30.2282C471.72 30.3124 471.366 30.4914 471.061 30.7652C470.755 31.0298 470.532 31.3769 470.393 31.8065C470.261 32.2251 470.25 32.6947 470.359 33.2154C470.468 33.736 470.669 34.1708 470.962 34.5195C471.263 34.8663 471.61 35.1084 472.001 35.2458C472.399 35.372 472.795 35.394 473.188 35.3117C473.589 35.2274 473.943 35.0484 474.248 34.7747C474.553 34.5009 474.77 34.1502 474.9 33.7225C475.037 33.2838 475.051 32.804 474.941 32.2834ZM478.042 31.6046C477.884 30.8465 477.898 30.1425 478.086 29.4928C478.283 28.8411 478.618 28.2989 479.09 27.8662C479.569 27.4225 480.137 27.1317 480.795 26.9938C481.389 26.8693 481.93 26.8799 482.418 27.0255C482.913 27.16 483.33 27.373 483.668 27.6646L483.438 26.5685L485.014 26.2381L486.596 33.788L485.021 34.1183L484.785 32.9948C484.595 33.4066 484.296 33.7791 483.889 34.1123C483.482 34.4456 482.987 34.6735 482.402 34.7961C481.753 34.932 481.125 34.8921 480.517 34.6762C479.908 34.4512 479.381 34.0753 478.936 33.5486C478.499 33.0108 478.201 32.3628 478.042 31.6046ZM484.228 30.3366C484.119 29.8159 483.914 29.3867 483.615 29.049C483.324 28.7094 482.984 28.4755 482.595 28.3473C482.206 28.2191 481.81 28.1971 481.408 28.2814C481.006 28.3656 480.653 28.5446 480.348 28.8184C480.041 29.083 479.818 29.4301 479.679 29.8597C479.548 30.2783 479.536 30.7479 479.646 31.2686C479.755 31.7892 479.956 32.224 480.248 32.5727C480.55 32.9195 480.896 33.1616 481.287 33.299C481.686 33.4252 482.081 33.4472 482.474 33.3649C482.876 33.2806 483.229 33.1016 483.534 32.8279C483.839 32.5541 484.057 32.2034 484.186 31.7757C484.323 31.337 484.337 30.8572 484.228 30.3366ZM489.155 26.7003L490.031 30.8794C490.09 31.1626 490.197 31.3547 490.352 31.4558C490.514 31.5458 490.755 31.5573 491.075 31.4903L492.034 31.2892L492.307 32.5909L491.073 32.8495C490.37 32.9969 489.797 32.9455 489.353 32.6951C488.91 32.4448 488.61 31.9497 488.455 31.2098L487.579 27.0306L486.689 27.2173L486.421 25.943L487.312 25.7563L486.918 23.8791L488.494 23.5488L488.888 25.426L490.724 25.041L490.991 26.3153L489.155 26.7003ZM499.836 26.8786C499.895 27.1618 499.93 27.4214 499.942 27.6574L494.173 28.8667C494.345 29.46 494.671 29.8973 495.149 30.1784C495.628 30.4595 496.159 30.5388 496.744 30.4162C497.584 30.2401 498.104 29.7639 498.304 28.9878L499.989 28.6344C499.906 29.3765 499.61 30.0346 499.101 30.6086C498.6 31.1715 497.906 31.5459 497.02 31.7316C496.298 31.8829 495.616 31.859 494.973 31.66C494.338 31.4498 493.795 31.0869 493.343 30.5713C492.899 30.0445 492.596 29.3929 492.433 28.6165C492.27 27.84 492.283 27.1269 492.471 26.4772C492.666 25.8164 493.013 25.2668 493.513 24.8283C494.021 24.388 494.645 24.0902 495.385 23.9351C496.098 23.7858 496.765 23.808 497.387 24.0017C498.01 24.1955 498.536 24.543 498.965 25.0442C499.392 25.5364 499.683 26.1478 499.836 26.8786ZM498.102 26.7271C497.972 26.1536 497.67 25.7353 497.195 25.4725C496.72 25.2096 496.186 25.1404 495.592 25.2649C495.053 25.3779 494.628 25.6482 494.318 26.0757C494.005 26.4941 493.873 27.0033 493.923 27.6032L498.102 26.7271Z" fill="white"/>
<path d="M230.166 317.697L228.287 324.428L229.01 327.881L227.448 328.209L226.725 324.756L222.287 319.349L224.027 318.984L227.213 323.194L228.439 318.059L230.166 317.697ZM236.702 326.397C235.99 326.547 235.312 326.522 234.67 326.323C234.025 326.115 233.477 325.753 233.026 325.237C232.573 324.712 232.265 324.062 232.102 323.285C231.941 322.518 231.967 321.802 232.181 321.137C232.394 320.473 232.76 319.919 233.277 319.477C233.795 319.035 234.415 318.738 235.136 318.586C235.858 318.435 236.545 318.458 237.196 318.655C237.848 318.852 238.405 319.212 238.867 319.735C239.33 320.258 239.642 320.903 239.802 321.671C239.963 322.438 239.932 323.155 239.71 323.822C239.487 324.488 239.109 325.049 238.575 325.504C238.048 325.948 237.424 326.246 236.702 326.397ZM236.418 325.041C236.82 324.957 237.174 324.782 237.481 324.518C237.797 324.251 238.025 323.903 238.163 323.473C238.302 323.044 238.314 322.555 238.199 322.007C238.084 321.459 237.883 321.019 237.594 320.689C237.303 320.349 236.964 320.12 236.577 320.001C236.19 319.882 235.795 319.864 235.393 319.949C234.991 320.033 234.637 320.207 234.33 320.472C234.032 320.735 233.823 321.079 233.703 321.505C233.58 321.921 233.576 322.404 233.691 322.952C233.862 323.765 234.199 324.352 234.704 324.713C235.216 325.064 235.788 325.173 236.418 325.041ZM247.394 316.146L248.977 323.695L247.415 324.023L247.228 323.132C247.046 323.495 246.774 323.809 246.41 324.076C246.054 324.332 245.652 324.507 245.204 324.601C244.61 324.725 244.05 324.714 243.524 324.567C243.006 324.418 242.559 324.13 242.184 323.703C241.817 323.275 241.562 322.718 241.419 322.033L240.488 317.593L242.036 317.269L242.918 321.475C243.06 322.151 243.338 322.636 243.753 322.931C244.165 323.216 244.664 323.298 245.249 323.175C245.833 323.053 246.257 322.778 246.521 322.351C246.791 321.913 246.856 321.356 246.714 320.68L245.832 316.473L247.394 316.146ZM251.247 316.482C251.395 316.051 251.634 315.691 251.964 315.402C252.302 315.102 252.731 314.898 253.252 314.789L253.591 316.406L253.194 316.489C252.582 316.617 252.148 316.87 251.894 317.248C251.648 317.623 251.606 318.195 251.767 318.962L252.6 322.936L251.038 323.263L249.455 315.713L251.017 315.386L251.247 316.482ZM265.113 313.332C265.215 313.816 265.196 314.297 265.058 314.774C264.92 315.251 264.628 315.68 264.183 316.059C263.736 316.429 263.12 316.697 262.334 316.861L260.608 317.223L261.418 321.087L259.856 321.415L257.859 311.892L261.148 311.202C261.879 311.049 262.522 311.048 263.078 311.198C263.641 311.338 264.091 311.596 264.428 311.974C264.774 312.349 265.002 312.802 265.113 313.332ZM262.067 315.587C262.661 315.463 263.076 315.237 263.313 314.911C263.548 314.576 263.614 314.161 263.51 313.668C263.292 312.627 262.593 312.23 261.415 312.477L259.689 312.839L260.341 315.949L262.067 315.587ZM268.214 312.925C268.362 312.494 268.601 312.134 268.932 311.845C269.269 311.545 269.698 311.341 270.219 311.232L270.558 312.849L270.161 312.932C269.549 313.06 269.115 313.313 268.861 313.691C268.615 314.066 268.573 314.638 268.734 315.405L269.567 319.379L268.005 319.706L266.422 312.156L267.984 311.829L268.214 312.925ZM272.266 309.887C271.983 309.947 271.725 309.9 271.493 309.749C271.261 309.597 271.115 309.38 271.056 309.097C270.997 308.813 271.043 308.556 271.194 308.324C271.346 308.092 271.563 307.946 271.846 307.887C272.12 307.829 272.374 307.876 272.606 308.028C272.838 308.18 272.983 308.397 273.043 308.68C273.102 308.963 273.056 309.221 272.904 309.453C272.753 309.685 272.54 309.83 272.266 309.887ZM273.243 310.727L274.826 318.276L273.264 318.604L271.681 311.054L273.243 310.727ZM275.563 314.174C275.4 313.397 275.413 312.684 275.601 312.035C275.796 311.374 276.139 310.825 276.629 310.389C277.119 309.952 277.725 309.658 278.447 309.507C279.36 309.315 280.16 309.377 280.845 309.691C281.538 309.994 282.074 310.525 282.453 311.285L280.767 311.638C280.552 311.292 280.271 311.046 279.926 310.899C279.58 310.752 279.179 310.727 278.722 310.822C278.083 310.956 277.619 311.292 277.331 311.829C277.051 312.355 276.996 313.025 277.166 313.838C277.337 314.651 277.657 315.246 278.127 315.625C278.607 316.001 279.166 316.122 279.805 315.988C280.71 315.798 281.225 315.276 281.35 314.42L283.036 314.066C282.977 314.88 282.695 315.578 282.188 316.161C281.679 316.735 280.976 317.116 280.081 317.303C279.36 317.455 278.687 317.429 278.062 317.226C277.436 317.014 276.902 316.649 276.46 316.132C276.025 315.603 275.726 314.95 275.563 314.174ZM284.095 307.407C283.811 307.467 283.554 307.421 283.322 307.269C283.09 307.117 282.944 306.9 282.885 306.617C282.825 306.334 282.871 306.076 283.023 305.844C283.175 305.612 283.392 305.466 283.675 305.407C283.949 305.349 284.202 305.397 284.434 305.548C284.666 305.7 284.812 305.917 284.871 306.2C284.931 306.484 284.885 306.741 284.733 306.973C284.582 307.205 284.369 307.35 284.095 307.407ZM285.072 308.247L286.654 315.797L285.092 316.124L283.51 308.574L285.072 308.247ZM290.906 306.895C291.5 306.771 292.055 306.783 292.573 306.932C293.1 307.079 293.546 307.367 293.913 307.795C294.279 308.224 294.534 308.781 294.678 309.466L295.611 313.919L294.063 314.244L293.178 310.023C293.036 309.347 292.759 308.867 292.346 308.581C291.932 308.287 291.432 308.201 290.848 308.323C290.263 308.446 289.835 308.726 289.565 309.164C289.302 309.592 289.241 310.143 289.383 310.819L290.267 315.039L288.705 315.367L287.122 307.817L288.685 307.489L288.865 308.353C289.056 307.988 289.33 307.678 289.686 307.422C290.052 307.165 290.458 306.989 290.906 306.895ZM299.037 305.19C299.621 305.068 300.162 305.078 300.66 305.222C301.165 305.355 301.581 305.568 301.91 305.861L301.68 304.765L303.256 304.435L304.864 312.108C305.01 312.802 304.993 313.449 304.813 314.05C304.636 314.659 304.301 315.177 303.809 315.605C303.326 316.03 302.701 316.323 301.934 316.484C300.911 316.699 300.01 316.635 299.233 316.292C298.457 315.959 297.938 315.391 297.674 314.588L299.222 314.263C299.423 314.631 299.741 314.894 300.174 315.051C300.619 315.215 301.11 315.241 301.649 315.128C302.28 314.996 302.746 314.698 303.05 314.233C303.362 313.767 303.442 313.169 303.288 312.438L303.024 311.178C302.834 311.589 302.536 311.967 302.131 312.309C301.733 312.64 301.247 312.866 300.671 312.987C300.014 313.125 299.376 313.087 298.759 312.873C298.149 312.648 297.622 312.272 297.178 311.745C296.741 311.207 296.443 310.559 296.284 309.801C296.125 309.043 296.14 308.339 296.328 307.689C296.525 307.038 296.86 306.496 297.332 306.063C297.811 305.619 298.379 305.328 299.037 305.19ZM302.47 308.533C302.361 308.012 302.156 307.583 301.857 307.246C301.566 306.906 301.226 306.672 300.837 306.544C300.448 306.416 300.052 306.394 299.65 306.478C299.248 306.562 298.895 306.741 298.59 307.015C298.283 307.28 298.06 307.627 297.921 308.056C297.79 308.475 297.778 308.944 297.888 309.465C297.997 309.986 298.197 310.421 298.49 310.769C298.791 311.116 299.138 311.358 299.529 311.496C299.927 311.622 300.323 311.644 300.716 311.561C301.118 311.477 301.471 311.298 301.776 311.024C302.081 310.751 302.298 310.4 302.428 309.972C302.565 309.534 302.579 309.054 302.47 308.533Z" fill="white"/>
<rect x="201" y="342.094" width="283" height="8" rx="4" transform="rotate(-10.8134 201 342.094)" fill="#111212"/>
<circle cx="323.5" cy="322.5" r="12.5" fill="url(#paint0_linear_1693_1000)"/>
<defs>
<linearGradient id="paint0_linear_1693_1000" x1="323.5" y1="310" x2="323.5" y2="335" gradientUnits="userSpaceOnUse">
<stop stop-color="#6E56D9"/>
<stop offset="1" stop-color="#DE6C87"/>
</linearGradient>
<clipPath id="clip0_1693_1000">
<rect y="64.6309" width="315" height="72" rx="10" transform="rotate(-11.84 0 64.6309)" fill="white"/>
</clipPath>
<clipPath id="clip1_1693_1000">
<rect x="49" y="267.631" width="315" height="72" rx="10" transform="rotate(-11.84 49 267.631)" fill="white"/>
</clipPath>
<clipPath id="clip2_1693_1000">
<rect x="25" y="164.631" width="315" height="72" rx="10" transform="rotate(-11.84 25 164.631)" fill="white"/>
</clipPath>
</defs>
</svg>
