<svg width="33" height="38" viewBox="0 0 33 38" fill="none" xmlns="http://www.w3.org/2000/svg">
<path d="M29.2444 0.623401C28.8916 0.277565 28.4881 0.0683409 28.0694 0.0141208C27.6508 -0.0400992 27.2297 0.0623449 26.8433 0.312448L14.181 7.86861C13.8812 8.05348 13.5606 8.14852 13.2369 8.14847H5.1306C4.45024 8.14847 3.79774 8.55799 3.31666 9.28693C2.83557 10.0159 2.5653 11.0045 2.5653 12.0354V12.3463H0V21.6749H2.5653V22.0792C2.58137 23.0938 2.85873 24.0587 3.33808 24.7675C3.81744 25.4764 4.46077 25.8731 5.1306 25.8728L8.20896 35.7611C8.4174 36.427 8.74557 36.9903 9.15578 37.3863C9.56599 37.7824 10.0416 37.9951 10.528 38H11.8209C12.4977 37.9918 13.1449 37.5787 13.6216 36.8506C14.0982 36.1226 14.3657 35.1386 14.3657 34.1131V26.246L26.8433 33.8021C27.1502 33.9872 27.4775 34.0822 27.8078 34.082C28.3203 34.0695 28.8193 33.8318 29.2444 33.3979C29.5819 33.0526 29.8604 32.5904 30.0567 32.0497C30.2529 31.509 30.3614 30.9052 30.3731 30.2884V3.82622C30.3713 3.19348 30.2675 2.571 30.0708 2.01285C29.874 1.45469 29.5904 0.977733 29.2444 0.623401ZM11.8004 12.0354V22.0792H5.1306V12.0354H11.8004ZM11.8004 34.1131H10.5075L7.98321 25.8728H11.8004V34.1131ZM15.125 22.5456C14.8813 22.3569 14.6273 22.2009 14.3657 22.0792V11.8177C14.6248 11.7367 14.8788 11.6223 15.125 11.4757L27.8078 3.82622V30.1951L15.125 22.5456ZM30.4347 13.1237V20.8976C31.1151 20.8976 31.7676 20.488 32.2486 19.7591C32.7297 19.0302 33 18.0415 33 17.0106C33 15.9798 32.7297 14.9911 32.2486 14.2622C31.7676 13.5332 31.1151 13.1237 30.4347 13.1237Z" fill="white"/>
</svg>
