<svg width="44" height="44" viewBox="0 0 44 44" fill="none" xmlns="http://www.w3.org/2000/svg">
<g filter="url(#filter0_d_1373_866)">
<path fill-rule="evenodd" clip-rule="evenodd" d="M10.1743 2.621C12.7755 1.42 17.043 0 21.7134 0C26.2861 0 30.4413 1.361 33.0288 2.546L33.175 2.613C33.9552 2.977 34.5848 3.321 35.0279 3.6L31.1123 9C40.1392 17.706 47.1118 35.997 21.7134 35.997C-3.68509 35.997 3.09991 18.038 12.2052 9L8.31507 3.6C8.61505 3.415 8.99558 3.2 9.44926 2.972C9.67398 2.858 9.91565 2.74 10.1743 2.621ZM28.5959 8.928L31.7303 4.605C28.8153 4.803 25.347 5.449 22.008 6.361C19.623 7.011 16.9731 6.912 14.5192 6.485C13.9008 6.37685 13.2867 6.2481 12.678 6.099L14.7132 8.926C19.075 10.391 24.2329 10.391 28.5959 8.928ZM13.4889 10.63C18.5927 12.49 24.7269 12.49 29.8308 10.628C31.9612 12.7467 33.7434 15.1544 35.118 17.771C36.5511 20.529 37.3313 23.286 37.2041 25.662C37.0811 27.955 36.125 29.914 33.9414 31.37C31.6656 32.887 27.838 33.997 21.7123 33.997C15.5802 33.997 11.7346 32.906 9.4376 31.406C7.23812 29.968 6.27247 28.036 6.13573 25.774C5.99263 23.424 6.75582 20.681 8.18363 17.904C9.54572 15.256 11.4463 12.707 13.4889 10.63ZM12.2699 3.916C13.1179 4.154 14.004 4.361 14.9029 4.518C17.1819 4.914 19.4672 4.972 21.4176 4.439C23.6905 3.81434 26.0021 3.32307 28.3394 2.968C26.389 2.414 24.1079 2 21.7123 2C18.0606 2 14.6549 2.961 12.2699 3.916Z" fill="white"/>
<path d="M32.7522 3.51921L32.6124 3.45519C32.6123 3.45518 32.6123 3.45517 32.6123 3.45517C30.112 2.31008 26.1012 1 21.7134 1M32.7522 3.51921L21.7123 1C21.7126 1 21.713 1 21.7134 1M32.7522 3.51921C32.7533 3.51971 32.7544 3.52021 32.7554 3.52071C32.7631 3.52431 32.7708 3.5279 32.7785 3.53149M32.7522 3.51921L32.7785 3.53149M21.7134 1C24.2207 1.00012 26.5948 1.43292 28.6126 2.00605L28.4895 3.95666C26.1909 4.30586 23.9176 4.789 21.6826 5.40325L21.6812 5.40363C19.5359 5.9899 17.0888 5.9128 14.7317 5.50324L14.7309 5.50309C13.7955 5.33971 12.8764 5.12488 11.9997 4.8788L10.0808 4.34025M21.7134 1L10.0808 4.34025M33.5623 3.91775C33.5386 3.90545 33.5147 3.8931 33.4906 3.88068L32.5399 5.19199L29.4055 9.51499L29.2175 9.77429L28.9138 9.87612C26.9434 10.5369 24.8219 10.9127 22.6797 11.0034C25.0296 10.9049 27.3551 10.4667 29.488 9.68857L30.0852 9.47071L30.5359 9.91894C32.7372 12.1081 34.5806 14.5978 36.0033 17.3059L36.0054 17.3099C37.486 20.1594 38.3427 23.0983 38.2026 25.7155L38.2026 25.7155C38.064 28.3007 36.9606 30.5587 34.4962 32.202L34.4961 32.2021C31.9887 33.8735 27.9351 34.9969 21.7134 34.997M33.5623 3.91775L21.7134 34.997M33.5623 3.91775L30.3027 8.41297L29.7926 9.11651L30.4181 9.71978C32.6014 11.8254 34.6627 14.5146 36.1361 17.352C37.6149 20.1998 38.4625 23.1204 38.3237 25.7098C38.1877 28.2491 37.1068 30.5079 34.6117 32.1709C32.0665 33.8672 27.9663 34.997 21.7134 34.997M33.5623 3.91775L21.7134 34.997M20.4379 10.9943C18.3606 10.8894 16.3065 10.516 14.3948 9.87396L14.0897 9.77148L13.9016 9.51026L11.8664 6.68326L10.2821 4.48259L12.9159 5.12771C13.5026 5.27142 14.0945 5.39553 14.6906 5.4998L20.4379 10.9943ZM20.4379 10.9943C18.1568 10.8802 15.9032 10.4455 13.8313 9.69045L13.2269 9.4702L12.7759 9.92882C10.6692 12.071 8.70671 14.7009 7.29438 17.4466L7.29429 17.4467C5.82031 20.3136 4.97971 23.2403 5.13755 25.8343L20.4379 10.9943ZM32.7785 3.53149L31.6625 3.6073C28.6654 3.81088 25.1301 4.47164 21.7451 5.39619C19.5544 5.99324 17.0658 5.9131 14.6908 5.49984L32.7785 3.53149ZM10.0808 4.34025L13.0166 8.41548L13.5157 9.10824L12.9097 9.70973C10.7011 11.902 8.63476 14.6353 7.16718 17.4886C5.69389 20.353 4.86313 23.2614 5.01855 25.8273C5.17083 28.3411 6.26689 30.5712 8.77924 32.2125C11.1825 33.7826 14.9497 34.8561 20.5654 34.9841C14.9812 34.8564 11.259 33.7897 8.89083 32.2433L8.89038 32.243C6.4111 30.6221 5.29237 28.3935 5.13758 25.8348L10.0808 4.34025ZM11.8982 2.98766L10.9608 3.36301C13.4264 2.27353 17.2176 1.07107 21.3469 1.00303C17.6708 1.06405 14.282 2.0331 11.8982 2.98766Z" stroke="white" stroke-width="2"/>
</g>
<defs>
<filter id="filter0_d_1373_866" x="0" y="0" width="43.3398" height="43.9961" filterUnits="userSpaceOnUse" color-interpolation-filters="sRGB">
<feFlood flood-opacity="0" result="BackgroundImageFix"/>
<feColorMatrix in="SourceAlpha" type="matrix" values="0 0 0 0 0 0 0 0 0 0 0 0 0 0 0 0 0 0 127 0" result="hardAlpha"/>
<feOffset dy="4"/>
<feGaussianBlur stdDeviation="2"/>
<feComposite in2="hardAlpha" operator="out"/>
<feColorMatrix type="matrix" values="0 0 0 0 0 0 0 0 0 0 0 0 0 0 0 0 0 0 0.25 0"/>
<feBlend mode="normal" in2="BackgroundImageFix" result="effect1_dropShadow_1373_866"/>
<feBlend mode="normal" in="SourceGraphic" in2="effect1_dropShadow_1373_866" result="shape"/>
</filter>
</defs>
</svg>
