<svg width="41" height="41" viewBox="0 0 41 41" fill="none" xmlns="http://www.w3.org/2000/svg">
<path d="M3.4504 19.1776L37.4904 4.30361M37.4904 4.30361L31.1264 2M37.4904 4.30361L35.1224 10.4181M39 39H31.6V19.0922C31.6 18.7151 31.7559 18.3534 32.0335 18.0867C32.311 17.8201 32.6875 17.6703 33.08 17.6703H37.52C37.9125 17.6703 38.289 17.8201 38.5665 18.0867C38.8441 18.3534 39 18.7151 39 19.0922V39ZM24.2 39H16.8V23.3582C16.8 22.9811 16.9559 22.6194 17.2335 22.3527C17.511 22.086 17.8875 21.9362 18.28 21.9362H22.72C23.1125 21.9362 23.489 22.086 23.7665 22.3527C24.0441 22.6194 24.2 22.9811 24.2 23.3582V39ZM9.4 39H2V27.6241C2 27.247 2.15593 26.8853 2.43348 26.6186C2.71104 26.352 3.08748 26.2022 3.48 26.2022H7.92C8.31252 26.2022 8.68896 26.352 8.96652 26.6186C9.24407 26.8853 9.4 27.247 9.4 27.6241V39Z" stroke="white" stroke-width="2.28571" stroke-linecap="round" stroke-linejoin="round"/>
</svg>
