<svg width="28" height="28" viewBox="0 0 28 28" fill="none" xmlns="http://www.w3.org/2000/svg">
<g id="la:user-tie">
<path id="Vector" d="M14 3.94531C10.6269 3.94531 7.875 6.61758 7.875 9.89313C7.875 11.9145 8.93375 13.7031 10.5271 14.7788C6.93525 16.14 4.375 19.5388 4.375 23.4881H6.125C6.125 19.7512 8.91712 16.6277 12.5781 15.9735L13.125 17.5403H14.875L15.4219 15.9735C19.0829 16.6277 21.875 19.7512 21.875 23.4881H23.625C23.625 19.5388 21.0648 16.14 17.4729 14.7788C19.0654 13.7031 20.125 11.9145 20.125 9.89313C20.125 6.61758 17.3731 3.94531 14 3.94531ZM14 5.64469C16.4264 5.64469 18.375 7.53694 18.375 9.89313C18.375 12.2493 16.4264 14.1416 14 14.1416C11.5736 14.1416 9.625 12.2493 9.625 9.89313C9.625 7.53694 11.5736 5.64469 14 5.64469ZM13.125 18.39L12.25 23.4881H15.75L14.875 18.39H13.125Z" fill="white"/>
</g>
</svg>
