<svg width="38" height="36" viewBox="0 0 38 36" fill="none" xmlns="http://www.w3.org/2000/svg">
<path d="M19 0H5.7C4.18827 0 2.73845 0.711159 1.66949 1.97703C0.600534 3.2429 0 4.95979 0 6.75V24.75C0 26.5402 0.600534 28.2571 1.66949 29.523C2.73845 30.7888 4.18827 31.5 5.7 31.5L3.8 33.75V36H5.7L9.5 31.4325L13.3 31.5V20.25H3.8V4.5H20.9V9H24.7V6.75C24.7 4.95979 24.0995 3.2429 23.0305 1.97703C21.9616 0.711159 20.5117 0 19 0ZM5.7 22.5C6.20391 22.5 6.68718 22.7371 7.0435 23.159C7.39982 23.581 7.6 24.1533 7.6 24.75C7.6 25.3467 7.39982 25.919 7.0435 26.341C6.68718 26.7629 6.20391 27 5.7 27C5.19609 27 4.71282 26.7629 4.3565 26.341C4.00018 25.919 3.8 25.3467 3.8 24.75C3.8 24.1533 4.00018 23.581 4.3565 23.159C4.71282 22.7371 5.19609 22.5 5.7 22.5ZM35.283 12.735C35.017 11.835 34.295 11.25 33.44 11.25H19.779C18.905 11.25 18.202 11.835 17.917 12.735L15.2 21.9825V34.38C15.2 35.235 15.808 36 16.53 36H17.708C18.43 36 19 35.145 19 34.29V31.5H34.2V34.29C34.2 35.145 34.789 36 35.511 36H36.67C37.392 36 38 35.235 38 34.38V21.9825L35.283 12.735ZM19.779 13.5H33.44L35.397 20.25H17.822L19.779 13.5ZM19 27C18.4961 27 18.0128 26.7629 17.6565 26.341C17.3002 25.919 17.1 25.3467 17.1 24.75C17.1 24.1533 17.3002 23.581 17.6565 23.159C18.0128 22.7371 18.4961 22.5 19 22.5C19.5039 22.5 19.9872 22.7371 20.3435 23.159C20.6998 23.581 20.9 24.1533 20.9 24.75C20.9 25.3467 20.6998 25.919 20.3435 26.341C19.9872 26.7629 19.5039 27 19 27ZM34.2 27C33.6961 27 33.2128 26.7629 32.8565 26.341C32.5002 25.919 32.3 25.3467 32.3 24.75C32.3 24.1533 32.5002 23.581 32.8565 23.159C33.2128 22.7371 33.6961 22.5 34.2 22.5C34.7039 22.5 35.1872 22.7371 35.5435 23.159C35.8998 23.581 36.1 24.1533 36.1 24.75C36.1 25.3467 35.8998 25.919 35.5435 26.341C35.1872 26.7629 34.7039 27 34.2 27Z" fill="white"/>
</svg>
