<svg width="864" height="66" viewBox="0 0 864 66" fill="none" xmlns="http://www.w3.org/2000/svg">
<rect x="46" y="23.6484" width="361" height="5" fill="url(#paint0_linear_1158_2151)"/>
<rect x="46" y="23.6484" width="361" height="5" fill="url(#paint1_linear_1158_2151)"/>
<rect x="46" y="23.6484" width="361" height="5" fill="url(#paint2_linear_1158_2151)"/>
<rect x="454.5" y="24.1484" width="360" height="4" stroke="url(#paint3_linear_1158_2151)"/>
<path d="M157.22 47.8884C157.22 48.5951 157.053 49.2618 156.72 49.8884C156.387 50.5151 155.853 51.0284 155.12 51.4284C154.387 51.8151 153.447 52.0084 152.3 52.0084H149.78V57.6484H147.5V43.7484H152.3C153.367 43.7484 154.267 43.9351 155 44.3084C155.747 44.6684 156.3 45.1618 156.66 45.7884C157.033 46.4151 157.22 47.1151 157.22 47.8884ZM152.3 50.1484C153.167 50.1484 153.813 49.9551 154.24 49.5684C154.667 49.1684 154.88 48.6084 154.88 47.8884C154.88 46.3684 154.02 45.6084 152.3 45.6084H149.78V50.1484H152.3ZM169.495 51.8684C169.495 52.2818 169.468 52.6551 169.415 52.9884H160.995C161.061 53.8684 161.388 54.5751 161.975 55.1084C162.561 55.6418 163.281 55.9084 164.135 55.9084C165.361 55.9084 166.228 55.3951 166.735 54.3684H169.195C168.861 55.3818 168.255 56.2151 167.375 56.8684C166.508 57.5084 165.428 57.8284 164.135 57.8284C163.081 57.8284 162.135 57.5951 161.295 57.1284C160.468 56.6484 159.815 55.9818 159.335 55.1284C158.868 54.2618 158.635 53.2618 158.635 52.1284C158.635 50.9951 158.861 50.0018 159.315 49.1484C159.781 48.2818 160.428 47.6151 161.255 47.1484C162.095 46.6818 163.055 46.4484 164.135 46.4484C165.175 46.4484 166.101 46.6751 166.915 47.1284C167.728 47.5818 168.361 48.2218 168.815 49.0484C169.268 49.8618 169.495 50.8018 169.495 51.8684ZM167.115 51.1484C167.101 50.3084 166.801 49.6351 166.215 49.1284C165.628 48.6218 164.901 48.3684 164.035 48.3684C163.248 48.3684 162.575 48.6218 162.015 49.1284C161.455 49.6218 161.121 50.2951 161.015 51.1484H167.115ZM174.018 48.2284C174.352 47.6684 174.792 47.2351 175.338 46.9284C175.898 46.6084 176.558 46.4484 177.318 46.4484V48.8084H176.738C175.845 48.8084 175.165 49.0351 174.698 49.4884C174.245 49.9418 174.018 50.7284 174.018 51.8484V57.6484H171.738V46.6284H174.018V48.2284ZM183.414 57.8284C182.547 57.8284 181.767 57.6751 181.074 57.3684C180.394 57.0484 179.854 56.6218 179.454 56.0884C179.054 55.5418 178.841 54.9351 178.814 54.2684H181.174C181.214 54.7351 181.434 55.1284 181.834 55.4484C182.247 55.7551 182.761 55.9084 183.374 55.9084C184.014 55.9084 184.507 55.7884 184.854 55.5484C185.214 55.2951 185.394 54.9751 185.394 54.5884C185.394 54.1751 185.194 53.8684 184.794 53.6684C184.407 53.4684 183.787 53.2484 182.934 53.0084C182.107 52.7818 181.434 52.5618 180.914 52.3484C180.394 52.1351 179.941 51.8084 179.554 51.3684C179.181 50.9284 178.994 50.3484 178.994 49.6284C178.994 49.0418 179.167 48.5084 179.514 48.0284C179.861 47.5351 180.354 47.1484 180.994 46.8684C181.647 46.5884 182.394 46.4484 183.234 46.4484C184.487 46.4484 185.494 46.7684 186.254 47.4084C187.027 48.0351 187.441 48.8951 187.494 49.9884H185.214C185.174 49.4951 184.974 49.1018 184.614 48.8084C184.254 48.5151 183.767 48.3684 183.154 48.3684C182.554 48.3684 182.094 48.4818 181.774 48.7084C181.454 48.9351 181.294 49.2351 181.294 49.6084C181.294 49.9018 181.401 50.1484 181.614 50.3484C181.827 50.5484 182.087 50.7084 182.394 50.8284C182.701 50.9351 183.154 51.0751 183.754 51.2484C184.554 51.4618 185.207 51.6818 185.714 51.9084C186.234 52.1218 186.681 52.4418 187.054 52.8684C187.427 53.2951 187.621 53.8618 187.634 54.5684C187.634 55.1951 187.461 55.7551 187.114 56.2484C186.767 56.7418 186.274 57.1284 185.634 57.4084C185.007 57.6884 184.267 57.8284 183.414 57.8284ZM194.878 57.8284C193.838 57.8284 192.898 57.5951 192.058 57.1284C191.218 56.6484 190.558 55.9818 190.078 55.1284C189.598 54.2618 189.358 53.2618 189.358 52.1284C189.358 51.0084 189.604 50.0151 190.098 49.1484C190.591 48.2818 191.264 47.6151 192.118 47.1484C192.971 46.6818 193.924 46.4484 194.978 46.4484C196.031 46.4484 196.984 46.6818 197.838 47.1484C198.691 47.6151 199.364 48.2818 199.858 49.1484C200.351 50.0151 200.598 51.0084 200.598 52.1284C200.598 53.2484 200.344 54.2418 199.838 55.1084C199.331 55.9751 198.638 56.6484 197.758 57.1284C196.891 57.5951 195.931 57.8284 194.878 57.8284ZM194.878 55.8484C195.464 55.8484 196.011 55.7084 196.518 55.4284C197.038 55.1484 197.458 54.7284 197.778 54.1684C198.098 53.6084 198.258 52.9284 198.258 52.1284C198.258 51.3284 198.104 50.6551 197.798 50.1084C197.491 49.5484 197.084 49.1284 196.578 48.8484C196.071 48.5684 195.524 48.4284 194.938 48.4284C194.351 48.4284 193.804 48.5684 193.298 48.8484C192.804 49.1284 192.411 49.5484 192.118 50.1084C191.824 50.6551 191.678 51.3284 191.678 52.1284C191.678 53.3151 191.978 54.2351 192.578 54.8884C193.191 55.5284 193.958 55.8484 194.878 55.8484ZM208.412 46.4484C209.278 46.4484 210.052 46.6284 210.732 46.9884C211.425 47.3484 211.965 47.8818 212.352 48.5884C212.738 49.2951 212.932 50.1484 212.932 51.1484V57.6484H210.672V51.4884C210.672 50.5018 210.425 49.7484 209.932 49.2284C209.438 48.6951 208.765 48.4284 207.912 48.4284C207.058 48.4284 206.378 48.6951 205.872 49.2284C205.378 49.7484 205.132 50.5018 205.132 51.4884V57.6484H202.852V46.6284H205.132V47.8884C205.505 47.4351 205.978 47.0818 206.552 46.8284C207.138 46.5751 207.758 46.4484 208.412 46.4484ZM215.08 52.0884C215.08 50.9818 215.307 50.0018 215.76 49.1484C216.227 48.2951 216.853 47.6351 217.64 47.1684C218.44 46.6884 219.32 46.4484 220.28 46.4484C221.147 46.4484 221.9 46.6218 222.54 46.9684C223.193 47.3018 223.713 47.7218 224.1 48.2284V46.6284H226.4V57.6484H224.1V56.0084C223.713 56.5284 223.187 56.9618 222.52 57.3084C221.853 57.6551 221.093 57.8284 220.24 57.8284C219.293 57.8284 218.427 57.5884 217.64 57.1084C216.853 56.6151 216.227 55.9351 215.76 55.0684C215.307 54.1884 215.08 53.1951 215.08 52.0884ZM224.1 52.1284C224.1 51.3684 223.94 50.7084 223.62 50.1484C223.313 49.5884 222.907 49.1618 222.4 48.8684C221.893 48.5751 221.347 48.4284 220.76 48.4284C220.173 48.4284 219.627 48.5751 219.12 48.8684C218.613 49.1484 218.2 49.5684 217.88 50.1284C217.573 50.6751 217.42 51.3284 217.42 52.0884C217.42 52.8484 217.573 53.5151 217.88 54.0884C218.2 54.6618 218.613 55.1018 219.12 55.4084C219.64 55.7018 220.187 55.8484 220.76 55.8484C221.347 55.8484 221.893 55.7018 222.4 55.4084C222.907 55.1151 223.313 54.6884 223.62 54.1284C223.94 53.5551 224.1 52.8884 224.1 52.1284ZM231.675 42.8484V57.6484H229.395V42.8484H231.675ZM244.403 43.7484C245.883 43.7484 247.177 44.0351 248.283 44.6084C249.403 45.1684 250.263 45.9818 250.863 47.0484C251.477 48.1018 251.783 49.3351 251.783 50.7484C251.783 52.1618 251.477 53.3884 250.863 54.4284C250.263 55.4684 249.403 56.2684 248.283 56.8284C247.177 57.3751 245.883 57.6484 244.403 57.6484H239.863V43.7484H244.403ZM244.403 55.7884C246.03 55.7884 247.277 55.3484 248.143 54.4684C249.01 53.5884 249.443 52.3484 249.443 50.7484C249.443 49.1351 249.01 47.8751 248.143 46.9684C247.277 46.0618 246.03 45.6084 244.403 45.6084H242.143V55.7884H244.403ZM264.143 51.8684C264.143 52.2818 264.116 52.6551 264.063 52.9884H255.643C255.71 53.8684 256.036 54.5751 256.623 55.1084C257.21 55.6418 257.93 55.9084 258.783 55.9084C260.01 55.9084 260.876 55.3951 261.383 54.3684H263.843C263.51 55.3818 262.903 56.2151 262.023 56.8684C261.156 57.5084 260.076 57.8284 258.783 57.8284C257.73 57.8284 256.783 57.5951 255.943 57.1284C255.116 56.6484 254.463 55.9818 253.983 55.1284C253.516 54.2618 253.283 53.2618 253.283 52.1284C253.283 50.9951 253.51 50.0018 253.963 49.1484C254.43 48.2818 255.076 47.6151 255.903 47.1484C256.743 46.6818 257.703 46.4484 258.783 46.4484C259.823 46.4484 260.75 46.6751 261.563 47.1284C262.376 47.5818 263.01 48.2218 263.463 49.0484C263.916 49.8618 264.143 50.8018 264.143 51.8684ZM261.763 51.1484C261.75 50.3084 261.45 49.6351 260.863 49.1284C260.276 48.6218 259.55 48.3684 258.683 48.3684C257.896 48.3684 257.223 48.6218 256.663 49.1284C256.103 49.6218 255.77 50.2951 255.663 51.1484H261.763ZM269.047 48.4884V54.5884C269.047 55.0018 269.14 55.3018 269.327 55.4884C269.527 55.6618 269.86 55.7484 270.327 55.7484H271.727V57.6484H269.927C268.9 57.6484 268.113 57.4084 267.567 56.9284C267.02 56.4484 266.747 55.6684 266.747 54.5884V48.4884H265.447V46.6284H266.747V43.8884H269.047V46.6284H271.727V48.4884H269.047ZM273.068 52.0884C273.068 50.9818 273.295 50.0018 273.748 49.1484C274.215 48.2951 274.841 47.6351 275.628 47.1684C276.428 46.6884 277.308 46.4484 278.268 46.4484C279.135 46.4484 279.888 46.6218 280.528 46.9684C281.181 47.3018 281.701 47.7218 282.088 48.2284V46.6284H284.388V57.6484H282.088V56.0084C281.701 56.5284 281.175 56.9618 280.508 57.3084C279.841 57.6551 279.081 57.8284 278.228 57.8284C277.281 57.8284 276.415 57.5884 275.628 57.1084C274.841 56.6151 274.215 55.9351 273.748 55.0684C273.295 54.1884 273.068 53.1951 273.068 52.0884ZM282.088 52.1284C282.088 51.3684 281.928 50.7084 281.608 50.1484C281.301 49.5884 280.895 49.1618 280.388 48.8684C279.881 48.5751 279.335 48.4284 278.748 48.4284C278.161 48.4284 277.615 48.5751 277.108 48.8684C276.601 49.1484 276.188 49.5684 275.868 50.1284C275.561 50.6751 275.408 51.3284 275.408 52.0884C275.408 52.8484 275.561 53.5151 275.868 54.0884C276.188 54.6618 276.601 55.1018 277.108 55.4084C277.628 55.7018 278.175 55.8484 278.748 55.8484C279.335 55.8484 279.881 55.7018 280.388 55.4084C280.895 55.1151 281.301 54.6884 281.608 54.1284C281.928 53.5551 282.088 52.8884 282.088 52.1284ZM288.543 45.1684C288.129 45.1684 287.783 45.0284 287.503 44.7484C287.223 44.4684 287.083 44.1218 287.083 43.7084C287.083 43.2951 287.223 42.9484 287.503 42.6684C287.783 42.3884 288.129 42.2484 288.543 42.2484C288.943 42.2484 289.283 42.3884 289.563 42.6684C289.843 42.9484 289.983 43.2951 289.983 43.7084C289.983 44.1218 289.843 44.4684 289.563 44.7484C289.283 45.0284 288.943 45.1684 288.543 45.1684ZM289.663 46.6284V57.6484H287.383V46.6284H289.663ZM294.936 42.8484V57.6484H292.656V42.8484H294.936ZM301.93 57.8284C301.063 57.8284 300.283 57.6751 299.59 57.3684C298.91 57.0484 298.37 56.6218 297.97 56.0884C297.57 55.5418 297.356 54.9351 297.33 54.2684H299.69C299.73 54.7351 299.95 55.1284 300.35 55.4484C300.763 55.7551 301.276 55.9084 301.89 55.9084C302.53 55.9084 303.023 55.7884 303.37 55.5484C303.73 55.2951 303.91 54.9751 303.91 54.5884C303.91 54.1751 303.71 53.8684 303.31 53.6684C302.923 53.4684 302.303 53.2484 301.45 53.0084C300.623 52.7818 299.95 52.5618 299.43 52.3484C298.91 52.1351 298.456 51.8084 298.07 51.3684C297.696 50.9284 297.51 50.3484 297.51 49.6284C297.51 49.0418 297.683 48.5084 298.03 48.0284C298.376 47.5351 298.87 47.1484 299.51 46.8684C300.163 46.5884 300.91 46.4484 301.75 46.4484C303.003 46.4484 304.01 46.7684 304.77 47.4084C305.543 48.0351 305.956 48.8951 306.01 49.9884H303.73C303.69 49.4951 303.49 49.1018 303.13 48.8084C302.77 48.5151 302.283 48.3684 301.67 48.3684C301.07 48.3684 300.61 48.4818 300.29 48.7084C299.97 48.9351 299.81 49.2351 299.81 49.6084C299.81 49.9018 299.916 50.1484 300.13 50.3484C300.343 50.5484 300.603 50.7084 300.91 50.8284C301.216 50.9351 301.67 51.0751 302.27 51.2484C303.07 51.4618 303.723 51.6818 304.23 51.9084C304.75 52.1218 305.196 52.4418 305.57 52.8684C305.943 53.2951 306.136 53.8618 306.15 54.5684C306.15 55.1951 305.976 55.7551 305.63 56.2484C305.283 56.7418 304.79 57.1284 304.15 57.4084C303.523 57.6884 302.783 57.8284 301.93 57.8284Z" fill="white"/>
<circle cx="25" cy="25.6484" r="25" fill="url(#paint4_linear_1158_2151)"/>
<path d="M21.912 19.2884V17.2964H26.424V34.6484H24.216V19.2884H21.912Z" fill="white"/>
<path d="M566.08 57.7884C565.147 57.7884 564.307 57.6284 563.56 57.3084C562.813 56.9751 562.227 56.5084 561.8 55.9084C561.373 55.3084 561.16 54.6084 561.16 53.8084H563.6C563.653 54.4084 563.887 54.9018 564.3 55.2884C564.727 55.6751 565.32 55.8684 566.08 55.8684C566.867 55.8684 567.48 55.6818 567.92 55.3084C568.36 54.9218 568.58 54.4284 568.58 53.8284C568.58 53.3618 568.44 52.9818 568.16 52.6884C567.893 52.3951 567.553 52.1684 567.14 52.0084C566.74 51.8484 566.18 51.6751 565.46 51.4884C564.553 51.2484 563.813 51.0084 563.24 50.7684C562.68 50.5151 562.2 50.1284 561.8 49.6084C561.4 49.0884 561.2 48.3951 561.2 47.5284C561.2 46.7284 561.4 46.0284 561.8 45.4284C562.2 44.8284 562.76 44.3684 563.48 44.0484C564.2 43.7284 565.033 43.5684 565.98 43.5684C567.327 43.5684 568.427 43.9084 569.28 44.5884C570.147 45.2551 570.627 46.1751 570.72 47.3484H568.2C568.16 46.8418 567.92 46.4084 567.48 46.0484C567.04 45.6884 566.46 45.5084 565.74 45.5084C565.087 45.5084 564.553 45.6751 564.14 46.0084C563.727 46.3418 563.52 46.8218 563.52 47.4484C563.52 47.8751 563.647 48.2284 563.9 48.5084C564.167 48.7751 564.5 48.9884 564.9 49.1484C565.3 49.3084 565.847 49.4818 566.54 49.6684C567.46 49.9218 568.207 50.1751 568.78 50.4284C569.367 50.6818 569.86 51.0751 570.26 51.6084C570.673 52.1284 570.88 52.8284 570.88 53.7084C570.88 54.4151 570.687 55.0818 570.3 55.7084C569.927 56.3351 569.373 56.8418 568.64 57.2284C567.92 57.6018 567.067 57.7884 566.08 57.7884ZM576.23 48.4884V54.5884C576.23 55.0018 576.324 55.3018 576.51 55.4884C576.71 55.6618 577.044 55.7484 577.51 55.7484H578.91V57.6484H577.11C576.084 57.6484 575.297 57.4084 574.75 56.9284C574.204 56.4484 573.93 55.6684 573.93 54.5884V48.4884H572.63V46.6284H573.93V43.8884H576.23V46.6284H578.91V48.4884H576.23ZM580.252 52.0884C580.252 50.9818 580.478 50.0018 580.932 49.1484C581.398 48.2951 582.025 47.6351 582.812 47.1684C583.612 46.6884 584.492 46.4484 585.452 46.4484C586.318 46.4484 587.072 46.6218 587.712 46.9684C588.365 47.3018 588.885 47.7218 589.272 48.2284V46.6284H591.572V57.6484H589.272V56.0084C588.885 56.5284 588.358 56.9618 587.692 57.3084C587.025 57.6551 586.265 57.8284 585.412 57.8284C584.465 57.8284 583.598 57.5884 582.812 57.1084C582.025 56.6151 581.398 55.9351 580.932 55.0684C580.478 54.1884 580.252 53.1951 580.252 52.0884ZM589.272 52.1284C589.272 51.3684 589.112 50.7084 588.792 50.1484C588.485 49.5884 588.078 49.1618 587.572 48.8684C587.065 48.5751 586.518 48.4284 585.932 48.4284C585.345 48.4284 584.798 48.5751 584.292 48.8684C583.785 49.1484 583.372 49.5684 583.052 50.1284C582.745 50.6751 582.592 51.3284 582.592 52.0884C582.592 52.8484 582.745 53.5151 583.052 54.0884C583.372 54.6618 583.785 55.1018 584.292 55.4084C584.812 55.7018 585.358 55.8484 585.932 55.8484C586.518 55.8484 587.065 55.7018 587.572 55.4084C588.078 55.1151 588.485 54.6884 588.792 54.1284C589.112 53.5551 589.272 52.8884 589.272 52.1284ZM596.846 48.2284C597.18 47.6684 597.62 47.2351 598.166 46.9284C598.726 46.6084 599.386 46.4484 600.146 46.4484V48.8084H599.566C598.673 48.8084 597.993 49.0351 597.526 49.4884C597.073 49.9418 596.846 50.7284 596.846 51.8484V57.6484H594.566V46.6284H596.846V48.2284ZM604.902 48.4884V54.5884C604.902 55.0018 604.996 55.3018 605.182 55.4884C605.382 55.6618 605.716 55.7484 606.182 55.7484H607.582V57.6484H605.782C604.756 57.6484 603.969 57.4084 603.422 56.9284C602.876 56.4484 602.602 55.6684 602.602 54.5884V48.4884H601.302V46.6284H602.602V43.8884H604.902V46.6284H607.582V48.4884H604.902ZM619.664 46.6284V57.6484H617.384V56.3484C617.024 56.8018 616.55 57.1618 615.964 57.4284C615.39 57.6818 614.777 57.8084 614.124 57.8084C613.257 57.8084 612.477 57.6284 611.784 57.2684C611.104 56.9084 610.564 56.3751 610.164 55.6684C609.777 54.9618 609.584 54.1084 609.584 53.1084V46.6284H611.844V52.7684C611.844 53.7551 612.09 54.5151 612.584 55.0484C613.077 55.5684 613.75 55.8284 614.604 55.8284C615.457 55.8284 616.13 55.5684 616.624 55.0484C617.13 54.5151 617.384 53.7551 617.384 52.7684V46.6284H619.664ZM624.952 48.2484C625.339 47.7418 625.865 47.3151 626.532 46.9684C627.199 46.6218 627.952 46.4484 628.792 46.4484C629.752 46.4484 630.625 46.6884 631.412 47.1684C632.212 47.6351 632.839 48.2951 633.292 49.1484C633.745 50.0018 633.972 50.9818 633.972 52.0884C633.972 53.1951 633.745 54.1884 633.292 55.0684C632.839 55.9351 632.212 56.6151 631.412 57.1084C630.625 57.5884 629.752 57.8284 628.792 57.8284C627.952 57.8284 627.205 57.6618 626.552 57.3284C625.899 56.9818 625.365 56.5551 624.952 56.0484V62.8884H622.672V46.6284H624.952V48.2484ZM631.652 52.0884C631.652 51.3284 631.492 50.6751 631.172 50.1284C630.865 49.5684 630.452 49.1484 629.932 48.8684C629.425 48.5751 628.879 48.4284 628.292 48.4284C627.719 48.4284 627.172 48.5751 626.652 48.8684C626.145 49.1618 625.732 49.5884 625.412 50.1484C625.105 50.7084 624.952 51.3684 624.952 52.1284C624.952 52.8884 625.105 53.5551 625.412 54.1284C625.732 54.6884 626.145 55.1151 626.652 55.4084C627.172 55.7018 627.719 55.8484 628.292 55.8484C628.879 55.8484 629.425 55.7018 629.932 55.4084C630.452 55.1018 630.865 54.6618 631.172 54.0884C631.492 53.5151 631.652 52.8484 631.652 52.0884ZM645.962 43.7484C647.442 43.7484 648.735 44.0351 649.842 44.6084C650.962 45.1684 651.822 45.9818 652.422 47.0484C653.035 48.1018 653.342 49.3351 653.342 50.7484C653.342 52.1618 653.035 53.3884 652.422 54.4284C651.822 55.4684 650.962 56.2684 649.842 56.8284C648.735 57.3751 647.442 57.6484 645.962 57.6484H641.422V43.7484H645.962ZM645.962 55.7884C647.589 55.7884 648.835 55.3484 649.702 54.4684C650.569 53.5884 651.002 52.3484 651.002 50.7484C651.002 49.1351 650.569 47.8751 649.702 46.9684C648.835 46.0618 647.589 45.6084 645.962 45.6084H643.702V55.7884H645.962ZM665.702 51.8684C665.702 52.2818 665.675 52.6551 665.622 52.9884H657.202C657.268 53.8684 657.595 54.5751 658.182 55.1084C658.768 55.6418 659.488 55.9084 660.342 55.9084C661.568 55.9084 662.435 55.3951 662.942 54.3684H665.402C665.068 55.3818 664.462 56.2151 663.582 56.8684C662.715 57.5084 661.635 57.8284 660.342 57.8284C659.288 57.8284 658.342 57.5951 657.502 57.1284C656.675 56.6484 656.022 55.9818 655.542 55.1284C655.075 54.2618 654.842 53.2618 654.842 52.1284C654.842 50.9951 655.068 50.0018 655.522 49.1484C655.988 48.2818 656.635 47.6151 657.462 47.1484C658.302 46.6818 659.262 46.4484 660.342 46.4484C661.382 46.4484 662.308 46.6751 663.122 47.1284C663.935 47.5818 664.568 48.2218 665.022 49.0484C665.475 49.8618 665.702 50.8018 665.702 51.8684ZM663.322 51.1484C663.308 50.3084 663.008 49.6351 662.422 49.1284C661.835 48.6218 661.108 48.3684 660.242 48.3684C659.455 48.3684 658.782 48.6218 658.222 49.1284C657.662 49.6218 657.328 50.2951 657.222 51.1484H663.322ZM670.605 48.4884V54.5884C670.605 55.0018 670.699 55.3018 670.885 55.4884C671.085 55.6618 671.419 55.7484 671.885 55.7484H673.285V57.6484H671.485C670.459 57.6484 669.672 57.4084 669.125 56.9284C668.579 56.4484 668.305 55.6684 668.305 54.5884V48.4884H667.005V46.6284H668.305V43.8884H670.605V46.6284H673.285V48.4884H670.605ZM674.627 52.0884C674.627 50.9818 674.853 50.0018 675.307 49.1484C675.773 48.2951 676.4 47.6351 677.187 47.1684C677.987 46.6884 678.867 46.4484 679.827 46.4484C680.693 46.4484 681.447 46.6218 682.087 46.9684C682.74 47.3018 683.26 47.7218 683.647 48.2284V46.6284H685.947V57.6484H683.647V56.0084C683.26 56.5284 682.733 56.9618 682.067 57.3084C681.4 57.6551 680.64 57.8284 679.787 57.8284C678.84 57.8284 677.973 57.5884 677.187 57.1084C676.4 56.6151 675.773 55.9351 675.307 55.0684C674.853 54.1884 674.627 53.1951 674.627 52.0884ZM683.647 52.1284C683.647 51.3684 683.487 50.7084 683.167 50.1484C682.86 49.5884 682.453 49.1618 681.947 48.8684C681.44 48.5751 680.893 48.4284 680.307 48.4284C679.72 48.4284 679.173 48.5751 678.667 48.8684C678.16 49.1484 677.747 49.5684 677.427 50.1284C677.12 50.6751 676.967 51.3284 676.967 52.0884C676.967 52.8484 677.12 53.5151 677.427 54.0884C677.747 54.6618 678.16 55.1018 678.667 55.4084C679.187 55.7018 679.733 55.8484 680.307 55.8484C680.893 55.8484 681.44 55.7018 681.947 55.4084C682.453 55.1151 682.86 54.6884 683.167 54.1284C683.487 53.5551 683.647 52.8884 683.647 52.1284ZM690.101 45.1684C689.688 45.1684 689.341 45.0284 689.061 44.7484C688.781 44.4684 688.641 44.1218 688.641 43.7084C688.641 43.2951 688.781 42.9484 689.061 42.6684C689.341 42.3884 689.688 42.2484 690.101 42.2484C690.501 42.2484 690.841 42.3884 691.121 42.6684C691.401 42.9484 691.541 43.2951 691.541 43.7084C691.541 44.1218 691.401 44.4684 691.121 44.7484C690.841 45.0284 690.501 45.1684 690.101 45.1684ZM691.221 46.6284V57.6484H688.941V46.6284H691.221ZM696.495 42.8484V57.6484H694.215V42.8484H696.495ZM703.488 57.8284C702.622 57.8284 701.842 57.6751 701.148 57.3684C700.468 57.0484 699.928 56.6218 699.528 56.0884C699.128 55.5418 698.915 54.9351 698.888 54.2684H701.248C701.288 54.7351 701.508 55.1284 701.908 55.4484C702.322 55.7551 702.835 55.9084 703.448 55.9084C704.088 55.9084 704.582 55.7884 704.928 55.5484C705.288 55.2951 705.468 54.9751 705.468 54.5884C705.468 54.1751 705.268 53.8684 704.868 53.6684C704.482 53.4684 703.862 53.2484 703.008 53.0084C702.182 52.7818 701.508 52.5618 700.988 52.3484C700.468 52.1351 700.015 51.8084 699.628 51.3684C699.255 50.9284 699.068 50.3484 699.068 49.6284C699.068 49.0418 699.242 48.5084 699.588 48.0284C699.935 47.5351 700.428 47.1484 701.068 46.8684C701.722 46.5884 702.468 46.4484 703.308 46.4484C704.562 46.4484 705.568 46.7684 706.328 47.4084C707.102 48.0351 707.515 48.8951 707.568 49.9884H705.288C705.248 49.4951 705.048 49.1018 704.688 48.8084C704.328 48.5151 703.842 48.3684 703.228 48.3684C702.628 48.3684 702.168 48.4818 701.848 48.7084C701.528 48.9351 701.368 49.2351 701.368 49.6084C701.368 49.9018 701.475 50.1484 701.688 50.3484C701.902 50.5484 702.162 50.7084 702.468 50.8284C702.775 50.9351 703.228 51.0751 703.828 51.2484C704.628 51.4618 705.282 51.6818 705.788 51.9084C706.308 52.1218 706.755 52.4418 707.128 52.8684C707.502 53.2951 707.695 53.8618 707.708 54.5684C707.708 55.1951 707.535 55.7551 707.188 56.2484C706.842 56.7418 706.348 57.1284 705.708 57.4084C705.082 57.6884 704.342 57.8284 703.488 57.8284Z" fill="white"/>
<path d="M425.224 31.8964C427.256 30.2644 428.848 28.9284 430 27.8884C431.152 26.8324 432.12 25.7364 432.904 24.6004C433.704 23.4484 434.104 22.3204 434.104 21.2164C434.104 20.1764 433.848 19.3604 433.336 18.7684C432.84 18.1604 432.032 17.8564 430.912 17.8564C429.824 17.8564 428.976 18.2004 428.368 18.8884C427.776 19.5604 427.456 20.4644 427.408 21.6004H425.296C425.36 19.8084 425.904 18.4244 426.928 17.4484C427.952 16.4724 429.272 15.9844 430.888 15.9844C432.536 15.9844 433.84 16.4404 434.8 17.3524C435.776 18.2644 436.264 19.5204 436.264 21.1204C436.264 22.4484 435.864 23.7444 435.064 25.0084C434.28 26.2564 433.384 27.3604 432.376 28.3204C431.368 29.2644 430.08 30.3684 428.512 31.6324H436.768V33.4564H425.224V31.8964Z" fill="white"/>
<circle cx="431" cy="25.6484" r="24" stroke="#7358D5" stroke-width="2"/>
<circle cx="839" cy="25.6484" r="24" stroke="#7358D5" stroke-width="2"/>
<path d="M839 8.64844L842.817 20.3951L855.168 20.3951L845.176 27.655L848.992 39.4017L839 32.1419L829.008 39.4017L832.824 27.655L822.832 20.3951L835.183 20.3951L839 8.64844Z" fill="url(#paint5_linear_1158_2151)"/>
<defs>
<linearGradient id="paint0_linear_1158_2151" x1="226.5" y1="23.6484" x2="226.5" y2="28.6484" gradientUnits="userSpaceOnUse">
<stop stop-color="#7057D7"/>
<stop offset="1" stop-color="#DC6B89"/>
</linearGradient>
<linearGradient id="paint1_linear_1158_2151" x1="226.5" y1="23.6484" x2="226.5" y2="28.6484" gradientUnits="userSpaceOnUse">
<stop stop-color="#7057D7"/>
<stop offset="1" stop-color="#DC6B89"/>
</linearGradient>
<linearGradient id="paint2_linear_1158_2151" x1="226.5" y1="23.6484" x2="226.5" y2="28.6484" gradientUnits="userSpaceOnUse">
<stop stop-color="#7057D7"/>
<stop offset="1" stop-color="#DC6B89"/>
</linearGradient>
<linearGradient id="paint3_linear_1158_2151" x1="634.5" y1="23.6484" x2="634.5" y2="28.6484" gradientUnits="userSpaceOnUse">
<stop stop-color="#7057D7"/>
<stop offset="1" stop-color="#DC6B89"/>
</linearGradient>
<linearGradient id="paint4_linear_1158_2151" x1="25" y1="0.648437" x2="25" y2="50.6484" gradientUnits="userSpaceOnUse">
<stop stop-color="#7057D7"/>
<stop offset="1" stop-color="#DC6B89"/>
</linearGradient>
<linearGradient id="paint5_linear_1158_2151" x1="839" y1="8.64844" x2="839" y2="42.6484" gradientUnits="userSpaceOnUse">
<stop stop-color="#7057D7"/>
<stop offset="1" stop-color="#DC6B89"/>
</linearGradient>
</defs>
</svg>
