<svg width="1440" height="890" viewBox="0 0 1440 890" fill="none" xmlns="http://www.w3.org/2000/svg">
<rect width="1440" height="890" fill="#010101"/>
<rect x="294" y="115" width="505" height="660" rx="15" fill="url(#paint0_linear_1158_2172)"/>
<rect x="337" y="170" width="419" height="55" rx="5" fill="#313134"/>
<rect x="337" y="266" width="419" height="23" rx="5" fill="#313134"/>
<rect x="338" y="305" width="417" height="38" rx="4" stroke="url(#paint1_linear_1158_2172)" stroke-width="2"/>
<rect x="340" y="423" width="417" height="38" rx="4" stroke="url(#paint2_linear_1158_2172)" stroke-width="2"/>
<rect x="338" y="531" width="417" height="38" rx="4" stroke="url(#paint3_linear_1158_2172)" stroke-width="2"/>
<rect x="337" y="384" width="419" height="23" rx="5" fill="#313134"/>
<rect x="337" y="492" width="419" height="23" rx="5" fill="#313134"/>
<rect x="406" y="600" width="161" height="23" rx="5" fill="#303033"/>
<rect x="337.5" y="600.5" width="31" height="22" rx="4.5" stroke="#D9D9D9"/>
<rect x="595" y="600" width="161" height="23" rx="5" fill="#313134"/>
<rect x="337" y="672" width="419" height="48" rx="5" fill="url(#paint4_linear_1158_2172)" fill-opacity="0.6"/>
<path d="M359 607.051L350.086 616L346 611.899L347.047 610.847L350.086 613.89L357.953 606L359 607.051Z" fill="url(#paint5_linear_1158_2172)" fill-opacity="0.6"/>
<g filter="url(#filter0_d_1158_2172)">
<rect x="579" y="140" width="507" height="564" rx="15" fill="#1C1C1C"/>
</g>
<path d="M689.056 522.736C689.056 520.517 689.536 518.544 690.496 516.816C691.456 515.067 692.789 513.712 694.496 512.752C696.224 511.771 698.176 511.28 700.352 511.28C703.019 511.28 705.301 511.984 707.2 513.392C709.099 514.8 710.368 516.72 711.008 519.152H704.992C704.544 518.213 703.904 517.499 703.072 517.008C702.261 516.517 701.333 516.272 700.288 516.272C698.603 516.272 697.237 516.859 696.192 518.032C695.147 519.205 694.624 520.773 694.624 522.736C694.624 524.699 695.147 526.267 696.192 527.44C697.237 528.613 698.603 529.2 700.288 529.2C701.333 529.2 702.261 528.955 703.072 528.464C703.904 527.973 704.544 527.259 704.992 526.32H711.008C710.368 528.752 709.099 530.672 707.2 532.08C705.301 533.467 703.019 534.16 700.352 534.16C698.176 534.16 696.224 533.68 694.496 532.72C692.789 531.739 691.456 530.384 690.496 528.656C689.536 526.928 689.056 524.955 689.056 522.736ZM722.487 534.256C720.738 534.256 719.159 533.883 717.751 533.136C716.364 532.389 715.266 531.323 714.455 529.936C713.666 528.549 713.271 526.928 713.271 525.072C713.271 523.237 713.676 521.627 714.487 520.24C715.298 518.832 716.407 517.755 717.815 517.008C719.223 516.261 720.802 515.888 722.551 515.888C724.3 515.888 725.879 516.261 727.287 517.008C728.695 517.755 729.804 518.832 730.615 520.24C731.426 521.627 731.831 523.237 731.831 525.072C731.831 526.907 731.415 528.528 730.583 529.936C729.772 531.323 728.652 532.389 727.223 533.136C725.815 533.883 724.236 534.256 722.487 534.256ZM722.487 529.52C723.532 529.52 724.418 529.136 725.143 528.368C725.89 527.6 726.263 526.501 726.263 525.072C726.263 523.643 725.9 522.544 725.175 521.776C724.471 521.008 723.596 520.624 722.551 520.624C721.484 520.624 720.599 521.008 719.895 521.776C719.191 522.523 718.839 523.621 718.839 525.072C718.839 526.501 719.18 527.6 719.863 528.368C720.567 529.136 721.442 529.52 722.487 529.52ZM745.614 515.952C747.705 515.952 749.369 516.635 750.606 518C751.865 519.344 752.494 521.2 752.494 523.568V534H747.054V524.304C747.054 523.109 746.745 522.181 746.126 521.52C745.507 520.859 744.675 520.528 743.63 520.528C742.585 520.528 741.753 520.859 741.134 521.52C740.515 522.181 740.206 523.109 740.206 524.304V534H734.734V516.144H740.206V518.512C740.761 517.723 741.507 517.104 742.446 516.656C743.385 516.187 744.441 515.952 745.614 515.952ZM763.081 515.888C764.339 515.888 765.438 516.144 766.377 516.656C767.337 517.168 768.073 517.84 768.585 518.672V516.144H774.057V533.968C774.057 535.611 773.726 537.093 773.065 538.416C772.425 539.76 771.433 540.827 770.089 541.616C768.766 542.405 767.113 542.8 765.129 542.8C762.483 542.8 760.339 542.171 758.697 540.912C757.054 539.675 756.115 537.989 755.881 535.856H761.289C761.459 536.539 761.865 537.072 762.505 537.456C763.145 537.861 763.934 538.064 764.873 538.064C766.003 538.064 766.899 537.733 767.561 537.072C768.243 536.432 768.585 535.397 768.585 533.968V531.44C768.051 532.272 767.315 532.955 766.377 533.488C765.438 534 764.339 534.256 763.081 534.256C761.609 534.256 760.275 533.883 759.081 533.136C757.886 532.368 756.937 531.291 756.233 529.904C755.55 528.496 755.209 526.875 755.209 525.04C755.209 523.205 755.55 521.595 756.233 520.208C756.937 518.821 757.886 517.755 759.081 517.008C760.275 516.261 761.609 515.888 763.081 515.888ZM768.585 525.072C768.585 523.707 768.201 522.629 767.433 521.84C766.686 521.051 765.769 520.656 764.681 520.656C763.593 520.656 762.665 521.051 761.897 521.84C761.15 522.608 760.777 523.675 760.777 525.04C760.777 526.405 761.15 527.493 761.897 528.304C762.665 529.093 763.593 529.488 764.681 529.488C765.769 529.488 766.686 529.093 767.433 528.304C768.201 527.515 768.585 526.437 768.585 525.072ZM783.487 519.12C784.127 518.139 784.927 517.371 785.887 516.816C786.847 516.24 787.914 515.952 789.087 515.952V521.744H787.583C786.218 521.744 785.194 522.043 784.511 522.64C783.829 523.216 783.487 524.24 783.487 525.712V534H778.015V516.144H783.487V519.12ZM790.615 525.04C790.615 523.205 790.956 521.595 791.639 520.208C792.343 518.821 793.292 517.755 794.487 517.008C795.681 516.261 797.015 515.888 798.487 515.888C799.745 515.888 800.844 516.144 801.783 516.656C802.743 517.168 803.479 517.84 803.991 518.672V516.144H809.463V534H803.991V531.472C803.457 532.304 802.711 532.976 801.751 533.488C800.812 534 799.713 534.256 798.455 534.256C797.004 534.256 795.681 533.883 794.487 533.136C793.292 532.368 792.343 531.291 791.639 529.904C790.956 528.496 790.615 526.875 790.615 525.04ZM803.991 525.072C803.991 523.707 803.607 522.629 802.839 521.84C802.092 521.051 801.175 520.656 800.087 520.656C798.999 520.656 798.071 521.051 797.303 521.84C796.556 522.608 796.183 523.675 796.183 525.04C796.183 526.405 796.556 527.493 797.303 528.304C798.071 529.093 798.999 529.488 800.087 529.488C801.175 529.488 802.092 529.093 802.839 528.304C803.607 527.515 803.991 526.437 803.991 525.072ZM823.374 529.36V534H820.59C818.606 534 817.059 533.52 815.95 532.56C814.84 531.579 814.286 529.989 814.286 527.792V520.688H812.11V516.144H814.286V511.792H819.758V516.144H823.342V520.688H819.758V527.856C819.758 528.389 819.886 528.773 820.142 529.008C820.398 529.243 820.824 529.36 821.422 529.36H823.374ZM844.054 516.144V534H838.582V531.568C838.027 532.357 837.27 532.997 836.31 533.488C835.371 533.957 834.326 534.192 833.174 534.192C831.808 534.192 830.603 533.893 829.558 533.296C828.512 532.677 827.702 531.792 827.126 530.64C826.55 529.488 826.262 528.133 826.262 526.576V516.144H831.702V525.84C831.702 527.035 832.011 527.963 832.63 528.624C833.248 529.285 834.08 529.616 835.126 529.616C836.192 529.616 837.035 529.285 837.654 528.624C838.272 527.963 838.582 527.035 838.582 525.84V516.144H844.054ZM853.456 510.32V534H847.984V510.32H853.456ZM856.334 525.04C856.334 523.205 856.675 521.595 857.358 520.208C858.062 518.821 859.011 517.755 860.206 517.008C861.4 516.261 862.734 515.888 864.206 515.888C865.464 515.888 866.563 516.144 867.502 516.656C868.462 517.168 869.198 517.84 869.71 518.672V516.144H875.182V534H869.71V531.472C869.176 532.304 868.43 532.976 867.47 533.488C866.531 534 865.432 534.256 864.174 534.256C862.723 534.256 861.4 533.883 860.206 533.136C859.011 532.368 858.062 531.291 857.358 529.904C856.675 528.496 856.334 526.875 856.334 525.04ZM869.71 525.072C869.71 523.707 869.326 522.629 868.558 521.84C867.811 521.051 866.894 520.656 865.806 520.656C864.718 520.656 863.79 521.051 863.022 521.84C862.275 522.608 861.902 523.675 861.902 525.04C861.902 526.405 862.275 527.493 863.022 528.304C863.79 529.093 864.718 529.488 865.806 529.488C866.894 529.488 867.811 529.093 868.558 528.304C869.326 527.515 869.71 526.437 869.71 525.072ZM889.092 529.36V534H886.308C884.324 534 882.778 533.52 881.668 532.56C880.559 531.579 880.004 529.989 880.004 527.792V520.688H877.828V516.144H880.004V511.792H885.476V516.144H889.06V520.688H885.476V527.856C885.476 528.389 885.604 528.773 885.86 529.008C886.116 529.243 886.543 529.36 887.14 529.36H889.092ZM894.892 514.288C893.932 514.288 893.143 514.011 892.524 513.456C891.927 512.88 891.628 512.176 891.628 511.344C891.628 510.491 891.927 509.787 892.524 509.232C893.143 508.656 893.932 508.368 894.892 508.368C895.831 508.368 896.599 508.656 897.196 509.232C897.815 509.787 898.124 510.491 898.124 511.344C898.124 512.176 897.815 512.88 897.196 513.456C896.599 514.011 895.831 514.288 894.892 514.288ZM897.612 516.144V534H892.14V516.144H897.612ZM909.706 534.256C907.956 534.256 906.378 533.883 904.97 533.136C903.583 532.389 902.484 531.323 901.674 529.936C900.884 528.549 900.49 526.928 900.49 525.072C900.49 523.237 900.895 521.627 901.706 520.24C902.516 518.832 903.626 517.755 905.034 517.008C906.442 516.261 908.02 515.888 909.77 515.888C911.519 515.888 913.098 516.261 914.506 517.008C915.914 517.755 917.023 518.832 917.834 520.24C918.644 521.627 919.05 523.237 919.05 525.072C919.05 526.907 918.634 528.528 917.802 529.936C916.991 531.323 915.871 532.389 914.442 533.136C913.034 533.883 911.455 534.256 909.706 534.256ZM909.706 529.52C910.751 529.52 911.636 529.136 912.362 528.368C913.108 527.6 913.482 526.501 913.482 525.072C913.482 523.643 913.119 522.544 912.394 521.776C911.69 521.008 910.815 520.624 909.77 520.624C908.703 520.624 907.818 521.008 907.114 521.776C906.41 522.523 906.058 523.621 906.058 525.072C906.058 526.501 906.399 527.6 907.082 528.368C907.786 529.136 908.66 529.52 909.706 529.52ZM932.833 515.952C934.923 515.952 936.587 516.635 937.825 518C939.083 519.344 939.713 521.2 939.713 523.568V534H934.273V524.304C934.273 523.109 933.963 522.181 933.345 521.52C932.726 520.859 931.894 520.528 930.849 520.528C929.803 520.528 928.971 520.859 928.353 521.52C927.734 522.181 927.425 523.109 927.425 524.304V534H921.953V516.144H927.425V518.512C927.979 517.723 928.726 517.104 929.665 516.656C930.603 516.187 931.659 515.952 932.833 515.952ZM950.779 534.256C949.222 534.256 947.835 533.989 946.619 533.456C945.403 532.923 944.443 532.197 943.739 531.28C943.035 530.341 942.641 529.296 942.555 528.144H947.963C948.027 528.763 948.315 529.264 948.827 529.648C949.339 530.032 949.969 530.224 950.715 530.224C951.398 530.224 951.921 530.096 952.283 529.84C952.667 529.563 952.859 529.211 952.859 528.784C952.859 528.272 952.593 527.899 952.059 527.664C951.526 527.408 950.662 527.131 949.467 526.832C948.187 526.533 947.121 526.224 946.267 525.904C945.414 525.563 944.678 525.04 944.059 524.336C943.441 523.611 943.131 522.64 943.131 521.424C943.131 520.4 943.409 519.472 943.963 518.64C944.539 517.787 945.371 517.115 946.459 516.624C947.569 516.133 948.881 515.888 950.395 515.888C952.635 515.888 954.395 516.443 955.675 517.552C956.977 518.661 957.723 520.133 957.915 521.968H952.859C952.774 521.349 952.497 520.859 952.027 520.496C951.579 520.133 950.982 519.952 950.235 519.952C949.595 519.952 949.105 520.08 948.763 520.336C948.422 520.571 948.251 520.901 948.251 521.328C948.251 521.84 948.518 522.224 949.051 522.48C949.606 522.736 950.459 522.992 951.611 523.248C952.934 523.589 954.011 523.931 954.843 524.272C955.675 524.592 956.401 525.125 957.019 525.872C957.659 526.597 957.99 527.579 958.011 528.816C958.011 529.861 957.713 530.8 957.115 531.632C956.539 532.443 955.697 533.083 954.587 533.552C953.499 534.021 952.23 534.256 950.779 534.256ZM968.559 510.736L967.919 526.064H963.279L962.639 510.736H968.559ZM965.679 534.256C964.719 534.256 963.93 533.979 963.311 533.424C962.714 532.848 962.415 532.144 962.415 531.312C962.415 530.459 962.714 529.744 963.311 529.168C963.93 528.592 964.719 528.304 965.679 528.304C966.618 528.304 967.386 528.592 967.983 529.168C968.602 529.744 968.911 530.459 968.911 531.312C968.911 532.144 968.602 532.848 967.983 533.424C967.386 533.979 966.618 534.256 965.679 534.256Z" fill="url(#paint6_linear_1158_2172)"/>
<circle cx="829" cy="348" r="99.5" stroke="white"/>
<path d="M832.015 282.331C830.471 283.19 830.63 283.477 832.212 282.658C833.676 281.881 833.953 281.676 833.439 281.676C833.241 281.717 832.608 282.004 832.015 282.331Z" fill="black"/>
<path d="M840.324 282.291C841.036 282.618 842.183 283.273 842.816 283.723C843.45 284.214 843.964 284.5 843.964 284.337C843.964 283.927 840.284 281.677 839.651 281.677C839.295 281.718 839.611 281.963 840.324 282.291Z" fill="black"/>
<path d="M828.886 284.706C828.134 285.483 827.224 286.711 826.829 287.488C826.156 288.798 826.156 288.798 826.829 287.816C827.224 287.243 828.214 286.015 829.084 285.033C830.904 282.988 830.786 282.742 828.886 284.706Z" fill="black"/>
<path d="M785.402 294.975C785.402 295.752 786.352 296.161 787.223 295.834C787.737 295.629 787.776 295.465 787.381 294.975C786.748 294.156 785.402 294.197 785.402 294.975Z" fill="black"/>
<path d="M776.772 295.262C775.981 296.08 776.218 296.489 777.366 296.326C778.632 296.162 779.186 294.771 777.999 294.771C777.564 294.771 777.049 294.976 776.772 295.262Z" fill="black"/>
<path d="M874.707 295.425C874.272 295.875 875.221 296.816 876.092 296.816C876.606 296.816 876.804 296.571 876.725 296.08C876.606 295.384 875.221 294.893 874.707 295.425Z" fill="black"/>
<path d="M866.122 297.02C865.726 297.511 865.766 297.675 866.28 297.879C866.913 298.125 868.1 297.429 868.1 296.774C868.1 296.161 866.636 296.365 866.122 297.02Z" fill="black"/>
<path d="M785.28 297.879C784.963 298.207 785.319 298.861 785.834 298.861C786.032 298.861 786.19 298.575 786.19 298.248C786.19 297.634 785.715 297.429 785.28 297.879Z" fill="black"/>
<path d="M778.277 298.66C778.277 298.987 778.475 299.273 778.673 299.273C778.91 299.273 779.069 298.987 779.069 298.66C779.069 298.332 778.91 298.046 778.673 298.046C778.475 298.046 778.277 298.332 778.277 298.66Z" fill="black"/>
<path d="M874.709 298.698C874.393 299.025 874.749 299.68 875.263 299.68C875.461 299.68 875.619 299.393 875.619 299.066C875.619 298.452 875.145 298.248 874.709 298.698Z" fill="black"/>
<path d="M867.703 299.843C867.703 300.212 867.98 300.498 868.336 300.498C868.692 300.498 868.89 300.293 868.811 300.007C868.574 299.271 867.703 299.148 867.703 299.843Z" fill="black"/>
<path d="M781.364 300.416C780.414 300.825 781.008 301.521 782.432 301.602C783.461 301.684 784.173 301.193 784.213 300.375C784.213 300.007 782.274 300.048 781.364 300.416Z" fill="black"/>
<path d="M871.777 301.195C870.036 301.358 869.838 301.522 870.392 302.463C870.867 303.2 873.122 302.627 873.36 301.686C873.479 301.277 873.518 300.949 873.518 300.99C873.479 301.031 872.687 301.113 871.777 301.195Z" fill="black"/>
<path d="M887.251 302.217C887.053 302.504 887.132 302.545 887.488 302.34C887.884 302.095 887.923 302.258 887.725 303.118C887.567 303.854 887.607 304.141 887.884 303.977C888.398 303.65 888.398 301.726 887.923 301.726C887.686 301.726 887.409 301.931 887.251 302.217Z" fill="black"/>
<path d="M825.367 303.074C825.367 303.238 825.723 304.179 826.198 305.12C827.266 307.33 829.878 310.153 831.817 311.176C833.795 312.239 833.677 311.871 831.619 310.603C829.403 309.253 828.058 307.739 826.594 304.997C825.921 303.77 825.367 302.911 825.367 303.074Z" fill="black"/>
<path d="M885.941 304.019C886.455 304.674 887.089 304.797 887.089 304.224C887.089 304.019 886.732 303.774 886.258 303.651C885.625 303.487 885.545 303.528 885.941 304.019Z" fill="black"/>
<path d="M860.738 304.834C860.857 305.202 860.976 305.611 860.976 305.816C860.976 306.02 861.332 306.307 861.767 306.429C862.598 306.716 863.745 306.061 863.745 305.325C863.745 305.079 863.468 305.12 863.152 305.406C862.44 306.02 861.371 305.652 861.371 304.793C861.371 304.465 861.173 304.179 860.936 304.179C860.699 304.179 860.619 304.465 860.738 304.834Z" fill="black"/>
<path d="M775.823 314.204C776.1 315.841 779.701 316.618 781.837 315.513C782.391 315.227 782.827 314.736 782.827 314.409C782.827 314 783.42 313.713 784.607 313.549C785.636 313.386 784.093 313.304 781.006 313.263H775.625L775.823 314.204Z" fill="#ECC1C1"/>
<path d="M875.968 313.919C873.278 314.41 872.961 314.574 873.119 315.269C873.436 316.456 874.702 316.988 876.681 316.742C878.699 316.538 879.965 315.515 879.886 314.205C879.807 313.182 879.886 313.182 875.968 313.919Z" fill="black"/>
<path d="M818.558 314.083C819.587 314.615 819.666 315.024 818.835 315.392C818.518 315.515 818.241 315.924 818.241 316.252C818.241 316.702 818.518 316.579 819.231 315.761C820.101 314.697 820.141 314.574 819.547 314.083C819.191 313.838 818.598 313.592 818.281 313.633C817.846 313.633 817.964 313.797 818.558 314.083Z" fill="black"/>
<path d="M803.721 315.066C803.602 315.434 803.721 315.884 804.037 316.089C804.908 316.662 805.462 316.498 804.71 315.925C804.117 315.434 804.117 315.352 804.71 314.943C805.343 314.493 805.343 314.452 804.671 314.452C804.275 314.411 803.879 314.698 803.721 315.066Z" fill="black"/>
<path d="M835.178 315.103L836.048 315.266L835.969 333.842C835.89 344.03 835.969 352.295 836.167 352.172C836.325 352.091 836.444 343.744 836.444 333.638V315.266L837.354 315.103C837.829 315.021 837.354 314.939 836.246 314.939C835.178 314.939 834.663 315.021 835.178 315.103Z" fill="black"/>
<path d="M803.602 317.643C803.602 318.461 804.67 319.607 805.066 319.198C805.184 319.034 805.066 318.625 804.789 318.256C804.314 317.725 804.353 317.561 804.828 317.234C805.263 316.947 805.184 316.865 804.512 316.865C803.879 316.865 803.602 317.111 803.602 317.643Z" fill="black"/>
<path d="M800.635 317.522C800.872 317.726 801.743 318.544 802.613 319.322L804.196 320.754L803.009 319.404C802.336 318.626 801.466 317.849 801.031 317.603C800.595 317.358 800.437 317.317 800.635 317.522Z" fill="black"/>
<path d="M818.637 320.097C818.637 320.301 818.835 320.629 819.032 320.752C819.349 320.956 819.309 321.202 818.993 321.611C818.716 321.938 818.716 322.184 818.953 322.184C819.151 322.184 819.547 321.897 819.824 321.57C820.18 321.161 820.18 320.956 819.863 320.956C819.626 320.956 819.468 320.752 819.547 320.506C819.586 320.261 819.389 319.933 819.151 319.851C818.874 319.729 818.637 319.851 818.637 320.097Z" fill="black"/>
<path d="M907.629 321.982C908.737 323.21 910.122 325.174 910.636 326.36C911.19 327.547 911.625 328.283 911.625 327.997C911.625 326.401 906.996 319.732 905.848 319.732C905.69 319.732 906.481 320.755 907.629 321.982Z" fill="black"/>
<path d="M804.116 322.388C804.116 323.288 804.195 323.616 804.274 323.084C804.353 322.593 804.353 321.856 804.274 321.447C804.155 321.079 804.076 321.488 804.116 322.388Z" fill="black"/>
<path d="M768.387 329.102C768.387 329.593 768.585 329.961 768.782 329.961C769.02 329.961 769.178 329.715 769.178 329.388C769.178 329.061 769.02 328.652 768.782 328.529C768.585 328.406 768.387 328.652 768.387 329.102Z" fill="black"/>
<path d="M850.052 336.178C848.232 339.369 848.232 339.369 848.43 339.369C848.548 339.369 849.142 338.51 849.735 337.405C850.329 336.341 851.081 335.073 851.397 334.541C851.714 334.05 851.872 333.641 851.753 333.641C851.635 333.641 850.883 334.787 850.052 336.178Z" fill="black"/>
<path d="M787.773 338.549C788.089 338.795 788.723 339.163 789.158 339.409C789.791 339.736 789.751 339.654 789 339C788.485 338.509 787.892 338.14 787.615 338.14C787.377 338.14 787.456 338.345 787.773 338.549Z" fill="black"/>
<path d="M846.138 342.559C844.872 344.319 843.882 345.301 843.368 345.301C842.933 345.301 842.537 345.628 842.458 346.037C842.379 346.446 842.102 346.733 841.864 346.692C840.598 346.528 840.321 346.774 840.559 347.756C840.756 348.615 840.559 348.942 839.213 349.842C837.354 351.152 837.116 351.602 838.857 350.538C841.587 348.901 845.109 345.096 847.721 340.882C848.947 338.877 848.156 339.736 846.138 342.559ZM841.983 347.51C841.983 348.206 841.271 348.369 841.033 347.756C840.915 347.387 841.033 347.142 841.39 347.142C841.706 347.142 841.983 347.306 841.983 347.51Z" fill="black"/>
<path d="M869.523 340.882C867.347 342.355 864.537 345.505 863.232 347.919C861.847 350.538 862.124 350.661 863.588 348.083C865.012 345.505 867.465 342.846 869.879 341.168C870.947 340.391 871.66 339.777 871.462 339.818C871.224 339.818 870.354 340.309 869.523 340.882Z" fill="black"/>
<path d="M796.678 341.168C797.113 341.537 797.865 342.191 798.379 342.682C798.854 343.173 799.25 343.378 799.25 343.173C799.25 342.641 798.142 341.659 796.876 341.046C795.926 340.555 795.926 340.596 796.678 341.168Z" fill="black"/>
<path d="M756.91 342.766C756.91 342.848 757.504 343.421 758.216 344.116L759.482 345.303L758.335 343.953C757.227 342.725 756.91 342.439 756.91 342.766Z" fill="black"/>
<path d="M907.47 346.652C904.858 349.639 905.61 349.353 908.38 346.325C909.527 345.057 910.675 343.42 910.358 343.461C910.279 343.502 909.013 344.934 907.47 346.652Z" fill="black"/>
<path d="M797.551 346.078C798.342 347.142 798.619 347.224 798.223 346.201C798.105 345.873 797.749 345.464 797.432 345.342C796.997 345.178 797.036 345.342 797.551 346.078Z" fill="black"/>
<path d="M901.531 351.479C900.027 352.461 898.998 353.279 899.196 353.279C899.711 353.279 904.498 350.129 904.498 349.801C904.498 349.515 904.696 349.433 901.531 351.479Z" fill="black"/>
<path d="M798.968 353.445C799.68 355.123 800.273 356.35 800.353 356.187C800.471 355.818 798.176 350.417 797.899 350.417C797.82 350.417 798.295 351.768 798.968 353.445Z" fill="black"/>
<path d="M861.136 351.89C860.82 352.708 860.622 353.444 860.701 353.526C860.78 353.608 861.136 352.953 861.492 352.053C862.244 350.008 861.967 349.885 861.136 351.89Z" fill="black"/>
<path d="M854.797 354.139C854.164 354.834 853.887 355.325 854.204 355.243C854.481 355.162 854.797 355.325 854.916 355.571C854.995 355.857 854.679 355.98 853.967 355.857C852.898 355.734 852.898 355.734 853.729 356.184C855.035 356.88 855.905 356.389 855.47 355.202C855.193 354.466 855.272 354.057 855.747 353.525C856.103 353.157 856.301 352.87 856.182 352.87C856.064 352.87 855.47 353.443 854.797 354.139Z" fill="black"/>
<path d="M850.135 358.149C849.977 358.353 850.135 358.599 850.373 358.721C850.65 358.803 850.768 359.049 850.61 359.212C850.452 359.376 850.056 359.294 849.74 359.049C849.423 358.762 849.067 358.721 848.948 358.926C848.632 359.458 849.106 359.826 850.175 359.826C850.808 359.826 851.085 359.581 851.085 359.049C851.085 358.149 850.452 357.576 850.135 358.149Z" fill="black"/>
<path d="M858.162 360.565C858.083 360.81 856.936 361.424 855.63 361.997C854.087 362.652 853.216 363.306 853.137 363.797C853.018 364.493 853.058 364.493 853.454 363.838C853.691 363.429 854.443 362.979 855.155 362.734C855.828 362.529 856.738 362.243 857.133 362.079C857.608 361.874 857.806 361.997 857.846 362.529C857.846 362.979 858.044 362.693 858.241 361.915C858.598 360.729 858.518 359.583 858.162 360.565Z" fill="black"/>
<path d="M781.84 362.569C781.84 363.428 781.959 363.551 782.196 363.142C782.394 362.814 782.473 362.323 782.354 361.996C782.038 361.137 781.84 361.382 781.84 362.569Z" fill="black"/>
<path d="M810.727 362.201C810.727 362.365 811.676 362.856 812.824 363.306C813.932 363.715 815.119 364.247 815.435 364.493C815.871 364.82 815.95 364.82 815.831 364.37C815.633 363.756 810.727 361.669 810.727 362.201Z" fill="black"/>
<path d="M782.354 366.986C782.354 367.886 782.433 368.213 782.512 367.681C782.591 367.19 782.591 366.454 782.512 366.045C782.394 365.676 782.314 366.086 782.354 366.986Z" fill="black"/>
<path d="M829.441 366.253C829.797 366.335 830.43 366.335 830.826 366.253C831.182 366.13 830.865 366.049 830.114 366.049C829.362 366.049 829.045 366.13 829.441 366.253Z" fill="black"/>
<path d="M833.988 366.25C832.326 366.372 831.693 366.577 831.495 367.109C831.297 367.682 831.337 367.723 831.733 367.273C832.049 366.986 833.315 366.782 834.858 366.741C836.283 366.741 837.787 366.577 838.222 366.372C839.092 366.004 838.459 365.963 833.988 366.25Z" fill="black"/>
<path d="M857.143 367.804C857.143 368.704 857.222 369.032 857.301 368.5C857.381 368.009 857.381 367.272 857.301 366.863C857.183 366.495 857.104 366.904 857.143 367.804Z" fill="black"/>
<path d="M782.754 372.513C782.754 373.741 782.833 374.273 782.912 373.618C782.991 373.004 782.991 372.022 782.912 371.368C782.833 370.754 782.754 371.286 782.754 372.513Z" fill="black"/>
<path d="M783.145 388.876C783.145 390.349 783.224 390.922 783.303 390.185C783.382 389.49 783.382 388.262 783.303 387.526C783.224 386.83 783.145 387.403 783.145 388.876Z" fill="black"/>
<path d="M783.105 392.967C783.105 393.744 783.185 394.072 783.303 393.663C783.382 393.294 783.382 392.64 783.303 392.231C783.185 391.862 783.105 392.19 783.105 392.967Z" fill="black"/>
<path d="M861.414 394.808C861.414 395.013 862.008 396.404 862.759 397.877C863.511 399.35 864.105 400.332 864.105 400.127C864.105 399.882 863.511 398.532 862.759 397.059C862.008 395.586 861.414 394.563 861.414 394.808Z" fill="black"/>
<path d="M783.184 398.901C783.184 401.151 783.223 402.011 783.302 400.824C783.381 399.638 783.381 397.796 783.302 396.733C783.223 395.669 783.184 396.651 783.184 398.901Z" fill="black"/>
<path d="M889.979 399.722C889.979 400.622 890.058 400.95 890.137 400.418C890.216 399.927 890.216 399.19 890.137 398.781C890.019 398.413 889.939 398.822 889.979 399.722Z" fill="black"/>
<path d="M779.188 422.714C779.782 422.796 780.652 422.796 781.167 422.714C781.642 422.632 781.167 422.55 780.059 422.55C778.991 422.55 778.555 422.632 779.188 422.714Z" fill="black"/>
<path d="M767.397 315.271C761.264 316.826 754.023 321.326 752.361 324.641C751.886 325.582 751.886 325.868 752.322 326.523C752.836 327.218 752.876 327.177 752.678 326.154C752.52 325.336 752.638 325.05 753.113 325.05C753.469 325.05 754.34 324.395 755.012 323.577C757.426 320.754 762.491 317.808 768.703 315.639C772.62 314.248 772.067 314.084 767.397 315.271Z" fill="#EFEFEF"/>
<path d="M769.18 333.147C769.18 334.211 772.583 337.402 774.996 338.589C777.37 339.734 777.885 339.857 780.457 339.693C782.356 339.571 784.018 339.161 785.522 338.425C788.173 337.197 788.489 336.707 786.115 337.648C785.047 338.057 783.108 338.302 780.853 338.343C777.766 338.343 777.014 338.179 775.075 337.197C773.849 336.584 772.029 335.315 771 334.415C770.011 333.515 769.18 332.942 769.18 333.147Z" fill="#ECC1C1"/>
<path d="M887.333 412.608C887.215 413.508 886.977 415.022 886.859 415.922L886.621 417.641L887.729 417.354C888.362 417.191 888.956 416.986 889.035 416.904C889.114 416.822 889.035 415.431 888.877 413.876C888.56 410.562 887.729 409.908 887.333 412.608Z" fill="#DA6B8A"/>
<path d="M881.473 296.408C882.185 297.676 882.541 297.881 882.937 297.226C883.175 296.817 881.79 295.181 881.156 295.181C880.959 295.181 881.117 295.712 881.473 296.408Z" fill="#ECC196"/>
<path d="M771.115 296.449C770.679 296.899 770.363 297.472 770.442 297.676C770.679 298.454 771.273 298.086 771.787 296.858C772.381 295.385 772.262 295.262 771.115 296.449Z" fill="#ECC1C1"/>
<path d="M766.09 302.215C766.169 302.461 766.684 302.952 767.238 303.32L768.187 303.934L767.238 302.829C766.209 301.642 765.853 301.438 766.09 302.215Z" fill="#ECC1C1"/>
<path d="M885.506 302.136C884.675 302.422 884.675 302.463 885.308 302.504C885.743 302.504 886.376 302.34 886.693 302.136C887.405 301.686 886.891 301.686 885.506 302.136Z" fill="#ECC196"/>
<path d="M882.738 303.077C882.698 304.591 881.234 307.496 879.731 308.928C877.831 310.81 878.385 310.687 880.403 308.805C882.738 306.595 884.439 302.831 883.292 302.381C882.936 302.217 882.738 302.463 882.738 303.077Z" fill="#ECC196"/>
<path d="M770.915 303.485C770.361 304.958 772.656 308.19 775.149 309.499C777.286 310.645 777.484 310.522 775.585 309.172C773.646 307.822 772.379 306.226 771.707 304.221C771.311 303.035 771.153 302.871 770.915 303.485Z" fill="#ECC1C1"/>
<path d="M753.388 327.5C751.845 334.947 755.287 341.861 763.122 347.221C765.615 348.94 770.798 350.986 773.528 351.395C775.032 351.599 774.834 351.477 772.143 350.495C766.366 348.367 763.636 346.73 760.629 343.662C756.316 339.243 754.535 334.292 755.129 328.236C755.406 325.618 755.366 325.454 754.614 325.454C753.981 325.454 753.704 325.863 753.388 327.5Z" fill="#ECC1C1"/>
<path d="M816.225 329.631C815.157 331.963 812.624 334.868 810.765 335.85C806.254 338.305 799.685 336.996 795.689 332.823C794.541 331.677 793.869 331.186 793.829 331.595C793.789 331.922 793.671 332.577 793.512 333.027C792.959 334.868 799.725 338.51 803.642 338.551C809.459 338.551 814.247 335.4 816.542 330.04C817.768 327.176 817.491 326.808 816.225 329.631Z" fill="#EFEFEF"/>
<path d="M894.726 329.22C894.41 329.956 894.568 330.283 895.676 331.306C898.604 333.966 898.92 336.462 896.704 339.039L895.201 340.758L896.704 339.571C899.712 337.239 900.226 334.048 898.089 331.143C897.377 330.202 896.428 329.179 895.953 328.851C895.201 328.36 895.082 328.401 894.726 329.22Z" fill="#ECC1C1"/>
<path d="M862.914 340.31C860.065 345.752 857.849 349.189 854.921 352.626C853.457 354.344 852.903 355.163 853.536 354.754C854.13 354.344 855.594 352.831 856.82 351.317C859.353 348.248 866.515 338.019 866.515 337.487C866.515 337.283 866.198 336.914 865.802 336.669C865.169 336.26 864.853 336.628 862.914 340.31Z" fill="#ECC1C1"/>
<path d="M797.31 403.974C797.626 404.874 797.982 405.242 798.576 405.242C799.09 405.242 799.249 405.119 799.011 404.915C798.734 404.751 798.497 404.26 798.418 403.81C798.299 403.36 797.943 402.951 797.587 402.869C796.993 402.746 796.954 402.91 797.31 403.974Z" fill="#ECC196"/>
<path d="M887.406 404.219C887.565 405.733 888.039 406.102 888.435 404.997C888.91 403.769 888.673 402.787 887.96 402.787C887.367 402.787 887.288 403.033 887.406 404.219Z" fill="#ECC196"/>
<path d="M769.176 404.834C769.176 406.021 769.334 406.471 769.769 406.471C770.402 406.471 770.521 405.652 770.125 404.098C769.73 402.625 769.176 403.075 769.176 404.834Z" fill="#ECC196"/>
<path d="M783.267 314.04C783.9 315.104 781.724 316.454 779.389 316.454C777.767 316.454 775.511 315.39 775.511 314.613C775.511 313.917 775.353 313.917 770.486 315.267C764.709 316.822 757.349 320.791 754.817 323.737C754.105 324.555 754.105 324.555 756.4 324.841C760 325.251 765.224 326.601 767.558 327.706C769.378 328.606 769.655 328.851 769.457 329.629C769.22 330.529 769.22 330.529 769.774 329.792C770.09 329.342 770.367 328.769 770.367 328.483C770.367 328.237 770.644 327.787 770.961 327.501C771.278 327.215 771.555 327.092 771.555 327.174C771.555 327.828 770.13 330.283 769.418 330.856C768.587 331.552 768.587 331.552 770.526 333.597C774.166 337.444 778.717 338.998 783.504 338.139C788.292 337.28 790.627 335.357 792.724 330.692C793.278 329.506 793.713 328.892 793.713 329.342C793.674 329.792 793.436 330.611 793.12 331.183C791.933 333.352 792.605 333.27 793.871 331.102C796.681 326.233 801.548 320.954 803.21 320.954C804.159 320.954 801.666 318.622 799.253 317.313C797.947 316.576 795.533 315.635 793.832 315.185C790.745 314.367 782.95 313.549 783.267 314.04Z" fill="#EFEFEF"/>
<path d="M869.686 354.632C868.499 355.491 865.848 357.251 863.83 358.478C861.772 359.706 860.269 360.892 860.467 361.056C861.298 361.874 872.97 369.239 873.129 369.075C873.366 368.83 872.417 354.509 872.1 353.65C871.902 353.159 871.467 353.323 869.686 354.632Z" fill="#DA6B8A"/>
<path d="M816.266 364.492C816.266 365.105 821.766 380.367 822.003 380.408C822.161 380.449 824.338 377.421 826.831 373.657L831.302 366.865L828.651 366.578C825.287 366.292 819.273 365.269 817.571 364.778C816.859 364.573 816.266 364.41 816.266 364.492Z" fill="#DA6B8A"/>
<path d="M870.52 406.022C868.778 406.677 867.354 407.454 866.998 408.027C866.365 409.05 866.523 409.091 868.462 408.518C869.214 408.313 869.966 408.232 870.203 408.395C870.915 408.845 869.214 409.745 867.631 409.745C866.8 409.745 866.127 409.827 866.127 409.909C866.127 409.991 866.009 410.4 865.85 410.809C865.613 411.423 865.811 411.464 867.671 411.218C869.293 411.014 869.728 411.055 869.609 411.464C869.412 412.078 867.037 412.651 866.048 412.364C865.415 412.16 865.336 412.446 865.336 414.41C865.336 416.906 865.296 416.865 867.314 416.292C868.225 416.047 868.976 415.433 869.451 414.574C870.559 412.691 871.667 411.423 873.131 410.523C874.12 409.909 874.437 409.377 874.437 408.518C874.437 407.004 874.002 404.836 873.685 404.877C873.566 404.877 872.142 405.408 870.52 406.022Z" fill="#DA6B8A"/>
<path d="M873.838 410.726C873.126 411.258 873.126 411.299 873.957 411.749C874.392 411.994 875.144 412.199 875.579 412.199C876.054 412.199 876.41 412.403 876.41 412.608C876.41 413.385 875.421 413.467 873.759 412.854C872.413 412.363 872.018 412.363 871.701 412.772C871.266 413.304 871.662 413.59 874.154 414.408C874.511 414.531 874.827 414.817 874.827 415.063C874.827 415.677 873.205 415.554 871.899 414.858C870.356 414.04 870.316 414.04 869.564 415.677C868.773 417.395 868.694 418.336 869.406 418.336C869.644 418.336 871.147 418.541 872.651 418.786C874.194 418.991 876.885 419.073 878.705 418.909C881.673 418.664 881.95 418.582 881.95 417.763C881.989 416.331 883.453 413.385 884.838 412.035L886.144 410.767H882.187C879.971 410.767 877.36 410.644 876.37 410.48C875.104 410.276 874.313 410.358 873.838 410.726Z" fill="#DA6B8A"/>
<path d="M885.714 412.278C883.419 414.324 881.836 418.334 883.3 418.334C884.764 418.334 886.307 417.761 886.505 417.107C886.782 416.247 887.415 410.969 887.257 410.969C887.178 410.969 886.505 411.542 885.714 412.278Z" fill="#DA6B8A"/>
<path d="M775.508 293.217C775.508 293.626 774.836 294.281 773.886 294.772C772.105 295.713 771.037 297.677 771.433 299.313C771.67 300.295 771.631 300.254 770.8 299.15C769.177 297.104 766.012 298.004 766.012 300.582C766.012 302.709 769.256 304.018 770.958 302.546C771.472 302.095 771.551 302.218 771.551 303.241C771.551 304.55 773.055 307.169 774.44 308.396C777.289 310.81 781.285 311.424 784.411 309.951C786.429 309.01 789.08 305.942 789.674 303.855C790.782 300.091 789.753 295.058 787.695 293.912C786.508 293.258 779.663 292.93 777.803 293.462C776.537 293.83 776.26 293.79 775.904 293.217C775.548 292.562 775.548 292.562 775.508 293.217ZM787.023 294.362C787.893 294.853 788.012 295.917 787.221 296.244C786.469 296.531 785.005 295.713 785.005 294.976C785.005 294.526 785.4 294.158 786.113 293.994C786.192 293.953 786.588 294.158 787.023 294.362ZM778.832 294.731C779.544 295.876 777.17 297.472 776.22 296.49C775.864 296.122 775.944 295.794 776.497 295.181C777.249 294.321 778.476 294.076 778.832 294.731ZM786.35 297.595C786.706 298.168 786.192 299.272 785.559 299.272C785.242 299.272 785.005 298.863 785.005 298.249C785.005 297.226 785.915 296.817 786.35 297.595ZM779.267 298.659C779.267 299.804 778.12 299.681 777.962 298.536C777.843 297.758 777.962 297.595 778.555 297.717C778.951 297.799 779.267 298.208 779.267 298.659ZM770.166 299.927C770.523 300.295 770.681 300.704 770.562 300.868C770.404 300.991 770.127 300.786 769.929 300.377C769.454 299.559 767.99 299.436 767.199 300.172C766.724 300.622 766.724 300.582 767.159 299.968C767.832 299.109 769.296 299.068 770.166 299.927ZM784.293 300.704C783.936 302.668 781.958 303.241 780.89 301.645C780.019 300.377 780.098 300.172 781.562 299.968C783.857 299.681 784.411 299.804 784.293 300.704ZM778.239 301.032C778.753 301.686 778.436 302.136 777.447 302.136C776.616 302.136 776.141 301.523 776.497 300.909C776.854 300.336 777.724 300.418 778.239 301.032ZM787.775 301.113C787.775 301.482 787.418 301.727 786.785 301.727C785.836 301.727 785.519 301.318 786.073 300.786C786.548 300.254 787.775 300.5 787.775 301.113Z" fill="#ECC1C1"/>
<path d="M876.844 293.177C876.805 293.75 876.172 293.872 873.362 294.036C868.614 294.323 865.449 295.55 864.697 297.473C863.233 301.074 864.578 306.475 867.546 309.052C869.485 310.689 872.729 311.712 875.024 311.384C878.783 310.771 882.226 307.088 882.661 303.16C882.819 301.483 882.898 301.401 883.571 301.892C884.402 302.465 886.46 302.301 886.064 301.687C885.945 301.483 886.143 301.319 886.46 301.319C887.132 301.319 887.884 300.133 887.884 299.11C887.884 298.087 886.42 296.818 885.273 296.818C884.639 296.818 883.809 297.309 883.057 298.128C882.107 299.192 881.909 299.273 882.107 298.619C882.503 297.309 880.841 295.059 879.139 294.65C878.269 294.445 877.517 293.954 877.28 293.422C876.963 292.768 876.844 292.686 876.844 293.177ZM876.607 295.345C877.557 296.041 877.121 297.35 875.974 297.146C874.747 296.982 874.035 295.714 874.826 295.182C875.618 294.65 875.736 294.691 876.607 295.345ZM868.298 296.409C868.654 296.982 867.031 298.455 866.319 298.21C865.607 297.923 865.567 297.146 866.2 296.491C866.754 295.918 867.941 295.836 868.298 296.409ZM875.816 299.11C875.816 299.519 875.499 299.928 875.143 300.01C874.431 300.133 874.114 298.905 874.708 298.291C875.182 297.841 875.816 298.291 875.816 299.11ZM886.46 298.414C886.578 298.578 886.222 298.66 885.629 298.537C884.877 298.373 884.442 298.578 883.888 299.314C883.492 299.846 883.136 300.092 883.136 299.805C883.136 298.537 885.866 297.391 886.46 298.414ZM868.812 300.01C868.891 300.583 868.733 300.91 868.377 300.91C867.704 300.91 867.19 299.805 867.546 299.232C867.902 298.578 868.693 299.069 868.812 300.01ZM873.639 301.646C873.639 303.651 870.988 304.265 870.078 302.506C869.445 301.319 869.92 300.91 871.898 300.91C873.323 300.91 873.639 301.033 873.639 301.646ZM877.596 301.483C877.596 302.219 876.409 302.71 875.895 302.178C875.697 301.974 875.657 301.606 875.776 301.36C876.172 300.705 877.596 300.828 877.596 301.483ZM868.337 302.588C868.456 302.833 868.416 303.201 868.218 303.406C867.704 303.938 866.517 303.447 866.517 302.71C866.517 302.056 867.941 301.933 868.337 302.588Z" fill="#ECC1C1"/>
<path d="M790.426 296.693C789.872 297.225 790.189 297.634 791.099 297.634C791.653 297.634 792.207 297.839 792.326 298.043C792.484 298.33 792.247 298.411 791.574 298.207C790.585 297.961 790.545 298.002 790.664 299.639C790.743 301.153 790.822 301.316 791.811 301.316C792.88 301.316 793.711 300.375 793.711 299.148C793.711 297.839 791.139 295.916 790.426 296.693Z" fill="#ECC1C1"/>
<path d="M861.132 300.294C860.262 301.644 860.697 303.526 861.765 303.24C862.2 303.117 862.636 303.199 862.754 303.363C862.873 303.567 862.636 303.813 862.28 303.894C861.844 304.017 862.042 304.099 862.715 304.14C863.823 304.181 863.823 304.14 863.585 302.462C863.269 300.335 863.15 300.212 862.319 300.948C861.726 301.439 861.646 301.439 861.844 300.908C861.923 300.58 862.398 300.253 862.873 300.171C864.06 299.967 863.981 299.271 862.754 299.271C862.161 299.271 861.528 299.639 861.132 300.294Z" fill="#ECC1C1"/>
<path d="M807.993 300.459C807.676 300.991 807.795 301.605 808.349 302.791C808.784 303.651 809.14 304.673 809.14 305.083C809.14 305.574 809.457 305.819 810.09 305.819C810.605 305.819 811.356 305.942 811.712 306.065C812.227 306.269 812.306 306.146 812.108 305.164C811.158 300.623 809.101 298.291 807.993 300.459Z" fill="#ECC1C1"/>
<path d="M805.063 301.194C804.628 301.603 804.746 303.976 805.221 305.286C805.815 306.963 807.476 308.6 808.901 308.927C810.405 309.254 812.462 310.318 812.185 310.605C812.066 310.686 811.552 310.523 811.038 310.195C810.563 309.868 809.495 309.5 808.743 309.336C807.991 309.173 806.843 308.559 806.171 307.904C804.825 306.554 803.401 305.981 803.005 306.636C802.847 306.881 803.282 308.436 803.955 310.073C804.628 311.709 805.261 313.796 805.419 314.737L805.656 316.374L807.912 316.537C810.682 316.742 817.092 316.169 817.527 315.719C818.318 314.901 815.272 303.363 813.847 301.808C812.977 300.785 811.671 300.744 811.79 301.726C812.066 303.976 812.858 306.145 813.61 306.718C814.441 307.372 814.401 307.413 812.541 306.84C811.473 306.513 809.771 306.186 808.782 306.186C807.793 306.145 807.358 306.022 807.872 305.94C808.861 305.736 808.901 305.531 808.307 303.894C807.556 301.808 805.815 300.376 805.063 301.194Z" fill="#ECC1C1"/>
<path d="M813.496 316.908C812.071 317.154 809.737 317.195 808.273 317.072L805.582 316.827V318.054C805.582 319.159 805.74 319.322 808.075 320.1C810.686 321 814.841 321.777 816.978 321.777H818.284L818.165 319.2C818.046 316.254 818.007 316.254 813.496 316.908Z" fill="#ECC1C1"/>
<path d="M900.824 320.63C898.727 322.962 895.403 327.585 895.403 328.158C895.403 328.363 895.759 328.772 896.194 329.058C897.737 330.04 899.36 332.864 899.36 334.541C899.36 337.651 897.698 339.492 892.593 342.029C888.716 343.952 887.054 344.156 883.967 343.052C882.583 342.601 881.356 342.274 881.237 342.397C881.119 342.52 881.237 343.379 881.514 344.32C881.989 345.875 881.949 346.038 881 346.939C879.931 347.961 879.575 350.13 880.367 350.621C880.604 350.744 880.762 350.703 880.762 350.498C880.762 350.253 881.039 349.966 881.356 349.844C881.91 349.639 881.91 349.68 881.356 350.498C880.525 351.726 880.604 352.708 881.593 353.731C882.345 354.508 882.464 354.508 883.097 353.935C883.493 353.567 884.047 353.28 884.363 353.321C884.68 353.321 884.521 353.485 884.047 353.69C882.147 354.467 883.532 356.963 885.827 356.963C887.014 356.963 887.647 356.226 886.619 356.104C886.342 356.063 887.608 355.899 889.468 355.735C897.658 355.04 907.353 348.575 910.716 341.579C912.022 338.837 912.18 338.183 912.18 335.155C912.22 331.022 910.953 326.644 908.896 323.821C907.353 321.694 903.91 318.502 903.198 318.502C902.961 318.502 901.892 319.484 900.824 320.63Z" fill="#ECC1C1"/>
<path d="M805.222 321.572C804.984 322.595 804.233 324.027 803.56 324.763C802.412 326.032 802.373 326.032 803.046 324.886C803.718 323.74 803.718 323.74 802.808 323.004C802.294 322.595 801.621 322.349 801.344 322.472C800.592 322.799 795.884 328.609 795.013 330.287L794.301 331.678L796.002 333.233C800.157 337.079 806.409 338.184 810.761 335.892C813.808 334.256 816.895 329.55 817.805 325.131C818.398 322.104 818.438 322.185 816.499 322.185C814.243 322.185 809.297 321.203 807.359 320.385C806.567 320.017 805.815 319.731 805.776 319.731C805.736 319.731 805.459 320.549 805.222 321.572Z" fill="#ECC1C1"/>
<path d="M755.13 328.2C754.813 331.637 755.407 335.483 756.831 338.552C758.335 341.866 762.688 346.162 766.447 348.044C773.767 351.686 779.306 352.831 785.994 352.054C788.407 351.768 791.573 351.563 793.116 351.563C795.965 351.604 796.875 351.236 796.875 350.008C796.875 349.067 795.094 347.553 793.63 347.267C792.997 347.144 792.522 346.899 792.522 346.694C792.522 346.121 795.055 347.226 796.163 348.249C798.22 350.254 798.893 347.635 796.835 345.548C796.163 344.853 795.411 344.28 795.134 344.28C794.857 344.28 794.303 343.994 793.868 343.666C793.195 343.093 793.314 343.093 794.699 343.666C795.569 344.035 796.44 344.485 796.677 344.73C796.875 344.935 797.429 345.098 797.943 345.098C799.13 345.098 799.17 343.789 798.023 342.602C796.44 340.966 794.54 340.434 790.94 340.598C779.465 341.048 776.616 340.638 772.778 337.979C770.008 336.015 768.781 334.174 768.267 331.023C767.831 328.364 767.792 328.323 766.209 327.709C763.835 326.809 760.313 325.95 757.741 325.622L755.407 325.377L755.13 328.2Z" fill="#ECC1C1"/>
<path d="M852.275 333.56C847.962 341.089 845.944 344.198 843.57 346.858L841.473 349.272L842.185 350.54C844.045 353.895 847.725 358.191 848.714 358.191C849.07 358.191 850.059 357.578 850.85 356.841L852.354 355.532L849.782 353.813C846.814 351.809 843.174 348.494 843.174 347.84C843.174 347.594 844.124 348.331 845.271 349.476C847.368 351.604 851.84 354.918 852.592 354.918C853.145 354.918 856.944 350.377 858.883 347.349C860.387 345.098 864.937 336.792 864.937 336.383C864.937 336.301 863.631 335.32 862.088 334.256C860.505 333.151 858.329 331.392 857.221 330.328L855.243 328.364L852.275 333.56Z" fill="#ECC1C1"/>
<path d="M792.13 339.288C791.378 339.452 791.694 339.616 793.515 339.984C796.126 340.557 796.68 340.434 795.533 339.534C794.741 338.961 793.95 338.879 792.13 339.288Z" fill="#ECC1C1"/>
<path d="M837.865 351.52C836.124 352.665 834.264 354.097 833.71 354.67C832.76 355.652 832.76 355.775 833.354 356.429C833.947 357.043 834.224 357.043 835.728 356.511C837.469 355.938 843.839 355.693 843.048 356.225C842.771 356.389 841.782 356.552 840.793 356.552H839.012L840.318 357.371C841.03 357.821 842.217 358.189 842.969 358.189C844.116 358.189 844.393 358.353 844.591 359.212C844.868 360.439 844.75 360.398 846.728 359.58L848.311 358.925L845.739 356.102C844.354 354.547 842.692 352.42 842.098 351.356L840.991 349.392L837.865 351.52Z" fill="#ECC1C1"/>
<path d="M836.285 356.801C835.691 357.169 834.741 357.373 834.227 357.251C833.396 357.087 833.277 357.251 833.277 358.233C833.277 358.928 833.554 359.542 833.99 359.747C834.939 360.279 836.918 359.624 838.026 358.437C838.777 357.578 838.857 357.292 838.421 356.76C837.828 356.023 837.709 356.023 836.285 356.801Z" fill="#ECC1C1"/>
<path d="M838.304 358.803C837.908 359.376 837.157 359.949 836.603 360.072C835.218 360.44 835.653 361.217 837.275 361.381C839.016 361.545 840.797 360.194 840.797 358.762C840.797 357.412 839.254 357.453 838.304 358.803Z" fill="#ECC1C1"/>
<path d="M840.525 360.198C839.812 361.099 839.219 361.917 839.219 362.04C839.219 362.162 839.852 362.285 840.643 362.285C841.672 362.285 842.345 361.958 843.255 361.058C844.64 359.626 844.561 358.848 842.938 358.685C842.028 358.603 841.553 358.93 840.525 360.198Z" fill="#ECC1C1"/>
<path d="M872.056 396.651C871.304 397.101 869.445 397.919 867.901 398.533C866.398 399.146 864.973 399.76 864.815 399.924C864.657 400.088 864.736 400.701 865.013 401.315C865.606 402.706 866.398 402.583 870.83 400.619L873.837 399.31L873.955 397.551C874.114 395.628 873.995 395.546 872.056 396.651Z" fill="#ECC1C1"/>
<path d="M806.566 400.416C804.825 401.07 802.292 401.848 800.907 402.134C799.523 402.38 798.415 402.748 798.454 402.912C798.454 403.075 798.454 403.607 798.454 404.057C798.454 404.875 798.612 404.916 800.353 404.671C802.253 404.425 809.296 402.216 810.285 401.602C810.839 401.234 810.602 399.065 810.008 399.147C809.85 399.147 808.307 399.72 806.566 400.416Z" fill="#ECC1C1"/>
<path d="M779.465 403.199C778.278 403.403 775.627 403.526 773.648 403.567L770.008 403.608L770.245 404.917C770.364 405.653 770.562 406.349 770.641 406.431C770.799 406.676 780.929 405.776 782.155 405.408C782.789 405.203 783.026 404.835 783.026 403.976C783.026 402.667 783.105 402.708 779.465 403.199Z" fill="#ECC1C1"/>
<path d="M874.828 403.937C874.828 404.673 875.066 405.246 875.461 405.41C876.49 405.819 885.274 406.228 886.461 405.901C887.292 405.696 887.49 405.41 887.49 404.428V403.241L883.454 403.323C881.199 403.364 878.35 403.241 877.123 403.077L874.828 402.75V403.937Z" fill="#ECC1C1"/>
<path d="M834.671 282.046C828.894 283.601 824.977 289.575 824.977 296.858C824.977 309.296 836.452 316.211 843.93 308.273C849.391 302.422 849.628 292.234 844.405 285.77C842.189 282.988 837.639 281.269 834.671 282.046ZM832.495 284.542C832.495 284.992 832.336 285.361 832.139 285.361C831.466 285.361 829.21 288.675 828.3 291.007C827.786 292.275 827.153 293.339 826.876 293.339C825.531 293.339 827.628 288.061 830.002 285.442C831.743 283.56 832.495 283.274 832.495 284.542Z" fill="#E26D85"/>
<path d="M776.782 300.788C776.387 300.952 776.387 301.115 776.743 301.565C777.257 302.22 778.128 302.302 778.484 301.77C778.761 301.279 777.495 300.543 776.782 300.788Z" fill="#EC96EC"/>
<path d="M786.082 300.786C785.528 301.318 785.844 301.768 786.675 301.646C787.744 301.482 788.1 300.5 787.111 300.5C786.675 300.5 786.201 300.623 786.082 300.786Z" fill="#EC96EC"/>
<path d="M875.902 301.197C875.348 301.728 875.665 302.179 876.496 302.056C877.564 301.892 877.92 300.91 876.931 300.91C876.496 300.91 876.021 301.033 875.902 301.197Z" fill="#EC96EC"/>
<path d="M866.527 302.709C866.527 303.159 866.883 303.363 867.556 303.363C868.783 303.363 868.664 302.422 867.398 302.218C866.804 302.136 866.527 302.299 866.527 302.709Z" fill="#EC96EC"/>
<path d="M835.305 313.265C835.028 314.083 835.107 314.206 836.136 314.329C837.6 314.492 837.838 314.288 837.244 313.224C836.69 312.078 835.701 312.119 835.305 313.265Z" fill="#EC96EC"/>
<path d="M785.722 338.961C785.366 339.207 784.14 339.657 782.953 339.984L780.855 340.598L784.456 340.434C788.571 340.27 789.402 339.984 788.294 339.125C787.463 338.47 786.633 338.429 785.722 338.961Z" fill="#EC96EC"/>
<path d="M762.852 350.499C762.18 353.24 762.536 358.886 763.841 367.397C765.108 375.376 765.741 381.022 766.809 392.724C767.244 397.634 767.798 401.93 768.036 402.216C768.392 402.666 769.777 402.789 773.734 402.789C776.622 402.789 779.788 402.666 780.816 402.544L782.637 402.257V388.919C782.637 381.554 782.439 373.043 782.162 370.016C781.489 362.119 781.529 355.613 782.201 354.754C782.993 353.772 783.072 354.099 782.439 355.941C781.647 358.273 781.727 360.237 782.676 361.669C784.101 363.837 786.871 369.77 788.295 373.739C789.878 378.158 791.975 386.791 793.558 395.22C794.943 402.707 794.824 402.544 797.594 402.175C800.641 401.766 805.191 400.498 807.763 399.311C809.346 398.616 809.939 398.125 809.939 397.511C809.939 395.301 804.479 370.016 803.648 368.543C803.45 368.133 802.659 368.543 800.561 370.056C797.871 371.98 796.723 372.471 796.367 371.775C796.288 371.611 796.367 367.642 796.525 362.896L796.842 354.345L795.576 353.158L794.309 352.013L790.155 352.34C779.075 353.199 772.19 352.422 766.176 349.599C764.712 348.944 763.485 348.371 763.446 348.371C763.367 348.371 763.09 349.312 762.852 350.499Z" fill="#985FBA"/>
<path d="M797.276 351.115C797.276 351.401 796.802 351.77 796.248 351.892L795.219 352.179L796.366 353.12C796.96 353.693 797.989 354.511 798.582 354.961L799.69 355.82L799.136 354.429C798.266 352.261 797.316 350.583 797.276 351.115Z" fill="#EC96EC"/>
<path d="M885.705 340.063C885.943 340.226 886.774 341.045 887.605 341.822C888.594 342.763 889.187 343.09 889.464 342.804C889.781 342.477 889.425 342.068 888.396 341.331C886.932 340.349 884.914 339.408 885.705 340.063Z" fill="#DA6B8A"/>
<path d="M894.726 355.324C894.054 355.611 893.816 356.143 893.579 358.066C893.46 359.375 892.827 362.116 892.234 364.162C889.582 373.082 888.672 379.874 888.672 391.207C888.633 395.422 888.475 399.677 888.316 400.618C888 402.377 888.237 402.827 888.989 401.845C889.226 401.559 889.622 397.549 889.859 392.967C890.532 379.587 891.759 372.181 894.766 363.139C895.834 359.989 896.547 354.915 895.953 354.956C895.755 354.956 895.201 355.12 894.726 355.324Z" fill="#DA6B8A"/>
<path d="M771.274 274.314C770.008 274.846 768.781 277.096 768.781 278.937C768.781 283.152 772.105 285.975 776.101 285.197C778.792 284.665 779.979 280.369 778.317 277.178C777.091 274.764 773.609 273.332 771.274 274.314Z" fill="#7357D6"/>
<path d="M776.856 288.185C775.075 289.044 773.414 291.008 772.701 293.095C772.147 294.732 772.345 294.936 773.73 294.282C774.363 293.995 775.036 293.177 775.392 292.236C776.104 290.354 776.698 290.231 776.698 291.949C776.698 293.054 776.816 293.177 777.608 293.013C780.853 292.154 783.701 292.277 787.896 293.341C789.36 293.75 789.281 293.054 787.5 291.049C784.651 287.817 780.14 286.589 776.856 288.185Z" fill="#7357D6"/>
<path d="M871.666 288.592C868.699 289.247 866.127 291.333 864.9 294.157C864.504 295.057 864.227 295.834 864.307 295.875C864.386 295.957 865.454 295.507 866.76 294.934C868.58 294.075 869.886 293.788 872.774 293.625C876.296 293.461 876.415 293.42 876.177 292.561C876.019 292.111 875.821 291.415 875.742 291.088C875.544 290.433 877.799 292.725 878.037 293.461C878.116 293.666 878.749 293.993 879.461 294.116C880.569 294.361 880.688 294.32 880.49 293.625C880.411 293.175 879.778 292.193 879.184 291.415C877.364 289.124 874.397 288.019 871.666 288.592Z" fill="#7357D6"/>
<path d="M883.77 304.875C883.612 305.571 882.781 307.003 881.91 307.985L880.367 309.826L882.623 309.212C883.889 308.885 884.957 308.558 884.997 308.558C885.036 308.517 884.838 307.371 884.561 306.021C884.087 303.689 884.047 303.648 883.77 304.875Z" fill="#7357D6"/>
<path d="M863.986 306.023C863.63 307.005 863.67 310.237 864.065 310.482C864.224 310.564 865.529 310.81 866.914 310.973L869.486 311.26L867.706 309.869C866.717 309.091 865.569 307.741 865.094 306.882C864.422 305.695 864.184 305.491 863.986 306.023Z" fill="#7357D6"/>
<path d="M797.149 360.113C796.753 367.478 796.793 371.774 797.228 371.611C797.426 371.529 800.433 369.483 803.915 366.987L810.246 362.487L806.645 360.645C803.084 358.845 798.692 356.022 798.217 355.285C797.623 354.262 797.386 355.367 797.149 360.113Z" fill="#7357D6"/>
<path d="M850.488 364.367C848.312 365.103 841.585 366.372 839.963 366.372C839.092 366.372 838.419 366.535 838.499 366.74C838.696 367.436 848.391 379.465 848.707 379.465C848.945 379.465 852.664 365.022 852.664 364.121C852.664 363.835 851.873 363.917 850.488 364.367Z" fill="#7357D6"/>
<path d="M809.341 407.168C808.035 407.741 805.78 408.518 804.316 408.886C802.812 409.255 801.625 409.623 801.625 409.746C801.625 409.868 802.377 410.4 803.247 410.891C804.197 411.464 805.344 412.692 806.096 413.919L807.323 415.965L809.262 415.719C811.557 415.392 816.701 413.714 818.6 412.651L819.945 411.914L818.56 410.359L817.176 408.805L815.553 410.155C814.01 411.423 812.704 411.628 812.704 410.564C812.704 409.991 814.643 409.255 815.158 409.582C815.395 409.746 815.474 409.664 815.316 409.418C815.197 409.173 815.237 408.886 815.474 408.723C816.107 408.314 815.949 407.782 815.039 407.25C814.564 407.004 814.287 406.963 814.445 407.209C814.762 407.782 813.614 408.641 813.021 408.273C812.744 408.109 812.625 408.109 812.783 408.314C813.179 408.764 811.636 409.868 811.122 409.541C810.449 409.132 810.686 408.109 811.438 408.109C811.834 408.109 812.546 407.782 813.06 407.413C813.97 406.759 813.97 406.718 813.258 406.431C812.19 405.981 811.992 406.022 809.341 407.168Z" fill="#7357D6"/>
<path d="M780.649 410.606C779.897 410.769 777.642 411.056 775.663 411.219L772.062 411.506L773.566 413.06C774.397 413.92 775.386 415.515 775.782 416.661C776.455 418.707 776.494 418.707 778.473 418.952C780.57 419.239 786.703 418.584 788.365 417.929C789.552 417.438 789.592 416.988 788.523 415.229C787.732 413.879 787.692 413.838 786.466 414.493C785.753 414.82 784.883 415.311 784.448 415.515C783.973 415.802 783.577 415.802 783.3 415.515C782.786 414.984 783.26 413.715 783.933 413.961C784.685 414.247 786.743 413.02 786.307 412.569C786.03 412.283 785.199 412.406 783.854 412.856C782.39 413.347 781.678 413.429 781.361 413.101C780.728 412.447 781.322 411.833 782.588 411.874C784.25 411.915 784.922 411.383 784.012 410.687C783.181 410.115 782.667 410.074 780.649 410.606Z" fill="#7357D6"/>
<path d="M801.071 412.688C801.665 414.121 802.298 415.512 802.496 415.757C802.733 416.044 803.802 416.289 804.87 416.289H806.848L805.859 414.53C804.87 412.811 802.575 410.847 800.953 410.356L800.082 410.111L801.071 412.688Z" fill="#7357D6"/>
<path d="M770.678 411.178C770.48 411.424 770.718 412.856 771.628 416.579C772.024 418.175 772.103 418.257 773.804 418.543C774.793 418.666 775.664 418.707 775.783 418.584C775.901 418.502 775.545 417.398 774.991 416.129C774.319 414.656 773.448 413.47 772.38 412.692C771.509 412.038 770.916 411.383 771.034 411.219C771.153 411.097 771.193 410.974 771.074 410.974C770.995 410.974 770.797 411.056 770.678 411.178Z" fill="#7357D6"/>
<path d="M789.868 416.456C789.987 416.743 790.185 417.847 790.343 418.87L790.62 420.712L788.879 421.325C787.969 421.694 786.822 422.062 786.386 422.144C785.951 422.266 788.009 422.348 790.937 422.389C796.555 422.43 803.045 421.653 805.261 420.63C806.566 420.057 806.527 420.057 803.48 420.016C801.541 419.975 800.473 419.811 800.631 419.566C800.789 419.32 800.591 419.279 800.196 419.443C799.642 419.648 799.563 419.484 799.721 418.42C799.8 417.725 799.761 417.234 799.563 417.356C799.404 417.479 799.246 417.316 799.246 416.988C799.246 416.252 797.268 415.883 792.955 415.883C790.343 415.883 789.71 416.006 789.868 416.456Z" fill="#7357D6"/>
<path d="M862.165 418.091C859.554 418.705 858.089 419.441 858.287 420.096C858.564 420.914 861.018 421.937 863.946 422.469C869.881 423.492 883.057 422.96 887.41 421.569C889.547 420.833 888.637 420.751 886.302 421.446C883.809 422.183 873.877 422.674 871.068 422.265C869.881 422.06 868.852 421.569 868.219 420.955C867.705 420.423 866.992 419.973 866.676 419.973C866.32 419.973 865.845 419.401 865.608 418.746C865.093 417.396 865.212 417.396 862.165 418.091Z" fill="#7357D6"/>
<path d="M882.938 339.741C881.276 340.436 878.071 340.641 875.499 340.191C872.927 339.7 872.809 339.741 871.028 340.805C867.506 342.932 864.539 346.41 862.283 351.034C861.255 353.079 858.92 359.871 859.157 360.117C859.672 360.649 865.765 356.803 873.244 351.238C876.172 349.029 879.179 346.942 879.892 346.574C880.999 346.001 881.197 345.674 880.96 344.978C880.01 341.787 880.485 341.337 883.69 342.4C884.838 342.769 886.42 343.055 887.251 343.055C888.676 343.055 888.676 343.014 888.003 342.278C887.212 341.418 884.323 339.373 883.967 339.414C883.848 339.414 883.374 339.577 882.938 339.741Z" fill="#A060B4"/>
<path d="M876.094 349.886C872.335 352.668 872.572 351.604 873.403 362.488C873.68 366.088 873.839 369.157 873.759 369.321C873.364 370.057 872.058 369.403 865.846 365.352C862.205 362.979 859.119 361.178 858.961 361.342C857.655 362.815 857.022 375.008 857.971 380.695C859.119 387.528 862.878 398.371 864.342 398.944C864.936 399.189 869.486 397.43 872.098 395.957L874.036 394.893V386.669C874.036 382.045 874.313 375.704 874.669 372.144C875.263 366.047 875.263 358.642 874.63 356.555C874.392 355.778 874.432 355.655 874.788 355.982C875.065 356.228 875.461 357.66 875.738 359.133C876.094 361.342 876.054 363.306 875.5 369.321C874.432 380.818 874.313 384.296 874.63 393.502L874.907 401.971L875.975 402.299C877.36 402.708 887.332 402.667 887.727 402.258C888.281 401.685 888.637 396.407 888.637 388.469C888.677 379.55 889.429 374.149 891.842 365.065C893.583 358.437 893.9 355.532 892.752 355.9C892.357 355.982 891.288 356.228 890.339 356.35C889.389 356.514 888.123 356.882 887.569 357.21C886.975 357.537 886.184 357.782 885.788 357.782C884.68 357.782 882.821 356.637 882.544 355.778C882.425 355.328 881.871 354.714 881.357 354.346C880.763 353.936 880.367 353.282 880.367 352.709C880.367 352.218 880.09 351.195 879.734 350.459C879.378 349.722 879.18 348.781 879.299 348.331C879.418 347.922 879.457 347.554 879.418 347.554C879.339 347.554 877.875 348.617 876.094 349.886Z" fill="#A060B4"/>
<path d="M830.035 285.686C827.938 288.059 825.841 293.133 826.909 293.133C827.146 293.133 827.463 292.805 827.582 292.396C828.294 290.064 829.679 287.568 830.985 286.259C831.816 285.441 832.488 284.622 832.488 284.418C832.488 283.64 831.262 284.295 830.035 285.686Z" fill="#ECECEC"/>
<path d="M790.547 302.747C790.547 303.606 791.734 304.015 792.13 303.319C792.565 302.624 792.248 302.133 791.299 302.133C790.903 302.133 790.547 302.419 790.547 302.747Z" fill="#ECC1C1"/>
<path d="M768.503 304.016C768.265 304.671 769.096 305.53 769.65 305.162C769.808 305.039 769.967 304.589 769.967 304.139C769.967 303.198 768.859 303.075 768.503 304.016Z" fill="#ECC1C1"/>
<path d="M883.096 313.468C880.564 313.632 880.445 313.673 880.247 314.777C880.049 315.677 879.614 316.087 878.387 316.619C876.092 317.56 874.589 317.437 873.402 316.25L872.412 315.227L869.445 316.25C864.024 318.132 858.009 321.815 855.675 324.638C854.725 325.825 854.685 325.988 855.2 327.011C856.07 328.771 859.434 331.798 863.43 334.458C867.308 337.035 868.693 337.199 866.754 334.826C866.16 334.13 865.448 332.985 865.092 332.248C864.538 330.98 864.538 330.98 865.211 332.003C866.952 334.54 869.959 337.404 872.017 338.427C873.995 339.45 874.668 339.572 878.189 339.572C881.671 339.572 882.423 339.45 884.402 338.468C888.596 336.463 891.445 332.821 892.83 327.87L893.423 325.661L893.226 327.584C893.146 328.648 893.186 329.63 893.384 329.712C893.582 329.834 894.373 328.811 895.164 327.379C897.736 322.879 902.841 317.273 904.384 317.273C904.661 317.273 904.938 317.682 904.938 318.173C904.978 318.951 905.017 318.951 905.175 318.378C905.769 315.923 899.28 313.795 890.06 313.468C887.686 313.345 884.52 313.386 883.096 313.468Z" fill="#ECECEC"/>
<path d="M872.646 400.21C872.013 400.62 870.193 401.397 868.61 401.97L865.801 402.993L866.79 404.711L867.74 406.43L869.797 405.775C873.715 404.588 874.031 404.302 874.031 401.765C874.031 400.538 873.992 399.515 873.952 399.515C873.873 399.556 873.319 399.842 872.646 400.21Z" fill="#ECECEC"/>
<path d="M808.551 402.747C807.245 403.278 804.317 404.179 802.022 404.792L797.867 405.856L798.223 407.575C798.461 408.843 798.777 409.334 799.292 409.334C801.389 409.334 808.59 407.247 810.806 405.979C811.716 405.488 811.756 405.365 811.36 403.606L810.925 401.724L808.551 402.747Z" fill="#ECECEC"/>
<path d="M780.845 406.103C779.974 406.266 777.007 406.553 774.237 406.716L769.172 407.003V408.721V410.44L771.388 410.685C773.485 410.89 778.431 410.562 781.557 409.949C783.021 409.662 783.021 409.621 783.021 407.657C783.021 406.553 782.902 405.693 782.744 405.693C782.546 405.734 781.715 405.898 780.845 406.103Z" fill="#ECECEC"/>
<path d="M874.828 407.737C874.828 409.701 874.828 409.701 876.332 410.029C878.231 410.397 886.184 410.438 887.609 410.029C888.559 409.742 888.677 409.538 888.677 407.983V406.223L884.443 406.387C882.069 406.469 878.983 406.387 877.519 406.183L874.828 405.773V407.737Z" fill="#ECECEC"/>
<path d="M800.512 410.312C802.807 410.967 804.786 412.481 805.775 414.404C806.21 415.222 806.685 415.877 806.883 415.877C807.081 415.877 806.804 415.1 806.25 414.118C804.983 411.826 802.016 409.74 800.077 409.781H798.652L800.512 410.312Z" fill="#ECECEC"/>
<path d="M885.269 411.869C883.726 413.261 881.945 416.697 881.985 418.13C881.985 418.58 882.302 418.007 882.697 416.861C883.607 414.12 884.874 412.36 886.615 411.378C887.485 410.928 887.802 410.601 887.406 410.56C887.01 410.56 886.061 411.174 885.269 411.869Z" fill="#ECECEC"/>
<path d="M770.362 411.379C772.419 412.321 774.041 414.039 775.189 416.453C775.901 417.967 776.257 418.458 776.099 417.721C775.506 414.694 772.934 411.707 770.52 411.175C769.412 410.97 769.412 410.97 770.362 411.379Z" fill="#ECECEC"/>
<path d="M818.636 413.223C817.093 414.123 811.83 415.8 808.942 416.291C807.557 416.537 804.906 416.741 803.086 416.741L799.762 416.823L799.96 417.887C800.237 419.319 800.672 419.564 803.006 419.564C807.517 419.564 814.204 418.091 818.082 416.291C820.852 415.023 821.05 414.777 820.575 413.509C820.179 412.445 819.981 412.445 818.636 413.223Z" fill="#ECECEC"/>
<path d="M866.637 416.985C866.122 417.067 865.727 417.394 865.727 417.68C865.727 418.581 866.795 419.685 867.388 419.44C868.101 419.194 868.576 416.658 867.942 416.739C867.705 416.78 867.111 416.903 866.637 416.985Z" fill="#ECECEC"/>
<path d="M885.507 418.416C882.262 419.276 873.755 419.644 870.391 419.03L868.492 418.703V419.889C868.492 420.994 868.65 421.158 870.233 421.567C873.992 422.549 883.291 421.976 887.604 420.544C889.266 419.971 889.464 419.767 889.464 418.703C889.464 417.312 889.503 417.353 885.507 418.416Z" fill="#ECECEC"/>
<path d="M768.858 419.437C769.056 421.279 771.271 421.77 779.66 421.77C788.563 421.77 791.175 420.992 789.79 418.783C789.513 418.292 789.117 418.292 787.534 418.742C784.25 419.601 778.077 419.683 773.566 418.987C768.383 418.169 768.699 418.128 768.858 419.437Z" fill="#ECECEC"/>
<path d="M639.39 571.32L633.87 581.952V588H631.134V581.952L625.59 571.32H628.638L632.502 579.504L636.366 571.32H639.39ZM647.298 588.216C646.05 588.216 644.922 587.936 643.914 587.376C642.906 586.8 642.114 586 641.538 584.976C640.962 583.936 640.674 582.736 640.674 581.376C640.674 580.032 640.97 578.84 641.562 577.8C642.154 576.76 642.962 575.96 643.986 575.4C645.01 574.84 646.154 574.56 647.418 574.56C648.682 574.56 649.826 574.84 650.85 575.4C651.874 575.96 652.682 576.76 653.274 577.8C653.866 578.84 654.162 580.032 654.162 581.376C654.162 582.72 653.858 583.912 653.25 584.952C652.642 585.992 651.81 586.8 650.754 587.376C649.714 587.936 648.562 588.216 647.298 588.216ZM647.298 585.84C648.002 585.84 648.658 585.672 649.266 585.336C649.89 585 650.394 584.496 650.778 583.824C651.162 583.152 651.354 582.336 651.354 581.376C651.354 580.416 651.17 579.608 650.802 578.952C650.434 578.28 649.946 577.776 649.338 577.44C648.73 577.104 648.074 576.936 647.37 576.936C646.666 576.936 646.01 577.104 645.402 577.44C644.81 577.776 644.338 578.28 643.986 578.952C643.634 579.608 643.458 580.416 643.458 581.376C643.458 582.8 643.818 583.904 644.538 584.688C645.274 585.456 646.194 585.84 647.298 585.84ZM668.842 574.776V588H666.106V586.44C665.674 586.984 665.106 587.416 664.402 587.736C663.714 588.04 662.978 588.192 662.194 588.192C661.154 588.192 660.218 587.976 659.386 587.544C658.57 587.112 657.922 586.472 657.442 585.624C656.978 584.776 656.746 583.752 656.746 582.552V574.776H659.458V582.144C659.458 583.328 659.754 584.24 660.346 584.88C660.938 585.504 661.746 585.816 662.77 585.816C663.794 585.816 664.602 585.504 665.194 584.88C665.802 584.24 666.106 583.328 666.106 582.144V574.776H668.842ZM685.527 574.56C686.535 574.56 687.431 574.776 688.215 575.208C689.015 575.64 689.639 576.28 690.087 577.128C690.551 577.976 690.783 579 690.783 580.2V588H688.071V580.608C688.071 579.424 687.775 578.52 687.183 577.896C686.591 577.256 685.783 576.936 684.759 576.936C683.735 576.936 682.919 577.256 682.311 577.896C681.719 578.52 681.423 579.424 681.423 580.608V588H678.687V570.24H681.423V576.312C681.887 575.752 682.471 575.32 683.175 575.016C683.895 574.712 684.679 574.56 685.527 574.56ZM693.361 581.328C693.361 580 693.633 578.824 694.177 577.8C694.737 576.776 695.489 575.984 696.433 575.424C697.393 574.848 698.449 574.56 699.601 574.56C700.641 574.56 701.545 574.768 702.313 575.184C703.097 575.584 703.721 576.088 704.185 576.696V574.776H706.945V588H704.185V586.032C703.721 586.656 703.089 587.176 702.289 587.592C701.489 588.008 700.577 588.216 699.553 588.216C698.417 588.216 697.377 587.928 696.433 587.352C695.489 586.76 694.737 585.944 694.177 584.904C693.633 583.848 693.361 582.656 693.361 581.328ZM704.185 581.376C704.185 580.464 703.993 579.672 703.609 579C703.241 578.328 702.753 577.816 702.145 577.464C701.537 577.112 700.881 576.936 700.177 576.936C699.473 576.936 698.817 577.112 698.209 577.464C697.601 577.8 697.105 578.304 696.721 578.976C696.353 579.632 696.169 580.416 696.169 581.328C696.169 582.24 696.353 583.04 696.721 583.728C697.105 584.416 697.601 584.944 698.209 585.312C698.833 585.664 699.489 585.84 700.177 585.84C700.881 585.84 701.537 585.664 702.145 585.312C702.753 584.96 703.241 584.448 703.609 583.776C703.993 583.088 704.185 582.288 704.185 581.376ZM715.65 585.552L719.394 574.776H722.298L717.258 588H713.994L708.978 574.776H711.906L715.65 585.552ZM736.486 581.064C736.486 581.56 736.454 582.008 736.39 582.408H726.286C726.366 583.464 726.758 584.312 727.462 584.952C728.166 585.592 729.03 585.912 730.054 585.912C731.526 585.912 732.566 585.296 733.174 584.064H736.126C735.726 585.28 734.998 586.28 733.942 587.064C732.902 587.832 731.606 588.216 730.054 588.216C728.79 588.216 727.654 587.936 726.646 587.376C725.654 586.8 724.87 586 724.294 584.976C723.734 583.936 723.454 582.736 723.454 581.376C723.454 580.016 723.726 578.824 724.27 577.8C724.83 576.76 725.606 575.96 726.598 575.4C727.606 574.84 728.758 574.56 730.054 574.56C731.302 574.56 732.414 574.832 733.39 575.376C734.366 575.92 735.126 576.688 735.67 577.68C736.214 578.656 736.486 579.784 736.486 581.064ZM733.63 580.2C733.614 579.192 733.254 578.384 732.55 577.776C731.846 577.168 730.974 576.864 729.934 576.864C728.99 576.864 728.182 577.168 727.51 577.776C726.838 578.368 726.438 579.176 726.31 580.2H733.63ZM748.149 576.744C748.613 576.104 749.245 575.584 750.045 575.184C750.861 574.768 751.765 574.56 752.757 574.56C753.925 574.56 754.981 574.84 755.925 575.4C756.869 575.96 757.613 576.76 758.157 577.8C758.701 578.824 758.973 580 758.973 581.328C758.973 582.656 758.701 583.848 758.157 584.904C757.613 585.944 756.861 586.76 755.901 587.352C754.957 587.928 753.909 588.216 752.757 588.216C751.733 588.216 750.821 588.016 750.021 587.616C749.237 587.216 748.613 586.704 748.149 586.08V588H745.413V570.24H748.149V576.744ZM756.189 581.328C756.189 580.416 755.997 579.632 755.613 578.976C755.245 578.304 754.749 577.8 754.125 577.464C753.517 577.112 752.861 576.936 752.157 576.936C751.469 576.936 750.813 577.112 750.189 577.464C749.581 577.816 749.085 578.328 748.701 579C748.333 579.672 748.149 580.464 748.149 581.376C748.149 582.288 748.333 583.088 748.701 583.776C749.085 584.448 749.581 584.96 750.189 585.312C750.813 585.664 751.469 585.84 752.157 585.84C752.861 585.84 753.517 585.664 754.125 585.312C754.749 584.944 755.245 584.416 755.613 583.728C755.997 583.04 756.189 582.24 756.189 581.328ZM773.799 581.064C773.799 581.56 773.767 582.008 773.703 582.408H763.599C763.679 583.464 764.071 584.312 764.775 584.952C765.479 585.592 766.343 585.912 767.367 585.912C768.839 585.912 769.879 585.296 770.487 584.064H773.439C773.039 585.28 772.311 586.28 771.255 587.064C770.215 587.832 768.919 588.216 767.367 588.216C766.103 588.216 764.967 587.936 763.959 587.376C762.967 586.8 762.183 586 761.607 584.976C761.047 583.936 760.767 582.736 760.767 581.376C760.767 580.016 761.039 578.824 761.583 577.8C762.143 576.76 762.919 575.96 763.911 575.4C764.919 574.84 766.071 574.56 767.367 574.56C768.615 574.56 769.727 574.832 770.703 575.376C771.679 575.92 772.439 576.688 772.983 577.68C773.527 578.656 773.799 579.784 773.799 581.064ZM770.943 580.2C770.927 579.192 770.567 578.384 769.863 577.776C769.159 577.168 768.287 576.864 767.247 576.864C766.303 576.864 765.495 577.168 764.823 577.776C764.151 578.368 763.751 579.176 763.623 580.2H770.943ZM788.611 581.064C788.611 581.56 788.579 582.008 788.515 582.408H778.411C778.491 583.464 778.883 584.312 779.587 584.952C780.291 585.592 781.155 585.912 782.179 585.912C783.651 585.912 784.691 585.296 785.299 584.064H788.251C787.851 585.28 787.123 586.28 786.067 587.064C785.027 587.832 783.731 588.216 782.179 588.216C780.915 588.216 779.779 587.936 778.771 587.376C777.779 586.8 776.995 586 776.419 584.976C775.859 583.936 775.579 582.736 775.579 581.376C775.579 580.016 775.851 578.824 776.395 577.8C776.955 576.76 777.731 575.96 778.723 575.4C779.731 574.84 780.883 574.56 782.179 574.56C783.427 574.56 784.539 574.832 785.515 575.376C786.491 575.92 787.251 576.688 787.795 577.68C788.339 578.656 788.611 579.784 788.611 581.064ZM785.755 580.2C785.739 579.192 785.379 578.384 784.675 577.776C783.971 577.168 783.099 576.864 782.059 576.864C781.115 576.864 780.307 577.168 779.635 577.776C778.963 578.368 778.563 579.176 778.435 580.2H785.755ZM797.976 574.56C799.016 574.56 799.944 574.776 800.76 575.208C801.592 575.64 802.24 576.28 802.704 577.128C803.168 577.976 803.4 579 803.4 580.2V588H800.688V580.608C800.688 579.424 800.392 578.52 799.8 577.896C799.208 577.256 798.4 576.936 797.376 576.936C796.352 576.936 795.536 577.256 794.928 577.896C794.336 578.52 794.04 579.424 794.04 580.608V588H791.304V574.776H794.04V576.288C794.488 575.744 795.056 575.32 795.744 575.016C796.448 574.712 797.192 574.56 797.976 574.56ZM817.924 588.216C816.884 588.216 815.948 588.032 815.116 587.664C814.3 587.28 813.652 586.768 813.172 586.128C812.692 585.472 812.436 584.744 812.404 583.944H815.236C815.284 584.504 815.548 584.976 816.028 585.36C816.524 585.728 817.14 585.912 817.876 585.912C818.644 585.912 819.236 585.768 819.652 585.48C820.084 585.176 820.3 584.792 820.3 584.328C820.3 583.832 820.06 583.464 819.58 583.224C819.116 582.984 818.372 582.72 817.348 582.432C816.356 582.16 815.548 581.896 814.924 581.64C814.3 581.384 813.756 580.992 813.292 580.464C812.844 579.936 812.62 579.24 812.62 578.376C812.62 577.672 812.828 577.032 813.244 576.456C813.66 575.864 814.252 575.4 815.02 575.064C815.804 574.728 816.7 574.56 817.708 574.56C819.212 574.56 820.42 574.944 821.332 575.712C822.26 576.464 822.756 577.496 822.82 578.808H820.084C820.036 578.216 819.796 577.744 819.364 577.392C818.932 577.04 818.348 576.864 817.612 576.864C816.892 576.864 816.34 577 815.956 577.272C815.572 577.544 815.38 577.904 815.38 578.352C815.38 578.704 815.508 579 815.764 579.24C816.02 579.48 816.332 579.672 816.7 579.816C817.068 579.944 817.612 580.112 818.332 580.32C819.292 580.576 820.076 580.84 820.684 581.112C821.308 581.368 821.844 581.752 822.292 582.264C822.74 582.776 822.972 583.456 822.988 584.304C822.988 585.056 822.78 585.728 822.364 586.32C821.948 586.912 821.356 587.376 820.588 587.712C819.836 588.048 818.948 588.216 817.924 588.216ZM837.921 574.776V588H835.185V586.44C834.753 586.984 834.185 587.416 833.481 587.736C832.793 588.04 832.057 588.192 831.273 588.192C830.233 588.192 829.297 587.976 828.465 587.544C827.649 587.112 827.001 586.472 826.521 585.624C826.057 584.776 825.825 583.752 825.825 582.552V574.776H828.537V582.144C828.537 583.328 828.833 584.24 829.425 584.88C830.017 585.504 830.825 585.816 831.849 585.816C832.873 585.816 833.681 585.504 834.273 584.88C834.881 584.24 835.185 583.328 835.185 582.144V574.776H837.921ZM840.618 581.376C840.618 580.016 840.89 578.824 841.434 577.8C841.994 576.76 842.762 575.96 843.738 575.4C844.714 574.84 845.834 574.56 847.098 574.56C848.698 574.56 850.018 574.944 851.058 575.712C852.114 576.464 852.826 577.544 853.194 578.952H850.242C850.002 578.296 849.618 577.784 849.09 577.416C848.562 577.048 847.898 576.864 847.098 576.864C845.978 576.864 845.082 577.264 844.41 578.064C843.754 578.848 843.426 579.952 843.426 581.376C843.426 582.8 843.754 583.912 844.41 584.712C845.082 585.512 845.978 585.912 847.098 585.912C848.682 585.912 849.73 585.216 850.242 583.824H853.194C852.81 585.168 852.09 586.24 851.034 587.04C849.978 587.824 848.666 588.216 847.098 588.216C845.834 588.216 844.714 587.936 843.738 587.376C842.762 586.8 841.994 586 841.434 584.976C840.89 583.936 840.618 582.736 840.618 581.376ZM855.009 581.376C855.009 580.016 855.281 578.824 855.825 577.8C856.385 576.76 857.153 575.96 858.129 575.4C859.105 574.84 860.225 574.56 861.489 574.56C863.089 574.56 864.409 574.944 865.449 575.712C866.505 576.464 867.217 577.544 867.585 578.952H864.633C864.393 578.296 864.009 577.784 863.481 577.416C862.953 577.048 862.289 576.864 861.489 576.864C860.369 576.864 859.473 577.264 858.801 578.064C858.145 578.848 857.817 579.952 857.817 581.376C857.817 582.8 858.145 583.912 858.801 584.712C859.473 585.512 860.369 585.912 861.489 585.912C863.073 585.912 864.121 585.216 864.633 583.824H867.585C867.201 585.168 866.481 586.24 865.425 587.04C864.369 587.824 863.057 588.216 861.489 588.216C860.225 588.216 859.105 587.936 858.129 587.376C857.153 586.8 856.385 586 855.825 584.976C855.281 583.936 855.009 582.736 855.009 581.376ZM882.432 581.064C882.432 581.56 882.4 582.008 882.336 582.408H872.232C872.312 583.464 872.704 584.312 873.408 584.952C874.112 585.592 874.976 585.912 876 585.912C877.472 585.912 878.512 585.296 879.12 584.064H882.072C881.672 585.28 880.944 586.28 879.888 587.064C878.848 587.832 877.552 588.216 876 588.216C874.736 588.216 873.6 587.936 872.592 587.376C871.6 586.8 870.816 586 870.24 584.976C869.68 583.936 869.4 582.736 869.4 581.376C869.4 580.016 869.672 578.824 870.216 577.8C870.776 576.76 871.552 575.96 872.544 575.4C873.552 574.84 874.704 574.56 876 574.56C877.248 574.56 878.36 574.832 879.336 575.376C880.312 575.92 881.072 576.688 881.616 577.68C882.16 578.656 882.432 579.784 882.432 581.064ZM879.576 580.2C879.56 579.192 879.2 578.384 878.496 577.776C877.792 577.168 876.92 576.864 875.88 576.864C874.936 576.864 874.128 577.168 873.456 577.776C872.784 578.368 872.384 579.176 872.256 580.2H879.576ZM889.924 588.216C888.884 588.216 887.948 588.032 887.116 587.664C886.3 587.28 885.652 586.768 885.172 586.128C884.692 585.472 884.436 584.744 884.404 583.944H887.236C887.284 584.504 887.548 584.976 888.028 585.36C888.524 585.728 889.14 585.912 889.876 585.912C890.644 585.912 891.236 585.768 891.652 585.48C892.084 585.176 892.3 584.792 892.3 584.328C892.3 583.832 892.06 583.464 891.58 583.224C891.116 582.984 890.372 582.72 889.348 582.432C888.356 582.16 887.548 581.896 886.924 581.64C886.3 581.384 885.756 580.992 885.292 580.464C884.844 579.936 884.62 579.24 884.62 578.376C884.62 577.672 884.828 577.032 885.244 576.456C885.66 575.864 886.252 575.4 887.02 575.064C887.804 574.728 888.7 574.56 889.708 574.56C891.212 574.56 892.42 574.944 893.332 575.712C894.26 576.464 894.756 577.496 894.82 578.808H892.084C892.036 578.216 891.796 577.744 891.364 577.392C890.932 577.04 890.348 576.864 889.612 576.864C888.892 576.864 888.34 577 887.956 577.272C887.572 577.544 887.38 577.904 887.38 578.352C887.38 578.704 887.508 579 887.764 579.24C888.02 579.48 888.332 579.672 888.7 579.816C889.068 579.944 889.612 580.112 890.332 580.32C891.292 580.576 892.076 580.84 892.684 581.112C893.308 581.368 893.844 581.752 894.292 582.264C894.74 582.776 894.972 583.456 894.988 584.304C894.988 585.056 894.78 585.728 894.364 586.32C893.948 586.912 893.356 587.376 892.588 587.712C891.836 588.048 890.948 588.216 889.924 588.216ZM902.745 588.216C901.705 588.216 900.769 588.032 899.937 587.664C899.121 587.28 898.473 586.768 897.993 586.128C897.513 585.472 897.257 584.744 897.225 583.944H900.057C900.105 584.504 900.369 584.976 900.849 585.36C901.345 585.728 901.961 585.912 902.697 585.912C903.465 585.912 904.057 585.768 904.473 585.48C904.905 585.176 905.121 584.792 905.121 584.328C905.121 583.832 904.881 583.464 904.401 583.224C903.937 582.984 903.193 582.72 902.169 582.432C901.177 582.16 900.369 581.896 899.745 581.64C899.121 581.384 898.577 580.992 898.113 580.464C897.665 579.936 897.441 579.24 897.441 578.376C897.441 577.672 897.649 577.032 898.065 576.456C898.481 575.864 899.073 575.4 899.841 575.064C900.625 574.728 901.521 574.56 902.529 574.56C904.033 574.56 905.241 574.944 906.153 575.712C907.081 576.464 907.577 577.496 907.641 578.808H904.905C904.857 578.216 904.617 577.744 904.185 577.392C903.753 577.04 903.169 576.864 902.433 576.864C901.713 576.864 901.161 577 900.777 577.272C900.393 577.544 900.201 577.904 900.201 578.352C900.201 578.704 900.329 579 900.585 579.24C900.841 579.48 901.153 579.672 901.521 579.816C901.889 579.944 902.433 580.112 903.153 580.32C904.113 580.576 904.897 580.84 905.505 581.112C906.129 581.368 906.665 581.752 907.113 582.264C907.561 582.776 907.793 583.456 907.809 584.304C907.809 585.056 907.601 585.728 907.185 586.32C906.769 586.912 906.177 587.376 905.409 587.712C904.657 588.048 903.769 588.216 902.745 588.216ZM916.309 577.008H913.861V588H911.101V577.008H909.541V574.776H911.101V573.84C911.101 572.32 911.501 571.216 912.301 570.528C913.117 569.824 914.389 569.472 916.117 569.472V571.752C915.285 571.752 914.701 571.912 914.365 572.232C914.029 572.536 913.861 573.072 913.861 573.84V574.776H916.309V577.008ZM930.71 574.776V588H927.974V586.44C927.542 586.984 926.974 587.416 926.27 587.736C925.582 588.04 924.846 588.192 924.062 588.192C923.022 588.192 922.086 587.976 921.254 587.544C920.438 587.112 919.79 586.472 919.31 585.624C918.846 584.776 918.614 583.752 918.614 582.552V574.776H921.326V582.144C921.326 583.328 921.622 584.24 922.214 584.88C922.806 585.504 923.614 585.816 924.638 585.816C925.662 585.816 926.47 585.504 927.062 584.88C927.67 584.24 927.974 583.328 927.974 582.144V574.776H930.71ZM937.056 570.24V588H934.32V570.24H937.056ZM943.384 570.24V588H940.648V570.24H943.384ZM958.88 574.776L950.768 594.216H947.936L950.624 587.784L945.416 574.776H948.464L952.184 584.856L956.048 574.776H958.88ZM969.915 576.696C970.315 576.024 970.843 575.504 971.499 575.136C972.171 574.752 972.963 574.56 973.875 574.56V577.392H973.179C972.107 577.392 971.291 577.664 970.731 578.208C970.187 578.752 969.915 579.696 969.915 581.04V588H967.179V574.776H969.915V576.696ZM988.51 581.064C988.51 581.56 988.478 582.008 988.414 582.408H978.31C978.39 583.464 978.782 584.312 979.486 584.952C980.19 585.592 981.054 585.912 982.078 585.912C983.55 585.912 984.59 585.296 985.198 584.064H988.15C987.75 585.28 987.022 586.28 985.966 587.064C984.926 587.832 983.63 588.216 982.078 588.216C980.814 588.216 979.678 587.936 978.67 587.376C977.678 586.8 976.894 586 976.318 584.976C975.758 583.936 975.478 582.736 975.478 581.376C975.478 580.016 975.75 578.824 976.294 577.8C976.854 576.76 977.63 575.96 978.622 575.4C979.63 574.84 980.782 574.56 982.078 574.56C983.326 574.56 984.438 574.832 985.414 575.376C986.39 575.92 987.15 576.688 987.694 577.68C988.238 578.656 988.51 579.784 988.51 581.064ZM985.654 580.2C985.638 579.192 985.278 578.384 984.574 577.776C983.87 577.168 982.998 576.864 981.958 576.864C981.014 576.864 980.206 577.168 979.534 577.776C978.862 578.368 978.462 579.176 978.334 580.2H985.654ZM996.53 574.56C997.554 574.56 998.458 574.768 999.242 575.184C1000.04 575.584 1000.67 576.088 1001.11 576.696V574.776H1003.87V588.216C1003.87 589.432 1003.62 590.512 1003.11 591.456C1002.59 592.416 1001.85 593.168 1000.87 593.712C999.914 594.256 998.762 594.528 997.418 594.528C995.626 594.528 994.138 594.104 992.954 593.256C991.77 592.424 991.098 591.288 990.938 589.848H993.65C993.858 590.536 994.298 591.088 994.97 591.504C995.658 591.936 996.474 592.152 997.418 592.152C998.522 592.152 999.41 591.816 1000.08 591.144C1000.77 590.472 1001.11 589.496 1001.11 588.216V586.008C1000.65 586.632 1000.02 587.16 999.218 587.592C998.434 588.008 997.538 588.216 996.53 588.216C995.378 588.216 994.322 587.928 993.362 587.352C992.418 586.76 991.666 585.944 991.106 584.904C990.562 583.848 990.29 582.656 990.29 581.328C990.29 580 990.562 578.824 991.106 577.8C991.666 576.776 992.418 575.984 993.362 575.424C994.322 574.848 995.378 574.56 996.53 574.56ZM1001.11 581.376C1001.11 580.464 1000.92 579.672 1000.54 579C1000.17 578.328 999.682 577.816 999.074 577.464C998.466 577.112 997.81 576.936 997.106 576.936C996.402 576.936 995.746 577.112 995.138 577.464C994.53 577.8 994.034 578.304 993.65 578.976C993.282 579.632 993.098 580.416 993.098 581.328C993.098 582.24 993.282 583.04 993.65 583.728C994.034 584.416 994.53 584.944 995.138 585.312C995.762 585.664 996.418 585.84 997.106 585.84C997.81 585.84 998.466 585.664 999.074 585.312C999.682 584.96 1000.17 584.448 1000.54 583.776C1000.92 583.088 1001.11 582.288 1001.11 581.376ZM1008.86 573.024C1008.36 573.024 1007.95 572.856 1007.61 572.52C1007.28 572.184 1007.11 571.768 1007.11 571.272C1007.11 570.776 1007.28 570.36 1007.61 570.024C1007.95 569.688 1008.36 569.52 1008.86 569.52C1009.34 569.52 1009.75 569.688 1010.08 570.024C1010.42 570.36 1010.59 570.776 1010.59 571.272C1010.59 571.768 1010.42 572.184 1010.08 572.52C1009.75 572.856 1009.34 573.024 1008.86 573.024ZM1010.2 574.776V588H1007.47V574.776H1010.2ZM1018.6 588.216C1017.56 588.216 1016.62 588.032 1015.79 587.664C1014.97 587.28 1014.32 586.768 1013.84 586.128C1013.36 585.472 1013.11 584.744 1013.08 583.944H1015.91C1015.96 584.504 1016.22 584.976 1016.7 585.36C1017.2 585.728 1017.81 585.912 1018.55 585.912C1019.32 585.912 1019.91 585.768 1020.32 585.48C1020.76 585.176 1020.97 584.792 1020.97 584.328C1020.97 583.832 1020.73 583.464 1020.25 583.224C1019.79 582.984 1019.04 582.72 1018.02 582.432C1017.03 582.16 1016.22 581.896 1015.6 581.64C1014.97 581.384 1014.43 580.992 1013.96 580.464C1013.52 579.936 1013.29 579.24 1013.29 578.376C1013.29 577.672 1013.5 577.032 1013.92 576.456C1014.33 575.864 1014.92 575.4 1015.69 575.064C1016.48 574.728 1017.37 574.56 1018.38 574.56C1019.88 574.56 1021.09 574.944 1022 575.712C1022.93 576.464 1023.43 577.496 1023.49 578.808H1020.76C1020.71 578.216 1020.47 577.744 1020.04 577.392C1019.6 577.04 1019.02 576.864 1018.28 576.864C1017.56 576.864 1017.01 577 1016.63 577.272C1016.24 577.544 1016.05 577.904 1016.05 578.352C1016.05 578.704 1016.18 579 1016.44 579.24C1016.69 579.48 1017 579.672 1017.37 579.816C1017.74 579.944 1018.28 580.112 1019 580.32C1019.96 580.576 1020.75 580.84 1021.36 581.112C1021.98 581.368 1022.52 581.752 1022.96 582.264C1023.41 582.776 1023.64 583.456 1023.66 584.304C1023.66 585.056 1023.45 585.728 1023.04 586.32C1022.62 586.912 1022.03 587.376 1021.26 587.712C1020.51 588.048 1019.62 588.216 1018.6 588.216ZM1029.81 577.008V584.328C1029.81 584.824 1029.92 585.184 1030.14 585.408C1030.38 585.616 1030.78 585.72 1031.34 585.72H1033.02V588H1030.86C1029.63 588 1028.69 587.712 1028.03 587.136C1027.38 586.56 1027.05 585.624 1027.05 584.328V577.008H1025.49V574.776H1027.05V571.488H1029.81V574.776H1033.02V577.008H1029.81ZM1047.67 581.064C1047.67 581.56 1047.63 582.008 1047.57 582.408H1037.47C1037.55 583.464 1037.94 584.312 1038.64 584.952C1039.35 585.592 1040.21 585.912 1041.23 585.912C1042.71 585.912 1043.75 585.296 1044.35 584.064H1047.31C1046.91 585.28 1046.18 586.28 1045.12 587.064C1044.08 587.832 1042.79 588.216 1041.23 588.216C1039.97 588.216 1038.83 587.936 1037.83 587.376C1036.83 586.8 1036.05 586 1035.47 584.976C1034.91 583.936 1034.63 582.736 1034.63 581.376C1034.63 580.016 1034.91 578.824 1035.45 577.8C1036.01 576.76 1036.79 575.96 1037.78 575.4C1038.79 574.84 1039.94 574.56 1041.23 574.56C1042.48 574.56 1043.59 574.832 1044.57 575.376C1045.55 575.92 1046.31 576.688 1046.85 577.68C1047.39 578.656 1047.67 579.784 1047.67 581.064ZM1044.81 580.2C1044.79 579.192 1044.43 578.384 1043.73 577.776C1043.03 577.168 1042.15 576.864 1041.11 576.864C1040.17 576.864 1039.36 577.168 1038.69 577.776C1038.02 578.368 1037.62 579.176 1037.49 580.2H1044.81ZM1053.09 576.696C1053.49 576.024 1054.02 575.504 1054.68 575.136C1055.35 574.752 1056.14 574.56 1057.05 574.56V577.392H1056.36C1055.29 577.392 1054.47 577.664 1053.91 578.208C1053.37 578.752 1053.09 579.696 1053.09 581.04V588H1050.36V574.776H1053.09V576.696ZM771.597 613.008V620.328C771.597 620.824 771.709 621.184 771.933 621.408C772.173 621.616 772.573 621.72 773.133 621.72H774.813V624H772.653C771.421 624 770.477 623.712 769.821 623.136C769.165 622.56 768.837 621.624 768.837 620.328V613.008H767.277V610.776H768.837V607.488H771.597V610.776H774.813V613.008H771.597ZM783.071 624.216C781.823 624.216 780.695 623.936 779.687 623.376C778.679 622.8 777.887 622 777.311 620.976C776.735 619.936 776.447 618.736 776.447 617.376C776.447 616.032 776.743 614.84 777.335 613.8C777.927 612.76 778.735 611.96 779.759 611.4C780.783 610.84 781.927 610.56 783.191 610.56C784.455 610.56 785.599 610.84 786.623 611.4C787.647 611.96 788.455 612.76 789.047 613.8C789.639 614.84 789.935 616.032 789.935 617.376C789.935 618.72 789.631 619.912 789.023 620.952C788.415 621.992 787.583 622.8 786.527 623.376C785.487 623.936 784.335 624.216 783.071 624.216ZM783.071 621.84C783.775 621.84 784.431 621.672 785.039 621.336C785.663 621 786.167 620.496 786.551 619.824C786.935 619.152 787.127 618.336 787.127 617.376C787.127 616.416 786.943 615.608 786.575 614.952C786.207 614.28 785.719 613.776 785.111 613.44C784.503 613.104 783.847 612.936 783.143 612.936C782.439 612.936 781.783 613.104 781.175 613.44C780.583 613.776 780.111 614.28 779.759 614.952C779.407 615.608 779.231 616.416 779.231 617.376C779.231 618.8 779.591 619.904 780.311 620.688C781.047 621.456 781.967 621.84 783.071 621.84ZM802.066 613.008V620.328C802.066 620.824 802.178 621.184 802.402 621.408C802.642 621.616 803.042 621.72 803.602 621.72H805.282V624H803.122C801.89 624 800.946 623.712 800.29 623.136C799.634 622.56 799.306 621.624 799.306 620.328V613.008H797.746V610.776H799.306V607.488H802.066V610.776H805.282V613.008H802.066ZM814.644 610.56C815.652 610.56 816.548 610.776 817.332 611.208C818.132 611.64 818.756 612.28 819.204 613.128C819.668 613.976 819.9 615 819.9 616.2V624H817.188V616.608C817.188 615.424 816.892 614.52 816.3 613.896C815.708 613.256 814.9 612.936 813.876 612.936C812.852 612.936 812.036 613.256 811.428 613.896C810.836 614.52 810.54 615.424 810.54 616.608V624H807.804V606.24H810.54V612.312C811.004 611.752 811.588 611.32 812.292 611.016C813.012 610.712 813.796 610.56 814.644 610.56ZM835.51 617.064C835.51 617.56 835.478 618.008 835.414 618.408H825.31C825.39 619.464 825.782 620.312 826.486 620.952C827.19 621.592 828.054 621.912 829.078 621.912C830.55 621.912 831.59 621.296 832.198 620.064H835.15C834.75 621.28 834.022 622.28 832.966 623.064C831.926 623.832 830.63 624.216 829.078 624.216C827.814 624.216 826.678 623.936 825.67 623.376C824.678 622.8 823.894 622 823.318 620.976C822.758 619.936 822.478 618.736 822.478 617.376C822.478 616.016 822.75 614.824 823.294 613.8C823.854 612.76 824.63 611.96 825.622 611.4C826.63 610.84 827.782 610.56 829.078 610.56C830.326 610.56 831.438 610.832 832.414 611.376C833.39 611.92 834.15 612.688 834.694 613.68C835.238 614.656 835.51 615.784 835.51 617.064ZM832.654 616.2C832.638 615.192 832.278 614.384 831.574 613.776C830.87 613.168 829.998 612.864 828.958 612.864C828.014 612.864 827.206 613.168 826.534 613.776C825.862 614.368 825.462 615.176 825.334 616.2H832.654ZM856.557 617.064C856.557 617.56 856.525 618.008 856.461 618.408H846.357C846.437 619.464 846.829 620.312 847.533 620.952C848.237 621.592 849.101 621.912 850.125 621.912C851.597 621.912 852.637 621.296 853.245 620.064H856.197C855.797 621.28 855.069 622.28 854.013 623.064C852.973 623.832 851.677 624.216 850.125 624.216C848.861 624.216 847.725 623.936 846.717 623.376C845.725 622.8 844.941 622 844.365 620.976C843.805 619.936 843.525 618.736 843.525 617.376C843.525 616.016 843.797 614.824 844.341 613.8C844.901 612.76 845.677 611.96 846.669 611.4C847.677 610.84 848.829 610.56 850.125 610.56C851.373 610.56 852.485 610.832 853.461 611.376C854.437 611.92 855.197 612.688 855.741 613.68C856.285 614.656 856.557 615.784 856.557 617.064ZM853.701 616.2C853.685 615.192 853.325 614.384 852.621 613.776C851.917 613.168 851.045 612.864 850.005 612.864C849.061 612.864 848.253 613.168 847.581 613.776C846.909 614.368 846.509 615.176 846.381 616.2H853.701ZM864.361 621.552L868.105 610.776H871.009L865.969 624H862.705L857.689 610.776H860.617L864.361 621.552ZM885.197 617.064C885.197 617.56 885.165 618.008 885.101 618.408H874.997C875.077 619.464 875.469 620.312 876.173 620.952C876.877 621.592 877.741 621.912 878.765 621.912C880.237 621.912 881.277 621.296 881.885 620.064H884.837C884.437 621.28 883.709 622.28 882.653 623.064C881.613 623.832 880.317 624.216 878.765 624.216C877.501 624.216 876.365 623.936 875.357 623.376C874.365 622.8 873.581 622 873.005 620.976C872.445 619.936 872.165 618.736 872.165 617.376C872.165 616.016 872.437 614.824 872.981 613.8C873.541 612.76 874.317 611.96 875.309 611.4C876.317 610.84 877.469 610.56 878.765 610.56C880.013 610.56 881.125 610.832 882.101 611.376C883.077 611.92 883.837 612.688 884.381 613.68C884.925 614.656 885.197 615.784 885.197 617.064ZM882.341 616.2C882.325 615.192 881.965 614.384 881.261 613.776C880.557 613.168 879.685 612.864 878.645 612.864C877.701 612.864 876.893 613.168 876.221 613.776C875.549 614.368 875.149 615.176 875.021 616.2H882.341ZM894.562 610.56C895.602 610.56 896.53 610.776 897.346 611.208C898.178 611.64 898.826 612.28 899.29 613.128C899.754 613.976 899.986 615 899.986 616.2V624H897.274V616.608C897.274 615.424 896.978 614.52 896.386 613.896C895.794 613.256 894.986 612.936 893.962 612.936C892.938 612.936 892.122 613.256 891.514 613.896C890.922 614.52 890.626 615.424 890.626 616.608V624H887.89V610.776H890.626V612.288C891.074 611.744 891.642 611.32 892.33 611.016C893.034 610.712 893.778 610.56 894.562 610.56ZM906.668 613.008V620.328C906.668 620.824 906.78 621.184 907.004 621.408C907.244 621.616 907.644 621.72 908.204 621.72H909.884V624H907.724C906.492 624 905.548 623.712 904.892 623.136C904.236 622.56 903.908 621.624 903.908 620.328V613.008H902.348V610.776H903.908V607.488H906.668V610.776H909.884V613.008H906.668ZM913.509 624.168C913.013 624.168 912.597 624 912.261 623.664C911.925 623.328 911.757 622.912 911.757 622.416C911.757 621.92 911.925 621.504 912.261 621.168C912.597 620.832 913.013 620.664 913.509 620.664C913.989 620.664 914.397 620.832 914.733 621.168C915.069 621.504 915.237 621.92 915.237 622.416C915.237 622.912 915.069 623.328 914.733 623.664C914.397 624 913.989 624.168 913.509 624.168Z" fill="white"/>
<rect x="162.5" y="69.5" width="1115" height="746" rx="18.5" stroke="url(#paint7_linear_1158_2172)" stroke-width="3"/>
<defs>
<filter id="filter0_d_1158_2172" x="545" y="106" width="555" height="612" filterUnits="userSpaceOnUse" color-interpolation-filters="sRGB">
<feFlood flood-opacity="0" result="BackgroundImageFix"/>
<feColorMatrix in="SourceAlpha" type="matrix" values="0 0 0 0 0 0 0 0 0 0 0 0 0 0 0 0 0 0 127 0" result="hardAlpha"/>
<feMorphology radius="2" operator="dilate" in="SourceAlpha" result="effect1_dropShadow_1158_2172"/>
<feOffset dx="-10" dy="-10"/>
<feGaussianBlur stdDeviation="11"/>
<feComposite in2="hardAlpha" operator="out"/>
<feColorMatrix type="matrix" values="0 0 0 0 0 0 0 0 0 0 0 0 0 0 0 0 0 0 0.25 0"/>
<feBlend mode="normal" in2="BackgroundImageFix" result="effect1_dropShadow_1158_2172"/>
<feBlend mode="normal" in="SourceGraphic" in2="effect1_dropShadow_1158_2172" result="shape"/>
</filter>
<linearGradient id="paint0_linear_1158_2172" x1="546.5" y1="115" x2="546.5" y2="775" gradientUnits="userSpaceOnUse">
<stop stop-color="#020103"/>
<stop offset="1"/>
</linearGradient>
<linearGradient id="paint1_linear_1158_2172" x1="546.5" y1="304" x2="546.5" y2="344" gradientUnits="userSpaceOnUse">
<stop stop-color="#7C59CE"/>
<stop offset="1" stop-color="#E16D87"/>
</linearGradient>
<linearGradient id="paint2_linear_1158_2172" x1="548.5" y1="422" x2="548.5" y2="462" gradientUnits="userSpaceOnUse">
<stop stop-color="#7C59CE"/>
<stop offset="1" stop-color="#E16D87"/>
</linearGradient>
<linearGradient id="paint3_linear_1158_2172" x1="546.5" y1="530" x2="546.5" y2="570" gradientUnits="userSpaceOnUse">
<stop stop-color="#7C59CE"/>
<stop offset="1" stop-color="#E16D87"/>
</linearGradient>
<linearGradient id="paint4_linear_1158_2172" x1="546.5" y1="672" x2="546.5" y2="720" gradientUnits="userSpaceOnUse">
<stop stop-color="#7D5CD1"/>
<stop offset="1" stop-color="#CA6A9A"/>
</linearGradient>
<linearGradient id="paint5_linear_1158_2172" x1="352.5" y1="606" x2="352.5" y2="616" gradientUnits="userSpaceOnUse">
<stop stop-color="#402F6F"/>
<stop offset="1" stop-color="#CC6B98"/>
</linearGradient>
<linearGradient id="paint6_linear_1158_2172" x1="830" y1="499" x2="830" y2="547" gradientUnits="userSpaceOnUse">
<stop stop-color="#7E5CD0"/>
<stop offset="1" stop-color="#D06B95"/>
</linearGradient>
<linearGradient id="paint7_linear_1158_2172" x1="720" y1="68" x2="720" y2="817" gradientUnits="userSpaceOnUse">
<stop stop-color="#6E58DB"/>
<stop offset="1" stop-color="#E56E85"/>
</linearGradient>
</defs>
</svg>
