<svg width="916" height="890" viewBox="0 0 916 890" fill="none" xmlns="http://www.w3.org/2000/svg">
<path d="M214.114 1.0379C205.924 1.4162 187.788 4.25348 177.609 6.52325C174.801 7.27991 173.163 8.60394 173.163 10.3063C173.163 11.8195 172.695 12.9544 172.11 12.9544C171.525 12.9544 170.823 14.6567 170.472 16.7374C169.653 21.8445 167.313 21.4662 167.313 16.17C167.313 7.09076 161.931 4.82092 153.273 10.3063C149.646 12.5761 148.593 14.4676 148.593 17.6832C148.593 21.4662 149.295 22.412 153.858 23.5469C156.783 24.1143 160.41 24.3035 162.048 23.9251C163.686 23.3577 164.973 23.736 164.973 24.4926C164.973 25.4384 162.633 26.195 159.825 26.195C155.496 26.195 154.56 26.9515 153.975 30.3563C153.507 33.761 153.039 34.1393 151.869 32.2477C149.88 29.0322 143.796 29.4105 140.637 33.0044C137.36 36.7874 137.36 42.8403 140.637 44.921L143.211 46.4341L140.637 47.3798C139.232 48.1365 137.945 47.3799 137.594 45.8667C136.775 42.2728 118.289 42.6511 110.567 46.6233C107.408 48.1365 104.015 49.6497 103.196 50.028C100.505 51.1629 102.143 56.8375 106.121 60.2422C110.684 64.2144 109.631 67.2408 103.547 68.1865C99.5688 68.5648 98.6328 67.9973 97.4627 64.2143C96.6437 61.9445 96.2927 57.9724 96.6437 55.7026C97.5797 49.0823 95.0057 47.0016 87.1666 48.1365C76.5194 49.4605 75.9344 49.2714 73.4773 45.6775C71.7223 43.2185 68.7972 42.0837 62.1281 41.7053C53.821 41.1379 52.7679 41.7054 46.2158 47.5691C42.3548 51.163 39.0787 55.5134 38.8447 57.2157C37.9087 64.7817 43.5248 68.1865 49.7259 63.6469C53.353 60.9988 54.406 62.512 52.4169 67.619C51.4809 70.078 50.1939 71.2129 49.1409 70.4563C46.4498 68.5648 29.4845 65.5384 21.7624 65.7275C15.4443 65.7275 3.04205 68.9431 0.819015 71.0238C0.351006 71.4021 0.234004 72.5369 0.58501 73.4827C0.936017 74.4284 4.56308 73.4828 8.54115 71.7804C15.9123 68.1865 26.2085 66.8625 28.4315 69.1323C29.1335 69.6997 32.5266 70.4564 36.1536 70.8347C44.5778 71.4021 53.587 75.5634 52.8849 78.7789C52.6509 80.2921 54.289 81.0488 58.9691 81.0488C63.8831 81.0488 65.7552 81.8054 66.5742 84.2644C67.7442 87.2908 67.9782 87.2907 69.2652 84.8318C71.6053 80.103 79.9124 76.8875 83.6565 79.1573C85.2945 80.103 89.5066 81.0488 93.0167 81.0488C96.5267 81.0488 99.6858 81.9945 100.037 82.9402C100.505 84.2643 101.558 84.2643 103.079 82.9402C106.004 80.2922 105.887 77.2657 102.962 77.2657C100.154 77.2657 99.8028 72.537 102.494 70.8347C106.94 68.1865 111.035 71.0238 107.642 74.4285C106.004 76.1309 106.238 79.1573 107.993 79.1573C108.812 79.1573 110.567 78.0223 111.854 76.5092C113.609 74.2393 113.843 73.2936 112.556 71.402C111.854 70.078 111.152 68.3757 111.152 67.4299C111.152 65.3492 117.704 60.2422 120.512 60.2422C122.735 60.2422 122.969 60.9988 122.267 65.9167C121.682 70.2672 121.916 71.7803 123.32 72.5369C124.373 73.1044 126.011 73.8611 127.064 74.4285C128.585 75.1851 128.702 75.9417 127.649 78.0224C126.713 79.9139 126.596 81.0488 127.415 81.9945C128.936 83.3186 132.095 80.6705 135.02 75.5634C138.062 70.078 146.253 69.8888 146.253 75.1851C146.253 77.2657 144.615 81.0488 142.626 83.6969C139.818 87.6691 137.828 88.6147 133.031 88.6147C129.521 88.6147 126.011 89.9389 124.724 91.4521C123.437 92.9653 121.565 94.2894 120.395 94.2894C119.342 94.2894 118.172 95.8026 117.821 97.8832C117.47 100.531 115.715 101.666 110.684 102.612C107.057 103.369 103.781 105.071 103.313 106.395C102.728 107.719 98.2818 112.07 93.2507 116.042C88.3366 120.014 83.4225 124.932 82.3695 126.634C78.7424 133.065 83.5395 147.252 89.2726 147.252C90.6766 147.252 93.4847 148.954 95.4737 150.845C97.4627 152.737 100.739 155.007 102.845 155.763C106.121 156.898 106.589 157.655 106.004 161.06C104.015 172.03 103.898 176.759 105.77 179.218C108.578 183.001 112.673 177.705 114.428 168.626C115.598 162.573 116.768 160.303 120.629 157.655C126.596 153.304 131.159 144.036 130.223 138.172C129.755 135.146 130.574 132.498 132.914 128.715C134.786 125.688 137.243 120.96 138.53 117.933C140.637 113.015 140.988 112.826 147.306 113.961C155.964 115.663 159.123 119.068 159.123 127.202C159.123 137.605 161.463 138.929 168.483 131.93C171.759 128.715 174.684 126.445 174.918 126.823C175.152 127.202 175.62 132.309 175.971 137.983C176.79 153.304 179.715 162.005 184.161 162.762C188.49 163.519 189.543 168.437 186.384 174.111C182.406 181.299 174.45 185.46 162.633 186.406C154.677 186.973 149.997 188.487 146.019 191.324C142.86 193.594 140.403 196.053 140.403 196.998C140.403 197.755 139.934 198.133 139.466 197.566C138.998 197.187 137.828 197.377 136.892 198.512C133.85 201.538 138.53 200.592 142.275 197.377C145.902 194.35 153.273 193.594 153.273 196.242C153.273 196.998 152.22 200.025 150.816 202.673C146.838 211.185 150.816 218.372 158.304 215.913C161.58 214.779 161.931 214.968 160.527 217.805C159.708 219.318 157.485 221.399 155.613 221.966C153.741 222.723 150.114 224.804 147.423 226.884C140.988 231.991 138.998 229.532 144.03 222.723L148.008 217.237L142.743 219.886C132.563 224.804 124.022 232.18 122.618 237.098C121.799 239.936 119.342 242.962 115.949 245.043C110.567 248.258 106.004 253.176 99.3348 263.012C97.4627 265.66 95.9417 267.552 95.9417 266.984C95.9417 266.417 95.2397 266.984 94.4207 268.119C93.4847 269.254 93.0167 272.47 93.2507 275.307C93.9527 282.305 90.0916 290.061 83.6565 294.979C80.9654 297.059 76.1684 302.734 73.1263 307.462L67.5102 315.974L68.2122 331.296C68.7972 346.049 67.8612 353.426 65.5212 353.426C63.6491 353.426 60.7241 340.186 61.0751 333.187C61.3091 326.188 58.618 321.46 53.821 321.271C52.1829 321.271 49.6089 319.946 47.9709 318.622C45.5138 316.353 44.5778 316.353 41.8867 318.622C40.1317 320.136 38.2597 322.784 37.6747 324.486C36.6217 327.323 36.1536 327.323 31.3566 324.486C24.3364 320.136 23.5174 320.325 15.6783 327.891C11.9342 331.485 8.54115 334.511 8.07314 334.511C7.13713 334.511 5.96711 339.618 2.57405 357.209C-0.819015 374.989 1.40402 390.121 8.54115 397.498C13.3382 402.227 23.6344 395.607 25.7405 386.339C27.4955 378.772 38.6107 374.233 38.6107 381.231C38.6107 384.069 34.3986 400.525 31.4736 408.847C29.6015 414.522 31.3566 416.414 37.4407 415.089C40.4827 414.333 44.4608 414.711 46.2158 415.846C48.9069 417.548 49.2579 418.683 48.6729 423.034C48.3219 425.871 47.6199 433.248 47.2688 439.49C46.5668 450.082 46.8008 451.217 49.7259 455.568C52.4169 459.54 54.055 460.297 60.6071 460.486C64.9362 460.675 69.7332 461.053 71.3713 461.431C73.4773 461.999 74.7643 460.864 76.6364 455.946C77.9234 452.352 80.2634 449.326 82.1355 448.758C83.8905 448.002 86.2305 445.921 87.2836 444.03C88.3366 441.949 90.2086 440.436 91.4956 440.436C93.7187 440.436 94.3037 443.273 92.4316 445.164C90.6766 446.867 90.9106 459.918 92.7827 458.783C93.4847 458.405 94.0697 455.946 93.8357 453.676C93.4847 448.758 96.5267 442.327 99.3348 442.327C100.271 442.327 102.962 444.408 105.419 447.056C110.801 453.109 126.128 456.703 128.234 452.541C130.223 448.569 132.446 449.326 131.627 453.487C131.159 455.946 132.797 459.918 137.711 468.241C144.966 480.157 149.295 484.319 153.039 482.616C156.432 481.292 162.984 485.075 165.792 490.182C168.483 494.911 171.993 511.178 171.642 517.042C171.525 519.69 172.344 521.014 174.918 521.771C179.364 523.095 179.598 528.202 175.269 528.958C171.759 529.715 170.94 531.985 173.748 533.876C175.971 535.2 179.247 533.309 178.428 531.039C178.077 530.282 179.598 528.958 181.938 528.202C187.086 526.689 192.819 530.282 193.287 535.39C193.638 538.605 194.808 539.173 203.233 539.929C212.125 540.875 213.061 541.253 216.922 547.117C219.145 550.711 223.006 554.305 225.346 555.25C228.973 556.574 229.909 557.898 230.728 563.195C232.015 570.761 230.26 580.597 225.931 589.865C217.39 608.023 216.454 611.428 217.156 620.318C217.975 631.289 212.827 664.391 209.2 670.633C207.796 673.091 205.339 674.983 203.584 674.983C200.308 674.983 194.574 679.333 188.49 686.143C185.097 690.115 184.746 691.25 185.448 696.924C185.916 701.464 185.448 706.004 183.693 712.057C182.406 716.975 181.353 722.082 181.353 723.595C181.353 725.108 180.066 729.08 178.428 732.485C176.79 735.89 175.503 739.483 175.503 740.24C175.503 740.997 174.216 744.591 172.461 748.184C169.302 754.805 166.962 755.75 162.048 752.157C157.953 749.13 157.251 751.211 160.176 757.831C161.58 761.047 162.633 765.586 162.633 768.234C162.633 774.287 157.602 780.34 152.103 781.286C148.71 781.664 148.008 782.61 147.891 786.582C147.774 796.04 147.54 796.418 144.03 795.094C139.349 793.392 138.413 796.985 142.158 802.471C144.03 805.308 144.732 807.578 143.913 808.334C143.328 808.902 142.743 811.172 142.743 813.252C142.743 815.333 141.924 819.116 140.871 821.575C138.998 826.115 139.115 826.493 142.626 832.924C144.615 836.707 146.253 840.301 146.253 840.868C146.253 841.625 145.2 845.597 144.03 849.759C142.041 856.379 141.924 858.459 143.094 864.512C143.913 868.484 145.2 871.7 146.019 871.7C146.955 871.7 150.816 874.916 154.794 878.699L161.931 885.886L156.549 886.454C153.507 886.832 149.412 886.265 147.189 885.319C143.796 883.995 143.328 882.86 142.977 876.618C142.626 870.943 142.275 869.998 140.988 871.7C139.818 873.213 138.764 873.213 137.126 871.889C135.839 870.754 134.552 870.565 134.084 871.133C132.797 873.213 122.735 854.298 122.033 848.434C121.682 845.408 119.576 840.112 117.47 836.518C115.13 832.924 114.077 829.709 114.779 829.141C117.353 826.493 118.289 818.359 116.417 814.955C115.481 813.252 114.662 810.037 114.662 807.956C114.662 805.875 113.375 802.282 111.737 799.823C110.099 797.364 108.578 792.446 108.227 788.663C107.759 784.88 106.94 780.34 106.355 778.449C105.653 776.368 105.536 769.748 106.004 762.371C106.472 754.048 106.004 741.942 104.717 727.189C103.664 714.894 102.962 701.842 103.313 698.249C103.664 694.655 103.43 689.737 102.845 687.467C102.026 684.63 101.909 680.847 102.728 676.496C103.43 672.146 103.43 666.471 102.611 659.851C101.675 651.907 100.388 648.313 95.9417 641.125C93.0167 636.396 87.9856 630.343 84.7095 627.695C80.4974 624.101 78.3914 620.886 76.6364 615.211C75.3493 610.861 72.8923 604.43 71.1373 600.647C69.3822 597.053 66.8082 589.108 65.4042 583.056C64.0001 577.003 61.0751 569.058 58.9691 565.465C54.523 558.277 53.938 552.602 56.98 544.28C58.8521 539.173 58.8521 538.794 56.746 536.146C54.523 533.498 54.523 533.309 56.512 526.499C57.565 522.716 60.6071 515.15 63.2981 509.476C65.8722 503.99 68.4462 496.992 68.9142 493.776C70.0843 487.156 66.9252 463.701 64.7022 462.188C62.4791 460.864 59.6711 463.134 59.6711 466.16C59.6711 467.673 58.9691 469.376 58.15 469.943C54.406 472.213 38.6107 455.757 38.6107 449.704C38.6107 448.002 37.7917 445.354 36.7387 444.03C35.6856 442.705 34.3986 439.679 33.8136 437.22C33.1116 434.383 31.8246 432.87 29.9525 432.87C25.3895 432.87 16.9653 426.249 14.7423 420.764C13.6892 417.927 11.5832 414.9 10.1792 414.144C7.60514 412.63 0 415.468 0 418.116C0 420.197 3.15906 420.007 5.96711 417.548C7.95614 416.035 8.89216 416.792 12.0512 422.656C16.2633 430.411 21.5284 434.761 26.9105 434.761C29.6015 434.761 30.7716 435.896 31.4736 439.112C32.0586 441.571 33.3456 444.597 34.3986 445.921C35.4516 447.245 36.2706 449.893 36.2706 451.596C36.2706 456.324 43.0568 465.971 49.6089 470.511C56.746 475.429 59.6711 475.618 60.4901 470.7C61.5431 464.458 63.7661 466.349 65.2872 475.05C67.9782 489.615 67.5102 494.533 62.3621 504.369C55.225 517.988 53.47 524.797 54.172 535.39C54.64 540.875 54.406 544.847 53.587 545.604C51.3639 547.873 53.47 561.303 57.097 567.923C58.9691 571.517 61.5431 578.516 62.5961 583.434C63.7661 588.541 66.4572 596.674 68.5632 601.592C70.6693 606.321 73.4773 613.887 74.7643 618.049C76.1684 622.399 78.8594 627.128 81.0824 628.83C87.8686 634.505 95.7077 644.719 98.1648 651.15C100.388 656.824 100.622 660.607 100.622 685.575C100.622 705.625 101.324 718.677 102.845 730.783C104.249 742.321 104.834 752.346 104.483 761.047C103.664 780.151 105.653 795.472 109.982 802.66C111.971 805.876 113.492 810.037 113.492 811.928C113.492 813.631 114.077 816.846 114.662 818.927C115.715 821.764 115.481 822.899 114.077 823.656C111.269 825.547 111.971 832.924 115.715 839.355C117.587 842.571 119.459 847.678 119.927 850.704C120.278 853.542 122.852 859.973 125.543 864.701C129.404 871.511 131.51 873.781 135.488 874.726C139.701 875.861 140.403 876.618 140.403 880.401C140.403 887.4 147.189 891.183 156.549 889.669C161.463 888.913 163.803 887.589 163.803 885.886C163.803 883.617 149.88 867.917 147.774 867.917C147.189 867.917 146.253 865.647 145.434 862.999C144.264 859.027 144.381 856.946 145.668 852.596C148.125 845.03 147.891 837.085 144.966 831.222C142.743 826.682 142.626 825.358 143.913 821.575C144.732 819.116 145.434 813.252 145.551 808.524C145.668 803.038 146.253 799.823 147.072 799.823C148.944 799.823 150.933 793.581 150.933 787.717C150.933 783.367 151.401 782.799 154.911 782.799C157.134 782.799 160.176 781.097 162.048 778.638C164.973 775.044 165.207 773.72 164.622 765.397L163.92 756.318H167.898C170.706 756.318 172.461 754.994 173.748 752.157C180.417 736.457 183.693 727.567 183.693 724.73C183.693 723.027 184.863 717.92 186.15 713.381C187.905 707.517 188.49 702.977 188.022 698.627C187.437 693.141 187.788 691.628 190.479 688.602C195.51 682.927 201.361 678.766 204.286 678.766C209.083 678.766 210.721 676.496 213.646 665.904C216.805 654.366 218.794 637.531 218.794 622.399C218.794 615.022 219.496 610.861 221.251 607.267C228.388 592.135 231.43 584.38 232.717 577.948C234.589 569.058 233.419 556.007 230.728 554.494C224.527 551.467 221.485 548.819 217.975 543.901C214.816 539.362 212.359 538.038 204.754 536.335C198.436 535.011 195.393 533.498 195.393 531.796C195.393 528.769 188.022 523.662 183.693 523.662C181.821 523.662 180.183 522.338 179.715 520.825C179.364 519.312 177.96 517.988 176.673 517.988C174.918 517.988 174.333 516.664 174.333 512.502C174.333 509.287 173.865 506.449 173.28 505.882C172.695 505.314 171.876 501.91 171.525 498.316C171.057 494.155 169.185 489.615 166.611 486.021C163.218 481.103 161.58 480.157 156.666 480.157C149.295 480.157 147.072 478.266 140.051 466.349C134.435 456.324 133.499 452.352 136.073 448.191C137.243 446.299 137.009 445.354 135.371 443.273C133.265 440.814 133.265 440.436 135.371 434.383C136.541 430.978 137.945 427.573 138.413 427.006C139.583 425.682 138.179 412.441 136.775 410.928C136.19 410.361 136.073 407.902 136.424 405.254C137.126 401.092 136.892 400.714 132.329 400.714C128.819 400.714 127.532 399.957 127.532 397.877C127.532 394.472 122.969 394.094 122.267 397.309C120.98 402.984 123.671 410.928 128.117 415.089C130.691 417.359 132.914 420.007 133.148 421.142C133.382 422.277 132.446 427.006 131.042 431.924C129.638 436.653 128.936 442.327 129.287 444.219C129.872 447.056 129.17 448.002 125.777 449.137C119.459 451.028 109.397 448.38 106.94 444.03C105.653 441.76 103.43 440.436 100.505 440.436C98.0478 440.436 95.7077 439.49 95.3567 438.544C94.0697 435.329 88.2196 436.464 85.9965 440.436C84.8265 442.516 82.6035 444.219 81.0824 444.219C79.6784 444.219 78.3914 444.786 78.3914 445.543C78.3914 446.489 76.8704 450.082 74.9983 453.676C72.0733 459.351 71.3713 459.729 69.7332 457.648C68.3292 455.757 65.8722 455.379 60.9581 456.135C54.874 457.27 53.938 456.892 51.5979 453.109C49.3749 448.948 49.1409 447.434 49.8429 431.356L50.6619 414.144L47.5028 412.82C45.7478 412.252 42.0037 412.063 39.0787 412.63C33.1116 413.576 32.6436 411.874 36.1536 400.903C40.4827 387.284 41.1847 384.258 40.7167 379.718C40.2487 374.422 38.0257 373.476 30.8885 375.179C26.4425 376.124 25.5065 377.259 24.1024 382.745C22.3474 389.365 17.1993 395.039 12.8702 395.039C9.47717 395.039 5.14809 387.473 3.62706 378.772C2.57405 372.72 2.92505 369.126 5.3821 355.885C8.30715 340.564 10.5302 334.511 13.2212 334.511C14.0403 334.511 16.7313 332.241 19.1883 329.593C23.2834 325.054 23.9854 324.864 28.6655 326.756C36.1536 329.782 39.0787 329.404 40.7167 324.864C42.3548 320.703 43.0568 320.703 52.5339 324.486C57.214 326.378 57.799 327.891 59.9051 343.023C61.4261 354.183 61.4261 354.372 65.5212 354.372C68.3292 354.372 69.8502 355.507 70.4353 357.588C71.7223 362.505 77.2214 362.127 77.2214 357.209C77.2214 355.129 78.2744 352.48 79.5614 351.156C80.9654 349.643 81.9015 346.617 81.9015 343.59C81.9015 338.862 81.5505 338.483 76.4024 337.916C70.7863 337.348 70.7863 337.348 70.2013 329.782C69.0312 316.542 72.1903 310.489 87.6346 296.492C93.1337 291.385 95.9417 285.521 95.9417 278.333C95.9417 274.361 102.494 260.742 104.483 260.742C105.068 260.742 107.408 258.283 109.514 255.068C111.737 252.041 115.598 248.637 118.172 247.502C121.331 246.178 123.32 243.908 124.49 240.125C125.66 236.72 128.351 233.504 132.095 230.856C137.828 227.073 137.945 227.073 138.647 230.667C139.818 236.531 143.094 235.396 159.123 223.101C164.856 218.751 164.505 214.589 158.187 213.265C152.103 211.941 150.114 209.293 152.688 205.888C154.794 203.051 155.145 192.648 153.039 192.648C152.337 192.648 151.986 192.27 152.337 191.702C152.688 191.135 157.836 190.378 163.803 190L174.567 189.243L170.706 195.674C164.622 205.888 166.26 207.969 179.832 207.402L191.298 206.834L191.649 200.781C192 195.674 191.532 194.161 189.075 192.27C185.331 189.621 185.097 182.812 188.49 177.327C190.128 174.678 190.713 171.652 190.479 167.491C190.128 162.195 189.66 161.438 186.267 160.87C181.821 160.114 180.534 156.709 178.545 137.983C176.907 122.284 175.035 120.203 168.6 127.012C162.399 133.633 161.463 133.444 161.463 125.688C161.463 116.987 157.368 111.88 149.178 110.367C140.169 108.476 137.36 110.178 134.669 118.69C133.382 122.662 131.51 126.445 130.457 127.012C129.404 127.769 128.702 130.606 128.702 134.011C128.702 142.144 125.66 148.576 119.576 153.683C115.364 157.087 113.96 159.736 112.439 166.356C111.269 171.463 109.631 174.868 108.344 175.246C106.004 176.003 106.004 176.57 108.344 161.627C109.046 157.277 108.227 156.331 100.154 150.278C95.2397 146.495 90.4426 143.469 89.6236 143.469C88.6876 143.469 86.8156 141.199 85.5285 138.362L83.0715 133.444L85.6455 128.904C87.1666 126.256 92.1976 121.338 96.8777 117.555C101.441 113.961 105.302 110.178 105.302 109.232C105.302 108.286 106.589 107.53 108.11 107.53C109.748 107.53 112.439 106.584 114.194 105.638C116.066 104.503 117.821 104.314 118.64 105.449C119.342 106.395 123.671 107.53 128.117 107.908L136.307 108.476L136.658 102.234C137.009 97.3158 136.541 95.8026 134.318 94.4785C131.861 92.7761 131.978 92.587 135.488 92.587C142.392 92.3978 148.476 84.2643 148.593 75.3743C148.593 70.8347 148.944 70.6455 154.794 70.8347C162.165 71.0238 163.218 71.7803 165.558 79.3464C167.313 84.6426 167.313 84.8318 164.622 84.8318C163.101 84.8318 160.878 86.5341 159.708 88.6147C158.304 91.2629 155.847 92.3978 151.05 92.7761C144.966 93.3436 144.498 93.7219 144.498 98.0724C144.498 102.423 144.849 102.801 150.582 102.801C155.613 102.801 157.017 103.558 158.538 107.152C159.591 109.421 161.931 112.637 163.803 114.15C168.015 117.744 176.673 117.933 176.673 114.528C176.673 113.204 177.843 111.313 179.364 110.367C181.119 109.043 182.055 106.584 182.289 102.612C182.64 96.7483 182.757 96.5591 187.203 97.5049C192.936 98.8289 195.393 95.8026 195.393 87.8582C195.393 83.3186 194.574 81.2379 191.883 78.7789C189.543 76.6982 188.373 74.0502 188.373 71.0238C188.373 65.9167 186.384 62.1337 183.576 62.1337C182.406 62.1337 179.949 60.053 178.077 57.4049C175.737 54.3785 173.163 52.6761 170.472 52.6761C168.132 52.6761 165.909 51.7303 165.558 50.7846C165.207 49.6497 165.675 48.8931 166.728 48.8931C167.781 48.8931 169.887 46.8124 171.525 44.1643C173.163 41.5162 175.035 39.4355 175.737 39.4355C177.024 39.4355 185.565 33.3827 194.457 26.3841C199.372 22.4119 200.074 22.7902 200.074 30.1671C200.074 36.4091 202.765 37.7332 213.412 37.3549C219.847 36.9766 220.666 37.544 223.708 43.0294C225.463 46.2449 227.218 51.1629 227.686 54.0002C228.154 57.0266 229.558 60.8096 230.962 62.701L233.419 65.9167L227.218 74.9959L221.134 83.886V99.2072C221.134 108.476 221.719 115.474 222.655 117.177C224.995 122.095 232.717 128.336 236.344 128.336C240.205 128.336 245.704 121.527 249.331 111.88C252.725 102.99 261.383 94.2894 266.648 94.2894C270.86 94.2894 272.147 93.3436 279.752 85.3992C282.209 82.7512 285.485 81.0488 288.527 81.0488C291.101 81.0488 295.898 79.9139 299.057 78.4006C302.216 76.8875 306.194 75.1851 308.066 74.6177C309.822 73.861 311.226 72.1587 311.226 70.8347C311.226 69.3214 312.396 67.8082 313.8 67.4299C317.076 66.6733 317.895 60.9988 315.438 56.6483C313.683 53.6219 313.917 53.2435 317.544 50.7846C322.224 47.9473 329.946 33.761 329.946 28.4648C329.946 23.1685 332.988 19.7638 339.774 17.6832C344.571 16.1699 345.858 14.8459 346.092 11.4412C346.443 7.65814 345.975 7.27991 340.476 7.27991C337.083 7.27991 332.871 5.95581 330.765 4.06427C327.606 1.22705 323.862 0.848755 306.077 1.0379C292.973 1.22705 281.975 2.55109 276.242 4.25342C270.158 6.33411 261.734 7.0907 249.565 6.7124C233.419 6.33411 231.664 5.95581 231.664 2.92938C231.664 0.470459 230.728 -0.286133 227.335 0.0921631C224.878 0.281311 218.911 0.659607 214.114 1.0379ZM229.324 3.11853C229.324 5.76666 214.816 14.4676 204.754 17.6832C199.255 19.5746 193.521 22.6011 192 24.4926C190.479 26.5733 188.139 28.0865 186.735 28.0865C185.448 28.0865 182.523 29.978 180.3 32.0586C176.79 35.4633 175.62 35.6525 171.993 33.9501C169.77 32.8152 166.728 32.437 165.324 33.0044C161.931 34.5176 156.783 32.437 156.783 29.7889C156.783 28.4648 157.953 28.0865 159.591 28.8431C161.112 29.4106 164.037 29.4106 166.026 28.8431C169.185 27.7082 169.419 27.1407 168.249 24.6818C166.962 22.2228 167.196 21.8445 169.77 22.7903C172.344 23.5469 172.812 22.9794 172.695 19.7639C172.578 15.9808 173.046 15.7917 181.47 16.3591C193.053 17.3049 194.691 13.9001 183.576 12.1978C179.013 11.4412 175.503 10.3063 175.854 9.92804C176.205 9.36053 187.086 7.65814 200.191 6.1449C213.178 4.63171 224.176 3.11853 224.41 2.55109C225.346 1.03784 229.324 1.4162 229.324 3.11853ZM322.224 4.44257C326.553 5.95575 330.882 8.0365 331.701 9.17139C332.637 10.4955 335.562 10.6846 339.54 9.92804C345.273 8.60394 345.624 8.79303 344.103 11.6303C343.05 13.7109 340.71 14.8459 337.668 14.8459C333.807 14.8459 332.052 15.9808 329.946 19.5746C328.308 22.4119 327.021 26.0059 327.021 27.8973C327.021 34.5176 318.948 46.6232 313.098 49.0822C310.056 50.2171 307.482 51.9195 307.13 52.6761C306.896 53.2435 308.418 55.3242 310.641 57.0266C315.321 60.6204 315.789 63.2686 312.396 64.9709C310.875 65.7275 308.886 64.7818 306.779 62.1337C304.088 58.5398 303.62 58.3507 303.269 60.9988C303.035 62.7012 302.216 64.0251 301.514 64.0251C298.94 64.0251 303.62 67.8082 306.311 67.8082C307.715 67.8082 308.886 68.5648 308.886 69.6997C308.886 70.6454 307.715 71.9695 306.311 72.3478C296.366 75.7525 289.931 77.4549 288.176 76.8874C285.485 76.3199 278.582 80.6704 275.54 85.0209C274.253 86.9124 269.573 89.7498 265.127 91.4521C255.182 95.2351 253.193 97.3158 246.406 111.313C239.854 124.743 237.046 126.445 230.026 120.96C226.048 118.122 224.527 115.474 223.474 110.556C222.538 106.017 222.538 102.801 223.24 100.531C224.059 98.4507 224.059 95.9917 223.357 93.911C222.07 89.9388 224.176 81.6162 226.984 80.103C228.037 79.5356 230.377 76.6983 232.132 73.6719C234.706 69.3214 235.057 67.6191 234.121 63.6469C233.536 60.9988 232.132 58.3506 231.196 57.7832C230.143 57.0266 229.324 54.3784 229.324 51.9195C229.324 49.2714 227.686 44.1643 225.697 40.5704C222.187 33.9502 221.953 33.9502 212.008 33.3828C202.414 32.8152 201.829 32.6261 201.478 28.4648C201.244 26.1949 201.478 24.3035 202.063 24.3035C206.86 24.3035 219.847 19.3855 226.984 14.8459C238.216 7.84729 243.481 6.71234 252.491 8.98218C258.107 10.4954 263.021 10.1171 273.551 7.84729C281.039 6.14496 291.569 4.63171 296.834 4.44257C302.216 4.25342 306.896 3.68604 307.247 2.92938C308.535 0.848755 313.332 1.41614 322.224 4.44257ZM164.271 12.1978C166.962 13.9001 166.611 15.7917 163.218 18.2506C159.474 21.0879 150.933 21.277 150.933 18.6289C150.933 16.3591 157.485 11.2521 160.527 11.0629C161.58 11.0629 163.218 11.6303 164.271 12.1978ZM151.284 35.8416C152.571 37.1657 157.602 37.9224 162.282 37.7332C171.057 37.3549 172.578 38.679 168.483 42.6511C166.728 44.5426 163.335 44.5425 153.624 43.0294C146.721 41.8945 140.754 40.5704 140.52 40.1921C140.286 39.8138 140.754 38.3006 141.573 36.5983C143.328 33.1935 147.774 32.8152 151.284 35.8416ZM70.2013 47.9473C76.8704 54.0002 78.8594 54.7567 81.4335 52.8652C83.4225 51.5411 84.4755 51.7304 85.5285 53.811C86.6985 56.27 87.1666 56.27 88.9216 53.6218C90.6766 50.9737 94.7717 49.6497 94.7717 51.7303C94.7717 52.1086 94.1867 54.7568 93.3677 57.4049C92.1976 61.7554 92.1976 62.7011 93.9527 64.2143C95.0057 65.3492 95.9417 66.8624 95.9417 67.619C95.9417 70.6454 89.2726 73.6719 83.5395 73.2935C80.3804 72.9152 75.9344 73.861 73.7113 75.1851C70.4353 77.2657 68.2122 77.2657 62.9471 75.5634C59.3201 74.2393 55.693 71.9695 54.991 70.4563C53.704 68.1865 54.406 67.8082 59.5541 67.8082C66.5742 67.8082 66.8082 64.2144 59.9051 63.8361C57.565 63.6469 56.512 63.2686 57.682 62.701C58.735 62.3228 59.6711 61.1879 59.6711 60.2422C59.6711 57.2158 53.47 57.0266 49.1409 59.6747C44.6948 62.512 40.9507 62.1337 40.9507 58.5398C40.9507 56.4592 48.0879 49.4606 53.821 45.8667C58.384 43.0294 65.6382 43.9752 70.2013 47.9473ZM119.225 51.3521C118.523 53.811 116.183 56.8374 113.96 58.1614C110.45 60.2421 109.631 60.053 106.94 56.6483C104.132 53.0544 104.015 52.6761 106.238 52.6761C107.525 52.6761 110.099 51.3521 111.854 49.8388C113.726 48.3256 116.417 47.0016 117.821 47.0016C120.161 47.0016 120.278 47.569 119.225 51.3521ZM135.722 48.704C135.722 50.9738 133.733 52.1086 127.064 53.6218C121.214 55.1351 119.459 52.1086 124.373 48.8931C127.766 46.6233 135.722 46.4341 135.722 48.704ZM149.295 49.0822C149.763 50.4062 151.869 50.7845 154.911 50.028C158.889 49.0822 160.41 49.6497 163.686 53.4327C166.845 57.2157 168.132 57.7831 169.887 56.27C171.759 54.5676 172.812 55.1351 175.503 59.2964C177.258 61.9445 180.183 64.7818 182.055 65.7275C184.395 66.6733 185.565 68.5648 185.799 71.7804C186.033 74.2394 187.905 78.5898 189.894 81.4271C193.053 85.7775 193.404 87.1016 192.351 89.9389C190.947 93.3436 188.256 93.7219 182.289 91.4521L179.013 90.128L179.715 98.829C180.534 108.287 179.247 109.8 173.982 105.449C171.525 103.179 171.525 103.179 173.514 108.286C175.386 112.637 175.386 113.394 173.748 114.339C170.589 116.42 166.143 113.204 161.229 105.26C156.666 97.8832 156.315 97.6941 152.22 99.5856C149.412 101.099 147.657 101.099 146.838 99.7747C144.849 96.5591 148.71 94.1002 153.858 95.2351C157.602 95.9917 159.006 95.6134 160.644 92.3979C162.165 89.3715 163.92 88.6148 167.313 88.9931C174.684 89.5606 174.684 89.3714 165.324 72.3478L162.048 66.4842L150.348 67.0516C136.424 67.619 134.552 67.0516 134.552 61.3771C134.552 57.4049 139.115 51.3521 144.498 48.5148C148.008 46.8124 148.359 46.8124 149.295 49.0822ZM132.212 60.9988C132.212 64.5927 132.914 67.8082 133.733 68.3757C134.669 68.9431 134.318 70.6455 132.563 73.6719L129.872 78.0224V73.861C129.872 71.0237 129.17 69.6997 127.532 69.6997C124.022 69.6997 124.256 59.6747 127.883 56.8375C131.861 53.811 132.212 54.0002 132.212 60.9988ZM98.2818 74.4285C98.2818 76.32 97.1117 77.2657 94.5377 77.2657L90.6766 77.0767L94.1867 74.4285C96.1757 73.1044 97.8138 71.7804 98.0478 71.7804C98.1648 71.5912 98.2818 72.9153 98.2818 74.4285ZM130.925 96.37C133.85 98.0723 134.552 99.3964 134.318 102.612C134.084 105.071 133.265 106.206 132.212 105.638C131.276 105.26 128.234 104.882 125.543 105.071C119.81 105.449 118.757 102.044 123.086 97.3157C126.245 93.7219 126.128 93.7219 130.925 96.37ZM183.342 187.352C183.225 190 184.044 192.27 185.916 193.783C187.437 195.107 189.192 197.566 189.777 199.079C191.766 204.753 181.938 207.591 172.812 204.186L169.536 203.051L175.503 193.026C182.172 182.245 183.81 181.11 183.342 187.352ZM76.0514 341.888C76.0514 344.158 73.7113 346.617 72.8923 345.293C72.0733 343.969 73.5943 340.186 74.9983 340.186C75.5834 340.186 76.0514 340.942 76.0514 341.888ZM76.0514 350.589C75.3493 352.102 74.9983 354.183 75.3493 355.129C76.6364 358.344 74.0623 359.101 72.4243 356.074C71.1373 353.426 71.2543 352.67 73.1263 350.4C76.0514 346.995 77.9234 346.995 76.0514 350.589ZM135.137 414.144C136.424 417.359 135.371 417.548 132.914 414.711C130.925 412.441 130.925 412.063 132.446 412.063C133.499 412.063 134.786 413.009 135.137 414.144Z" fill="white" fill-opacity="0.1"/>
<path d="M624.791 29.9776C622.568 32.6257 619.994 33.7606 614.26 33.9498C603.613 34.3281 599.869 36.0305 598.582 40.5701C597.763 43.7856 596.008 44.9205 591.679 45.8663C588.052 46.4338 584.776 48.5144 583.138 50.9734C581.617 53.2432 578.341 55.7021 575.767 56.4587C571.906 57.5937 570.619 57.2154 569.098 54.3781C566.758 50.0276 558.45 49.4602 555.291 53.2432C553.653 55.1347 553.302 57.5937 553.536 63.2682L554.004 70.8342L548.388 68.9427C543.708 67.2404 542.07 67.6187 539.145 70.2668C536.571 72.7258 532.944 73.4824 524.871 73.4824C516.447 73.4824 513.171 74.239 509.661 77.2654C505.565 80.481 504.98 80.6701 503.693 78.022C502.874 76.1305 501.119 75.3739 499.013 75.7522C496.205 76.1305 495.386 77.2654 495.152 81.4267C494.684 87.8578 492.344 88.2361 490.823 82.3724C489.536 77.8328 477.368 70.0776 470.933 69.8885C469.061 69.6993 464.264 67.6187 460.403 64.9706C452.096 59.4852 439.81 58.7286 432.322 63.2682C429.748 64.7814 425.419 67.2404 422.728 68.5645C418.048 71.0234 407.167 86.3446 407.167 90.506C407.167 92.7758 393.711 107.53 391.605 107.53C390.786 107.53 388.797 109.61 387.393 112.069C385.053 116.23 384.819 117.933 385.521 126.255C386.457 136.848 389.148 141.577 394.062 141.577C396.403 141.577 396.637 142.144 395.467 144.225C394.764 145.738 394.296 149.899 394.413 153.304C394.882 161.248 393.711 164.275 390.318 164.275C388.797 164.275 384.936 167.68 381.543 172.03L375.576 179.785V174.678C375.576 171.273 374.874 169.193 373.353 168.625C372.183 168.058 370.194 164.464 369.141 160.303C367.971 156.331 366.333 151.98 365.397 150.845C364.578 149.71 363.876 147.44 363.876 145.927C363.876 142.523 359.313 136.091 356.739 135.902C353.814 135.902 351.006 142.144 351.006 148.764C351.006 154.439 350.772 154.817 346.56 154.817C338.603 154.817 336.146 158.033 335.21 169.382C334.859 174.867 334.742 180.164 335.21 181.298C336.263 183.947 340.125 183.568 345.741 180.542C350.655 177.705 353.229 178.461 351.123 181.866C350.421 183.001 349.836 185.649 349.836 187.54C349.836 190.756 350.421 190.945 357.207 189.81C361.185 189.243 365.397 188.108 366.684 187.54C368.088 186.973 368.556 187.351 368.088 188.675C367.62 189.81 366.099 190.756 364.578 190.756C363.174 190.756 361.536 191.513 360.834 192.458C360.249 193.404 357.909 194.539 355.686 194.917C352.059 195.485 351.591 196.052 351.591 201.159C351.591 205.321 352.176 207.023 353.931 207.401C359.664 209.104 362.238 219.885 358.728 227.64C357.324 230.856 356.622 230.856 350.421 228.965C341.646 226.127 336.38 226.127 334.859 228.965C334.274 230.289 333.338 241.448 332.87 253.554C332.051 275.117 332.051 275.874 334.391 275.874C335.678 275.874 337.901 277.576 339.423 279.657L342.231 283.44L335.444 293.465C330.179 301.22 328.541 304.814 327.956 310.489C327.488 315.407 326.084 319.19 323.042 323.351C315.32 333.943 308.885 344.347 308.885 346.616C308.885 347.751 306.896 353.426 304.556 359.1C299.993 370.071 299.057 379.718 301.163 395.417C301.982 400.903 301.631 404.118 299.642 410.171C297.653 416.413 297.302 419.629 298.004 429.465C298.706 440.435 299.174 441.759 305.024 451.406C308.417 457.081 311.576 463.89 311.927 466.727C312.863 472.402 318.011 481.859 324.329 488.858C328.541 493.587 329.243 493.776 337.199 492.452C341.88 491.695 348.315 491.317 351.357 491.317C354.867 491.506 360.366 489.804 365.748 486.588C375.576 481.103 379.203 481.481 382.128 488.669C383.532 492.263 385.053 493.398 387.978 493.398C391.254 493.398 392.19 494.343 393.126 498.126C393.828 500.964 395.116 502.855 396.637 502.855C399.211 502.855 399.562 505.693 397.924 512.691C397.456 515.15 396.637 521.014 396.169 525.932C395.35 534.254 395.584 535.011 400.498 543.901C403.54 549.576 406.231 556.763 407.167 562.249C407.986 566.977 409.156 571.517 409.624 572.085C410.209 572.652 410.677 575.868 410.677 579.461C410.677 583.055 411.262 588.162 412.081 590.81C413.251 595.161 413.134 597.052 411.028 603.673C404.593 624.858 404.593 638.477 411.262 659.094C414.304 668.362 416.059 677.631 417.463 691.25C418.984 704.301 420.388 712.245 422.377 716.596C426.823 726.81 429.397 735.889 429.397 741.753C429.397 753.67 430.333 754.426 445.543 753.859C463.562 753.102 466.136 750.832 480.878 722.649C487.196 710.732 488.015 707.895 487.43 703.166C486.728 697.303 489.536 691.25 493.982 688.98C497.96 686.899 499.949 671.2 497.024 663.823C495.971 660.796 496.439 658.905 500.3 651.339C502.757 646.421 507.32 640.368 510.363 637.909C518.085 631.667 519.723 624.669 518.67 604.24C518.202 594.404 516.915 585.514 515.16 579.461C511.884 567.734 511.767 560.546 514.926 552.035C518.553 542.577 533.295 516.663 539.379 509.097C546.984 499.64 558.099 465.592 558.099 451.784C558.099 439.679 556.812 438.733 546.867 444.029C538.443 448.569 532.359 449.136 530.253 445.732C528.03 442.138 528.615 441.003 533.646 439.679C536.22 438.922 540.9 436.463 543.825 434.004C546.867 431.545 551.196 428.708 553.536 427.384C555.759 426.249 559.503 422.277 561.609 418.683C563.833 414.9 567.577 411.117 570.034 409.982C573.193 408.658 575.533 405.632 578.458 399.201C580.681 394.283 583.606 388.041 584.893 385.203C588.403 378.016 588.052 369.125 584.191 364.018C582.553 361.938 580.096 359.1 578.809 357.966C577.054 356.452 580.447 356.074 592.732 356.641L608.878 357.587L613.441 364.964C616.015 368.936 618.473 372.341 619.058 372.341C619.643 372.341 620.111 374.422 620.111 377.07C620.111 382.555 623.153 385.582 628.769 385.582C632.513 385.582 632.981 386.149 632.981 390.31C632.981 394.661 637.193 414.9 639.767 422.655C642.224 430.221 649.01 454.811 649.946 459.351C650.414 461.999 651.35 465.214 651.935 466.349C653.69 469.754 660.944 469.376 661.763 465.971C662.816 461.62 664.571 462.566 664.571 467.673C664.571 478.455 665.975 483.94 668.666 483.94C673.931 483.94 675.102 482.049 675.102 473.537C675.102 465.025 671.708 455.568 668.549 455.568C667.145 455.568 666.911 452.73 667.379 439.111C667.964 420.764 667.262 422.844 680.718 402.038C685.983 394.093 690.312 386.149 690.312 384.636C690.312 381.609 693.003 379.34 699.087 377.259C702.363 376.124 702.948 376.692 704.586 382.555C705.639 386.149 707.628 389.554 709.032 390.31C711.723 391.634 716.052 404.118 716.052 410.739C716.052 413.009 716.637 416.035 717.456 417.359C719.211 420.196 724.944 420.385 725.997 417.737C727.167 414.522 728.922 415.657 728.922 419.44C728.922 421.52 730.092 427.195 731.38 432.302C733.252 439.111 733.837 444.786 733.603 455.189C733.486 468.808 733.486 469.186 737.581 475.05C740.272 479.211 741.793 483.373 742.378 488.48C743.08 495.289 742.963 495.668 741.208 492.641C738.049 487.723 730.21 481.859 727.401 482.427C725.529 482.805 724.71 484.508 724.476 488.101C724.125 492.074 725.295 495.478 729.156 502.288C735.241 513.069 745.303 536.902 745.303 540.307C745.303 544.279 757.12 563.384 759.46 563.384C760.864 563.384 761.683 564.708 761.683 566.977C761.683 568.869 762.385 571.517 763.204 572.652C766.363 576.624 799.826 583.812 801.815 580.596C803.804 577.381 801.815 573.219 795.38 568.112C790.466 564.14 788.126 563.194 784.264 564.14C781.573 564.708 779.116 564.518 778.765 563.573C778.414 562.627 775.489 561.492 772.447 560.735C767.065 559.601 766.714 559.222 767.299 554.872C768.235 546.738 766.48 538.037 762.385 530.85C757.822 522.905 755.95 514.204 758.758 514.204C761.098 514.204 760.981 508.719 758.173 493.587C756.184 483.184 755.014 480.157 751.153 475.618C745.537 468.808 741.793 457.27 741.793 446.488V438.355L745.186 441.381C747.058 442.894 749.749 446.677 751.153 449.893C752.557 452.919 754.663 455.568 755.833 455.568C757.354 455.568 758.173 457.081 758.407 460.675C758.992 468.619 763.438 468.808 768.001 461.431C769.99 458.216 773.149 453.487 775.021 450.65C778.063 446.11 778.297 444.975 777.712 435.896C777.01 423.79 772.33 408.091 768.235 403.74C766.597 402.038 764.374 398.444 763.321 395.796C761.449 391.256 761.449 390.878 764.023 386.527C765.544 383.879 767.416 381.799 768.235 381.799C770.458 381.799 771.511 385.582 769.99 388.041C769.288 389.175 768.703 392.958 768.703 396.363C768.703 402.227 768.937 402.605 772.798 402.605C777.478 402.605 779.818 397.687 778.882 389.743C778.18 383.879 781.69 378.016 785.785 378.016C787.306 378.016 788.828 377.07 789.179 376.124C789.53 374.989 791.285 374.233 793.04 374.233C800.177 374.043 806.144 363.451 809.069 345.86C812.228 327.134 812.462 322.405 810.356 319.568C809.303 318.055 808.484 315.785 808.484 314.082C808.484 312.569 806.378 307.273 803.804 302.544C801.23 297.815 798.188 292.141 797.135 290.249C795.38 286.845 795.497 286.277 799.124 281.549C805.091 273.604 803.687 269.632 793.859 267.173C789.296 265.849 785.434 264.903 785.2 264.714C784.849 264.714 785.902 262.444 787.423 259.796L790.115 255.067L791.519 259.418C792.806 263.39 796.784 264.714 801.347 262.444C802.4 262.066 803.687 263.957 804.623 266.795C805.559 269.821 806.963 272.091 807.782 272.091C810.005 272.091 815.27 281.927 816.791 288.736C817.844 293.843 818.663 294.789 821.822 294.789C823.811 294.789 826.736 293.465 828.14 291.763C833.288 285.899 830.012 270.578 822.29 263.768C819.131 260.931 818.312 259.418 819.014 257.148C819.599 255.446 820.418 250.906 820.769 246.934C821.354 240.503 821.822 239.935 825.332 239.935C832.352 239.935 835.16 231.991 836.447 208.725L837.149 195.485L840.074 204.942C841.712 210.239 844.286 215.156 845.691 216.291C848.382 218.183 848.733 221.209 848.265 236.531C848.148 241.827 848.733 244.097 850.488 245.988C851.892 247.312 852.945 249.393 852.945 250.717C852.945 252.041 853.881 256.202 854.934 259.796L856.923 266.606L851.775 274.172C848.265 279.279 845.574 281.549 843.117 281.549C838.085 281.738 834.458 287.223 833.522 296.302C832.937 302.355 833.288 305.003 835.511 309.732C838.904 317.298 843.584 317.866 843.584 310.867C843.584 307.084 844.169 306.138 846.51 306.138C848.616 306.138 849.435 305.192 849.435 302.733C849.435 299.896 850.137 299.329 853.062 300.085C855.87 300.842 856.689 300.085 857.274 296.87C857.742 294.032 858.795 292.898 861.018 292.898C862.773 292.898 865.347 291.574 866.868 289.871C869.793 286.466 869.793 285.332 867.102 262.633C865.815 251.852 862.773 245.61 858.678 245.61C857.508 245.61 856.455 244.853 856.455 243.907C856.455 243.151 857.742 242.773 859.263 243.151C863.124 244.475 868.389 238.611 867.921 233.504C867.687 230.856 866.166 228.775 863.007 227.073C857.391 224.236 852.243 217.237 852.711 213.265C852.828 211.752 851.892 207.969 850.371 204.942C848.733 201.538 847.914 197.565 848.148 194.161C848.382 189.81 847.563 188.108 842.18 182.433C838.67 178.839 835.277 173.732 834.458 170.895C833.288 166.734 832.352 165.977 829.076 166.356C826.502 166.734 824.162 165.788 822.758 163.707C821.237 161.438 818.546 160.492 814.217 160.492C805.442 160.492 803.336 157.844 805.091 149.143C805.91 145.549 807.548 140.442 808.952 137.983C811.292 133.822 811.877 133.632 826.619 134.2L841.829 134.956L842.414 128.336C843 121.338 846.159 118.5 848.616 122.472C849.318 123.607 851.658 124.553 853.764 124.553C856.572 124.553 857.625 123.797 857.625 121.338C857.625 119.257 857.976 118.689 858.795 120.013C859.497 121.148 859.38 124.553 858.678 129.282C855.87 146.684 855.987 148.386 860.55 158.6C862.89 163.707 865.23 168.058 865.815 168.058C866.283 168.058 869.208 172.03 872.25 176.759C876.813 183.757 878.334 185.271 881.376 184.703L885.12 184.136L885.237 170.895C885.471 153.493 882.546 142.523 876.93 138.55C869.325 133.443 872.601 128.336 883.482 128.336C887.811 128.336 889.332 127.39 892.14 122.662C894.48 118.689 896.586 116.987 899.277 116.987C901.969 116.987 903.139 116.041 903.607 113.393C904.309 108.664 903.49 107.151 898.341 103.368C892.023 98.6395 892.842 95.8022 899.511 99.0178C902.554 100.531 907.585 101.855 910.627 101.855C916.009 101.855 916.243 101.666 915.892 96.7479C915.424 89.7493 910.276 84.4531 902.437 82.7507C894.831 81.0484 886.173 77.8328 872.25 71.5908C863.943 67.8078 860.316 67.4295 839.021 67.4295C819.131 67.6187 814.685 67.2404 811.526 64.5923C808.952 62.5116 803.921 61.3767 794.561 60.8093C787.306 60.4309 780.286 59.296 779.116 58.1611C776.191 55.7021 757.939 50.7842 751.387 50.7842C747.643 50.7842 746.239 51.73 745.654 53.9998C744.484 59.1069 743.548 59.6743 733.837 59.296C726.114 58.9177 723.891 57.972 718.392 53.0541C711.957 47.1904 711.84 47.1904 694.992 47.3795C685.632 47.3795 675.219 46.8121 671.942 46.0555C666.56 44.9205 665.741 44.1639 665.741 40.3809C665.741 32.0583 663.752 31.1125 634.151 26.9512C628.886 26.1946 627.131 26.762 624.791 29.9776ZM638.831 30.9234C640.586 32.6257 645.149 33.7606 650.531 33.7606C658.838 33.9498 663.401 36.2196 663.401 40.5701C663.401 41.5158 661.412 44.1639 658.955 46.4338C655.679 49.6494 655.211 50.5951 656.966 50.7842C658.253 50.7842 661.061 50.0276 663.284 48.8927C665.975 47.7578 668.432 47.947 671.474 49.6494C674.283 51.1625 676.857 51.3517 678.846 50.4059C680.952 49.271 683.877 49.6494 687.621 51.3517C690.897 52.8649 694.173 53.4324 695.577 52.4866C699.555 50.0276 709.734 50.5951 713.829 53.8107C716.052 55.3239 719.913 58.7286 722.37 61.1876C726.465 65.1597 727.401 65.3489 730.092 63.079C732.082 61.3767 734.656 60.9984 737.932 61.9442C742.612 63.4573 748.228 60.8093 748.228 57.0262C748.228 56.2696 752.791 55.513 758.29 55.7021C765.778 55.7021 769.99 56.8371 774.67 59.8635C779.584 63.079 783.913 64.214 793.859 64.5923C801.932 64.9706 807.782 66.1055 809.654 67.8078C811.526 69.5102 816.791 70.4559 823.694 70.6451C829.778 70.8342 836.564 71.5908 838.67 72.5366C841.712 73.6715 842.414 73.4824 842.18 71.4017C841.946 69.321 843.234 68.9427 848.265 69.321C856.338 69.8885 872.016 74.6172 877.866 78.4003C880.206 79.9135 884.067 81.0484 886.407 81.0484C888.63 81.0484 892.14 82.3724 894.246 84.0748C896.235 85.9663 900.448 87.4796 903.607 87.4796C907.936 87.8578 909.808 88.9927 912.265 92.9649C915.19 97.5045 915.19 98.072 913.201 99.2069C912.031 99.9635 908.638 99.2069 905.713 97.5045C902.788 95.9913 898.341 93.9106 896.001 93.3432C892.257 92.2083 891.555 92.5866 891.555 95.2347C891.555 97.5045 890.853 98.2612 889.332 97.5045C887.928 96.9371 887.226 97.5045 887.577 98.8286C888.045 100.72 893.31 104.692 900.096 108.286C903.49 109.989 901.735 114.15 897.639 114.15C895.065 114.15 892.842 116.041 890.034 120.392C886.641 125.688 885.588 126.445 883.716 124.742C881.376 122.851 872.484 126.445 870.027 130.228C868.389 132.687 872.367 141.198 875.409 141.955C879.387 142.901 882.663 155.006 882.78 169.382C883.014 179.974 882.78 181.298 880.791 181.298C879.504 181.298 877.281 178.839 875.76 176.002C874.239 173.165 871.665 169.571 869.91 168.058C868.155 166.545 864.645 160.681 862.188 155.196C857.976 145.738 857.859 144.603 859.263 139.874C861.603 132.308 862.539 121.338 861.135 116.987C859.497 112.069 856.455 112.069 856.455 116.987C856.455 119.635 855.636 120.77 853.764 120.77C852.243 120.77 850.605 120.013 849.903 119.068C849.318 118.311 847.446 116.987 845.574 116.23C842.883 115.285 842.18 115.663 841.244 120.013C840.542 122.851 840.308 126.634 840.659 128.525C841.712 133.443 837.032 134.956 831.767 131.363C829.427 129.849 827.087 129.093 826.736 129.849C826.268 130.606 822.173 131.173 817.727 131.363C810.941 131.363 809.186 132.119 806.729 135.902C805.091 138.361 803.804 141.955 803.804 143.847C803.804 145.927 802.985 149.899 802.049 152.926C800.294 158.6 800.294 158.6 804.623 161.438C807.431 163.329 810.473 164.086 812.93 163.329C816.089 162.383 817.844 163.329 822.173 167.869C825.215 171.084 827.204 173.732 826.736 173.732C825.449 173.732 829.427 184.703 831.416 186.595C834.224 189.054 834.809 211.563 832.352 224.236C830.363 234.45 828.023 237.476 823.811 235.206C820.886 233.693 817.493 242.016 818.546 248.258C819.014 251.663 818.663 253.365 816.791 255.067C813.164 258.094 813.749 259.985 819.599 265.66C828.959 274.361 831.182 284.764 824.981 290.06C821.705 292.708 821.354 292.708 819.716 288.736C818.663 286.466 817.844 283.629 817.844 282.683C817.844 280.035 810.707 268.308 809.069 268.308C808.484 268.308 807.314 266.416 806.729 264.147C804.857 257.715 802.049 255.824 798.773 258.661C795.614 261.309 793.274 260.174 793.274 256.202C793.274 254.689 792.572 252.608 791.753 251.474C790.466 249.96 789.413 250.717 787.189 254.878C785.434 257.905 783.445 260.742 782.509 261.309C781.456 262.255 781.924 263.768 784.264 266.795C786.604 269.821 789.179 271.145 793.391 271.334C796.55 271.334 799.475 272.091 800.06 272.848C800.528 273.604 799.124 276.631 797.018 279.279C792.806 284.953 792.221 289.871 795.497 292.708C796.667 293.843 798.305 297.059 799.007 300.085C799.826 303.112 802.049 307.462 803.921 309.732C806.495 312.758 807.197 315.028 806.729 317.676C806.144 320.324 806.495 321.27 807.899 321.27C810.122 321.27 809.888 326.756 806.612 345.86C803.804 362.316 800.06 367.801 789.179 372.341C783.445 374.8 778.765 377.826 776.893 380.664L773.968 385.203L771.862 380.853C770.575 377.826 769.171 376.692 767.767 377.448C764.491 379.34 759.343 387.851 759.343 391.634C759.343 393.526 761.8 399.201 764.842 404.118C771.511 414.711 774.319 423.034 775.255 434.95C775.84 442.516 775.606 444.218 773.5 447.245C772.096 449.326 769.171 453.676 767.065 456.892C762.385 464.458 760.747 464.647 760.279 457.837C760.045 454.243 759.343 452.919 757.939 453.298C756.886 453.487 755.014 451.595 753.961 448.947C752.089 444.218 742.612 432.869 740.623 432.869C740.038 432.869 739.804 435.139 740.155 437.976C740.389 441.003 740.272 445.732 739.687 448.947C738.4 456.513 742.261 468.43 749.047 478.266C755.716 487.723 761.215 512.313 756.769 512.313C754.663 512.313 746.824 500.396 746.122 496.046C745.771 494.154 744.835 488.858 744.133 484.508C743.314 479.211 741.559 474.672 738.868 471.078L734.773 465.592L735.826 453.298C736.762 441.949 736.645 440.057 734.071 431.734C732.55 426.817 731.263 421.331 731.263 419.629C731.263 417.926 730.561 414.9 729.624 413.009C727.986 409.415 727.869 409.415 725.646 412.819C722.136 417.926 719.094 416.035 718.392 408.28C717.456 399.39 715.35 393.526 710.319 385.582C707.979 381.988 705.522 377.448 704.937 375.367C703.767 372.152 703.182 371.963 697.332 374.043C690.195 376.502 687.972 378.772 687.972 383.879C687.972 385.96 687.387 387.473 686.802 387.473C685.632 387.473 674.634 404.497 673.814 407.712C673.58 408.469 671.357 411.495 669.017 414.333C664.922 419.25 664.805 420.007 665.858 426.249C666.677 430.6 666.56 434.004 665.741 436.463C665.156 438.544 664.571 442.894 664.571 446.299C664.571 453.676 659.189 467.295 656.498 466.538C654.626 465.971 654.041 464.268 649.01 446.11C647.489 440.435 644.447 429.654 642.341 422.466C637.427 405.253 635.321 393.715 635.555 385.014C635.672 376.881 634.502 373.854 632.864 378.583C631.343 382.744 625.61 382.744 622.919 378.583C621.632 376.502 621.398 375.178 622.334 374.611C624.44 373.476 623.855 368.558 621.632 368.558C620.462 368.558 617.419 365.153 614.845 360.992L610.048 353.237L594.136 352.858L578.224 352.48L575.65 347.184C573.31 342.455 572.491 341.888 568.396 343.023C561.727 344.914 554.238 338.672 551.079 328.836C549.207 322.973 548.037 321.27 545.697 321.27C541.953 321.27 540.9 326.188 543.357 332.43C544.41 335.078 546.399 340.942 547.569 345.292C549.909 353.804 550.962 354.75 553.185 351.156C554.589 348.886 554.589 348.886 556.344 358.155C557.28 363.262 563.248 361.559 566.992 355.128C568.864 351.913 571.204 348.508 572.257 347.751C573.778 346.427 574.012 346.995 573.544 351.345C573.193 356.074 573.895 357.587 579.628 363.829C586.414 371.017 587.701 375.557 584.308 380.096C583.372 381.42 580.681 386.906 578.458 392.391C574.129 402.984 570.151 408.28 566.407 408.28C565.237 408.28 562.428 411.117 560.322 414.711C558.099 418.305 553.419 423.034 549.909 425.303C546.399 427.573 542.421 430.41 541.134 431.734C539.847 433.248 536.571 434.95 533.88 435.707C529.317 436.842 528.849 436.652 527.211 431.167C526.158 428.141 525.339 422.655 525.339 419.061C525.339 412.819 522.414 404.686 516.096 393.526C513.171 388.419 510.129 379.15 510.129 375.367C510.129 373.854 508.842 370.071 507.203 367.045C505.565 363.829 504.278 360.803 504.278 360.046C504.278 359.29 502.523 355.317 500.3 351.345C498.077 347.373 495.62 340.753 494.801 336.591C493.514 329.404 491.408 325.999 491.408 330.917C491.408 332.241 490.589 334.133 489.536 335.267C487.898 337.348 488.132 338.672 491.291 347.373C493.28 352.858 494.918 357.966 494.918 358.722C494.918 359.668 496.556 364.208 498.428 369.125C500.417 374.043 501.938 380.096 501.938 382.555C501.938 385.014 503.81 391.256 506.033 396.552C508.257 401.849 510.363 408.28 510.831 410.928C511.182 413.576 514.107 418.872 517.266 422.844C521.127 427.573 524.052 433.248 525.924 439.679C527.445 444.975 529.902 450.082 531.306 451.028C533.997 453.109 544.644 449.893 551.898 444.975C555.642 442.516 555.642 442.516 556.461 448.947C557.046 454.433 556.11 458.594 549.792 477.887C544.878 493.019 541.251 501.72 538.794 504.368C530.37 513.826 513.288 545.982 511.416 555.818C509.895 563.951 511.182 576.624 514.458 586.838C515.628 590.432 516.564 598.377 516.798 607.077C517.266 623.534 515.511 628.83 508.023 635.072C505.565 637.152 501.353 643.016 498.545 648.502C493.631 657.959 493.397 658.716 494.684 664.39C495.503 667.795 496.088 673.28 496.088 676.685C496.088 681.603 495.386 683.305 492.344 685.953C485.909 691.628 484.037 695.6 484.856 701.842C485.324 706.003 484.973 708.652 483.218 711.678C482.048 713.759 478.07 721.325 474.56 728.134C466.37 743.834 458.18 751.589 452.564 749.13C449.872 747.995 447.064 748.184 443.437 749.887C440.512 751.4 437.587 752.535 436.768 752.535C434.311 752.535 431.737 746.671 431.737 740.996C431.737 734.944 428.344 722.838 424.132 713.759C422.611 710.354 421.09 703.734 420.622 697.681C419.335 681.414 415.942 663.634 411.847 651.528C408.454 641.692 408.103 639.422 408.688 629.586C409.039 623.155 410.56 614.076 412.432 607.834C415.357 598.377 415.591 596.485 414.304 590.054C413.602 586.082 413.017 580.218 413.017 577.002C413.017 573.787 412.432 570.571 411.847 570.004C411.145 569.436 410.092 564.897 409.273 560.168C408.454 554.683 406.114 548.062 402.838 542.01C398.275 533.876 397.69 531.795 398.275 526.688C400.966 505.125 400.498 494.722 397.222 499.072C396.052 500.585 395.467 500.775 395.467 499.451C395.467 498.316 396.052 496.802 396.754 496.046C399.094 493.776 392.892 489.615 388.914 490.75C385.872 491.695 385.17 491.128 384.585 487.912C384.351 485.832 382.362 482.427 380.256 480.535C376.278 476.563 373.236 477.32 362.589 484.697C360.015 486.399 355.218 487.534 350.655 487.345C346.443 487.345 341.412 488.291 339.54 489.426C334.508 492.83 328.19 489.426 321.287 479.779C318.245 475.428 314.735 468.43 313.565 464.079C312.395 459.729 309.119 452.163 306.194 447.245C299.759 436.085 298.238 424.358 301.982 412.819C304.673 403.929 304.907 393.337 302.333 386.149C300.461 381.042 300.461 380.285 302.918 372.341C308.768 352.669 312.98 343.59 321.17 331.484C327.371 322.594 329.945 317.676 329.945 314.461C329.945 307.084 332.168 301.599 336.965 297.059C339.54 294.789 341.646 292.141 341.646 291.384C341.646 290.628 342.465 288.547 343.284 286.656C344.805 283.44 345.273 283.44 350.421 286.277C356.037 289.304 359.547 288.736 362.706 284.386C366.099 279.846 373.821 277.009 383.766 276.631C389.265 276.441 395.584 275.685 397.924 274.928C403.072 273.415 404.008 275.117 403.891 286.088C403.891 295.924 405.997 299.707 413.134 302.355C416.41 303.679 419.569 306.327 420.622 308.408C422.728 313.515 434.077 319.757 436.066 317.109C436.885 315.974 437.587 313.515 437.587 311.813C437.587 301.22 442.267 299.518 451.393 306.895C454.436 309.354 458.648 312.002 460.754 312.758C465.551 314.461 488.366 314.65 490.004 313.137C492.11 310.867 494.684 278.9 492.812 277.009C492.11 276.441 489.653 277.198 487.313 279.09C483.335 282.116 482.984 282.116 479.591 278.9C476.783 276.252 475.73 276.063 474.443 277.766C470.816 282.683 462.158 275.117 462.158 267.362C462.158 264.903 461.339 262.066 460.403 260.742C459.35 259.418 458.882 256.959 459.233 255.067C460.403 249.393 455.255 247.501 450.223 251.663C447.766 253.743 445.777 255.635 445.777 256.013C445.777 256.202 446.596 259.607 447.532 263.39C448.936 268.875 449.053 270.956 447.883 273.982C446.011 278.711 445.543 278.711 442.735 273.793C440.629 270.01 440.629 269.821 442.618 268.119C445.075 265.849 444.139 262.633 440.98 262.633C437.704 262.633 434.077 255.824 434.077 249.582C434.077 242.962 429.28 234.261 425.536 234.261C424.015 234.261 421.558 232.18 420.037 229.532C418.516 226.884 416.527 224.803 415.708 224.803C414.772 224.803 413.836 223.479 413.485 221.966C412.666 218.561 409.975 218.183 408.805 221.209C407.752 224.236 419.686 243.34 425.536 247.88C430.567 251.663 431.503 255.635 427.057 253.743C425.068 252.798 424.717 253.743 424.717 259.607C424.717 264.336 424.249 266.416 422.962 266.416C421.909 266.416 421.207 264.714 421.207 262.066C421.207 257.337 416.176 248.636 412.432 246.745C409.39 245.232 403.072 236.341 401.434 230.856C399.679 225.56 397.456 225.56 392.307 230.667C389.499 233.504 387.276 234.45 384.819 233.504C380.607 232.18 376.512 235.017 377.448 238.611C377.799 240.124 376.044 243.34 373.353 246.366C368.088 252.23 365.046 258.85 365.046 264.147C365.046 269.443 361.302 273.982 356.154 275.117C353.58 275.685 350.187 277.009 348.432 278.144C345.858 279.657 344.571 279.468 342.465 277.198C340.944 275.685 338.486 273.982 336.965 273.604C333.689 272.848 332.87 265.471 334.859 254.122C335.561 249.96 336.029 243.34 335.912 239.557C335.795 230.478 337.784 229.532 349.368 232.558C358.143 235.017 358.377 235.017 360.483 230.667C363.174 225.182 363.408 213.076 360.834 208.914C359.898 207.212 357.792 205.321 356.154 204.753C352.059 203.051 352.644 198.89 357.207 197.755C365.397 195.674 370.311 192.648 373.119 188.108C379.203 178.272 388.446 168.058 391.137 168.058C395.233 168.058 397.105 163.329 396.754 154.25C396.637 148.008 396.988 145.738 398.86 143.847C401.083 141.766 401.317 141.955 401.317 145.927C401.317 151.98 402.253 153.115 405.529 150.656C409.039 148.008 409.039 145.927 405.529 138.74C402.955 133.632 402.487 133.443 399.679 135.524C392.19 141.009 387.276 135.713 387.276 122.472C387.276 116.041 387.744 115.096 392.892 111.123C400.264 105.26 408.337 96.3696 408.337 93.9106C408.337 92.9649 410.794 88.2361 413.719 83.6965C425.536 65.1597 451.277 58.3503 462.743 71.0234C464.03 72.3475 466.838 73.4824 469.178 73.4824C475.145 73.6715 488.483 81.4267 488.483 84.8314C488.483 87.1013 486.962 87.6687 481.463 87.6687C477.602 87.6687 472.454 86.9121 470.114 85.9663C465.551 84.4531 463.562 87.2904 467.774 89.371C468.827 89.9385 470.582 92.9649 471.635 95.9913C472.922 99.3961 474.911 101.855 477.368 102.801C481.814 104.314 482.984 102.99 480.878 98.8286C479.474 96.1805 479.708 95.9913 483.452 97.1262C486.962 98.2612 487.664 97.8829 488.249 94.6673C488.6 92.0192 490.238 90.3168 493.163 89.371C496.907 88.2361 497.375 87.6687 496.79 83.6965C496.205 79.9135 496.439 79.1569 498.896 79.1569C500.417 79.1569 501.938 80.481 502.406 81.9941C503.225 85.7772 506.15 85.588 510.597 81.2375C515.277 76.5088 522.531 74.239 524.52 76.8871C525.924 78.7786 536.805 76.1305 541.836 72.7258C543.474 71.5908 553.419 74.0498 561.492 77.4545C564.886 78.9677 563.716 74.0498 559.971 71.2125C552.483 65.3489 553.419 54.5673 561.492 54.5673C565.003 54.5673 566.407 55.7021 568.396 60.2418C571.204 66.4838 573.31 67.6187 573.31 63.079C573.31 61.3767 574.48 60.2418 576.352 60.2418C579.745 60.2418 583.372 57.5937 586.882 52.2974C588.286 50.4059 591.445 48.3253 593.902 48.1361C596.476 47.7578 598.816 47.3795 599.167 47.1904C599.635 47.0012 600.22 45.488 600.454 43.5965C601.156 39.6243 614.494 34.7064 619.76 36.4088C622.217 37.3545 623.855 36.4088 626.546 32.8149C630.524 27.5187 634.502 26.9512 638.831 30.9234ZM481.229 92.7758C486.026 92.9649 486.026 92.9649 482.048 93.7215C479.825 94.289 477.602 95.613 477.134 96.7479C476.666 98.2612 475.847 98.072 474.56 96.3696C472.103 93.1541 472.103 89.7493 474.56 91.2626C475.613 91.83 478.538 92.5866 481.229 92.7758ZM359.196 141.577C359.196 142.523 360.132 143.468 361.185 143.468C362.706 143.468 362.823 144.036 361.77 145.738C359.781 148.954 360.015 152.358 362.472 153.304C363.642 153.872 365.748 158.222 367.152 163.14C369.024 169.193 370.428 171.841 372.066 171.841C374.757 171.841 375.225 174.678 372.651 176.381C371.715 176.948 370.896 178.65 370.896 179.974C370.896 181.866 368.088 183.379 362.121 185.081C353.697 187.351 348.549 186.595 354.984 183.947C358.611 182.622 358.962 180.164 355.803 178.839C352.761 177.515 353.931 170.328 357.558 168.058C360.717 165.977 360.132 158.6 356.856 158.6C354.282 158.6 352.878 148.575 354.516 143.279C355.803 139.496 359.196 138.361 359.196 141.577ZM351.006 160.303C351.006 162.383 350.538 164.653 349.836 165.221C349.251 165.788 348.666 168.247 348.666 170.517C348.666 173.543 347.613 175.246 344.922 176.759C337.316 180.92 337.55 181.109 337.901 171.841C338.252 161.816 341.412 156.898 347.262 156.709C350.187 156.709 351.006 157.465 351.006 160.303ZM356.622 163.897C356.856 165.221 356.271 166.166 355.335 166.166C354.399 166.166 353.346 168.058 352.995 170.328C352.527 172.598 351.942 173.922 351.474 173.354C351.123 172.598 351.474 169.382 352.293 166.356C353.931 160.492 355.686 159.546 356.622 163.897ZM832.703 174.111C833.522 176.759 836.915 181.677 840.074 185.081C845.691 190.945 847.212 194.917 844.755 197.376C844.052 198.133 844.989 201.348 847.212 205.51C849.435 209.671 850.371 212.698 849.552 213.076C846.861 214.589 844.638 211.373 842.18 202.862C840.893 197.944 837.149 189.432 833.756 183.947C827.321 173.165 825.566 167.301 829.193 168.436C830.363 168.815 832.001 171.273 832.703 174.111ZM855.987 225.749C859.029 228.397 862.188 230.478 863.007 230.478C865.581 230.478 866.166 234.45 863.943 237.287C862.656 238.8 860.199 239.746 858.327 239.368C855.753 238.8 854.817 239.557 854.349 242.394C853.764 245.988 853.647 245.988 851.775 241.638C850.137 238.233 849.903 236.341 850.956 232.937C851.892 229.721 851.775 227.83 850.839 226.316C849.435 224.047 848.967 221.02 849.903 221.02C850.254 221.02 852.945 223.101 855.987 225.749ZM398.977 232.369C398.977 233.315 398.158 234.261 397.222 234.261C396.052 234.261 395.467 236.152 395.467 239.746C395.467 242.962 394.998 245.988 394.296 246.556C392.775 248.069 392.775 256.202 394.296 260.931C394.998 263.012 396.754 264.525 398.392 264.525C401.2 264.525 401.317 263.957 401.317 252.23V240.124L405.412 244.286C415.474 254.311 416.995 256.202 418.633 260.174C420.271 264.525 420.271 264.525 415.591 264.525C407.869 264.525 406.114 273.226 413.134 276.82C415.006 277.766 415.24 278.711 414.187 280.603C412.666 283.629 413.602 287.223 415.942 287.223C417.58 287.223 421.207 277.198 421.207 272.848C421.207 271.523 422.377 270.199 423.898 269.821C425.887 269.443 426.589 267.74 426.823 263.012C427.057 258.661 427.759 256.959 429.397 256.959C431.854 256.959 438.757 266.795 438.757 270.389C438.757 273.982 443.554 281.549 445.894 281.549C448.936 281.549 450.808 274.55 450.223 265.471C449.755 259.229 450.106 257.148 451.745 255.446C455.021 252.041 456.308 252.798 456.308 257.715C456.308 260.174 457.127 263.201 458.063 264.525C458.999 265.849 459.818 268.497 459.818 270.389C459.818 272.28 460.403 274.361 460.988 274.928C461.69 275.496 462.158 278.144 462.158 280.792C462.158 284.007 462.743 285.332 464.381 285.332C465.668 285.332 467.072 284.386 467.423 283.44C468.242 281.359 476.081 280.792 478.889 282.683C479.942 283.251 480.293 285.332 480.059 288.169C479.591 291.384 480.176 292.898 482.048 293.843C485.207 295.546 489.887 290.628 490.589 284.953C490.94 281.738 491.174 282.305 491.291 286.845C491.408 293.843 489.185 309.921 488.015 310.11C487.664 310.11 483.101 310.489 477.953 310.867C467.306 311.434 460.052 309.354 453.734 304.057C450.574 301.409 447.532 300.464 443.203 300.842C437.353 301.409 437.002 301.788 436.417 307.084C435.832 312.191 435.364 312.758 431.386 312.569C428.11 312.38 425.887 310.678 423.196 306.516C420.973 303.301 417.58 300.464 414.772 299.518C408.688 297.815 405.997 293.843 405.997 286.088C405.997 282.683 405.412 277.576 404.827 274.928C403.657 270.199 403.306 269.821 398.626 270.956C395.935 271.713 387.978 272.848 380.841 273.604C369.843 274.739 367.152 275.685 362.004 280.414C355.92 285.71 352.176 286.277 351.24 281.927C351.006 280.414 352.059 279.657 354.75 279.657C358.845 279.657 365.982 273.793 366.801 269.632C367.035 268.497 367.503 265.092 367.854 262.255C368.322 259.229 370.545 254.878 373.821 251.095C376.746 247.69 379.437 242.962 379.788 240.503C380.373 236.72 381.192 236.152 385.989 236.152C388.914 236.152 392.658 234.828 394.296 233.504C397.924 230.289 398.977 229.91 398.977 232.369ZM424.834 238.044C426.94 238.044 432.205 245.421 431.269 247.123C430.45 248.258 424.249 242.394 420.037 236.152C417.112 231.802 416.878 231.234 419.335 234.072C421.207 236.341 423.664 238.044 424.834 238.044ZM400.147 241.07C400.147 242.583 399.328 243.718 398.392 243.718C396.637 243.718 395.935 239.746 397.339 237.476C398.509 235.774 400.147 237.855 400.147 241.07ZM399.562 254.122C399.562 257.148 398.977 259.796 398.158 260.174C396.52 261.12 394.882 252.608 396.052 249.393C397.456 245.799 399.562 248.636 399.562 254.122ZM860.082 249.393C862.656 251.663 866.166 261.877 865.23 264.525C864.879 265.471 865.23 270.199 866.049 274.928C867.453 283.062 867.336 284.007 865.23 286.466C864.06 287.98 861.486 289.115 859.731 289.115C857.157 289.115 856.104 290.249 855.168 294.222L853.998 299.518L851.775 294.789C849.669 290.249 849.435 290.249 844.169 292.519C841.127 293.843 838.202 294.411 837.617 293.654C835.745 291.952 841.361 283.251 844.169 283.629C848.499 284.197 849.435 283.44 854.115 276.631C859.263 269.065 859.614 266.416 857.04 258.094C855.402 252.987 855.402 247.501 857.04 247.501C857.508 247.501 858.795 248.447 860.082 249.393ZM420.037 270.956C420.037 275.496 417.931 276.252 414.187 273.037C412.315 271.523 410.677 269.632 410.677 269.254C410.677 268.686 412.783 268.308 415.357 268.308C418.633 268.308 420.037 269.065 420.037 270.956ZM487.898 285.332C487.898 287.601 483.218 291.763 482.282 290.249C481.931 289.493 482.633 287.79 483.92 286.277C486.494 283.062 487.898 282.683 487.898 285.332ZM848.265 297.626C848.265 300.653 845.106 303.679 843.935 301.788C843.584 301.031 843.584 299.329 843.935 297.626C844.872 293.843 848.265 293.843 848.265 297.626ZM839.255 299.329C841.127 301.788 842.063 309.921 840.542 312.38C839.489 314.082 833.99 300.653 834.809 298.383C835.745 296.113 836.681 296.302 839.255 299.329ZM549.441 332.052C552.015 339.807 559.386 347.562 564.418 347.751H567.811L565.12 352.48C561.727 358.344 558.099 358.722 558.099 353.426C558.099 351.345 557.163 348.886 556.11 348.319C553.653 346.806 550.026 340.942 546.75 332.998C543.591 325.81 543.474 325.053 545.58 325.053C546.516 325.053 548.154 328.08 549.441 332.052ZM505.097 368.18C506.384 371.017 508.14 376.881 508.842 381.042C509.544 385.392 511.182 390.31 512.586 392.391C513.99 394.283 515.862 398.444 516.798 401.659C517.851 404.686 519.489 409.036 520.659 411.117C521.712 413.198 522.999 417.359 523.467 420.196C524.169 424.925 524.052 425.303 522.18 423.601C518.67 420.575 512.469 409.982 512.469 406.956C512.469 405.442 510.597 400.335 508.374 395.607C505.916 390.31 504.278 384.825 504.278 381.609C504.278 378.583 502.406 371.584 500.183 365.91C492.929 347.373 495.854 348.886 505.097 368.18ZM778.063 390.689C777.946 394.093 773.617 401.092 772.33 399.957C770.926 398.444 770.575 392.58 771.862 390.689C772.915 388.986 778.063 388.986 778.063 390.689ZM670.772 464.268C671.942 466.727 672.995 471.267 673.112 474.104C673.346 478.455 672.878 479.401 670.187 479.779C666.911 480.346 666.911 480.157 666.911 469.943C666.911 464.079 667.262 459.351 667.847 459.351C668.315 459.351 669.602 461.62 670.772 464.268ZM736.762 492.074C738.868 494.343 740.974 497.748 741.325 499.451C741.676 501.342 743.665 504.558 745.654 506.827C751.387 513.259 755.833 520.257 755.833 523.094C755.833 525.364 757.237 528.391 762.853 537.848C766.48 544.09 767.065 552.791 764.14 557.52C762.034 560.925 761.215 561.114 759.226 559.411C755.599 556.385 750.1 546.171 748.111 539.172C745.771 530.66 736.528 509.097 731.848 500.964C729.741 497.37 727.401 492.263 726.582 489.804C725.178 485.453 725.178 485.264 729.039 486.588C731.146 487.156 734.656 489.615 736.762 492.074ZM774.904 565.843C777.01 567.167 780.871 567.923 783.679 567.545C786.838 566.977 789.296 567.734 790.583 569.247C791.636 570.76 794.093 572.652 795.965 573.787C800.528 576.246 801.932 581.542 797.72 579.84C793.274 577.948 779.233 574.544 773.968 573.976C766.714 573.219 761.332 567.356 765.544 564.708C768.118 563.005 771.043 563.384 774.904 565.843Z" fill="white" fill-opacity="0.1"/>
<path d="M574.481 71.2133C576.587 72.9157 577.289 80.1034 575.651 85.0214C574.598 88.0478 574.832 88.6152 576.587 88.6152C581.735 88.6152 583.256 77.6445 578.927 72.7265C577.523 71.0242 575.534 69.7001 574.481 69.8893C572.96 69.8893 572.96 70.0784 574.481 71.2133Z" fill="white" fill-opacity="0.1"/>
<path d="M434.428 97.3174C431.971 101.479 428.578 106.397 426.823 108.099C421.909 113.017 421.441 118.691 425.419 123.988L428.812 128.527L425.185 133.634C423.079 136.472 421.207 140.822 420.856 143.47C420.037 148.766 413.835 155.765 411.144 154.063C410.208 153.495 409.155 154.252 408.804 155.765C408.336 157.278 407.049 158.602 405.762 158.602C404.475 158.602 403.656 159.548 404.007 160.872C404.241 162.196 405.294 162.953 406.113 162.574C407.049 162.385 408.804 162.007 410.091 162.196C420.973 163.142 432.439 160.683 434.545 156.9C435.481 155.198 436.417 151.225 436.651 148.199C436.885 143.47 437.47 142.524 439.927 142.903C445.192 143.47 446.362 141.957 444.022 137.796C441.214 132.689 442.852 129.851 448.585 130.419C453.616 130.986 458.647 129.095 458.647 126.447C458.647 123.799 452.914 123.042 448.117 125.123C444.373 126.825 442.735 126.636 439.342 123.988C434.077 120.016 433.96 114.719 438.874 103.749C442.15 96.5608 442.267 95.4259 440.629 92.7777C438.991 90.1296 438.406 90.5079 434.428 97.3174ZM433.96 107.91C433.843 109.234 433.843 113.584 433.96 117.557C434.077 123.231 434.662 125.123 437.002 126.825C439.576 128.716 439.693 129.284 438.172 130.608C437.236 131.554 436.417 134.013 436.417 135.904C436.417 137.796 435.949 140.066 435.247 140.633C434.662 141.2 434.077 144.227 434.077 147.064C434.077 154.063 432.088 156.711 426.823 156.711C424.483 156.711 421.207 157.657 419.569 158.791C417.58 160.305 415.825 160.305 413.367 158.981L410.091 157.089L413.367 156.9C417.931 156.711 422.143 151.604 422.962 145.362C423.313 142.335 424.951 138.552 426.589 137.039C429.865 133.445 430.45 124.555 427.642 120.772C424.951 117.178 425.536 113.963 429.748 109.801C434.428 105.073 434.194 105.073 433.96 107.91Z" fill="white" fill-opacity="0.1"/>
<path d="M489.771 211.376C485.208 214.592 485.091 214.592 487.665 217.618L490.239 220.456L487.197 222.726C483.335 225.563 479.708 223.671 479.708 219.132C479.708 214.214 475.73 210.809 472.805 213.268C469.412 216.294 463.328 232.372 463.328 238.236C463.328 247.315 471.986 250.909 477.953 244.478C481.346 240.884 488.952 242.019 495.153 247.126C500.418 251.287 506.502 251.098 508.491 246.559C511.182 240.695 510.012 237.858 502.524 230.481C495.621 223.671 495.504 223.482 495.855 215.727C496.323 206.837 496.206 206.837 489.771 211.376ZM477.602 221.591C478.187 227.833 483.452 230.102 488.484 226.13C490.707 224.428 492.579 223.671 492.579 224.617C492.579 225.563 495.972 229.535 500.184 233.318C504.396 237.101 507.789 240.884 507.789 241.641C507.789 242.586 506.97 244.289 506.034 245.613C504.162 248.072 501.705 247.504 494.334 242.965C489.069 239.749 476.666 238.993 475.613 241.83C474.677 244.1 469.178 244.289 466.955 242.019C464.732 239.749 465.902 233.129 470.348 223.482C474.209 215.16 476.9 214.403 477.602 221.591Z" fill="white" fill-opacity="0.1"/>
<path d="M535.286 214.023C528.383 221.589 526.745 225.183 528.617 228.777C538.679 248.07 538.562 247.881 538.679 261.689C538.796 268.877 539.03 269.444 545.465 274.929C552.017 280.415 552.134 280.415 554.474 277.01C557.75 272.281 557.516 268.12 553.889 259.419C551.783 254.312 551.315 252.042 552.485 251.664C557.282 249.583 557.282 249.394 555.176 245.611C554.006 243.53 552.368 241.828 551.432 241.828C549.092 241.828 541.838 233.694 541.136 230.29C540.083 225.183 541.721 221.211 544.997 220.643C549.209 219.886 548.975 215.347 544.529 211.186L540.902 207.781L535.286 214.023ZM543.476 215.347C543.827 216.293 543.359 217.238 542.306 217.238C539.966 217.238 537.743 225.183 538.562 230.857C539.381 235.586 547.688 245.611 550.847 245.611C552.251 245.611 552.368 246.178 551.315 247.881C549.209 251.286 549.677 257.717 552.368 263.391C557.165 273.227 552.368 277.388 544.646 270.011C541.487 266.796 540.668 265.094 541.253 262.256C542.54 255.447 540.551 245.989 535.871 236.721C533.297 231.803 531.191 226.696 531.191 225.561C531.191 223.102 539.264 213.455 541.37 213.455C542.072 213.455 543.125 214.212 543.476 215.347Z" fill="white" fill-opacity="0.1"/>
<path d="M376.749 252.608C371.951 254.121 368.09 262.633 370.898 265.47C371.951 266.605 373.004 266.038 379.674 260.174C385.641 255.067 383.886 250.528 376.749 252.608ZM377.919 257.904C377.919 259.418 377.1 260.742 376.163 260.742C374.291 260.742 373.823 258.472 375.227 256.391C376.515 254.121 377.919 254.878 377.919 257.904Z" fill="white" fill-opacity="0.1"/>
<path d="M447.298 284.576C446.245 289.305 450.106 292.898 455.956 292.898C461.455 292.898 463.561 289.305 460.987 284.387C458.881 280.225 448.234 280.604 447.298 284.576ZM459.232 287.224C460.168 289.683 452.797 289.683 450.457 287.224C449.17 285.9 449.989 285.332 453.616 285.332C456.307 285.332 458.881 286.089 459.232 287.224Z" fill="white" fill-opacity="0.1"/>
<path d="M304.775 88.6126C300.756 89.1801 296.178 90.6933 294.504 92.0174C289.927 95.2329 288.922 105.636 293.164 105.636C294.057 105.636 295.732 106.582 296.848 107.906C299.639 110.743 313.148 107.149 316.05 102.61C319.734 97.1244 318.06 86.3428 313.817 87.0994C312.813 87.0994 308.794 87.856 304.775 88.6126ZM316.05 93.5306C317.836 97.3136 316.05 99.3943 307.007 104.123C301.872 106.96 300.532 106.96 298.635 104.88C297.295 103.366 295.397 102.042 294.392 101.664C292.606 100.907 292.606 100.529 293.946 97.5027C294.95 94.8546 297.295 93.7197 301.984 93.1523C305.556 92.774 308.682 92.0174 309.017 91.4499C310.245 89.3693 314.599 90.6933 316.05 93.5306Z" fill="white" fill-opacity="0.1"/>
<path d="M66.4221 200.401C61.3983 202.482 55.928 208.724 57.2677 210.804C57.7142 211.561 59.8354 211.183 61.9565 209.859C64.7475 208.156 66.4221 208.156 67.9851 209.48C69.2131 210.615 71.4459 211.561 73.1205 211.561C74.7951 211.561 75.7998 212.318 75.3533 213.453C75.0183 214.398 73.7903 215.344 72.6739 215.344C71.5575 215.344 69.3247 217.046 67.6501 219.316C64.0777 224.045 58.719 239.177 59.7237 241.825C60.9518 245.23 63.966 240.69 66.9803 231.044C69.3247 223.667 70.5528 221.586 74.0136 220.262C78.9257 218.181 79.9305 219.316 77.921 224.612C76.0231 229.909 78.0326 233.692 81.3818 230.665C82.7215 229.341 83.7262 227.639 83.7262 226.693C83.7262 225.558 84.731 224.802 85.8474 224.802C91.8759 224.802 88.4151 214.777 82.3865 214.587C79.2606 214.398 78.7024 213.642 78.1442 208.535C76.8046 197.564 75.6882 196.807 66.4221 200.401ZM75.3533 204.184C76.5813 207.4 75.2416 208.156 70.2178 206.832C66.9803 205.886 65.9755 204.941 67.0919 203.806C69.2131 201.536 74.4601 201.725 75.3533 204.184ZM84.8426 220.451C83.9495 221.019 82.4982 222.343 81.8283 223.478C80.8236 224.802 80.377 224.423 80.377 222.153C80.377 220.073 81.2701 219.127 83.5029 219.316C85.1775 219.316 85.8474 219.884 84.8426 220.451Z" fill="white" fill-opacity="0.1"/>
<path d="M94.0021 228.776C92.5508 229.722 91.7694 231.235 92.1043 232.37C92.9974 234.829 94.1138 234.829 96.5699 231.802C99.1376 228.587 97.463 226.506 94.0021 228.776Z" fill="white" fill-opacity="0.1"/>
<path d="M78.8173 239.179C76.6961 241.259 76.0263 242.773 76.8078 244.097C78.1475 246.367 85.1807 240.692 84.2876 238.044C83.3945 235.585 82.613 235.774 78.8173 239.179Z" fill="white" fill-opacity="0.1"/>
<path d="M772.767 353.807C771.092 356.644 770.981 370.831 772.767 373.857C776.674 380.477 780.805 372.344 780.135 359.293C779.912 353.618 779.354 352.483 777.009 351.916C775.446 351.537 773.548 352.483 772.767 353.807ZM778.461 357.968C778.795 359.482 778.572 363.832 778.014 367.615C776.898 374.425 776.786 374.425 774.665 371.209C772.209 367.426 771.985 364.4 773.883 359.103C775.558 354.753 777.679 354.185 778.461 357.968Z" fill="white" fill-opacity="0.1"/>
<path d="M78.9338 354.559C78.4873 355.316 78.1523 358.721 78.1523 362.315C78.1523 367.233 78.5989 368.557 80.2735 368.557C83.1761 368.557 83.846 366.476 82.8412 360.045C81.9481 354.559 80.2735 352.29 78.9338 354.559Z" fill="white" fill-opacity="0.1"/>
<path d="M47.0025 367.99C41.8671 374.989 46.1094 380.664 53.031 376.124C56.4918 373.854 60.2876 376.691 65.0881 384.825C67.8791 389.554 68.9955 390.121 75.9171 390.121C81.3874 390.31 83.7319 391.067 83.7319 392.58C83.7319 394.093 82.2805 395.039 80.3827 395.039C77.0335 395.039 76.3637 396.174 77.9266 399.957C79.2663 403.551 91.5466 404.686 98.0217 401.848C102.599 399.768 103.827 399.579 103.827 401.659C103.827 404.497 112.87 406.956 114.321 404.497C114.991 403.362 114.321 400.714 112.646 397.687C110.749 394.282 109.186 393.148 106.953 393.526C104.943 394.093 103.157 393.148 101.929 390.878C100.478 388.23 98.4683 387.473 92.4397 387.473C84.4017 387.473 81.9456 384.825 84.8482 378.961C85.6297 377.448 85.9646 374.8 85.5181 373.287C84.7366 369.504 79.2663 369.504 79.2663 373.287C79.2663 377.259 78.1499 376.881 73.1261 371.017C69.3304 366.666 67.2092 365.721 59.1712 365.153C51.0215 364.397 49.3469 364.964 47.0025 367.99ZM71.2282 374.043C73.1261 376.313 76.4753 379.34 78.5964 380.853C84.625 385.203 83.5086 387.473 75.3589 387.473C70.1118 387.473 68.1023 386.716 68.1023 385.014C68.1023 378.772 56.0453 369.125 52.4728 372.341C51.3564 373.476 49.5702 374.232 48.4538 374.232C45.7745 374.232 48.5654 368.936 51.6913 368.18C57.2733 366.856 67.9907 370.071 71.2282 374.043ZM100.143 393.715C101.706 396.363 101.483 396.741 97.5751 398.633C92.8863 400.714 84.625 400.903 80.9409 399.2C79.1546 398.255 79.6012 397.876 82.6155 396.931C85.6297 396.174 86.4112 395.228 86.1879 392.391C85.853 389.175 86.4112 388.986 92.1048 389.743C95.6773 390.31 99.1381 391.823 100.143 393.715ZM110.525 398.822C110.525 399.768 109.297 400.714 107.734 400.714C106.171 400.714 104.943 399.768 104.943 398.822C104.943 397.687 106.171 396.931 107.734 396.931C109.297 396.931 110.525 397.687 110.525 398.822Z" fill="white" fill-opacity="0.1"/>
<path d="M64.4185 397.498C63.3021 402.227 65.4232 404.686 69.8888 404.119C73.3496 403.74 74.2427 402.795 74.2427 399.768C74.2427 396.742 73.3496 395.796 69.6655 395.418C66.5396 395.04 64.865 395.607 64.4185 397.498ZM72.01 398.823C72.4565 399.957 71.2285 400.714 69.3306 400.714C67.4327 400.714 65.8698 399.768 65.8698 398.823C65.8698 397.688 67.0978 396.931 68.5491 396.931C70.1121 396.931 71.675 397.688 72.01 398.823Z" fill="white" fill-opacity="0.1"/>
<path d="M777.681 397.309C777.458 398.633 776.788 402.794 776.007 406.577C774.22 416.035 774.444 420.385 777.011 425.871C778.239 428.519 779.244 432.869 779.244 435.517C779.244 438.355 780.137 441.381 781.477 442.705C782.705 444.029 783.71 447.056 783.71 449.325C783.71 451.974 784.38 453.676 785.384 453.676C786.389 453.676 787.171 455.567 787.171 458.783C787.282 461.809 787.394 466.16 787.506 468.808C787.617 472.213 788.287 473.726 790.297 474.104C791.971 474.672 793.311 476.752 794.204 480.346C795.99 488.669 799.786 489.425 803.917 482.805C806.931 478.076 807.266 476.374 806.708 470.132C805.814 461.62 803.247 454.243 800.679 453.108C799.004 452.352 799.004 452.163 800.791 451.974C805.256 451.406 801.46 436.652 796.772 436.652C795.432 436.652 794.874 434.95 794.874 430.978C794.874 426.249 794.427 425.303 792.306 425.303C788.51 425.303 787.059 421.709 787.059 412.063C787.059 407.334 786.278 401.47 785.273 399.2C783.487 394.661 778.351 393.526 777.681 397.309ZM784.268 404.497C785.608 408.847 785.719 410.928 784.603 414.711C783.598 418.872 783.71 420.196 785.273 423.223C786.389 425.303 788.622 427.195 790.185 427.573C794.092 428.33 795.209 435.139 791.301 434.572C786.612 433.815 784.826 434.761 784.826 437.787C784.826 439.49 784.156 440.435 783.487 439.868C782.705 439.49 782.035 437.031 782.035 434.572C782.035 432.113 780.919 427.384 779.468 424.357C777.57 420.385 777.011 417.359 777.57 413.954C777.905 411.306 778.574 406.956 778.909 403.929C779.691 397.309 782.147 397.309 784.268 404.497ZM800.121 444.029C801.237 447.056 801.126 447.812 799.339 448.569C798 449.136 796.995 448.001 796.102 444.975C795.097 441.192 795.209 440.435 796.883 440.435C797.888 440.435 799.451 442.138 800.121 444.029ZM789.292 448.001C787.952 452.163 785.943 451.406 785.943 446.866C785.943 445.353 786.947 444.218 788.175 444.218C790.185 444.218 790.297 444.786 789.292 448.001ZM797.107 454.054C797.107 455 796.66 455.567 795.99 455.567C795.432 455.567 794.874 453.676 794.874 451.217C794.874 447.812 795.097 447.623 795.99 449.893C796.548 451.406 797.107 453.298 797.107 454.054ZM792.418 456.891C791.859 461.62 789.292 462.188 789.292 457.648C789.292 455.378 789.962 453.676 791.078 453.676C792.083 453.676 792.641 455 792.418 456.891ZM803.358 465.971L805.368 476.374L802.689 480.157C799.116 485.453 797.776 484.886 795.655 477.509C794.316 472.402 793.422 471.267 791.636 472.024C790.297 472.591 789.292 472.213 789.292 470.889C789.292 468.619 790.073 468.051 795.209 466.16C796.995 465.403 798.781 462.944 799.563 460.296C800.232 457.648 801.014 455.567 801.126 455.567C801.349 455.567 802.354 460.296 803.358 465.971Z" fill="white" fill-opacity="0.1"/>
<path d="M256.101 405.443C255.208 409.226 256.547 412.063 259.115 412.063C260.678 412.063 261.459 413.765 262.018 417.927C262.576 423.034 263.022 423.601 266.148 423.034C269.274 422.466 269.609 421.899 269.609 415.846C269.609 410.171 269.274 409.226 267.153 409.604C265.59 409.982 264.027 408.658 263.246 406.388C261.571 402.038 256.994 401.281 256.101 405.443Z" fill="white" fill-opacity="0.1"/>
<path d="M133.299 431.927C132.852 433.629 133.075 435.899 133.745 437.034C135.42 439.871 138.657 437.223 138.211 433.44C137.764 429.09 134.192 427.955 133.299 431.927Z" fill="white" fill-opacity="0.1"/>
<path d="M772.1 452.353C768.863 459.541 768.304 465.972 770.872 467.675C775.114 470.323 780.25 461.811 780.361 452.164C780.361 447.057 780.027 446.111 777.682 446.111C775.784 446.111 773.886 448.381 772.1 452.353ZM779.245 452.353C779.245 455.191 773.998 465.026 772.547 465.026C770.649 465.026 771.319 460.865 774.333 454.245C777.012 448.192 779.245 447.435 779.245 452.353Z" fill="white" fill-opacity="0.1"/>
<path d="M830.598 471.648C830.598 475.053 831.156 476.377 832.83 476.377C834.505 476.377 835.063 475.053 835.063 471.648C835.063 468.243 834.505 466.919 832.83 466.919C831.156 466.919 830.598 468.243 830.598 471.648Z" fill="white" fill-opacity="0.1"/>
<path d="M765.287 479.401C764.282 482.049 761.714 485.453 759.705 486.967C757.695 488.291 755.686 491.128 755.351 493.02C754.569 496.803 746.531 506.638 744.187 506.638C742.066 506.638 740.168 510.8 740.168 515.528C740.168 523.473 743.852 542.766 745.75 544.469C746.755 545.414 752.002 547.117 757.36 548.252C768.748 550.9 768.413 551.089 772.543 535.011C773.995 529.337 776.116 522.905 777.232 520.825C779.242 517.231 779.242 517.231 779.242 521.581C779.242 524.04 778.125 529.904 776.786 534.444C774.665 541.631 774.553 543.523 775.669 548.819C776.451 552.413 777.009 556.574 777.009 558.277C777.009 560.736 778.014 561.492 780.916 561.492C784.042 561.492 784.824 560.736 784.824 557.898C784.824 554.683 785.382 554.304 788.843 555.25L792.973 556.385L792.415 545.793C792.08 538.037 792.304 534.822 793.42 534.254C794.201 533.687 794.871 531.606 794.871 529.526C794.871 527.445 795.876 525.553 797.439 524.797C800.565 523.473 803.244 515.718 802.239 511.367C801.681 508.719 800.788 508.341 797.886 509.476C795.988 510.232 791.857 510.611 788.843 510.421C785.159 510.421 782.703 511.367 781.363 513.448C779.912 515.718 779.242 515.907 779.242 514.394C779.242 513.07 778.237 509.476 776.897 506.449L774.665 500.964L776.897 496.046C780.023 489.236 779.8 485.643 776.116 479.59C772.097 472.97 767.855 472.97 765.287 479.401ZM774.665 482.805L777.232 487.534L774.888 493.965C772.543 500.396 772.543 500.396 774.776 507.584C776.897 514.772 776.897 514.772 774.776 517.42C773.548 518.933 772.543 521.392 772.543 522.905C772.543 526.31 768.413 540.496 766.18 544.847C764.952 547.117 763.836 547.684 762.607 546.549C761.603 545.604 757.919 544.279 754.346 543.712C750.885 542.955 747.313 541.064 746.42 539.551C744.522 536.335 741.954 517.042 742.847 512.88C743.294 511.178 744.41 510.421 745.75 510.989C747.201 511.556 748.429 510.8 749.099 508.341C749.769 506.449 751.778 503.423 753.565 501.91C755.351 500.396 757.026 497.37 757.472 495.289C757.919 493.209 759.928 490.182 761.938 488.858C763.947 487.345 766.18 484.319 766.961 482.238C768.524 476.942 771.539 477.131 774.665 482.805ZM800.453 513.826C800.453 514.772 799.449 517.042 798.22 518.933C796.211 522.149 795.429 522.149 791.969 520.068C788.619 517.987 787.615 518.177 785.27 520.825C782.926 523.473 782.703 524.419 783.819 526.688C784.824 528.769 786.387 529.337 788.954 528.391C792.639 527.256 794.09 529.904 790.964 531.985C789.624 532.741 789.401 535.011 789.959 543.523C790.629 552.602 790.517 553.926 788.954 552.98C788.061 552.224 786.945 549.576 786.61 547.117C785.605 540.307 783.261 542.577 782.591 551.089C782.033 558.655 779.242 562.816 779.242 556.007C779.242 553.926 778.684 550.143 778.014 547.495C776.897 543.712 777.009 541.82 778.572 538.037C779.577 535.389 780.358 530.85 780.358 528.012C780.358 524.986 781.14 520.636 782.144 518.177C783.819 514.394 784.712 513.826 789.401 514.583C792.304 515.15 795.429 514.772 796.211 514.015C798.109 511.935 800.453 511.935 800.453 513.826ZM790.406 523.662C791.745 525.175 791.41 525.553 788.954 525.553C787.168 525.553 786.052 524.797 786.498 523.662C787.391 521.392 788.285 521.392 790.406 523.662Z" fill="white" fill-opacity="0.1"/>
<path d="M607.434 484.695C604.308 490.369 604.755 496.044 608.327 496.8C611.565 497.557 613.016 494.152 612.123 487.721C611.118 480.344 610.225 479.777 607.434 484.695ZM610.672 488.667C610.672 491.693 610.002 493.396 608.997 493.396C606.988 493.396 606.876 490.369 608.774 486.775C610.56 483.181 610.672 483.181 610.672 488.667Z" fill="white" fill-opacity="0.1"/>
<path d="M808.493 505.126C806.372 508.72 806.707 525.365 808.939 526.878C812.512 529.148 814.41 524.798 814.41 514.016C814.41 505.315 814.075 503.802 812.177 503.234C810.949 503.045 809.274 503.802 808.493 505.126ZM812.958 509.098C812.289 510.422 811.842 514.016 811.954 517.232C812.065 521.015 811.619 522.717 810.502 522.717C809.274 522.717 808.939 521.015 809.163 517.042C809.609 508.72 810.279 506.639 812.289 506.639C813.628 506.639 813.852 507.207 812.958 509.098Z" fill="white" fill-opacity="0.1"/>
<path d="M372.876 508.721C372.876 509.856 372.094 511.937 371.201 513.639C369.192 516.854 369.973 519.881 372.653 519.881C374.662 519.881 377.676 510.991 376.672 508.343C375.89 505.884 372.876 506.262 372.876 508.721Z" fill="white" fill-opacity="0.1"/>
<path d="M159.305 525.176C156.738 529.905 156.961 530.851 160.198 529.716C161.985 529.148 162.989 527.635 162.989 525.365C162.989 520.826 161.65 520.826 159.305 525.176Z" fill="white" fill-opacity="0.1"/>
<path d="M822.002 524.989C819.434 526.691 820.327 534.257 823.342 536.527C825.463 538.229 826.133 540.121 826.133 544.471C826.133 548.822 826.579 550.146 828.365 550.146C831.268 550.146 846.228 562.819 846.228 565.278C846.228 566.413 845.669 568.872 844.888 570.763C843.102 575.87 844.553 580.41 848.014 580.41C849.689 580.41 851.921 581.734 852.926 583.247C853.931 584.76 857.057 586.652 859.848 587.219C864.537 588.354 865.095 587.976 866.881 583.436C869.449 576.816 870.788 577.194 875.366 585.895C879.161 592.894 890.102 601.406 891.777 598.379C892.781 596.677 889.655 593.65 886.976 593.65C884.185 593.65 880.054 588.922 876.482 581.923C875.031 578.897 872.798 575.681 871.57 574.357C869.56 572.655 868.779 573.222 866.211 578.329C863.532 583.815 862.862 584.382 859.29 583.247C857.057 582.49 854.712 580.788 853.931 579.275C853.261 577.762 851.251 576.627 849.465 576.627C845.893 576.627 845.335 574.546 847.791 570.952C850.693 566.98 847.567 559.792 840.422 553.739C836.962 550.713 833.166 548.254 832.049 548.254C830.933 548.254 829.258 547.308 828.365 546.363C827.026 544.849 826.914 543.904 828.03 540.877C829.258 537.473 829.147 536.716 826.133 534.068C822.002 530.474 822.783 527.448 827.807 527.448C830.71 527.448 831.715 528.393 832.273 531.609C832.719 534.068 833.724 537.851 834.617 540.121L836.18 544.471L840.869 538.797C846.116 532.365 847.679 531.987 852.368 536.148C854.266 537.851 858.061 540.31 860.852 541.823C867.328 545.228 879.273 558.279 880.166 563.008C880.613 564.899 880.613 567.926 880.278 569.439C879.831 571.141 881.841 576.059 885.413 582.49C888.874 588.732 891.33 591.759 891.665 590.435C892 589.111 889.879 584.193 887.088 579.464C883.292 573.033 881.952 569.25 881.729 563.954C881.394 558.09 880.501 556.198 875.254 549.767C871.905 545.795 866.881 541.445 864.09 539.931C861.299 538.418 856.945 535.392 854.377 533.311C848.237 528.204 845.446 528.393 840.311 534.068L836.18 538.986L835.064 533.689C834.394 530.852 833.612 527.258 833.389 525.934C832.943 523.664 824.905 522.908 822.002 524.989Z" fill="white" fill-opacity="0.1"/>
<path d="M890.1 539.932C889.765 541.445 889.988 543.715 890.77 545.039C891.663 546.552 891.998 545.795 891.998 542.012C891.998 536.338 891.216 535.392 890.1 539.932Z" fill="white" fill-opacity="0.1"/>
<path d="M809.61 542.953C809.833 546.546 810.726 547.492 814.745 547.87C818.318 548.249 819.658 547.681 820.216 545.411C821.109 541.25 818.764 538.791 813.517 538.791C809.722 538.791 809.275 539.359 809.61 542.953ZM817.09 542.385C818.206 543.52 818.206 544.277 817.201 545.411C815.527 547.303 810.28 544.844 811.061 542.574C811.954 540.304 814.969 540.115 817.09 542.385Z" fill="white" fill-opacity="0.1"/>
<path d="M547.031 557.705C547.031 560.731 547.589 561.677 549.599 561.11C550.939 560.731 552.055 559.218 552.055 557.705C552.055 556.192 550.939 554.678 549.599 554.3C547.589 553.733 547.031 554.678 547.031 557.705Z" fill="white" fill-opacity="0.1"/>
<path d="M887.535 557.52C884.409 559.033 883.181 564.897 885.526 567.356C886.307 568.302 888.205 568.869 889.768 568.869L892.559 568.68L889.545 566.788C885.749 564.519 885.526 562.06 888.875 561.114C890.215 560.736 891.443 559.412 891.778 558.088C892.224 555.629 891.778 555.439 887.535 557.52Z" fill="white" fill-opacity="0.1"/>
<path d="M781.251 574.923C780.135 575.869 779.242 578.328 779.13 580.03C779.13 582.3 778.795 581.921 778.014 578.895C777.232 575.112 776.339 574.544 772.32 575.112C768.078 575.679 767.52 576.247 767.52 580.408C767.52 584.569 767.966 585.137 771.762 585.137C774.218 585.137 775.892 586.083 775.892 587.407C775.892 590.433 780.135 594.216 782.144 592.892C783.037 592.325 783.707 590.622 783.707 588.92C783.707 587.407 784.377 586.083 785.27 586.083C786.163 586.083 787.615 585.515 788.508 584.948C789.624 584.38 790.406 585.515 790.852 588.731C791.745 594.973 795.541 595.162 800.788 589.298C802.909 587.028 805.589 584.191 806.705 583.056C808.491 581.165 808.603 580.597 807.263 577.76C804.695 572.464 794.983 574.544 792.415 581.165C791.857 582.489 791.522 582.111 791.522 580.03C791.522 578.328 791.187 576.436 790.741 576.058C788.508 573.788 782.926 573.031 781.251 574.923ZM786.833 577.949C788.843 578.706 789.066 579.462 787.95 580.597C785.493 583.245 781.474 582.489 781.474 579.462C781.474 576.436 782.814 576.058 786.833 577.949ZM774.776 580.408C772.543 582.867 769.529 582.867 768.636 580.408C768.189 579.273 769.641 578.517 772.208 578.517C775.334 578.517 776.004 579.084 774.776 580.408ZM804.919 579.652C804.919 580.219 803.244 581.921 801.346 583.435C799.337 584.948 796.769 587.218 795.764 588.353C792.415 592.325 791.969 587.785 795.206 583.056C797.997 579.084 804.919 576.625 804.919 579.652Z" fill="white" fill-opacity="0.1"/>
<path d="M856.839 599.322C855.834 602.538 854.718 609.347 854.383 614.265C854.048 619.75 852.708 625.803 851.257 628.83L848.689 634.315L844.894 630.91C842.884 629.019 839.982 625.992 838.53 624.101C835.962 620.885 835.963 620.507 837.86 615.778C840.875 608.023 839.758 602.538 834.511 599.7C826.92 595.35 815.979 600.646 811.96 610.482C810.397 614.454 809.281 615.778 808.722 614.265C808.276 612.752 806.043 612.563 802.359 613.319C797.447 614.265 795.996 615.589 792.423 622.209C790.079 626.56 788.181 630.721 788.181 631.667C788.181 632.613 787.176 633.369 786.06 633.369C784.832 633.369 782.934 636.017 781.594 639.99C779.026 647.366 773.221 654.176 769.537 654.176C767.193 654.176 765.183 655.5 753.908 664.012C747.656 668.93 746.874 673.658 746.874 708.084C746.874 734.376 746.651 737.024 744.53 740.807C743.078 743.455 742.409 747.049 742.632 750.265C743.19 758.209 749.33 760.101 758.373 754.993C762.169 752.724 767.862 750.265 770.877 749.508C774.003 748.941 778.245 747.049 780.366 745.536C782.487 744.023 786.841 741.564 789.855 740.05C800.796 734.943 806.043 737.402 810.397 749.886C811.625 753.48 813.3 756.317 814.193 756.317C814.974 756.317 816.984 757.452 818.658 758.587C821.226 760.668 821.673 762.181 821.673 768.801C821.673 778.637 823.236 780.907 831.162 782.231C834.511 782.799 837.637 784.123 837.972 784.879C838.977 787.717 842.996 786.771 845.898 782.799C847.461 780.718 850.364 779.016 852.262 779.016C855.053 779.016 856.951 776.746 862.421 766.532C869.901 752.345 870.794 751.021 876.599 742.888C882.963 733.998 886.089 723.216 887.652 704.868C889.103 688.601 889.103 688.601 886.2 682.17C884.637 678.766 881.735 670.443 879.725 663.633C877.716 656.824 875.26 649.636 874.143 647.556C872.915 645.097 872.022 639.422 871.575 631.667C871.129 623.533 870.236 617.859 868.561 614.076C867.222 611.049 865.547 605.375 864.765 601.592C862.868 592.134 859.295 591.189 856.839 599.322ZM862.421 602.916C862.756 606.132 864.654 611.806 866.44 615.589C869.231 621.642 869.678 624.101 869.678 634.315C869.678 643.205 870.124 646.799 871.687 649.258C872.915 650.96 875.26 657.202 876.934 663.255C878.72 669.119 881.623 677.631 883.409 681.981C886.535 689.358 886.647 690.871 886.2 702.22C885.53 716.217 880.73 732.484 875.148 739.672C871.241 744.779 869.678 747.238 860.746 763.694C855.946 772.395 853.602 775.422 852.262 774.476C851.145 773.719 848.689 775.233 846.122 778.07C840.986 783.744 840.875 783.744 838.195 779.772C836.744 777.502 835.851 777.124 834.846 778.637C832.948 781.096 828.483 779.583 825.133 775.422C823.012 772.774 822.789 771.26 823.571 768.612C824.352 766.342 824.352 763.505 823.459 759.911C822.566 755.561 821.784 754.615 820.11 755.561C817.877 756.696 817.877 756.696 819.886 751.589C821.003 748.751 821.561 746.103 821.226 745.347C820.891 744.779 820.556 745.536 820.556 746.86C820.556 748.184 820.221 748.751 819.775 748.184C819.44 747.427 817.877 748.184 816.537 749.697C814.081 752.345 813.858 752.156 812.072 746.86C810.955 743.834 808.611 739.483 806.825 737.213C804.034 733.809 802.471 733.241 796.665 733.998C792.758 734.565 786.618 737.213 782.599 740.24C778.58 743.077 772.328 746.103 768.644 746.86C764.96 747.617 760.048 749.508 757.815 751.21C752.456 755.372 746.428 755.372 744.53 751.21C743.302 748.751 743.302 747.995 744.418 747.238C745.2 746.86 746.763 743.077 747.879 739.105C749.554 733.241 749.777 730.404 748.995 725.486C748.326 721.892 748.214 713.569 748.772 705.247C749.219 697.492 749.442 688.791 749.33 685.953C748.884 678.576 751.898 667.417 754.354 667.417C755.47 667.417 757.368 666.282 758.596 664.958C761.834 661.364 770.542 656.067 773.333 656.067C776.347 656.067 782.152 647.934 784.385 640.557C785.278 637.531 786.73 635.45 787.511 635.828C788.181 636.396 790.86 632.613 793.205 627.695C799.01 615.778 802.917 613.13 807.16 618.237C811.402 623.344 812.072 622.966 813.3 615.967C813.97 612.752 815.198 609.536 816.091 608.78C816.984 608.023 819.44 606.132 821.449 604.429C823.571 602.727 826.585 601.214 828.259 601.214C831.497 601.214 838.419 604.618 838.419 606.321C838.419 606.888 837.414 609.725 836.074 612.752C832.837 620.507 834.065 624.479 841.991 632.613L848.913 639.8L852.373 632.802C854.941 627.884 856.169 623.155 856.616 616.724C857.844 599.322 860.97 591.945 862.421 602.916Z" fill="white" fill-opacity="0.1"/>
<path d="M499.031 602.537C499.143 608.59 501.934 612.941 505.395 612.184C509.079 611.427 510.307 605.564 507.181 603.861C506.065 603.294 504.278 601.97 503.274 601.024C500.371 598.376 499.031 598.943 499.031 602.537Z" fill="white" fill-opacity="0.1"/>
<path d="M521.241 605.378C519.678 610.674 510.077 625.617 508.291 625.806C505.277 625.995 503.49 631.859 503.49 641.884C503.49 648.882 502.709 654.557 501.146 659.286C499.248 665.149 498.913 668.554 499.36 677.444C499.695 683.497 500.588 689.55 501.258 691.063C502.932 694.657 512.422 694.846 514.878 691.441C515.882 690.306 517.892 681.984 519.455 673.094C520.906 664.203 523.809 649.828 525.707 640.938C529.614 622.969 529.949 617.294 527.605 607.836C525.707 600.27 523.139 599.325 521.241 605.378ZM526.935 619.564C526.935 623.725 521.464 651.909 518.45 663.069C517.557 666.284 516.887 671.202 516.887 673.85C516.887 686.712 509.631 695.603 504.049 689.361C501.704 686.712 501.258 684.821 501.258 676.309C501.258 669.878 502.039 664.393 503.49 660.42C505.165 655.692 505.5 652.287 505.053 646.045C504.272 636.398 505.723 630.535 509.296 628.454C512.98 626.562 520.906 614.835 522.469 608.971L523.92 604.053L525.372 609.728C526.153 612.754 526.823 617.294 526.935 619.564Z" fill="white" fill-opacity="0.1"/>
<path d="M550.048 653.42C548.262 656.447 549.378 659.852 552.169 659.852C554.29 659.852 554.96 658.906 554.625 656.636C554.29 653.042 551.387 651.151 550.048 653.42Z" fill="white" fill-opacity="0.1"/>
<path d="M828.475 800.584C826.577 811.743 827.359 814.959 831.936 814.959C837.965 814.959 843.993 806.636 843.993 798.503C843.993 795.476 843.323 794.152 841.872 794.152C840.756 794.152 837.63 793.585 834.95 793.017L830.038 791.883L828.475 800.584ZM839.416 796.611C841.872 795.666 842.318 797.179 841.09 802.664C840.197 806.258 832.048 813.635 830.485 812.122C829.48 810.987 830.15 799.259 831.378 795.666C831.601 794.909 832.941 795.098 834.392 796.044C835.843 796.99 838.076 797.179 839.416 796.611Z" fill="white" fill-opacity="0.1"/>
<path d="M889.989 822.903C889.43 824.227 888.649 828.389 888.426 831.982C888.202 836.9 888.537 838.603 890.1 839.17C892.221 839.927 892.891 833.117 890.882 831.037C890.1 830.28 890.212 828.578 890.993 826.119C892.333 821.579 891.775 819.498 889.989 822.903Z" fill="white" fill-opacity="0.1"/>
</svg>
